<svg width="15" height="15" viewBox="0 0 15 15" fill="none" xmlns="http://www.w3.org/2000/svg">
<circle cx="7.5" cy="7.44824" r="7" fill="#5865F2"/>
<g clip-path="url(#clip0_1200_15727)">
<path d="M10.8074 4.78681C11.7986 6.2485 12.2882 7.89725 12.1052 9.79533C12.1044 9.80336 12.1002 9.81073 12.0936 9.81557C11.343 10.3684 10.6157 10.7039 9.8986 10.9264C9.89301 10.9281 9.88704 10.928 9.88151 10.9261C9.87598 10.9242 9.87118 10.9207 9.86777 10.9159C9.7021 10.6847 9.55157 10.441 9.4197 10.1851C9.41213 10.17 9.41904 10.1518 9.43462 10.1459C9.67368 10.0556 9.90101 9.94728 10.1197 9.81909C10.1369 9.80897 10.138 9.78421 10.1221 9.77233C10.0757 9.73778 10.0297 9.70147 9.98571 9.66516C9.97748 9.65844 9.9664 9.65712 9.95707 9.66164C8.53749 10.3191 6.98241 10.3191 5.54604 9.66164C5.53671 9.65745 5.52563 9.65889 5.51762 9.66549C5.47374 9.7018 5.42766 9.73778 5.38169 9.77233C5.36578 9.78421 5.3671 9.80897 5.38443 9.81909C5.60309 9.94486 5.83042 10.0556 6.06915 10.1463C6.08462 10.1523 6.09197 10.17 6.0843 10.1851C5.95527 10.4413 5.80474 10.6851 5.63601 10.9162C5.62865 10.9256 5.61659 10.9299 5.60518 10.9264C4.89149 10.7039 4.1642 10.3684 3.41354 9.81557C3.40728 9.81073 3.40279 9.80303 3.40213 9.795C3.24919 8.15318 3.56088 6.4908 4.69872 4.78648C4.70147 4.78197 4.70563 4.77845 4.71046 4.77636C5.27033 4.51866 5.87013 4.32907 6.49704 4.2208C6.50845 4.21904 6.51986 4.22432 6.52578 4.23444C6.60324 4.37199 6.69178 4.54837 6.75168 4.69252C7.41249 4.59128 8.08361 4.59128 8.75823 4.69252C8.81814 4.55145 8.9036 4.37199 8.98073 4.23444C8.98348 4.22942 8.98774 4.2254 8.9929 4.22295C8.99806 4.2205 9.00386 4.21975 9.00948 4.2208C9.63671 4.3294 10.2365 4.51899 10.7959 4.77636C10.8009 4.77845 10.8049 4.78197 10.8074 4.78681ZM7.08763 7.90847C7.09454 7.42311 6.7417 7.02149 6.29878 7.02149C5.85949 7.02149 5.51005 7.41959 5.51005 7.90847C5.51005 8.39724 5.8664 8.79534 6.29878 8.79534C6.73819 8.79534 7.08763 8.39724 7.08763 7.90847ZM10.004 7.90847C10.0109 7.42311 9.6581 7.02149 9.2153 7.02149C8.7759 7.02149 8.42646 7.41959 8.42646 7.90847C8.42646 8.39724 8.78281 8.79534 9.2153 8.79534C9.6581 8.79534 10.004 8.39724 10.004 7.90847Z" fill="white"/>
</g>
<defs>
<clipPath id="clip0_1200_15727">
<rect width="9.15385" height="6.71282" fill="white" transform="translate(3.19202 4.21643)"/>
</clipPath>
</defs>
</svg>
