<svg width="14" height="14" viewBox="0 0 14 14" fill="none" xmlns="http://www.w3.org/2000/svg">
<circle cx="7" cy="7" r="7" fill="#1E3A8A"/>
<path d="M10.0151 7.00067C10.015 6.32858 9.7904 5.67577 9.37692 5.14591C8.96344 4.61605 8.38479 4.23952 7.73286 4.07611C7.08093 3.91269 6.3931 3.97176 5.77857 4.24394C5.16405 4.51611 4.65808 4.98579 4.34099 5.57839C4.02391 6.17099 3.91389 6.85253 4.02841 7.5148C4.14293 8.17707 4.47543 8.7821 4.9731 9.23381C5.47077 9.68551 6.10508 9.95801 6.77532 10.008C7.44555 10.058 8.11329 9.8827 8.67248 9.50985L9.09087 10.137C8.47204 10.5508 7.74411 10.7711 6.9997 10.7699C4.91795 10.7699 3.23047 9.08242 3.23047 7.00067C3.23047 4.91893 4.91795 3.23145 6.9997 3.23145C9.08145 3.23145 10.7689 4.91893 10.7689 7.00067V7.56606C10.769 7.84828 10.6785 8.12308 10.5108 8.35008C10.3431 8.57708 10.1071 8.74433 9.83731 8.82725C9.56754 8.91017 9.27829 8.90439 9.01205 8.81077C8.74582 8.71714 8.51662 8.54061 8.35813 8.30709C8.10656 8.56867 7.78481 8.75205 7.43155 8.8352C7.07828 8.91835 6.70851 8.89773 6.36668 8.77582C6.02485 8.65391 5.72549 8.43589 5.50456 8.14796C5.28364 7.86002 5.15055 7.51443 5.12128 7.15269C5.09202 6.79095 5.16782 6.42845 5.33959 6.10875C5.51136 5.78905 5.77178 5.52574 6.08957 5.35047C6.40736 5.17519 6.769 5.0954 7.13104 5.12068C7.49308 5.14596 7.84012 5.27524 8.13047 5.49298H8.88432V7.56606C8.88432 7.71601 8.94388 7.85982 9.04991 7.96585C9.15594 8.07188 9.29975 8.13144 9.4497 8.13144C9.59965 8.13144 9.74346 8.07188 9.84949 7.96585C9.95552 7.85982 10.0151 7.71601 10.0151 7.56606V7.00067ZM6.9997 5.86991C6.6998 5.86991 6.41219 5.98904 6.20012 6.2011C5.98806 6.41316 5.86893 6.70078 5.86893 7.00067C5.86893 7.30057 5.98806 7.58819 6.20012 7.80025C6.41219 8.01231 6.6998 8.13144 6.9997 8.13144C7.2996 8.13144 7.58721 8.01231 7.79927 7.80025C8.01133 7.58819 8.13047 7.30057 8.13047 7.00067C8.13047 6.70078 8.01133 6.41316 7.79927 6.2011C7.58721 5.98904 7.2996 5.86991 6.9997 5.86991Z" fill="white"/>
</svg>
