<svg width="14" height="14" viewBox="0 0 14 14" fill="none" xmlns="http://www.w3.org/2000/svg">
<g clip-path="url(#clip0_1330_10322)">
<circle cx="6.94482" cy="7.15381" r="6.86768" fill="white"/>
<path d="M6.97293 0.25C3.12238 0.25 0 3.34451 0 7.1619C0 10.2158 1.99795 12.8067 4.76853 13.7206C5.117 13.7846 5.24497 13.5707 5.24497 13.3881C5.24497 13.2233 5.23846 12.6788 5.23551 12.1012C3.29558 12.5194 2.88624 11.2857 2.88624 11.2857C2.56905 10.4868 2.11203 10.2744 2.11203 10.2744C1.47941 9.8454 2.15972 9.85418 2.15972 9.85418C2.85994 9.90297 3.22864 10.5665 3.22864 10.5665C3.85055 11.6232 4.85986 11.3177 5.25777 11.1411C5.32033 10.6943 5.50107 10.3894 5.70046 10.2168C4.15171 10.042 2.52355 9.44935 2.52355 6.80092C2.52355 6.04634 2.79595 5.42971 3.24204 4.94568C3.16963 4.77156 2.93098 4.06858 3.30958 3.11651C3.30958 3.11651 3.89512 2.93074 5.22763 3.82502C5.7838 3.67183 6.38034 3.59507 6.97293 3.59246C7.56552 3.59507 8.16249 3.67183 8.71976 3.82502C10.0507 2.93074 10.6354 3.11651 10.6354 3.11651C11.0149 4.06858 10.7762 4.77156 10.7038 4.94568C11.1508 5.42971 11.4214 6.04628 11.4214 6.80092C11.4214 9.45564 9.79016 10.0402 8.23747 10.2113C8.48755 10.4258 8.71041 10.8465 8.71041 11.4913C8.71041 12.4161 8.70231 13.1604 8.70231 13.3881C8.70231 13.572 8.82782 13.7876 9.18132 13.7197C11.9504 12.8047 13.9458 10.2148 13.9458 7.1619C13.9458 3.34451 10.8239 0.25 6.97293 0.25Z" fill="#161614"/>
<path d="M2.61157 10.0962C2.59625 10.1305 2.54167 10.1408 2.49207 10.1173C2.44149 10.0947 2.41305 10.0479 2.42946 10.0134C2.4445 9.97809 2.49907 9.96822 2.54955 9.99197C2.60024 10.0145 2.62912 10.0617 2.61157 10.0962ZM2.95457 10.3996C2.92132 10.4301 2.85629 10.4159 2.81216 10.3676C2.76655 10.3194 2.75802 10.255 2.79176 10.224C2.82605 10.1935 2.8891 10.2077 2.93482 10.256C2.98043 10.3047 2.98929 10.3687 2.95451 10.3996M3.18989 10.7877C3.14712 10.8171 3.07723 10.7895 3.03408 10.7281C2.99137 10.6667 2.99137 10.5929 3.03501 10.5634C3.07832 10.5338 3.14712 10.5604 3.19087 10.6214C3.23353 10.6839 3.23353 10.7576 3.18983 10.7878M3.58779 11.2373C3.54957 11.279 3.46819 11.2678 3.40858 11.2108C3.34766 11.1551 3.33065 11.076 3.36899 11.0342C3.40765 10.9923 3.48952 11.0041 3.54957 11.0606C3.6101 11.1163 3.62853 11.1959 3.58779 11.2373ZM4.10207 11.389C4.08528 11.4431 4.00686 11.4677 3.92789 11.4448C3.84903 11.4211 3.79741 11.3577 3.81332 11.303C3.82973 11.2485 3.90848 11.2228 3.98805 11.2474C4.0668 11.271 4.11848 11.334 4.10207 11.389ZM4.68745 11.4534C4.68942 11.5104 4.62242 11.5577 4.53952 11.5587C4.45612 11.5605 4.38869 11.5144 4.38782 11.4583C4.38782 11.4007 4.45328 11.3539 4.53662 11.3526C4.61953 11.3509 4.68745 11.3967 4.68745 11.4534ZM5.26243 11.4315C5.27239 11.4872 5.21475 11.5443 5.13244 11.5595C5.0515 11.5741 4.97658 11.5398 4.96624 11.4847C4.95618 11.4276 5.01492 11.3706 5.09569 11.3558C5.17816 11.3416 5.25193 11.375 5.26243 11.4315Z" fill="#161614"/>
</g>
<defs>
<clipPath id="clip0_1330_10322">
<rect width="14" height="13.5" fill="white" transform="translate(0 0.25)"/>
</clipPath>
</defs>
</svg>
