<svg width="15" height="15" viewBox="0 0 15 15" fill="none" xmlns="http://www.w3.org/2000/svg">
<path d="M7.49999 0.448242C3.63398 0.448242 0.5 3.58222 0.5 7.44824C0.5 11.3143 3.63398 14.4482 7.49999 14.4482C11.366 14.4482 14.5 11.3143 14.5 7.44824C14.5 3.58222 11.3659 0.448242 7.49999 0.448242ZM5.63238 10.8324H4.09546V5.86707H5.63238V10.8324ZM4.85659 5.21682C4.35465 5.21682 3.94774 4.80659 3.94774 4.30063C3.94774 3.79461 4.35471 3.3844 4.85659 3.3844C5.35848 3.3844 5.76539 3.79461 5.76539 4.30063C5.76542 4.80662 5.35851 5.21682 4.85659 5.21682ZM11.392 10.8324H9.86251V8.22602C9.86251 7.51116 9.59097 7.11212 9.02571 7.11212C8.41053 7.11212 8.08914 7.52772 8.08914 8.22602V10.8324H6.61506V5.86707H8.08914V6.53582C8.08914 6.53582 8.53255 5.71561 9.5854 5.71561C10.6383 5.71561 11.392 6.35849 11.392 7.68843L11.392 10.8324Z" fill="url(#paint0_linear_1200_15712)"/>
<defs>
<linearGradient id="paint0_linear_1200_15712" x1="2.55025" y1="2.49849" x2="12.4497" y2="12.398" gradientUnits="userSpaceOnUse">
<stop stop-color="#2489BE"/>
<stop offset="1" stop-color="#0575B3"/>
</linearGradient>
</defs>
</svg>
