<svg width="14" height="14" viewBox="0 0 14 14" fill="none" xmlns="http://www.w3.org/2000/svg">
<path d="M7 14C10.866 14 14 10.866 14 7C14 3.13401 10.866 0 7 0C3.13401 0 0 3.13401 0 7C0 10.866 3.13401 14 7 14Z" fill="#E4B845"/>
<mask id="mask0_1526_23071" style="mask-type:luminance" maskUnits="userSpaceOnUse" x="2" y="3" width="10" height="9">
<path d="M11.3078 3.23071H2.69238V11.8461H11.3078V3.23071Z" fill="white"/>
</mask>
<g mask="url(#mask0_1526_23071)">
<path d="M8.795 7.17952H8.0771V6.46152H8.795M7.3591 7.17952H6.6412V6.46152H7.3591M5.92322 7.17952H5.20527V6.46152H5.92322M9.8719 3.94873H4.12835C3.93794 3.94873 3.75532 4.02437 3.62068 4.15901C3.48604 4.29365 3.4104 4.47627 3.4104 4.66668V11.1282L4.8463 9.69232H9.8719C10.0624 9.69232 10.245 9.61672 10.3796 9.48202C10.5142 9.34742 10.5899 9.16482 10.5899 8.97432V4.66668C10.5899 4.47627 10.5142 4.29365 10.3796 4.15901C10.245 4.02437 10.0624 3.94873 9.8719 3.94873Z" fill="white"/>
</g>
</svg>
