<svg width="15" height="15" viewBox="0 0 15 15" fill="none" xmlns="http://www.w3.org/2000/svg">
<g clip-path="url(#clip0_1200_15738)">
<path d="M7.5 0.448242C5.64391 0.448242 3.86219 1.1862 2.55078 2.49848C1.23802 3.81128 0.500364 5.59169 0.5 7.44824C0.5 9.30401 1.23828 11.0857 2.55078 12.398C3.86219 13.7103 5.64391 14.4482 7.5 14.4482C9.35609 14.4482 11.1378 13.7103 12.4492 12.398C13.7617 11.0857 14.5 9.30401 14.5 7.44824C14.5 5.59248 13.7617 3.81076 12.4492 2.49848C11.1378 1.1862 9.35609 0.448242 7.5 0.448242Z" fill="url(#paint0_linear_1200_15738)"/>
<path d="M3.66898 7.37524C5.70992 6.48624 7.07054 5.9001 7.75086 5.61693C9.69555 4.80832 10.0991 4.66789 10.3627 4.66313C10.4207 4.6622 10.5498 4.67653 10.634 4.74461C10.704 4.80203 10.7237 4.87969 10.7335 4.93421C10.7423 4.98868 10.7543 5.11282 10.7445 5.20973C10.6395 6.3166 10.1834 9.00264 9.95148 10.2424C9.85414 10.767 9.66054 10.9428 9.47351 10.96C9.06664 10.9974 8.7582 10.6914 8.36445 10.4334C7.74867 10.0294 7.40086 9.7781 6.80258 9.38403C6.11133 8.92859 6.55976 8.67823 6.95351 8.26917C7.05633 8.16209 8.84789 6.53295 8.88179 6.38518C8.88617 6.3667 8.89055 6.29779 8.84898 6.26148C8.80851 6.22506 8.74836 6.23753 8.70461 6.24737C8.64226 6.26137 7.65898 6.91193 5.75148 8.19895C5.47258 8.39079 5.21992 8.48431 4.99242 8.47938C4.74304 8.47403 4.2618 8.33807 3.90414 8.22192C3.46664 8.0794 3.11773 8.00404 3.14836 7.76199C3.16367 7.63599 3.33758 7.50704 3.66898 7.37524Z" fill="white"/>
</g>
<defs>
<linearGradient id="paint0_linear_1200_15738" x1="700.5" y1="0.448242" x2="700.5" y2="1400.45" gradientUnits="userSpaceOnUse">
<stop stop-color="#2AABEE"/>
<stop offset="1" stop-color="#229ED9"/>
</linearGradient>
<clipPath id="clip0_1200_15738">
<rect width="14" height="14" fill="white" transform="translate(0.5 0.448242)"/>
</clipPath>
</defs>
</svg>
