<svg width="14" height="14" viewBox="0 0 14 14" fill="none" xmlns="http://www.w3.org/2000/svg">
<path d="M7 14C10.866 14 14 10.866 14 7C14 3.13401 10.866 0 7 0C3.13401 0 0 3.13401 0 7C0 10.866 3.13401 14 7 14Z" fill="#5D00A7"/>
<path d="M7.95996 11.376C8.40686 10.5867 8.72446 9.73076 8.90086 8.84106H11.151C10.874 9.49706 10.4367 10.073 9.87906 10.516C9.32156 10.9589 8.66156 11.2546 7.95996 11.376Z" fill="white"/>
<path d="M6.79596 11.013C6.83866 11.0923 6.90206 11.1587 6.97946 11.2049C7.05676 11.2512 7.14526 11.2756 7.23536 11.2756C7.32556 11.2756 7.41396 11.2512 7.49136 11.2049C7.56876 11.1587 7.63216 11.0923 7.67486 11.013C8.04176 10.3307 8.30866 9.59926 8.46716 8.84106H6.00366C6.16216 9.59926 6.42906 10.3307 6.79596 11.013Z" fill="white"/>
<path d="M6.5109 11.376C5.8092 11.2546 5.14928 10.9589 4.5917 10.516C4.03413 10.073 3.59678 9.49706 3.31982 8.84106H5.56988C5.74628 9.73076 6.064 10.5867 6.5109 11.376Z" fill="white"/>
<path d="M8.97412 5.95996C9.09302 6.7744 9.09302 7.6017 8.97412 8.4161H11.3044C11.5461 7.6152 11.5461 6.7608 11.3044 5.95996H8.97412Z" fill="white"/>
<path d="M8.5445 8.4161C8.6697 7.6022 8.6697 6.7739 8.5445 5.95996H5.92669C5.80146 6.7739 5.80146 7.6022 5.92669 8.4161H8.5445Z" fill="white"/>
<path d="M5.4967 8.4161C5.37779 7.6017 5.37779 6.7744 5.4967 5.95996H3.16639C2.92468 6.7608 2.92468 7.6152 3.16639 8.4161H5.4967Z" fill="white"/>
<path d="M7.95996 3C8.40686 3.78937 8.72446 4.64518 8.90086 5.53496H11.151C10.874 4.87894 10.4367 4.303 9.87906 3.86007C9.32156 3.41714 8.66156 3.1214 7.95996 3Z" fill="white"/>
<path d="M6.79596 3.36295C6.42906 4.04517 6.16216 4.77664 6.00366 5.53487H8.46716C8.30866 4.77665 8.04176 4.04517 7.67486 3.36295C7.63216 3.28357 7.56876 3.21724 7.49136 3.171C7.41396 3.12476 7.32556 3.10034 7.23536 3.10034C7.14526 3.10034 7.05676 3.12476 6.97946 3.171C6.90206 3.21724 6.83866 3.28357 6.79596 3.36295Z" fill="white"/>
<path d="M3.31982 5.53496H5.56988C5.74628 4.64518 6.064 3.78937 6.5109 3C5.8092 3.1214 5.14928 3.41714 4.59171 3.86007C4.03413 4.303 3.59679 4.87894 3.31982 5.53496Z" fill="white"/>
</svg>
