<svg width="375" height="109" viewBox="0 0 375 109" fill="none" xmlns="http://www.w3.org/2000/svg">
<g clip-path="url(#clip0_4986_11608)">
<rect width="375" height="109" fill="url(#paint0_linear_4986_11608)"/>
<g style="mix-blend-mode:screen">
<path d="M234.486 -5.34142L252.159 5.58508V27.4381L234.486 38.3646L216.813 27.4381V5.58508L234.486 -5.34142Z" fill="#161818" stroke="#434343" stroke-width="0.5" stroke-linecap="round"/>
<path d="M216.805 50.4552L238.298 63.7435V90.32L216.805 103.608L195.312 90.32V63.7435L216.805 50.4552Z" fill="#161818" stroke="#434343" stroke-width="0.5" stroke-linecap="round"/>
<path d="M214.743 61.1465C216.032 60.3495 217.661 60.3495 218.95 61.1465L228.834 67.2575C230.013 67.9864 230.731 69.2737 230.731 70.6598V83.3684C230.731 84.7545 230.013 86.0418 228.834 86.7707L218.95 92.8817C217.661 93.6787 216.032 93.6787 214.743 92.8817L204.859 86.7707C203.68 86.0418 202.962 84.7545 202.962 83.3684V70.6598C202.962 69.2737 203.68 67.9864 204.859 67.2575L214.743 61.1465Z" stroke="#434343" stroke-width="0.5" stroke-linecap="round"/>
<g filter="url(#filter0_d_4986_11608)">
<path d="M216.847 67.9673L224.197 72.5031V81.5747L216.847 86.1106L209.496 81.5747V72.5031L216.847 67.9673Z" fill="#82D8B4"/>
</g>
<path d="M216.281 60.1861C216.603 59.9875 217.01 59.9875 217.332 60.1861L230.251 68.1576C230.546 68.3398 230.725 68.6618 230.725 69.0087V85.0697C230.725 85.4166 230.546 85.7386 230.251 85.9208L217.332 93.8923C217.01 94.0909 216.603 94.0909 216.281 93.8923L203.363 85.9208C203.067 85.7386 202.888 85.4166 202.888 85.0697V69.0087C202.888 68.6618 203.067 68.3398 203.363 68.1576L216.281 60.1861Z" stroke="#1AFFC8" stroke-linecap="round"/>
<g style="mix-blend-mode:screen" opacity="0.6">
<mask id="mask0_4986_11608" style="mask-type:alpha" maskUnits="userSpaceOnUse" x="202" y="59" width="29" height="36">
<rect x="202.994" y="59.8621" width="27.6238" height="34.3542" fill="#D9D9D9"/>
</mask>
<g mask="url(#mask0_4986_11608)">
<path d="M216.783 60.1229L230.579 68.6463V85.6931L216.783 94.2165L202.988 85.6931V68.6463L216.783 60.1229Z" fill="url(#paint1_linear_4986_11608)"/>
<path d="M202.994 68.6497L216.586 59.9043L230.618 68.6463L216.586 78.2623L202.994 68.6497Z" fill="url(#paint2_linear_4986_11608)"/>
<path d="M216.783 94.2165L216.573 78.2624L230.616 68.6463L230.616 85.9116L216.783 94.2165Z" fill="#131212"/>
</g>
</g>
<path d="M252.078 27.3704L277.906 41.7533" stroke="#434343" stroke-width="0.5"/>
<path d="M305.992 71.544L329.593 86.1352V115.317L305.992 129.909L282.392 115.317V86.1352L305.992 71.544Z" fill="#161818" stroke="#434343" stroke-width="0.5" stroke-linecap="round"/>
<mask id="mask1_4986_11608" style="mask-type:alpha" maskUnits="userSpaceOnUse" x="291" y="1" width="16" height="20">
<rect x="291.001" y="1.23914" width="15.4581" height="19.2245" fill="#D9D9D9"/>
</mask>
<g mask="url(#mask1_4986_11608)">
<path d="M298.718 1.38444L306.438 6.1541V15.6934L298.718 20.4631L290.998 15.6934V6.1541L298.718 1.38444Z" fill="url(#paint3_linear_4986_11608)"/>
<path d="M291.001 6.15598L298.607 1.26208L306.459 6.15404L298.607 11.5351L291.001 6.15598Z" fill="url(#paint4_linear_4986_11608)"/>
<path d="M298.718 20.463L298.6 11.5352L306.459 6.15405L306.459 15.8157L298.718 20.463Z" fill="#131212"/>
</g>
<mask id="mask2_4986_11608" style="mask-type:alpha" maskUnits="userSpaceOnUse" x="274" y="31" width="26" height="33">
<rect x="274.72" y="31.9808" width="25.2016" height="31.3419" fill="#D9D9D9"/>
</mask>
<g mask="url(#mask2_4986_11608)">
<path d="M287.301 32.2194L299.887 39.9955V55.5476L287.301 63.3236L274.715 55.5476V39.9955L287.301 32.2194Z" fill="url(#paint5_linear_4986_11608)"/>
<path d="M274.72 39.9994L287.12 32.0208L299.921 39.9963L287.12 48.7691L274.72 39.9994Z" fill="url(#paint6_linear_4986_11608)"/>
<path d="M287.302 63.3239L287.111 48.7688L299.923 39.9958L299.923 55.7473L287.302 63.3239Z" fill="#131212"/>
</g>
<mask id="mask3_4986_11608" style="mask-type:alpha" maskUnits="userSpaceOnUse" x="187" y="-19" width="20" height="25">
<rect x="187.804" y="-18.048" width="19.1136" height="23.7706" fill="#D9D9D9"/>
</mask>
<g mask="url(#mask3_4986_11608)">
<path d="M197.345 -17.8685L206.89 -11.9709V-0.175802L197.345 5.72176L187.799 -0.175802V-11.9709L197.345 -17.8685Z" fill="url(#paint7_linear_4986_11608)"/>
<path d="M197.346 5.72196L197.201 -5.31706L206.918 -11.9707L206.918 -0.0243789L197.346 5.72196Z" fill="#131212"/>
</g>
<mask id="mask4_4986_11608" style="mask-type:alpha" maskUnits="userSpaceOnUse" x="254" y="46" width="9" height="11">
<rect x="254.624" y="46.993" width="7.67709" height="9.5476" fill="#D9D9D9"/>
</mask>
<g mask="url(#mask4_4986_11608)">
<path d="M258.456 47.0657L262.29 49.4345V54.172L258.456 56.5408L254.622 54.172V49.4345L258.456 47.0657Z" fill="url(#paint8_linear_4986_11608)"/>
<path d="M254.624 49.4353L258.401 47.0048L262.301 49.4344L258.401 52.1068L254.624 49.4353Z" fill="url(#paint9_linear_4986_11608)"/>
<path d="M258.456 56.5407L258.398 52.1068L262.301 49.4343L262.301 54.2326L258.456 56.5407Z" fill="#131212"/>
</g>
<mask id="mask5_4986_11608" style="mask-type:alpha" maskUnits="userSpaceOnUse" x="257" y="67" width="9" height="11">
<rect x="257.402" y="67.4834" width="7.67709" height="9.5476" fill="#D9D9D9"/>
</mask>
<g mask="url(#mask5_4986_11608)">
<path d="M261.235 67.556L265.069 69.9248V74.6624L261.235 77.0312L257.401 74.6624V69.9248L261.235 67.556Z" fill="url(#paint10_linear_4986_11608)"/>
<path d="M257.402 69.9257L261.18 67.4952L265.079 69.9247L261.18 72.5971L257.402 69.9257Z" fill="url(#paint11_linear_4986_11608)"/>
<path d="M261.234 77.031L261.176 72.5971L265.079 69.9246L265.079 74.723L261.234 77.031Z" fill="#131212"/>
</g>
<mask id="mask6_4986_11608" style="mask-type:alpha" maskUnits="userSpaceOnUse" x="372" y="65" width="16" height="20">
<rect x="372.833" y="65.9174" width="14.6348" height="18.2006" fill="#D9D9D9"/>
</mask>
<g mask="url(#mask6_4986_11608)">
<path d="M380.14 66.0563L387.449 70.5719V79.6032L380.14 84.1188L372.831 79.6032V70.5719L380.14 66.0563Z" fill="url(#paint12_linear_4986_11608)"/>
<path d="M372.834 70.5743L380.035 65.941L387.469 70.5724L380.035 75.6669L372.834 70.5743Z" fill="url(#paint13_linear_4986_11608)"/>
</g>
<mask id="mask7_4986_11608" style="mask-type:alpha" maskUnits="userSpaceOnUse" x="342" y="86" width="24" height="29">
<rect x="342.812" y="86.3313" width="22.7747" height="28.3237" fill="#D9D9D9"/>
</mask>
<g mask="url(#mask7_4986_11608)">
<path d="M354.18 86.5472L365.554 93.5744V107.629L354.18 114.656L342.806 107.629V93.5744L354.18 86.5472Z" fill="url(#paint14_linear_4986_11608)"/>
<path d="M342.811 93.5785L354.016 86.3682L365.585 93.5756L354.016 101.504L342.811 93.5785Z" fill="url(#paint15_linear_4986_11608)"/>
<path d="M354.182 114.656L354.009 101.503L365.587 93.5748L365.587 107.809L354.182 114.656Z" fill="#131212"/>
</g>
<path d="M372.833 112.542L359.299 105.133" stroke="#434343" stroke-width="0.5"/>
<mask id="mask8_4986_11608" style="mask-type:alpha" maskUnits="userSpaceOnUse" x="369" y="106" width="14" height="18">
<rect x="369.213" y="106.206" width="13.587" height="16.8974" fill="#D9D9D9"/>
</mask>
<g mask="url(#mask8_4986_11608)">
<path d="M375.996 106.334L382.782 110.526V118.911L375.996 123.103L369.211 118.911V110.526L375.996 106.334Z" fill="url(#paint16_linear_4986_11608)"/>
<path d="M369.214 110.528L375.899 106.227L382.801 110.526L375.899 115.256L369.214 110.528Z" fill="url(#paint17_linear_4986_11608)"/>
</g>
<path d="M238.142 63.8427L255.88 53.1323" stroke="#434343" stroke-width="0.5" stroke-linecap="round"/>
<path d="M263.275 74.081L282.484 86.0177" stroke="#434343" stroke-width="0.5"/>
<path d="M356.309 34.7816L417.279 -6.38928" stroke="#434343" stroke-width="0.5"/>
<path d="M302.924 13.7353L344.263 38.8487" stroke="#434343" stroke-width="0.5"/>
<path d="M202.548 -2.39123L216.951 5.72216" stroke="#434343" stroke-width="0.5"/>
<path d="M298.73 -10.7706L298.73 6.16797" stroke="#434343" stroke-width="0.5"/>
<mask id="mask9_4986_11608" style="mask-type:alpha" maskUnits="userSpaceOnUse" x="243" y="96" width="26" height="33">
<rect x="243.463" y="96.8722" width="25.2016" height="31.3419" fill="#D9D9D9"/>
</mask>
<g mask="url(#mask9_4986_11608)">
<path d="M256.043 97.1108L268.629 104.887V120.439L256.043 128.215L243.457 120.439V104.887L256.043 97.1108Z" fill="url(#paint18_linear_4986_11608)"/>
<path d="M243.462 104.891L255.862 96.9123L268.664 104.888L255.862 113.661L243.462 104.891Z" fill="url(#paint19_linear_4986_11608)"/>
<path d="M256.044 128.215L255.853 113.66L268.665 104.887L268.665 120.639L256.044 128.215Z" fill="#131212"/>
</g>
<path d="M344.122 10.8106C345.411 10.0136 347.039 10.0136 348.329 10.8106L369.081 23.6409C370.26 24.3698 370.977 25.6571 370.977 27.0432V53.1906C370.977 54.5767 370.26 55.8639 369.081 56.5928L348.329 69.4232C347.039 70.2202 345.411 70.2202 344.122 69.4232L323.369 56.5928C322.19 55.8639 321.473 54.5767 321.473 53.1906V27.0432C321.473 25.6571 322.19 24.3698 323.369 23.6409L344.122 10.8106Z" stroke="#434343" stroke-width="0.5" stroke-linecap="round"/>
<path d="M344.053 10.8337C345.34 10.0392 346.966 10.0392 348.254 10.8337L369.068 23.6769C370.248 24.4055 370.967 25.6937 370.967 27.0811V53.2398C370.967 54.6272 370.248 55.9154 369.068 56.6439L348.254 69.4872C346.966 70.2817 345.34 70.2817 344.053 69.4872L323.238 56.6439C322.058 55.9154 321.339 54.6272 321.339 53.2398V27.081C321.339 25.6937 322.058 24.4055 323.238 23.6769L344.053 10.8337Z" fill="url(#paint20_linear_4986_11608)"/>
<g filter="url(#filter1_dddddd_4986_11608)">
<path fill-rule="evenodd" clip-rule="evenodd" d="M347.712 31.1472L352.779 28.1371C352.913 28.0535 353.074 28.0535 353.208 28.1371L358.329 31.1752C358.463 31.2588 358.463 31.4816 358.329 31.5652L353.261 34.5753C353.127 34.6589 352.966 34.6589 352.832 34.5753L347.712 31.5372C347.578 31.4536 347.578 31.2308 347.712 31.1472V31.1472Z" fill="#91CBDD"/>
</g>
<g filter="url(#filter2_dddddd_4986_11608)">
<path fill-rule="evenodd" clip-rule="evenodd" d="M334.255 31.1478L339.268 28.1377C339.402 28.0821 339.563 28.0821 339.724 28.1377L351.601 35.1892C351.735 35.2728 351.735 35.4956 351.601 35.5792L346.561 38.5893C346.427 38.6729 346.266 38.6729 346.132 38.5893L334.255 31.5378C334.121 31.4541 334.121 31.2314 334.255 31.1478Z" fill="#91CBDD"/>
</g>
<g filter="url(#filter3_dddddd_4986_11608)">
<path fill-rule="evenodd" clip-rule="evenodd" d="M346.828 40.15V46.2257C346.828 46.393 347.016 46.5041 347.15 46.421L352.297 43.3554C352.351 43.3273 352.405 43.2437 352.405 43.1601V36.9727C352.405 36.8055 352.217 36.6938 352.083 36.7774L347.042 39.7595C346.908 39.8431 346.828 39.9822 346.828 40.1495V40.15Z" fill="#91CBDD"/>
</g>
<g filter="url(#filter4_dddddd_4986_11608)">
<path fill-rule="evenodd" clip-rule="evenodd" d="M358.812 32.7641L353.771 35.7461C353.637 35.8297 353.557 35.9689 353.53 36.1361L353.557 43.6894C353.557 43.8566 353.477 43.9958 353.343 44.0794L347.042 47.842C346.908 47.9256 346.828 48.0648 346.828 48.232V54.3077C346.828 54.4749 347.016 54.5866 347.15 54.503L358.919 47.5075C359.054 47.4239 359.134 47.2847 359.134 47.1175V32.9594C359.134 32.7922 358.946 32.6805 358.812 32.7641H358.812Z" fill="#91CBDD"/>
</g>
<g filter="url(#filter5_dddddd_4986_11608)">
<path fill-rule="evenodd" clip-rule="evenodd" d="M345.697 40.121L345.671 46.3084C345.671 46.4476 345.537 46.5037 345.429 46.4476L339.209 42.7406C339.075 42.6569 338.887 42.7686 338.887 42.9358V50.2377C338.887 50.4049 338.699 50.5166 338.565 50.433L333.498 47.4229C333.364 47.3393 333.283 47.2001 333.283 47.0329V32.8467C333.283 32.6795 333.471 32.5678 333.605 32.6514L345.482 39.703C345.589 39.8147 345.697 39.9538 345.697 40.121H345.697Z" fill="#91CBDD"/>
</g>
<g filter="url(#filter6_dddddd_4986_11608)">
<path fill-rule="evenodd" clip-rule="evenodd" d="M345.458 47.8423L340.364 44.8041C340.23 44.6925 340.042 44.8041 340.042 44.9994V51.1032C340.042 51.2704 340.123 51.4096 340.256 51.4937L345.35 54.5313C345.484 54.6149 345.672 54.5033 345.672 54.336V48.2323C345.672 48.065 345.591 47.9259 345.457 47.8423H345.458Z" fill="#91CBDD"/>
</g>
<path d="M345.628 9.86243C345.95 9.6638 346.356 9.6638 346.678 9.86243L370.492 24.5568C370.788 24.7389 370.967 25.061 370.967 25.4078V54.9147C370.967 55.2615 370.788 55.5836 370.492 55.7657L346.678 70.4601C346.356 70.6587 345.95 70.6587 345.628 70.4601L321.814 55.7657C321.518 55.5836 321.339 55.2615 321.339 54.9147V25.4078C321.339 25.061 321.518 24.7389 321.814 24.5568L345.628 9.86243Z" stroke="url(#paint21_linear_4986_11608)" stroke-linecap="round"/>
<g style="mix-blend-mode:screen" opacity="0.6">
<mask id="mask10_4986_11608" style="mask-type:alpha" maskUnits="userSpaceOnUse" x="321" y="9" width="50" height="62">
<rect x="321.529" y="9.5376" width="49.2469" height="61.2457" fill="#D9D9D9"/>
</mask>
<g mask="url(#mask10_4986_11608)">
<path d="M346.114 10.0024L370.709 25.1977V55.5883L346.114 70.7836L321.52 55.5883V25.1977L346.114 10.0024Z" fill="url(#paint22_linear_4986_11608)"/>
<path d="M321.529 25.2042L345.76 9.61306L370.776 25.198L345.76 42.3412L321.529 25.2042Z" fill="url(#paint23_linear_4986_11608)"/>
<path d="M346.114 70.7837L345.74 42.3413L370.777 25.1979L370.777 55.978L346.114 70.7837Z" fill="#131212"/>
</g>
</g>
<path d="M303.914 85.4195C305.203 84.6225 306.832 84.6225 308.121 85.4195L318.005 91.5305C319.184 92.2594 319.902 93.5467 319.902 94.9328V107.641C319.902 109.028 319.184 110.315 318.005 111.044L308.121 117.155C306.832 117.952 305.203 117.952 303.914 117.155L294.03 111.044C292.851 110.315 292.133 109.028 292.133 107.641V94.9328C292.133 93.5467 292.851 92.2594 294.03 91.5305L303.914 85.4195Z" stroke="#434343" stroke-width="0.5" stroke-linecap="round"/>
<g filter="url(#filter7_d_4986_11608)">
<path d="M306.017 92.2403L313.368 96.7761V105.848L306.017 110.384L298.666 105.848V96.7761L306.017 92.2403Z" fill="#D882A1"/>
</g>
<path d="M305.452 84.4591C305.774 84.2605 306.181 84.2605 306.503 84.4591L319.422 92.4306C319.717 92.6128 319.896 92.9348 319.896 93.2817V109.343C319.896 109.69 319.717 110.012 319.422 110.194L306.503 118.165C306.181 118.364 305.774 118.364 305.452 118.165L292.533 110.194C292.238 110.012 292.059 109.69 292.059 109.343V93.2817C292.059 92.9348 292.238 92.6128 292.533 92.4306L305.452 84.4591Z" stroke="#FF6B7D" stroke-linecap="round"/>
<g style="mix-blend-mode:screen" opacity="0.6">
<mask id="mask11_4986_11608" style="mask-type:alpha" maskUnits="userSpaceOnUse" x="292" y="84" width="28" height="35">
<rect x="292.165" y="84.1351" width="27.6238" height="34.3542" fill="#D9D9D9"/>
</mask>
<g mask="url(#mask11_4986_11608)">
<path d="M305.954 84.3957L319.75 92.9191V109.966L305.954 118.489L292.159 109.966V92.9191L305.954 84.3957Z" fill="url(#paint24_linear_4986_11608)"/>
<path d="M292.164 92.9223L305.756 84.1768L319.788 92.9188L305.756 102.535L292.164 92.9223Z" fill="url(#paint25_linear_4986_11608)"/>
<path d="M305.954 118.489L305.744 102.535L319.787 92.9193L319.787 110.185L305.954 118.489Z" fill="#131212"/>
</g>
</g>
<path d="M232.423 2.96543C233.712 2.16844 235.341 2.16844 236.63 2.96543L244.624 7.90797C245.803 8.63687 246.521 9.92416 246.521 11.3102V21.682C246.521 23.0681 245.803 24.3553 244.624 25.0842L236.63 30.0268C235.341 30.8238 233.712 30.8238 232.423 30.0268L224.429 25.0842C223.25 24.3553 222.532 23.0681 222.532 21.682V11.3102C222.532 9.92416 223.25 8.63687 224.429 7.90797L232.423 2.96543Z" stroke="#434343" stroke-width="0.5" stroke-linecap="round"/>
<g filter="url(#filter8_d_4986_11608)">
<path d="M234.527 8.68083L240.877 12.5992V20.4361L234.527 24.3545L228.177 20.4361V12.5992L234.527 8.68083Z" fill="#B26FE7"/>
</g>
<path d="M233.967 2.00252C234.289 1.8039 234.695 1.8039 235.017 2.00253L246.041 8.80496C246.336 8.98709 246.516 9.30916 246.516 9.65599V23.3789C246.516 23.7258 246.336 24.0478 246.041 24.23L235.017 31.0324C234.695 31.231 234.289 31.231 233.967 31.0324L222.942 24.23C222.647 24.0478 222.468 23.7258 222.468 23.3789V9.65599C222.468 9.30916 222.647 8.98709 222.942 8.80496L233.967 2.00252Z" stroke="#9A1AFF" stroke-linecap="round"/>
<g style="mix-blend-mode:screen" opacity="0.6">
<mask id="mask12_4986_11608" style="mask-type:alpha" maskUnits="userSpaceOnUse" x="222" y="1" width="25" height="31">
<rect x="222.561" y="1.6785" width="23.8636" height="29.6779" fill="#D9D9D9"/>
</mask>
<g mask="url(#mask12_4986_11608)">
<path d="M234.473 1.90389L246.391 9.26709V23.9935L234.473 31.3567L222.556 23.9935V9.26709L234.473 1.90389Z" fill="url(#paint26_linear_4986_11608)"/>
<path d="M222.561 9.26998L234.302 1.71499L246.424 9.267L234.302 17.5741L222.561 9.26998Z" fill="url(#paint27_linear_4986_11608)"/>
<path d="M234.473 31.3565L234.292 17.5741L246.424 9.26688L246.424 24.1821L234.473 31.3565Z" fill="#131212"/>
</g>
</g>
<path d="M366.054 -40.1393L384.599 -28.6739V-5.74311L366.054 5.72228L347.509 -5.74311V-28.6739L366.054 -40.1393Z" fill="#161818" stroke="#434343" stroke-width="0.5" stroke-linecap="round"/>
<g filter="url(#filter9_d_4986_11608)">
<path d="M366.194 -25.5406L372.952 -21.371V-13.0317L366.194 -8.86199L359.437 -13.0317V-21.371L366.194 -25.5406Z" fill="#E6C778"/>
</g>
<mask id="mask13_4986_11608" style="mask-type:alpha" maskUnits="userSpaceOnUse" x="317" y="-19" width="18" height="23">
<rect x="317.302" y="-18.1017" width="17.0102" height="21.1547" fill="#D9D9D9"/>
</mask>
<g mask="url(#mask13_4986_11608)">
<path d="M325.794 -17.94L334.289 -12.6915V-2.19439L325.794 3.05417L317.299 -2.19439V-12.6915L325.794 -17.94Z" fill="url(#paint28_linear_4986_11608)"/>
<path d="M325.794 3.05447L325.665 -6.76974L334.313 -12.6912L334.313 -2.0595L325.794 3.05447Z" fill="#131212"/>
</g>
</g>
<g filter="url(#filter10_d_4986_11608)">
<path d="M23.0881 19.4545H26.1279V29.5966C26.1279 30.5341 25.9172 31.3485 25.4958 32.0398C25.0792 32.7311 24.4991 33.2637 23.7558 33.6378C23.0124 34.0118 22.1483 34.1989 21.1634 34.1989C20.2875 34.1989 19.492 34.045 18.7771 33.7372C18.0668 33.4247 17.5034 32.9512 17.0867 32.3168C16.6701 31.6776 16.4641 30.875 16.4688 29.9091H19.5299C19.5394 30.2926 19.6175 30.6217 19.7643 30.8963C19.9158 31.1662 20.1218 31.3745 20.3822 31.5213C20.6473 31.6634 20.9598 31.7344 21.3197 31.7344C21.6985 31.7344 22.0181 31.6539 22.2785 31.4929C22.5436 31.3272 22.7449 31.0857 22.8822 30.7685C23.0195 30.4512 23.0881 30.0606 23.0881 29.5966V19.4545Z" fill="white"/>
<path d="M33.5427 34.2131C32.4395 34.2131 31.4854 33.9787 30.6805 33.5099C29.8803 33.0365 29.2624 32.3783 28.8268 31.5355C28.3912 30.688 28.1734 29.7055 28.1734 28.5881C28.1734 27.4612 28.3912 26.4763 28.8268 25.6335C29.2624 24.786 29.8803 24.1278 30.6805 23.6591C31.4854 23.1856 32.4395 22.9489 33.5427 22.9489C34.6459 22.9489 35.5976 23.1856 36.3978 23.6591C37.2027 24.1278 37.823 24.786 38.2586 25.6335C38.6942 26.4763 38.912 27.4612 38.912 28.5881C38.912 29.7055 38.6942 30.688 38.2586 31.5355C37.823 32.3783 37.2027 33.0365 36.3978 33.5099C35.5976 33.9787 34.6459 34.2131 33.5427 34.2131ZM33.5569 31.8693C34.0588 31.8693 34.4778 31.7273 34.814 31.4432C35.1502 31.1544 35.4035 30.7614 35.5739 30.2642C35.7491 29.767 35.8367 29.2012 35.8367 28.5668C35.8367 27.9323 35.7491 27.3665 35.5739 26.8693C35.4035 26.3722 35.1502 25.9792 34.814 25.6903C34.4778 25.4015 34.0588 25.2571 33.5569 25.2571C33.0503 25.2571 32.6241 25.4015 32.2785 25.6903C31.9376 25.9792 31.6795 26.3722 31.5043 26.8693C31.3339 27.3665 31.2487 27.9323 31.2487 28.5668C31.2487 29.2012 31.3339 29.767 31.5043 30.2642C31.6795 30.7614 31.9376 31.1544 32.2785 31.4432C32.6241 31.7273 33.0503 31.8693 33.5569 31.8693Z" fill="white"/>
<path d="M40.8793 34V23.0909H43.9049V34H40.8793ZM42.3992 21.6847C41.9494 21.6847 41.5635 21.5355 41.2416 21.2372C40.9243 20.9342 40.7657 20.572 40.7657 20.1506C40.7657 19.7339 40.9243 19.3764 41.2416 19.0781C41.5635 18.7751 41.9494 18.6236 42.3992 18.6236C42.849 18.6236 43.2326 18.7751 43.5498 19.0781C43.8718 19.3764 44.0328 19.7339 44.0328 20.1506C44.0328 20.572 43.8718 20.9342 43.5498 21.2372C43.2326 21.5355 42.849 21.6847 42.3992 21.6847Z" fill="white"/>
<path d="M49.3541 27.6932V34H46.3286V23.0909H49.2121V25.0156H49.3399C49.5814 24.3812 49.9862 23.8793 50.5544 23.5099C51.1226 23.1359 51.8115 22.9489 52.6212 22.9489C53.3787 22.9489 54.0393 23.1146 54.6027 23.446C55.1662 23.7775 55.6041 24.2509 55.9166 24.8665C56.2291 25.4773 56.3854 26.2064 56.3854 27.054V34H53.3598V27.5938C53.3645 26.9261 53.1941 26.4053 52.8484 26.0313C52.5028 25.6525 52.027 25.4631 51.4209 25.4631C51.0137 25.4631 50.6538 25.5507 50.3413 25.7259C50.0336 25.901 49.7921 26.1567 49.6169 26.4929C49.4465 26.8243 49.3589 27.2244 49.3541 27.6932Z" fill="white"/>
<path d="M69.2014 23.0909V25.3636H62.6318V23.0909H69.2014ZM64.1233 20.4773H67.1489V30.6477C67.1489 30.9271 67.1915 31.1449 67.2767 31.3011C67.3619 31.4527 67.4803 31.5592 67.6318 31.6207C67.7881 31.6823 67.968 31.7131 68.1716 31.7131C68.3136 31.7131 68.4557 31.7012 68.5977 31.6776C68.7398 31.6491 68.8487 31.6278 68.9244 31.6136L69.4003 33.8651C69.2488 33.9124 69.0357 33.9669 68.7611 34.0284C68.4865 34.0947 68.1527 34.1349 67.7597 34.1491C67.0305 34.1776 66.3913 34.0805 65.8421 33.858C65.2975 33.6354 64.8738 33.2898 64.5707 32.821C64.2677 32.3523 64.1186 31.7604 64.1233 31.0455V20.4773Z" fill="white"/>
<path d="M74.4323 27.6932V34H71.4067V19.4545H74.347V25.0156H74.4749C74.7211 24.3717 75.1188 23.8674 75.668 23.5028C76.2173 23.1335 76.9062 22.9489 77.7348 22.9489C78.4924 22.9489 79.1529 23.1146 79.7163 23.446C80.2845 23.7727 80.7249 24.2438 81.0374 24.8594C81.3546 25.4702 81.5109 26.2017 81.5061 27.054V34H78.4805V27.5938C78.4853 26.9214 78.3148 26.3982 77.9692 26.0241C77.6283 25.6501 77.1501 25.4631 76.5345 25.4631C76.1226 25.4631 75.758 25.5507 75.4408 25.7259C75.1283 25.901 74.8821 26.1567 74.7021 26.4929C74.527 26.8243 74.437 27.2244 74.4323 27.6932Z" fill="white"/>
<path d="M88.8587 34.2131C87.7366 34.2131 86.7707 33.9858 85.961 33.5313C85.1561 33.072 84.5358 32.4233 84.1002 31.5852C83.6646 30.7424 83.4468 29.7457 83.4468 28.5952C83.4468 27.473 83.6646 26.4882 84.1002 25.6406C84.5358 24.7931 85.149 24.1326 85.9397 23.6591C86.7352 23.1856 87.6679 22.9489 88.738 22.9489C89.4577 22.9489 90.1277 23.0649 90.7479 23.2969C91.3729 23.5241 91.9175 23.8674 92.3815 24.3267C92.8502 24.786 93.2148 25.3636 93.4752 26.0597C93.7356 26.7509 93.8658 27.5606 93.8658 28.4886V29.3196H84.6542V27.4446H91.0178C91.0178 27.009 90.9231 26.6231 90.7337 26.2869C90.5443 25.9508 90.2816 25.688 89.9454 25.4986C89.6139 25.3045 89.2281 25.2074 88.7877 25.2074C88.3284 25.2074 87.9212 25.3139 87.5661 25.527C87.2158 25.7353 86.9411 26.017 86.7423 26.3722C86.5434 26.7225 86.4416 27.1132 86.4369 27.544V29.3267C86.4369 29.8665 86.5363 30.3329 86.7352 30.7259C86.9388 31.1188 87.2252 31.4219 87.5945 31.6349C87.9639 31.848 88.4018 31.9545 88.9085 31.9545C89.2446 31.9545 89.5524 31.9072 89.8318 31.8125C90.1111 31.7178 90.3502 31.5758 90.5491 31.3864C90.748 31.197 90.8995 30.965 91.0036 30.6903L93.8019 30.875C93.6599 31.5474 93.3687 32.1345 92.9283 32.6364C92.4927 33.1335 91.9293 33.5218 91.238 33.8011C90.5515 34.0758 89.7584 34.2131 88.8587 34.2131Z" fill="white"/>
<path d="M100.526 34V19.4545H106.265C107.368 19.4545 108.308 19.6652 109.084 20.0866C109.861 20.5033 110.453 21.0833 110.86 21.8267C111.272 22.5653 111.478 23.4176 111.478 24.3835C111.478 25.3494 111.269 26.2017 110.853 26.9403C110.436 27.679 109.832 28.2543 109.042 28.6662C108.256 29.0781 107.304 29.2841 106.187 29.2841H102.529V26.8196H105.689C106.281 26.8196 106.769 26.7178 107.152 26.5142C107.541 26.3059 107.83 26.0194 108.019 25.6548C108.213 25.2855 108.31 24.8617 108.31 24.3835C108.31 23.9006 108.213 23.4792 108.019 23.1193C107.83 22.7547 107.541 22.473 107.152 22.2741C106.764 22.0706 106.272 21.9688 105.675 21.9688H103.601V34H100.526Z" fill="white"/>
<path d="M113.418 34V23.0909H116.352V24.9943H116.465C116.664 24.3172 116.998 23.8059 117.467 23.4602C117.935 23.1099 118.475 22.9347 119.086 22.9347C119.238 22.9347 119.401 22.9441 119.576 22.9631C119.751 22.982 119.905 23.0081 120.038 23.0412V25.7259C119.896 25.6832 119.699 25.6454 119.448 25.6122C119.197 25.5791 118.968 25.5625 118.759 25.5625C118.314 25.5625 117.917 25.6596 117.566 25.8537C117.22 26.0431 116.946 26.3082 116.742 26.6491C116.543 26.9901 116.444 27.3831 116.444 27.8281V34H113.418Z" fill="white"/>
<path d="M126.023 34.2131C124.92 34.2131 123.966 33.9787 123.161 33.5099C122.361 33.0365 121.743 32.3783 121.307 31.5355C120.872 30.688 120.654 29.7055 120.654 28.5881C120.654 27.4612 120.872 26.4763 121.307 25.6335C121.743 24.786 122.361 24.1278 123.161 23.6591C123.966 23.1856 124.92 22.9489 126.023 22.9489C127.126 22.9489 128.078 23.1856 128.878 23.6591C129.683 24.1278 130.303 24.786 130.739 25.6335C131.175 26.4763 131.392 27.4612 131.392 28.5881C131.392 29.7055 131.175 30.688 130.739 31.5355C130.303 32.3783 129.683 33.0365 128.878 33.5099C128.078 33.9787 127.126 34.2131 126.023 34.2131ZM126.037 31.8693C126.539 31.8693 126.958 31.7273 127.294 31.4432C127.631 31.1544 127.884 30.7614 128.054 30.2642C128.23 29.767 128.317 29.2012 128.317 28.5668C128.317 27.9323 128.23 27.3665 128.054 26.8693C127.884 26.3722 127.631 25.9792 127.294 25.6903C126.958 25.4015 126.539 25.2571 126.037 25.2571C125.531 25.2571 125.105 25.4015 124.759 25.6903C124.418 25.9792 124.16 26.3722 123.985 26.8693C123.814 27.3665 123.729 27.9323 123.729 28.5668C123.729 29.2012 123.814 29.767 123.985 30.2642C124.16 30.7614 124.418 31.1544 124.759 31.4432C125.105 31.7273 125.531 31.8693 126.037 31.8693Z" fill="white"/>
<path d="M139.162 23.0909V25.3636H132.593V23.0909H139.162ZM134.084 20.4773H137.11V30.6477C137.11 30.9271 137.152 31.1449 137.238 31.3011C137.323 31.4527 137.441 31.5592 137.593 31.6207C137.749 31.6823 137.929 31.7131 138.133 31.7131C138.275 31.7131 138.417 31.7012 138.559 31.6776C138.701 31.6491 138.81 31.6278 138.885 31.6136L139.361 33.8651C139.21 33.9124 138.997 33.9669 138.722 34.0284C138.447 34.0947 138.114 34.1349 137.721 34.1491C136.991 34.1776 136.352 34.0805 135.803 33.858C135.258 33.6354 134.835 33.2898 134.532 32.821C134.229 32.3523 134.08 31.7604 134.084 31.0455V20.4773Z" fill="white"/>
<path d="M145.945 34.2131C144.842 34.2131 143.888 33.9787 143.083 33.5099C142.283 33.0365 141.665 32.3783 141.229 31.5355C140.794 30.688 140.576 29.7055 140.576 28.5881C140.576 27.4612 140.794 26.4763 141.229 25.6335C141.665 24.786 142.283 24.1278 143.083 23.6591C143.888 23.1856 144.842 22.9489 145.945 22.9489C147.048 22.9489 148 23.1856 148.8 23.6591C149.605 24.1278 150.225 24.786 150.661 25.6335C151.097 26.4763 151.314 27.4612 151.314 28.5881C151.314 29.7055 151.097 30.688 150.661 31.5355C150.225 32.3783 149.605 33.0365 148.8 33.5099C148 33.9787 147.048 34.2131 145.945 34.2131ZM145.959 31.8693C146.461 31.8693 146.88 31.7273 147.216 31.4432C147.553 31.1544 147.806 30.7614 147.976 30.2642C148.151 29.767 148.239 29.2012 148.239 28.5668C148.239 27.9323 148.151 27.3665 147.976 26.8693C147.806 26.3722 147.553 25.9792 147.216 25.6903C146.88 25.4015 146.461 25.2571 145.959 25.2571C145.453 25.2571 145.026 25.4015 144.681 25.6903C144.34 25.9792 144.082 26.3722 143.907 26.8693C143.736 27.3665 143.651 27.9323 143.651 28.5668C143.651 29.2012 143.736 29.767 143.907 30.2642C144.082 30.7614 144.34 31.1544 144.681 31.4432C145.026 31.7273 145.453 31.8693 145.959 31.8693Z" fill="white"/>
<path d="M158.211 34.2131C157.093 34.2131 156.132 33.9763 155.327 33.5028C154.527 33.0246 153.911 32.3617 153.481 31.5142C153.054 30.6667 152.841 29.6913 152.841 28.5881C152.841 27.4706 153.057 26.4905 153.488 25.6477C153.923 24.8002 154.541 24.1397 155.341 23.6662C156.142 23.188 157.093 22.9489 158.196 22.9489C159.148 22.9489 159.981 23.1217 160.696 23.4673C161.411 23.813 161.977 24.2983 162.394 24.9233C162.811 25.5483 163.04 26.2822 163.083 27.125H160.228C160.147 26.5805 159.934 26.1425 159.589 25.8111C159.248 25.4749 158.8 25.3068 158.246 25.3068C157.777 25.3068 157.368 25.4347 157.017 25.6903C156.672 25.9413 156.402 26.3082 156.208 26.7912C156.014 27.2741 155.917 27.8589 155.917 28.5455C155.917 29.2415 156.011 29.8333 156.201 30.321C156.395 30.8087 156.667 31.1804 157.017 31.4361C157.368 31.6918 157.777 31.8196 158.246 31.8196C158.592 31.8196 158.902 31.7486 159.177 31.6065C159.456 31.4645 159.686 31.2585 159.865 30.9886C160.05 30.714 160.171 30.3849 160.228 30.0014H163.083C163.035 30.8348 162.808 31.5687 162.401 32.2031C161.999 32.8329 161.442 33.3253 160.732 33.6804C160.022 34.0355 159.181 34.2131 158.211 34.2131Z" fill="white"/>
<path d="M169.949 34.2131C168.846 34.2131 167.892 33.9787 167.087 33.5099C166.287 33.0365 165.669 32.3783 165.233 31.5355C164.797 30.688 164.58 29.7055 164.58 28.5881C164.58 27.4612 164.797 26.4763 165.233 25.6335C165.669 24.786 166.287 24.1278 167.087 23.6591C167.892 23.1856 168.846 22.9489 169.949 22.9489C171.052 22.9489 172.004 23.1856 172.804 23.6591C173.609 24.1278 174.229 24.786 174.665 25.6335C175.1 26.4763 175.318 27.4612 175.318 28.5881C175.318 29.7055 175.1 30.688 174.665 31.5355C174.229 32.3783 173.609 33.0365 172.804 33.5099C172.004 33.9787 171.052 34.2131 169.949 34.2131ZM169.963 31.8693C170.465 31.8693 170.884 31.7273 171.22 31.4432C171.556 31.1544 171.81 30.7614 171.98 30.2642C172.155 29.767 172.243 29.2012 172.243 28.5668C172.243 27.9323 172.155 27.3665 171.98 26.8693C171.81 26.3722 171.556 25.9792 171.22 25.6903C170.884 25.4015 170.465 25.2571 169.963 25.2571C169.457 25.2571 169.03 25.4015 168.685 25.6903C168.344 25.9792 168.086 26.3722 167.911 26.8693C167.74 27.3665 167.655 27.9323 167.655 28.5668C167.655 29.2012 167.74 29.767 167.911 30.2642C168.086 30.7614 168.344 31.1544 168.685 31.4432C169.03 31.7273 169.457 31.8693 169.963 31.8693Z" fill="white"/>
<path d="M180.311 19.4545V34H177.286V19.4545H180.311Z" fill="white"/>
<path d="M17.2643 58V43.4545H20.3396V55.4645H26.5754V58H17.2643Z" fill="white"/>
<path d="M31.6659 58.206C30.9699 58.206 30.3496 58.0852 29.8051 57.8438C29.2606 57.5975 28.8297 57.2353 28.5125 56.7571C28.2 56.2741 28.0438 55.6728 28.0438 54.9531C28.0438 54.3471 28.155 53.8381 28.3776 53.4261C28.6001 53.0142 28.9031 52.6828 29.2867 52.4318C29.6702 52.1809 30.1058 51.9915 30.5935 51.8636C31.0859 51.7358 31.602 51.6458 32.1418 51.5938C32.7762 51.5275 33.2876 51.4659 33.6759 51.4091C34.0641 51.3475 34.3458 51.2576 34.521 51.1392C34.6962 51.0208 34.7838 50.8456 34.7838 50.6136V50.571C34.7838 50.1212 34.6418 49.7732 34.3577 49.527C34.0783 49.2808 33.6806 49.1577 33.1645 49.1577C32.62 49.1577 32.1868 49.2784 31.8648 49.5199C31.5428 49.7566 31.3297 50.0549 31.2256 50.4148L28.4273 50.1875C28.5693 49.5246 28.8487 48.9517 29.2653 48.4688C29.682 47.9811 30.2194 47.607 30.8776 47.3466C31.5404 47.0814 32.3075 46.9489 33.1787 46.9489C33.7848 46.9489 34.3648 47.0199 34.9188 47.1619C35.4775 47.304 35.9723 47.5241 36.4031 47.8224C36.8387 48.1207 37.182 48.5043 37.433 48.973C37.6839 49.437 37.8094 49.9934 37.8094 50.642V58H34.9401V56.4872H34.8548C34.6796 56.8281 34.4453 57.1288 34.1517 57.3892C33.8582 57.6449 33.5054 57.8461 33.0935 57.9929C32.6815 58.1349 32.2057 58.206 31.6659 58.206ZM32.5324 56.1179C32.9775 56.1179 33.3705 56.0303 33.7114 55.8551C34.0523 55.6752 34.3198 55.4337 34.5139 55.1307C34.7081 54.8277 34.8051 54.4844 34.8051 54.1009V52.9432C34.7104 53.0047 34.5802 53.0616 34.4145 53.1136C34.2535 53.161 34.0712 53.206 33.8676 53.2486C33.664 53.2865 33.4604 53.322 33.2568 53.3551C33.0532 53.3835 32.8686 53.4096 32.7029 53.4332C32.3477 53.4853 32.0376 53.5682 31.7725 53.6818C31.5073 53.7955 31.3013 53.9493 31.1546 54.1435C31.0078 54.3329 30.9344 54.5696 30.9344 54.8537C30.9344 55.2656 31.0835 55.5805 31.3818 55.7983C31.6849 56.0114 32.0684 56.1179 32.5324 56.1179Z" fill="white"/>
<path d="M40.2135 58V43.4545H43.2391V48.9233H43.3314C43.464 48.6297 43.6557 48.3314 43.9067 48.0284C44.1624 47.7206 44.4938 47.465 44.901 47.2614C45.3129 47.053 45.8243 46.9489 46.4351 46.9489C47.2305 46.9489 47.9645 47.1572 48.6368 47.5739C49.3091 47.9858 49.8466 48.6084 50.249 49.4418C50.6515 50.2704 50.8527 51.3097 50.8527 52.5597C50.8527 53.7765 50.6562 54.804 50.2632 55.642C49.875 56.4754 49.3447 57.1075 48.6723 57.5384C48.0047 57.9645 47.2566 58.1776 46.428 58.1776C45.8409 58.1776 45.3413 58.0805 44.9294 57.8864C44.5222 57.6922 44.1884 57.4484 43.928 57.1548C43.6676 56.8565 43.4687 56.5559 43.3314 56.2528H43.1965V58H40.2135ZM43.1752 52.5455C43.1752 53.1941 43.2651 53.7599 43.445 54.2429C43.625 54.7259 43.8854 55.1023 44.2263 55.3722C44.5672 55.6373 44.9815 55.7699 45.4692 55.7699C45.9616 55.7699 46.3783 55.6349 46.7192 55.3651C47.0601 55.0904 47.3181 54.7116 47.4933 54.2287C47.6733 53.741 47.7632 53.1799 47.7632 52.5455C47.7632 51.9157 47.6756 51.3617 47.5004 50.8835C47.3252 50.4053 47.0672 50.0313 46.7263 49.7614C46.3854 49.4915 45.9663 49.3565 45.4692 49.3565C44.9768 49.3565 44.5601 49.4867 44.2192 49.7472C43.883 50.0076 43.625 50.3769 43.445 50.8551C43.2651 51.3333 43.1752 51.8968 43.1752 52.5455Z" fill="white"/>
<path d="M61.9482 50.2017L59.1783 50.3722C59.131 50.1354 59.0292 49.9223 58.8729 49.733C58.7167 49.5388 58.5107 49.3849 58.2551 49.2713C58.0041 49.1529 57.7034 49.0938 57.3531 49.0938C56.8843 49.0938 56.489 49.1932 56.167 49.392C55.845 49.5862 55.684 49.8466 55.684 50.1733C55.684 50.4337 55.7882 50.6539 55.9965 50.8338C56.2049 51.0137 56.5623 51.1581 57.069 51.267L59.0434 51.6648C60.104 51.8826 60.8947 52.233 61.4156 52.7159C61.9364 53.1989 62.1968 53.8333 62.1968 54.6193C62.1968 55.3343 61.9861 55.9617 61.5647 56.5014C61.148 57.0412 60.5751 57.4626 59.846 57.7656C59.1215 58.0639 58.2858 58.2131 57.3389 58.2131C55.8947 58.2131 54.7442 57.9124 53.8872 57.3111C53.0349 56.705 52.5354 55.8812 52.3886 54.8395L55.3644 54.6832C55.4544 55.1236 55.6722 55.4598 56.0178 55.6918C56.3635 55.919 56.8062 56.0327 57.346 56.0327C57.8763 56.0327 58.3024 55.9309 58.6244 55.7273C58.9511 55.5189 59.1168 55.2514 59.1215 54.9247C59.1168 54.6501 59.0008 54.4252 58.7735 54.25C58.5462 54.0701 58.1959 53.9328 57.7224 53.8381L55.8332 53.4617C54.7678 53.2486 53.9747 52.8793 53.4539 52.3537C52.9378 51.8281 52.6798 51.1581 52.6798 50.3438C52.6798 49.643 52.8692 49.0393 53.2479 48.5327C53.6315 48.026 54.1689 47.6354 54.8602 47.3608C55.5562 47.0862 56.3706 46.9489 57.3033 46.9489C58.6812 46.9489 59.7655 47.2401 60.5562 47.8224C61.3516 48.4048 61.8157 49.1979 61.9482 50.2017Z" fill="white"/>
<path d="M80.9539 43.4545V58H78.2977L71.9695 48.8452H71.863V58H68.7877V43.4545H71.4866L77.765 52.6023H77.8928V43.4545H80.9539Z" fill="white"/>
<path d="M88.4095 58.2131C87.2874 58.2131 86.3215 57.9858 85.5118 57.5313C84.7069 57.072 84.0866 56.4233 83.651 55.5852C83.2154 54.7424 82.9976 53.7457 82.9976 52.5952C82.9976 51.473 83.2154 50.4882 83.651 49.6406C84.0866 48.7931 84.6998 48.1326 85.4905 47.6591C86.2859 47.1856 87.2187 46.9489 88.2888 46.9489C89.0085 46.9489 89.6785 47.0649 90.2987 47.2969C90.9237 47.5241 91.4682 47.8674 91.9323 48.3267C92.401 48.786 92.7656 49.3636 93.026 50.0597C93.2864 50.7509 93.4166 51.5606 93.4166 52.4886V53.3196H84.205V51.4446H90.5686C90.5686 51.009 90.4739 50.6231 90.2845 50.2869C90.0951 49.9508 89.8323 49.688 89.4962 49.4986C89.1647 49.3045 88.7788 49.2074 88.3385 49.2074C87.8792 49.2074 87.472 49.3139 87.1169 49.527C86.7665 49.7353 86.4919 50.017 86.293 50.3722C86.0942 50.7225 85.9924 51.1132 85.9876 51.544V53.3267C85.9876 53.8665 86.0871 54.3329 86.2859 54.7259C86.4895 55.1188 86.776 55.4219 87.1453 55.6349C87.5146 55.848 87.9526 55.9545 88.4592 55.9545C88.7954 55.9545 89.1032 55.9072 89.3825 55.8125C89.6619 55.7178 89.901 55.5758 90.0999 55.3864C90.2987 55.197 90.4502 54.965 90.5544 54.6903L93.3527 54.875C93.2107 55.5474 92.9195 56.1345 92.4791 56.6364C92.0435 57.1335 91.4801 57.5218 90.7888 57.8011C90.1022 58.0758 89.3091 58.2131 88.4095 58.2131Z" fill="white"/>
<path d="M101.194 47.0909V49.3636H94.624V47.0909H101.194ZM96.1155 44.4773H99.1411V54.6477C99.1411 54.9271 99.1837 55.1449 99.2689 55.3011C99.3541 55.4527 99.4725 55.5592 99.624 55.6207C99.7803 55.6823 99.9602 55.7131 100.164 55.7131C100.306 55.7131 100.448 55.7012 100.59 55.6776C100.732 55.6491 100.841 55.6278 100.917 55.6136L101.392 57.8651C101.241 57.9124 101.028 57.9669 100.753 58.0284C100.479 58.0947 100.145 58.1349 99.7519 58.1492C99.0227 58.1776 98.3835 58.0805 97.8342 57.858C97.2897 57.6354 96.866 57.2898 96.5629 56.821C96.2599 56.3523 96.1108 55.7604 96.1155 55.0455V44.4773Z" fill="white"/>
<path d="M105.316 58L102.348 47.0909H105.409L107.099 54.4205H107.199L108.96 47.0909H111.964L113.754 54.3778H113.846L115.508 47.0909H118.562L115.601 58H112.397L110.522 51.1392H110.388L108.513 58H105.316Z" fill="white"/>
<path d="M124.832 58.2131C123.729 58.2131 122.774 57.9787 121.97 57.5099C121.169 57.0365 120.551 56.3783 120.116 55.5355C119.68 54.688 119.462 53.7055 119.462 52.5881C119.462 51.4612 119.68 50.4763 120.116 49.6335C120.551 48.786 121.169 48.1278 121.97 47.6591C122.774 47.1856 123.729 46.9489 124.832 46.9489C125.935 46.9489 126.887 47.1856 127.687 47.6591C128.492 48.1278 129.112 48.786 129.548 49.6335C129.983 50.4763 130.201 51.4612 130.201 52.5881C130.201 53.7055 129.983 54.688 129.548 55.5355C129.112 56.3783 128.492 57.0365 127.687 57.5099C126.887 57.9787 125.935 58.2131 124.832 58.2131ZM124.846 55.8693C125.348 55.8693 125.767 55.7273 126.103 55.4432C126.439 55.1544 126.693 54.7614 126.863 54.2642C127.038 53.767 127.126 53.2012 127.126 52.5668C127.126 51.9323 127.038 51.3665 126.863 50.8693C126.693 50.3722 126.439 49.9792 126.103 49.6903C125.767 49.4015 125.348 49.2571 124.846 49.2571C124.339 49.2571 123.913 49.4015 123.568 49.6903C123.227 49.9792 122.969 50.3722 122.793 50.8693C122.623 51.3665 122.538 51.9323 122.538 52.5668C122.538 53.2012 122.623 53.767 122.793 54.2642C122.969 54.7614 123.227 55.1544 123.568 55.4432C123.913 55.7273 124.339 55.8693 124.846 55.8693Z" fill="white"/>
<path d="M132.168 58V47.0909H135.102V48.9943H135.215C135.414 48.3172 135.748 47.8059 136.217 47.4602C136.685 47.1099 137.225 46.9347 137.836 46.9347C137.988 46.9347 138.151 46.9441 138.326 46.9631C138.501 46.982 138.655 47.0081 138.788 47.0412V49.7259C138.646 49.6832 138.449 49.6454 138.198 49.6122C137.947 49.5791 137.718 49.5625 137.509 49.5625C137.064 49.5625 136.667 49.6596 136.316 49.8537C135.97 50.0431 135.696 50.3082 135.492 50.6492C135.293 50.9901 135.194 51.3831 135.194 51.8281V58H132.168Z" fill="white"/>
<path d="M143.093 54.8608L143.101 51.2315H143.541L147.035 47.0909H150.508L145.814 52.5739H145.096L143.093 54.8608ZM140.352 58V43.4545H143.378V58H140.352ZM147.17 58L143.96 53.2486L145.977 51.1108L150.714 58H147.17Z" fill="white"/>
</g>
<g opacity="0.5">
<path d="M17.6167 78.1406V76.8182H25.4967V78.1406H22.3198V87H20.7886V78.1406H17.6167Z" fill="white"/>
<path d="M29.3024 87.1541C28.5501 87.1541 27.9021 86.9934 27.3585 86.6719C26.8183 86.3471 26.4007 85.8913 26.1057 85.3047C25.814 84.7147 25.6682 84.0237 25.6682 83.2315C25.6682 82.4493 25.814 81.7599 26.1057 81.1634C26.4007 80.5668 26.8117 80.1011 27.3386 79.7663C27.8689 79.4316 28.4887 79.2642 29.198 79.2642C29.6289 79.2642 30.0465 79.3355 30.4509 79.478C30.8552 79.6205 31.2181 79.8442 31.5396 80.1492C31.8611 80.4541 32.1147 80.8501 32.3003 81.3374C32.4859 81.8213 32.5787 82.4096 32.5787 83.1023V83.6293H26.5084V82.5156H31.122C31.122 82.1245 31.0425 81.7782 30.8834 81.4766C30.7243 81.1716 30.5006 80.9313 30.2122 80.7557C29.9272 80.58 29.5924 80.4922 29.208 80.4922C28.7903 80.4922 28.4258 80.5949 28.1142 80.8004C27.806 81.0026 27.5673 81.2678 27.3983 81.5959C27.2326 81.9207 27.1497 82.2737 27.1497 82.6548V83.5249C27.1497 84.0353 27.2392 84.4695 27.4182 84.8274C27.6005 85.1854 27.854 85.4588 28.1788 85.6477C28.5037 85.8333 28.8832 85.9261 29.3173 85.9261C29.5991 85.9261 29.8559 85.8864 30.0879 85.8068C30.3199 85.724 30.5205 85.6013 30.6895 85.4389C30.8585 85.2765 30.9878 85.076 31.0773 84.8374L32.4842 85.0909C32.3716 85.5052 32.1694 85.8681 31.8777 86.1797C31.5894 86.4879 31.2264 86.7282 30.7889 86.9006C30.3547 87.0696 29.8592 87.1541 29.3024 87.1541Z" fill="white"/>
<path d="M35.7145 76.8182V87H34.228V76.8182H35.7145Z" fill="white"/>
<path d="M39.2009 76.8182V87H37.7144V76.8182H39.2009Z" fill="white"/>
<path d="M49.7431 83.8331V79.3636H51.2346V87H49.7729V85.6776H49.6934C49.5177 86.0852 49.236 86.425 48.8482 86.6967C48.4638 86.9652 47.9848 87.0994 47.4114 87.0994C46.9209 87.0994 46.4867 86.9917 46.1089 86.7763C45.7344 86.5575 45.4394 86.2344 45.2239 85.8068C45.0118 85.3793 44.9058 84.8506 44.9058 84.2209V79.3636H46.3923V84.0419C46.3923 84.5623 46.5364 84.9766 46.8248 85.2848C47.1131 85.593 47.4877 85.7472 47.9484 85.7472C48.2268 85.7472 48.5035 85.6776 48.7786 85.5384C49.057 85.3992 49.2874 85.1887 49.4697 84.907C49.6553 84.6252 49.7464 84.2673 49.7431 83.8331Z" fill="white"/>
<path d="M58.9542 81.228L57.6069 81.4666C57.5506 81.2943 57.4611 81.1302 57.3385 80.9744C57.2191 80.8187 57.0567 80.6911 56.8513 80.5916C56.6458 80.4922 56.3889 80.4425 56.0807 80.4425C55.6597 80.4425 55.3084 80.5369 55.0267 80.7259C54.745 80.9115 54.6041 81.1518 54.6041 81.4467C54.6041 81.7019 54.6986 81.9074 54.8875 82.0632C55.0764 82.219 55.3813 82.3466 55.8022 82.446L57.0153 82.7244C57.718 82.8868 58.2416 83.1371 58.5863 83.4751C58.931 83.8132 59.1034 84.2524 59.1034 84.7926C59.1034 85.25 58.9708 85.6577 58.7057 86.0156C58.4438 86.3703 58.0776 86.6487 57.6069 86.8509C57.1396 87.053 56.5977 87.1541 55.9812 87.1541C55.1261 87.1541 54.4284 86.9718 53.8882 86.6072C53.3479 86.2393 53.0165 85.7173 52.8939 85.0412L54.3307 84.8224C54.4201 85.197 54.6041 85.4804 54.8825 85.6726C55.1609 85.8615 55.5238 85.956 55.9713 85.956C56.4585 85.956 56.8479 85.8549 57.1396 85.6527C57.4313 85.4472 57.5771 85.197 57.5771 84.902C57.5771 84.6634 57.4876 84.4628 57.3086 84.3004C57.133 84.138 56.8629 84.0154 56.4983 83.9325L55.2057 83.6492C54.4931 83.4867 53.9661 83.2282 53.6247 82.8736C53.2866 82.5189 53.1176 82.0698 53.1176 81.5263C53.1176 81.0755 53.2435 80.6811 53.4954 80.343C53.7473 80.005 54.0953 79.7415 54.5395 79.5526C54.9836 79.3603 55.4923 79.2642 56.0657 79.2642C56.891 79.2642 57.5406 79.4432 58.0146 79.8011C58.4886 80.1558 58.8018 80.6314 58.9542 81.228Z" fill="white"/>
<path d="M66.6652 87.169C66.1813 87.169 65.7438 87.0795 65.3527 86.9006C64.9616 86.7183 64.6517 86.4548 64.423 86.1101C64.1976 85.7654 64.0849 85.3428 64.0849 84.8423C64.0849 84.4115 64.1678 84.0568 64.3335 83.7784C64.4992 83.5 64.7229 83.2796 65.0047 83.1172C65.2864 82.9548 65.6013 82.8322 65.9493 82.7493C66.2973 82.6664 66.6519 82.6035 67.0132 82.5604C67.4706 82.5073 67.8418 82.4643 68.1268 82.4311C68.4119 82.3947 68.619 82.3367 68.7483 82.2571C68.8775 82.1776 68.9422 82.0483 68.9422 81.8693V81.8345C68.9422 81.4003 68.8195 81.0639 68.5743 80.8253C68.3323 80.5867 67.971 80.4673 67.4905 80.4673C66.99 80.4673 66.5956 80.5784 66.3072 80.8004C66.0222 81.0192 65.825 81.2628 65.7156 81.5313L64.3186 81.2131C64.4843 80.7491 64.7263 80.3745 65.0444 80.0895C65.3659 79.8011 65.7355 79.5923 66.1531 79.4631C66.5707 79.3305 67.0099 79.2642 67.4706 79.2642C67.7755 79.2642 68.0986 79.3007 68.44 79.3736C68.7847 79.4432 69.1062 79.5724 69.4045 79.7614C69.7061 79.9503 69.9531 80.2204 70.1453 80.5717C70.3375 80.9197 70.4336 81.3722 70.4336 81.929V87H68.9819V85.956H68.9223C68.8262 86.1482 68.682 86.3371 68.4897 86.5227C68.2975 86.7083 68.0506 86.8625 67.749 86.9851C67.4474 87.1077 67.0861 87.169 66.6652 87.169ZM66.9883 85.9759C67.3993 85.9759 67.7506 85.8947 68.0423 85.7322C68.3373 85.5698 68.561 85.3577 68.7135 85.0959C68.8692 84.8307 68.9471 84.5474 68.9471 84.2457V83.2614C68.8941 83.3144 68.7914 83.3641 68.6389 83.4105C68.4897 83.4536 68.3191 83.4917 68.1268 83.5249C67.9346 83.5547 67.7473 83.5829 67.565 83.6094C67.3827 83.6326 67.2303 83.6525 67.1076 83.669C66.8193 83.7055 66.5558 83.7668 66.3172 83.853C66.0818 83.9392 65.8929 84.0635 65.7504 84.2259C65.6112 84.3849 65.5416 84.5971 65.5416 84.8622C65.5416 85.2301 65.6775 85.5085 65.9493 85.6974C66.221 85.8831 66.5674 85.9759 66.9883 85.9759Z" fill="white"/>
<path d="M72.5329 87V76.8182H74.0194V80.6016H74.1089C74.1951 80.4425 74.3193 80.2585 74.4818 80.0497C74.6442 79.8409 74.8695 79.6586 75.1579 79.5028C75.4462 79.3438 75.8274 79.2642 76.3014 79.2642C76.9178 79.2642 77.468 79.42 77.9519 79.7315C78.4358 80.0431 78.8153 80.4922 79.0904 81.0788C79.3688 81.6655 79.508 82.3715 79.508 83.1967C79.508 84.022 79.3705 84.7296 79.0954 85.3196C78.8203 85.9063 78.4425 86.3587 77.9619 86.6769C77.4813 86.9917 76.9327 87.1492 76.3163 87.1492C75.8523 87.1492 75.4728 87.0713 75.1778 86.9155C74.8861 86.7597 74.6574 86.5774 74.4917 86.3686C74.326 86.1598 74.1984 85.9742 74.1089 85.8118H73.9846V87H72.5329ZM73.9896 83.1818C73.9896 83.7188 74.0675 84.1894 74.2232 84.5938C74.379 84.9981 74.6044 85.3146 74.8994 85.5433C75.1943 85.7687 75.5556 85.8814 75.9832 85.8814C76.4273 85.8814 76.7985 85.7637 77.0968 85.5284C77.3951 85.2898 77.6205 84.9666 77.7729 84.559C77.9287 84.1513 78.0066 83.6922 78.0066 83.1818C78.0066 82.678 77.9304 82.2256 77.7779 81.8246C77.6288 81.4235 77.4034 81.107 77.1018 80.875C76.8035 80.643 76.4306 80.527 75.9832 80.527C75.5523 80.527 75.1877 80.638 74.8894 80.8601C74.5944 81.0822 74.3707 81.392 74.2183 81.7898C74.0658 82.1875 73.9896 82.6515 73.9896 83.1818Z" fill="white"/>
<path d="M84.3939 87.1541C83.678 87.1541 83.0532 86.9901 82.5196 86.6619C81.986 86.3338 81.5717 85.8748 81.2767 85.2848C80.9817 84.6948 80.8342 84.0054 80.8342 83.2166C80.8342 82.4245 80.9817 81.7318 81.2767 81.1385C81.5717 80.5452 81.986 80.0845 82.5196 79.7564C83.0532 79.4283 83.678 79.2642 84.3939 79.2642C85.1098 79.2642 85.7345 79.4283 86.2682 79.7564C86.8018 80.0845 87.2161 80.5452 87.5111 81.1385C87.806 81.7318 87.9535 82.4245 87.9535 83.2166C87.9535 84.0054 87.806 84.6948 87.5111 85.2848C87.2161 85.8748 86.8018 86.3338 86.2682 86.6619C85.7345 86.9901 85.1098 87.1541 84.3939 87.1541ZM84.3988 85.9063C84.8628 85.9063 85.2473 85.7836 85.5522 85.5384C85.8572 85.2931 86.0826 84.9666 86.2284 84.559C86.3775 84.1513 86.4521 83.7022 86.4521 83.2117C86.4521 82.7244 86.3775 82.277 86.2284 81.8693C86.0826 81.4583 85.8572 81.1286 85.5522 80.88C85.2473 80.6314 84.8628 80.5071 84.3988 80.5071C83.9315 80.5071 83.5437 80.6314 83.2355 80.88C82.9306 81.1286 82.7035 81.4583 82.5544 81.8693C82.4085 82.277 82.3356 82.7244 82.3356 83.2117C82.3356 83.7022 82.4085 84.1513 82.5544 84.559C82.7035 84.9666 82.9306 85.2931 83.2355 85.5384C83.5437 85.7836 83.9315 85.9063 84.3988 85.9063Z" fill="white"/>
<path d="M94.4501 83.8331V79.3636H95.9416V87H94.48V85.6776H94.4004C94.2248 86.0852 93.9431 86.425 93.5553 86.6967C93.1708 86.9652 92.6919 87.0994 92.1185 87.0994C91.6279 87.0994 91.1938 86.9917 90.8159 86.7763C90.4414 86.5575 90.1464 86.2344 89.931 85.8068C89.7189 85.3793 89.6128 84.8506 89.6128 84.2209V79.3636H91.0993V84.0419C91.0993 84.5623 91.2435 84.9766 91.5318 85.2848C91.8202 85.593 92.1947 85.7472 92.6554 85.7472C92.9338 85.7472 93.2106 85.6776 93.4857 85.5384C93.7641 85.3992 93.9944 85.1887 94.1767 84.907C94.3623 84.6252 94.4535 84.2673 94.4501 83.8331Z" fill="white"/>
<path d="M101.504 79.3636V80.5568H97.3324V79.3636H101.504ZM98.451 77.5341H99.9375V84.7578C99.9375 85.0462 99.9806 85.2633 100.067 85.4091C100.153 85.5516 100.264 85.6494 100.4 85.7024C100.539 85.7521 100.69 85.777 100.852 85.777C100.972 85.777 101.076 85.7687 101.166 85.7521C101.255 85.7356 101.325 85.7223 101.374 85.7124L101.643 86.9403C101.557 86.9735 101.434 87.0066 101.275 87.0398C101.116 87.0762 100.917 87.0961 100.678 87.0994C100.287 87.1061 99.9226 87.0365 99.5846 86.8906C99.2465 86.7448 98.9731 86.5194 98.7643 86.2145C98.5554 85.9096 98.451 85.5268 98.451 85.0661V77.5341Z" fill="white"/>
<path d="M107.793 89.8636C107.571 89.8636 107.368 89.8454 107.186 89.809C107.004 89.7758 106.868 89.7394 106.778 89.6996L107.136 88.4815C107.408 88.5545 107.65 88.5859 107.862 88.576C108.074 88.5661 108.262 88.4865 108.424 88.3374C108.59 88.1882 108.736 87.9446 108.862 87.6065L109.046 87.0994L106.251 79.3636H107.842L109.776 85.2898H109.856L111.79 79.3636H113.386L110.239 88.0192C110.093 88.4169 109.907 88.7533 109.682 89.0284C109.456 89.3068 109.188 89.5156 108.876 89.6548C108.565 89.794 108.204 89.8636 107.793 89.8636Z" fill="white"/>
<path d="M117.74 87.1541C117.024 87.1541 116.399 86.9901 115.865 86.6619C115.332 86.3338 114.917 85.8748 114.622 85.2848C114.327 84.6948 114.18 84.0054 114.18 83.2166C114.18 82.4245 114.327 81.7318 114.622 81.1385C114.917 80.5452 115.332 80.0845 115.865 79.7564C116.399 79.4283 117.024 79.2642 117.74 79.2642C118.455 79.2642 119.08 79.4283 119.614 79.7564C120.147 80.0845 120.562 80.5452 120.857 81.1385C121.152 81.7318 121.299 82.4245 121.299 83.2166C121.299 84.0054 121.152 84.6948 120.857 85.2848C120.562 85.8748 120.147 86.3338 119.614 86.6619C119.08 86.9901 118.455 87.1541 117.74 87.1541ZM117.745 85.9063C118.209 85.9063 118.593 85.7836 118.898 85.5384C119.203 85.2931 119.428 84.9666 119.574 84.559C119.723 84.1513 119.798 83.7022 119.798 83.2117C119.798 82.7244 119.723 82.277 119.574 81.8693C119.428 81.4583 119.203 81.1286 118.898 80.88C118.593 80.6314 118.209 80.5071 117.745 80.5071C117.277 80.5071 116.889 80.6314 116.581 80.88C116.276 81.1286 116.049 81.4583 115.9 81.8693C115.754 82.277 115.681 82.7244 115.681 83.2117C115.681 83.7022 115.754 84.1513 115.9 84.559C116.049 84.9666 116.276 85.2931 116.581 85.5384C116.889 85.7836 117.277 85.9063 117.745 85.9063Z" fill="white"/>
<path d="M127.796 83.8331V79.3636H129.287V87H127.826V85.6776H127.746C127.57 86.0852 127.289 86.425 126.901 86.6967C126.517 86.9652 126.038 87.0994 125.464 87.0994C124.974 87.0994 124.539 86.9917 124.162 86.7763C123.787 86.5575 123.492 86.2344 123.277 85.8068C123.065 85.3793 122.958 84.8506 122.958 84.2209V79.3636H124.445V84.0419C124.445 84.5623 124.589 84.9766 124.878 85.2848C125.166 85.593 125.54 85.7472 126.001 85.7472C126.28 85.7472 126.556 85.6776 126.831 85.5384C127.11 85.3992 127.34 85.1887 127.522 84.907C127.708 84.6252 127.799 84.2673 127.796 83.8331Z" fill="white"/>
<path d="M131.285 87V79.3636H132.721V80.5767H132.801C132.94 80.1657 133.185 79.8426 133.537 79.6072C133.891 79.3686 134.292 79.2493 134.74 79.2493C134.833 79.2493 134.942 79.2526 135.068 79.2592C135.197 79.2659 135.298 79.2742 135.371 79.2841V80.706C135.312 80.6894 135.206 80.6712 135.053 80.6513C134.901 80.6281 134.748 80.6165 134.596 80.6165C134.244 80.6165 133.931 80.6911 133.656 80.8402C133.384 80.986 133.169 81.1899 133.01 81.4517C132.851 81.7102 132.771 82.0052 132.771 82.3367V87H131.285Z" fill="white"/>
<path d="M142.38 81.228L141.033 81.4666C140.976 81.2943 140.887 81.1302 140.764 80.9744C140.645 80.8187 140.483 80.6911 140.277 80.5916C140.072 80.4922 139.815 80.4425 139.506 80.4425C139.086 80.4425 138.734 80.5369 138.452 80.7259C138.171 80.9115 138.03 81.1518 138.03 81.4467C138.03 81.7019 138.124 81.9074 138.313 82.0632C138.502 82.219 138.807 82.3466 139.228 82.446L140.441 82.7244C141.144 82.8868 141.667 83.1371 142.012 83.4751C142.357 83.8132 142.529 84.2524 142.529 84.7926C142.529 85.25 142.397 85.6577 142.131 86.0156C141.87 86.3703 141.503 86.6487 141.033 86.8509C140.565 87.053 140.023 87.1541 139.407 87.1541C138.552 87.1541 137.854 86.9718 137.314 86.6072C136.774 86.2393 136.442 85.7173 136.32 85.0412L137.756 84.8224C137.846 85.197 138.03 85.4804 138.308 85.6726C138.587 85.8615 138.95 85.956 139.397 85.956C139.884 85.956 140.274 85.8549 140.565 85.6527C140.857 85.4472 141.003 85.197 141.003 84.902C141.003 84.6634 140.913 84.4628 140.734 84.3004C140.559 84.138 140.289 84.0154 139.924 83.9325L138.631 83.6492C137.919 83.4867 137.392 83.2282 137.05 82.8736C136.712 82.5189 136.543 82.0698 136.543 81.5263C136.543 81.0755 136.669 80.6811 136.921 80.343C137.173 80.005 137.521 79.7415 137.965 79.5526C138.409 79.3603 138.918 79.2642 139.492 79.2642C140.317 79.2642 140.966 79.4432 141.44 79.8011C141.914 80.1558 142.228 80.6314 142.38 81.228Z" fill="white"/>
<path d="M147.455 87.1541C146.702 87.1541 146.054 86.9934 145.511 86.6719C144.971 86.3471 144.553 85.8913 144.258 85.3047C143.966 84.7147 143.821 84.0237 143.821 83.2315C143.821 82.4493 143.966 81.7599 144.258 81.1634C144.553 80.5668 144.964 80.1011 145.491 79.7663C146.021 79.4316 146.641 79.2642 147.35 79.2642C147.781 79.2642 148.199 79.3355 148.603 79.478C149.008 79.6205 149.37 79.8442 149.692 80.1492C150.013 80.4541 150.267 80.8501 150.453 81.3374C150.638 81.8213 150.731 82.4096 150.731 83.1023V83.6293H144.661V82.5156H149.274C149.274 82.1245 149.195 81.7782 149.036 81.4766C148.877 81.1716 148.653 80.9313 148.365 80.7557C148.08 80.58 147.745 80.4922 147.36 80.4922C146.943 80.4922 146.578 80.5949 146.267 80.8004C145.958 81.0026 145.72 81.2678 145.551 81.5959C145.385 81.9207 145.302 82.2737 145.302 82.6548V83.5249C145.302 84.0353 145.392 84.4695 145.571 84.8274C145.753 85.1854 146.006 85.4588 146.331 85.6477C146.656 85.8333 147.035 85.9261 147.47 85.9261C147.751 85.9261 148.008 85.8864 148.24 85.8068C148.472 85.724 148.673 85.6013 148.842 85.4389C149.011 85.2765 149.14 85.076 149.23 84.8374L150.637 85.0909C150.524 85.5052 150.322 85.8681 150.03 86.1797C149.742 86.4879 149.379 86.7282 148.941 86.9006C148.507 87.0696 148.012 87.1541 147.455 87.1541Z" fill="white"/>
<path d="M153.867 76.8182V87H152.38V76.8182H153.867Z" fill="white"/>
<path d="M159.501 79.3636V80.5568H155.186V79.3636H159.501ZM156.369 87V78.4787C156.369 78.0014 156.473 77.6054 156.682 77.2905C156.891 76.9723 157.168 76.7353 157.512 76.5795C157.857 76.4205 158.232 76.3409 158.636 76.3409C158.934 76.3409 159.189 76.3658 159.402 76.4155C159.614 76.4619 159.771 76.505 159.874 76.5447L159.526 77.7479C159.456 77.728 159.367 77.7048 159.257 77.6783C159.148 77.6484 159.015 77.6335 158.86 77.6335C158.498 77.6335 158.24 77.723 158.084 77.902C157.932 78.081 157.855 78.3395 157.855 78.6776V87H156.369Z" fill="white"/>
</g>
</g>
<defs>
<filter id="filter0_d_4986_11608" x="184.496" y="42.9673" width="64.7017" height="68.1433" filterUnits="userSpaceOnUse" color-interpolation-filters="sRGB">
<feFlood flood-opacity="0" result="BackgroundImageFix"/>
<feColorMatrix in="SourceAlpha" type="matrix" values="0 0 0 0 0 0 0 0 0 0 0 0 0 0 0 0 0 0 127 0" result="hardAlpha"/>
<feOffset/>
<feGaussianBlur stdDeviation="12.5"/>
<feComposite in2="hardAlpha" operator="out"/>
<feColorMatrix type="matrix" values="0 0 0 0 0.493663 0 0 0 0 0.950037 0 0 0 0 0.979167 0 0 0 1 0"/>
<feBlend mode="normal" in2="BackgroundImageFix" result="effect1_dropShadow_4986_11608"/>
<feBlend mode="normal" in="SourceGraphic" in2="effect1_dropShadow_4986_11608" result="shape"/>
</filter>
<filter id="filter1_dddddd_4986_11608" x="295.017" y="-24.52" width="116.007" height="111.752" filterUnits="userSpaceOnUse" color-interpolation-filters="sRGB">
<feFlood flood-opacity="0" result="BackgroundImageFix"/>
<feColorMatrix in="SourceAlpha" type="matrix" values="0 0 0 0 0 0 0 0 0 0 0 0 0 0 0 0 0 0 127 0" result="hardAlpha"/>
<feOffset/>
<feGaussianBlur stdDeviation="0.626123"/>
<feColorMatrix type="matrix" values="0 0 0 0 0.588235 0 0 0 0 0.611765 0 0 0 0 0.933333 0 0 0 1 0"/>
<feBlend mode="normal" in2="BackgroundImageFix" result="effect1_dropShadow_4986_11608"/>
<feColorMatrix in="SourceAlpha" type="matrix" values="0 0 0 0 0 0 0 0 0 0 0 0 0 0 0 0 0 0 127 0" result="hardAlpha"/>
<feOffset/>
<feGaussianBlur stdDeviation="1.25225"/>
<feColorMatrix type="matrix" values="0 0 0 0 0.588235 0 0 0 0 0.611765 0 0 0 0 0.933333 0 0 0 1 0"/>
<feBlend mode="normal" in2="effect1_dropShadow_4986_11608" result="effect2_dropShadow_4986_11608"/>
<feColorMatrix in="SourceAlpha" type="matrix" values="0 0 0 0 0 0 0 0 0 0 0 0 0 0 0 0 0 0 127 0" result="hardAlpha"/>
<feOffset/>
<feGaussianBlur stdDeviation="4.38286"/>
<feColorMatrix type="matrix" values="0 0 0 0 0.588235 0 0 0 0 0.611765 0 0 0 0 0.933333 0 0 0 1 0"/>
<feBlend mode="normal" in2="effect2_dropShadow_4986_11608" result="effect3_dropShadow_4986_11608"/>
<feColorMatrix in="SourceAlpha" type="matrix" values="0 0 0 0 0 0 0 0 0 0 0 0 0 0 0 0 0 0 127 0" result="hardAlpha"/>
<feOffset/>
<feGaussianBlur stdDeviation="8.76572"/>
<feColorMatrix type="matrix" values="0 0 0 0 0.588235 0 0 0 0 0.611765 0 0 0 0 0.933333 0 0 0 1 0"/>
<feBlend mode="normal" in2="effect3_dropShadow_4986_11608" result="effect4_dropShadow_4986_11608"/>
<feColorMatrix in="SourceAlpha" type="matrix" values="0 0 0 0 0 0 0 0 0 0 0 0 0 0 0 0 0 0 127 0" result="hardAlpha"/>
<feOffset/>
<feGaussianBlur stdDeviation="15.027"/>
<feColorMatrix type="matrix" values="0 0 0 0 0.588235 0 0 0 0 0.611765 0 0 0 0 0.933333 0 0 0 1 0"/>
<feBlend mode="normal" in2="effect4_dropShadow_4986_11608" result="effect5_dropShadow_4986_11608"/>
<feColorMatrix in="SourceAlpha" type="matrix" values="0 0 0 0 0 0 0 0 0 0 0 0 0 0 0 0 0 0 127 0" result="hardAlpha"/>
<feOffset/>
<feGaussianBlur stdDeviation="26.2972"/>
<feColorMatrix type="matrix" values="0 0 0 0 0.588235 0 0 0 0 0.611765 0 0 0 0 0.933333 0 0 0 1 0"/>
<feBlend mode="normal" in2="effect5_dropShadow_4986_11608" result="effect6_dropShadow_4986_11608"/>
<feBlend mode="normal" in="SourceGraphic" in2="effect6_dropShadow_4986_11608" result="shape"/>
</filter>
<filter id="filter2_dddddd_4986_11608" x="248.841" y="-57.2169" width="188.173" height="181.182" filterUnits="userSpaceOnUse" color-interpolation-filters="sRGB">
<feFlood flood-opacity="0" result="BackgroundImageFix"/>
<feColorMatrix in="SourceAlpha" type="matrix" values="0 0 0 0 0 0 0 0 0 0 0 0 0 0 0 0 0 0 127 0" result="hardAlpha"/>
<feOffset/>
<feGaussianBlur stdDeviation="1.01563"/>
<feColorMatrix type="matrix" values="0 0 0 0 0.588235 0 0 0 0 0.611765 0 0 0 0 0.933333 0 0 0 1 0"/>
<feBlend mode="normal" in2="BackgroundImageFix" result="effect1_dropShadow_4986_11608"/>
<feColorMatrix in="SourceAlpha" type="matrix" values="0 0 0 0 0 0 0 0 0 0 0 0 0 0 0 0 0 0 127 0" result="hardAlpha"/>
<feOffset/>
<feGaussianBlur stdDeviation="2.03126"/>
<feColorMatrix type="matrix" values="0 0 0 0 0.588235 0 0 0 0 0.611765 0 0 0 0 0.933333 0 0 0 1 0"/>
<feBlend mode="normal" in2="effect1_dropShadow_4986_11608" result="effect2_dropShadow_4986_11608"/>
<feColorMatrix in="SourceAlpha" type="matrix" values="0 0 0 0 0 0 0 0 0 0 0 0 0 0 0 0 0 0 127 0" result="hardAlpha"/>
<feOffset/>
<feGaussianBlur stdDeviation="7.10941"/>
<feColorMatrix type="matrix" values="0 0 0 0 0.588235 0 0 0 0 0.611765 0 0 0 0 0.933333 0 0 0 1 0"/>
<feBlend mode="normal" in2="effect2_dropShadow_4986_11608" result="effect3_dropShadow_4986_11608"/>
<feColorMatrix in="SourceAlpha" type="matrix" values="0 0 0 0 0 0 0 0 0 0 0 0 0 0 0 0 0 0 127 0" result="hardAlpha"/>
<feOffset/>
<feGaussianBlur stdDeviation="14.2188"/>
<feColorMatrix type="matrix" values="0 0 0 0 0.588235 0 0 0 0 0.611765 0 0 0 0 0.933333 0 0 0 1 0"/>
<feBlend mode="normal" in2="effect3_dropShadow_4986_11608" result="effect4_dropShadow_4986_11608"/>
<feColorMatrix in="SourceAlpha" type="matrix" values="0 0 0 0 0 0 0 0 0 0 0 0 0 0 0 0 0 0 127 0" result="hardAlpha"/>
<feOffset/>
<feGaussianBlur stdDeviation="24.3751"/>
<feColorMatrix type="matrix" values="0 0 0 0 0.588235 0 0 0 0 0.611765 0 0 0 0 0.933333 0 0 0 1 0"/>
<feBlend mode="normal" in2="effect4_dropShadow_4986_11608" result="effect5_dropShadow_4986_11608"/>
<feColorMatrix in="SourceAlpha" type="matrix" values="0 0 0 0 0 0 0 0 0 0 0 0 0 0 0 0 0 0 127 0" result="hardAlpha"/>
<feOffset/>
<feGaussianBlur stdDeviation="42.6564"/>
<feColorMatrix type="matrix" values="0 0 0 0 0.588235 0 0 0 0 0.611765 0 0 0 0 0.933333 0 0 0 1 0"/>
<feBlend mode="normal" in2="effect5_dropShadow_4986_11608" result="effect6_dropShadow_4986_11608"/>
<feBlend mode="normal" in="SourceGraphic" in2="effect6_dropShadow_4986_11608" result="shape"/>
</filter>
<filter id="filter3_dddddd_4986_11608" x="301.598" y="-8.48101" width="96.0363" height="100.16" filterUnits="userSpaceOnUse" color-interpolation-filters="sRGB">
<feFlood flood-opacity="0" result="BackgroundImageFix"/>
<feColorMatrix in="SourceAlpha" type="matrix" values="0 0 0 0 0 0 0 0 0 0 0 0 0 0 0 0 0 0 127 0" result="hardAlpha"/>
<feOffset/>
<feGaussianBlur stdDeviation="0.538453"/>
<feColorMatrix type="matrix" values="0 0 0 0 0.588235 0 0 0 0 0.611765 0 0 0 0 0.933333 0 0 0 1 0"/>
<feBlend mode="normal" in2="BackgroundImageFix" result="effect1_dropShadow_4986_11608"/>
<feColorMatrix in="SourceAlpha" type="matrix" values="0 0 0 0 0 0 0 0 0 0 0 0 0 0 0 0 0 0 127 0" result="hardAlpha"/>
<feOffset/>
<feGaussianBlur stdDeviation="1.07691"/>
<feColorMatrix type="matrix" values="0 0 0 0 0.588235 0 0 0 0 0.611765 0 0 0 0 0.933333 0 0 0 1 0"/>
<feBlend mode="normal" in2="effect1_dropShadow_4986_11608" result="effect2_dropShadow_4986_11608"/>
<feColorMatrix in="SourceAlpha" type="matrix" values="0 0 0 0 0 0 0 0 0 0 0 0 0 0 0 0 0 0 127 0" result="hardAlpha"/>
<feOffset/>
<feGaussianBlur stdDeviation="3.76917"/>
<feColorMatrix type="matrix" values="0 0 0 0 0.588235 0 0 0 0 0.611765 0 0 0 0 0.933333 0 0 0 1 0"/>
<feBlend mode="normal" in2="effect2_dropShadow_4986_11608" result="effect3_dropShadow_4986_11608"/>
<feColorMatrix in="SourceAlpha" type="matrix" values="0 0 0 0 0 0 0 0 0 0 0 0 0 0 0 0 0 0 127 0" result="hardAlpha"/>
<feOffset/>
<feGaussianBlur stdDeviation="7.53834"/>
<feColorMatrix type="matrix" values="0 0 0 0 0.588235 0 0 0 0 0.611765 0 0 0 0 0.933333 0 0 0 1 0"/>
<feBlend mode="normal" in2="effect3_dropShadow_4986_11608" result="effect4_dropShadow_4986_11608"/>
<feColorMatrix in="SourceAlpha" type="matrix" values="0 0 0 0 0 0 0 0 0 0 0 0 0 0 0 0 0 0 127 0" result="hardAlpha"/>
<feOffset/>
<feGaussianBlur stdDeviation="12.9229"/>
<feColorMatrix type="matrix" values="0 0 0 0 0.588235 0 0 0 0 0.611765 0 0 0 0 0.933333 0 0 0 1 0"/>
<feBlend mode="normal" in2="effect4_dropShadow_4986_11608" result="effect5_dropShadow_4986_11608"/>
<feColorMatrix in="SourceAlpha" type="matrix" values="0 0 0 0 0 0 0 0 0 0 0 0 0 0 0 0 0 0 127 0" result="hardAlpha"/>
<feOffset/>
<feGaussianBlur stdDeviation="22.615"/>
<feColorMatrix type="matrix" values="0 0 0 0 0.588235 0 0 0 0 0.611765 0 0 0 0 0.933333 0 0 0 1 0"/>
<feBlend mode="normal" in2="effect5_dropShadow_4986_11608" result="effect6_dropShadow_4986_11608"/>
<feBlend mode="normal" in="SourceGraphic" in2="effect6_dropShadow_4986_11608" result="shape"/>
</filter>
<filter id="filter4_dddddd_4986_11608" x="245.199" y="-68.8936" width="215.565" height="225.054" filterUnits="userSpaceOnUse" color-interpolation-filters="sRGB">
<feFlood flood-opacity="0" result="BackgroundImageFix"/>
<feColorMatrix in="SourceAlpha" type="matrix" values="0 0 0 0 0 0 0 0 0 0 0 0 0 0 0 0 0 0 127 0" result="hardAlpha"/>
<feOffset/>
<feGaussianBlur stdDeviation="1.20987"/>
<feColorMatrix type="matrix" values="0 0 0 0 0.588235 0 0 0 0 0.611765 0 0 0 0 0.933333 0 0 0 1 0"/>
<feBlend mode="normal" in2="BackgroundImageFix" result="effect1_dropShadow_4986_11608"/>
<feColorMatrix in="SourceAlpha" type="matrix" values="0 0 0 0 0 0 0 0 0 0 0 0 0 0 0 0 0 0 127 0" result="hardAlpha"/>
<feOffset/>
<feGaussianBlur stdDeviation="2.41975"/>
<feColorMatrix type="matrix" values="0 0 0 0 0.588235 0 0 0 0 0.611765 0 0 0 0 0.933333 0 0 0 1 0"/>
<feBlend mode="normal" in2="effect1_dropShadow_4986_11608" result="effect2_dropShadow_4986_11608"/>
<feColorMatrix in="SourceAlpha" type="matrix" values="0 0 0 0 0 0 0 0 0 0 0 0 0 0 0 0 0 0 127 0" result="hardAlpha"/>
<feOffset/>
<feGaussianBlur stdDeviation="8.46911"/>
<feColorMatrix type="matrix" values="0 0 0 0 0.588235 0 0 0 0 0.611765 0 0 0 0 0.933333 0 0 0 1 0"/>
<feBlend mode="normal" in2="effect2_dropShadow_4986_11608" result="effect3_dropShadow_4986_11608"/>
<feColorMatrix in="SourceAlpha" type="matrix" values="0 0 0 0 0 0 0 0 0 0 0 0 0 0 0 0 0 0 127 0" result="hardAlpha"/>
<feOffset/>
<feGaussianBlur stdDeviation="16.9382"/>
<feColorMatrix type="matrix" values="0 0 0 0 0.588235 0 0 0 0 0.611765 0 0 0 0 0.933333 0 0 0 1 0"/>
<feBlend mode="normal" in2="effect3_dropShadow_4986_11608" result="effect4_dropShadow_4986_11608"/>
<feColorMatrix in="SourceAlpha" type="matrix" values="0 0 0 0 0 0 0 0 0 0 0 0 0 0 0 0 0 0 127 0" result="hardAlpha"/>
<feOffset/>
<feGaussianBlur stdDeviation="29.0369"/>
<feColorMatrix type="matrix" values="0 0 0 0 0.588235 0 0 0 0 0.611765 0 0 0 0 0.933333 0 0 0 1 0"/>
<feBlend mode="normal" in2="effect4_dropShadow_4986_11608" result="effect5_dropShadow_4986_11608"/>
<feColorMatrix in="SourceAlpha" type="matrix" values="0 0 0 0 0 0 0 0 0 0 0 0 0 0 0 0 0 0 127 0" result="hardAlpha"/>
<feOffset/>
<feGaussianBlur stdDeviation="50.8146"/>
<feColorMatrix type="matrix" values="0 0 0 0 0.588235 0 0 0 0 0.611765 0 0 0 0 0.933333 0 0 0 1 0"/>
<feBlend mode="normal" in2="effect5_dropShadow_4986_11608" result="effect6_dropShadow_4986_11608"/>
<feBlend mode="normal" in="SourceGraphic" in2="effect6_dropShadow_4986_11608" result="shape"/>
</filter>
<filter id="filter5_dddddd_4986_11608" x="250.106" y="-50.554" width="178.768" height="184.192" filterUnits="userSpaceOnUse" color-interpolation-filters="sRGB">
<feFlood flood-opacity="0" result="BackgroundImageFix"/>
<feColorMatrix in="SourceAlpha" type="matrix" values="0 0 0 0 0 0 0 0 0 0 0 0 0 0 0 0 0 0 127 0" result="hardAlpha"/>
<feOffset/>
<feGaussianBlur stdDeviation="0.990203"/>
<feColorMatrix type="matrix" values="0 0 0 0 0.588235 0 0 0 0 0.611765 0 0 0 0 0.933333 0 0 0 1 0"/>
<feBlend mode="normal" in2="BackgroundImageFix" result="effect1_dropShadow_4986_11608"/>
<feColorMatrix in="SourceAlpha" type="matrix" values="0 0 0 0 0 0 0 0 0 0 0 0 0 0 0 0 0 0 127 0" result="hardAlpha"/>
<feOffset/>
<feGaussianBlur stdDeviation="1.98041"/>
<feColorMatrix type="matrix" values="0 0 0 0 0.588235 0 0 0 0 0.611765 0 0 0 0 0.933333 0 0 0 1 0"/>
<feBlend mode="normal" in2="effect1_dropShadow_4986_11608" result="effect2_dropShadow_4986_11608"/>
<feColorMatrix in="SourceAlpha" type="matrix" values="0 0 0 0 0 0 0 0 0 0 0 0 0 0 0 0 0 0 127 0" result="hardAlpha"/>
<feOffset/>
<feGaussianBlur stdDeviation="6.93142"/>
<feColorMatrix type="matrix" values="0 0 0 0 0.588235 0 0 0 0 0.611765 0 0 0 0 0.933333 0 0 0 1 0"/>
<feBlend mode="normal" in2="effect2_dropShadow_4986_11608" result="effect3_dropShadow_4986_11608"/>
<feColorMatrix in="SourceAlpha" type="matrix" values="0 0 0 0 0 0 0 0 0 0 0 0 0 0 0 0 0 0 127 0" result="hardAlpha"/>
<feOffset/>
<feGaussianBlur stdDeviation="13.8628"/>
<feColorMatrix type="matrix" values="0 0 0 0 0.588235 0 0 0 0 0.611765 0 0 0 0 0.933333 0 0 0 1 0"/>
<feBlend mode="normal" in2="effect3_dropShadow_4986_11608" result="effect4_dropShadow_4986_11608"/>
<feColorMatrix in="SourceAlpha" type="matrix" values="0 0 0 0 0 0 0 0 0 0 0 0 0 0 0 0 0 0 127 0" result="hardAlpha"/>
<feOffset/>
<feGaussianBlur stdDeviation="23.7649"/>
<feColorMatrix type="matrix" values="0 0 0 0 0.588235 0 0 0 0 0.611765 0 0 0 0 0.933333 0 0 0 1 0"/>
<feBlend mode="normal" in2="effect4_dropShadow_4986_11608" result="effect5_dropShadow_4986_11608"/>
<feColorMatrix in="SourceAlpha" type="matrix" values="0 0 0 0 0 0 0 0 0 0 0 0 0 0 0 0 0 0 127 0" result="hardAlpha"/>
<feOffset/>
<feGaussianBlur stdDeviation="41.5885"/>
<feColorMatrix type="matrix" values="0 0 0 0 0.588235 0 0 0 0 0.611765 0 0 0 0 0.933333 0 0 0 1 0"/>
<feBlend mode="normal" in2="effect5_dropShadow_4986_11608" result="effect6_dropShadow_4986_11608"/>
<feBlend mode="normal" in="SourceGraphic" in2="effect6_dropShadow_4986_11608" result="shape"/>
</filter>
<filter id="filter6_dddddd_4986_11608" x="294.347" y="-0.935608" width="97.0211" height="101.191" filterUnits="userSpaceOnUse" color-interpolation-filters="sRGB">
<feFlood flood-opacity="0" result="BackgroundImageFix"/>
<feColorMatrix in="SourceAlpha" type="matrix" values="0 0 0 0 0 0 0 0 0 0 0 0 0 0 0 0 0 0 127 0" result="hardAlpha"/>
<feOffset/>
<feGaussianBlur stdDeviation="0.543993"/>
<feColorMatrix type="matrix" values="0 0 0 0 0.588235 0 0 0 0 0.611765 0 0 0 0 0.933333 0 0 0 1 0"/>
<feBlend mode="normal" in2="BackgroundImageFix" result="effect1_dropShadow_4986_11608"/>
<feColorMatrix in="SourceAlpha" type="matrix" values="0 0 0 0 0 0 0 0 0 0 0 0 0 0 0 0 0 0 127 0" result="hardAlpha"/>
<feOffset/>
<feGaussianBlur stdDeviation="1.08799"/>
<feColorMatrix type="matrix" values="0 0 0 0 0.588235 0 0 0 0 0.611765 0 0 0 0 0.933333 0 0 0 1 0"/>
<feBlend mode="normal" in2="effect1_dropShadow_4986_11608" result="effect2_dropShadow_4986_11608"/>
<feColorMatrix in="SourceAlpha" type="matrix" values="0 0 0 0 0 0 0 0 0 0 0 0 0 0 0 0 0 0 127 0" result="hardAlpha"/>
<feOffset/>
<feGaussianBlur stdDeviation="3.80795"/>
<feColorMatrix type="matrix" values="0 0 0 0 0.588235 0 0 0 0 0.611765 0 0 0 0 0.933333 0 0 0 1 0"/>
<feBlend mode="normal" in2="effect2_dropShadow_4986_11608" result="effect3_dropShadow_4986_11608"/>
<feColorMatrix in="SourceAlpha" type="matrix" values="0 0 0 0 0 0 0 0 0 0 0 0 0 0 0 0 0 0 127 0" result="hardAlpha"/>
<feOffset/>
<feGaussianBlur stdDeviation="7.6159"/>
<feColorMatrix type="matrix" values="0 0 0 0 0.588235 0 0 0 0 0.611765 0 0 0 0 0.933333 0 0 0 1 0"/>
<feBlend mode="normal" in2="effect3_dropShadow_4986_11608" result="effect4_dropShadow_4986_11608"/>
<feColorMatrix in="SourceAlpha" type="matrix" values="0 0 0 0 0 0 0 0 0 0 0 0 0 0 0 0 0 0 127 0" result="hardAlpha"/>
<feOffset/>
<feGaussianBlur stdDeviation="13.0558"/>
<feColorMatrix type="matrix" values="0 0 0 0 0.588235 0 0 0 0 0.611765 0 0 0 0 0.933333 0 0 0 1 0"/>
<feBlend mode="normal" in2="effect4_dropShadow_4986_11608" result="effect5_dropShadow_4986_11608"/>
<feColorMatrix in="SourceAlpha" type="matrix" values="0 0 0 0 0 0 0 0 0 0 0 0 0 0 0 0 0 0 127 0" result="hardAlpha"/>
<feOffset/>
<feGaussianBlur stdDeviation="22.8477"/>
<feColorMatrix type="matrix" values="0 0 0 0 0.588235 0 0 0 0 0.611765 0 0 0 0 0.933333 0 0 0 1 0"/>
<feBlend mode="normal" in2="effect5_dropShadow_4986_11608" result="effect6_dropShadow_4986_11608"/>
<feBlend mode="normal" in="SourceGraphic" in2="effect6_dropShadow_4986_11608" result="shape"/>
</filter>
<filter id="filter7_d_4986_11608" x="273.667" y="67.2403" width="64.7017" height="68.1433" filterUnits="userSpaceOnUse" color-interpolation-filters="sRGB">
<feFlood flood-opacity="0" result="BackgroundImageFix"/>
<feColorMatrix in="SourceAlpha" type="matrix" values="0 0 0 0 0 0 0 0 0 0 0 0 0 0 0 0 0 0 127 0" result="hardAlpha"/>
<feOffset/>
<feGaussianBlur stdDeviation="12.5"/>
<feComposite in2="hardAlpha" operator="out"/>
<feColorMatrix type="matrix" values="0 0 0 0 0.979167 0 0 0 0 0.493663 0 0 0 0 0.726705 0 0 0 1 0"/>
<feBlend mode="normal" in2="BackgroundImageFix" result="effect1_dropShadow_4986_11608"/>
<feBlend mode="normal" in="SourceGraphic" in2="effect1_dropShadow_4986_11608" result="shape"/>
</filter>
<filter id="filter8_d_4986_11608" x="203.177" y="-16.3192" width="62.7007" height="65.6737" filterUnits="userSpaceOnUse" color-interpolation-filters="sRGB">
<feFlood flood-opacity="0" result="BackgroundImageFix"/>
<feColorMatrix in="SourceAlpha" type="matrix" values="0 0 0 0 0 0 0 0 0 0 0 0 0 0 0 0 0 0 127 0" result="hardAlpha"/>
<feOffset/>
<feGaussianBlur stdDeviation="12.5"/>
<feComposite in2="hardAlpha" operator="out"/>
<feColorMatrix type="matrix" values="0 0 0 0 0.845083 0 0 0 0 0.404167 0 0 0 0 1 0 0 0 1 0"/>
<feBlend mode="normal" in2="BackgroundImageFix" result="effect1_dropShadow_4986_11608"/>
<feBlend mode="normal" in="SourceGraphic" in2="effect1_dropShadow_4986_11608" result="shape"/>
</filter>
<filter id="filter9_d_4986_11608" x="334.437" y="-50.5406" width="63.5151" height="66.6786" filterUnits="userSpaceOnUse" color-interpolation-filters="sRGB">
<feFlood flood-opacity="0" result="BackgroundImageFix"/>
<feColorMatrix in="SourceAlpha" type="matrix" values="0 0 0 0 0 0 0 0 0 0 0 0 0 0 0 0 0 0 127 0" result="hardAlpha"/>
<feOffset/>
<feGaussianBlur stdDeviation="12.5"/>
<feComposite in2="hardAlpha" operator="out"/>
<feColorMatrix type="matrix" values="0 0 0 0 0.979167 0 0 0 0 0.959747 0 0 0 0 0.493663 0 0 0 1 0"/>
<feBlend mode="normal" in2="BackgroundImageFix" result="effect1_dropShadow_4986_11608"/>
<feBlend mode="normal" in="SourceGraphic" in2="effect1_dropShadow_4986_11608" result="shape"/>
</filter>
<filter id="filter10_d_4986_11608" x="16.4688" y="18.6236" width="163.842" height="39.5895" filterUnits="userSpaceOnUse" color-interpolation-filters="sRGB">
<feFlood flood-opacity="0" result="BackgroundImageFix"/>
<feColorMatrix in="SourceAlpha" type="matrix" values="0 0 0 0 0 0 0 0 0 0 0 0 0 0 0 0 0 0 127 0" result="hardAlpha"/>
<feOffset/>
<feComposite in2="hardAlpha" operator="out"/>
<feColorMatrix type="matrix" values="0 0 0 0 1 0 0 0 0 1 0 0 0 0 1 0 0 0 0.81 0"/>
<feBlend mode="normal" in2="BackgroundImageFix" result="effect1_dropShadow_4986_11608"/>
<feBlend mode="normal" in="SourceGraphic" in2="effect1_dropShadow_4986_11608" result="shape"/>
</filter>
<linearGradient id="paint0_linear_4986_11608" x1="187.5" y1="0" x2="187.5" y2="109" gradientUnits="userSpaceOnUse">
<stop stop-color="#156FF7"/>
<stop offset="0.96875" stop-color="#1E3A8A"/>
</linearGradient>
<linearGradient id="paint1_linear_4986_11608" x1="216.783" y1="60.1229" x2="216.783" y2="94.2165" gradientUnits="userSpaceOnUse">
<stop stop-color="#5C557A"/>
<stop offset="1" stop-color="#152123"/>
</linearGradient>
<linearGradient id="paint2_linear_4986_11608" x1="209.901" y1="61.4482" x2="224.288" y2="75.2464" gradientUnits="userSpaceOnUse">
<stop stop-color="#1D2330"/>
<stop offset="1" stop-color="#20262E"/>
</linearGradient>
<linearGradient id="paint3_linear_4986_11608" x1="298.718" y1="1.38444" x2="298.718" y2="20.4631" gradientUnits="userSpaceOnUse">
<stop stop-color="#5C557A"/>
<stop offset="1" stop-color="#152123"/>
</linearGradient>
<linearGradient id="paint4_linear_4986_11608" x1="294.866" y1="2.12601" x2="302.917" y2="9.84742" gradientUnits="userSpaceOnUse">
<stop stop-color="#1D2330"/>
<stop offset="1" stop-color="#20262E"/>
</linearGradient>
<linearGradient id="paint5_linear_4986_11608" x1="287.301" y1="32.2194" x2="287.301" y2="63.3236" gradientUnits="userSpaceOnUse">
<stop stop-color="#5C557A"/>
<stop offset="1" stop-color="#152123"/>
</linearGradient>
<linearGradient id="paint6_linear_4986_11608" x1="281.021" y1="33.4293" x2="294.146" y2="46.0176" gradientUnits="userSpaceOnUse">
<stop stop-color="#1D2330"/>
<stop offset="1" stop-color="#20262E"/>
</linearGradient>
<linearGradient id="paint7_linear_4986_11608" x1="197.345" y1="-17.8685" x2="197.345" y2="5.72176" gradientUnits="userSpaceOnUse">
<stop stop-color="#5C557A"/>
<stop offset="1" stop-color="#152123"/>
</linearGradient>
<linearGradient id="paint8_linear_4986_11608" x1="258.456" y1="47.0657" x2="258.456" y2="56.5408" gradientUnits="userSpaceOnUse">
<stop stop-color="#5C557A"/>
<stop offset="1" stop-color="#152123"/>
</linearGradient>
<linearGradient id="paint9_linear_4986_11608" x1="256.544" y1="47.4339" x2="260.542" y2="51.2686" gradientUnits="userSpaceOnUse">
<stop stop-color="#1D2330"/>
<stop offset="1" stop-color="#20262E"/>
</linearGradient>
<linearGradient id="paint10_linear_4986_11608" x1="261.235" y1="67.556" x2="261.235" y2="77.0312" gradientUnits="userSpaceOnUse">
<stop stop-color="#5C557A"/>
<stop offset="1" stop-color="#152123"/>
</linearGradient>
<linearGradient id="paint11_linear_4986_11608" x1="259.322" y1="67.9242" x2="263.32" y2="71.759" gradientUnits="userSpaceOnUse">
<stop stop-color="#1D2330"/>
<stop offset="1" stop-color="#20262E"/>
</linearGradient>
<linearGradient id="paint12_linear_4986_11608" x1="380.14" y1="66.0563" x2="380.14" y2="84.1188" gradientUnits="userSpaceOnUse">
<stop stop-color="#5C557A"/>
<stop offset="1" stop-color="#152123"/>
</linearGradient>
<linearGradient id="paint13_linear_4986_11608" x1="376.493" y1="66.7589" x2="384.115" y2="74.0691" gradientUnits="userSpaceOnUse">
<stop stop-color="#1D2330"/>
<stop offset="1" stop-color="#20262E"/>
</linearGradient>
<linearGradient id="paint14_linear_4986_11608" x1="354.18" y1="86.5472" x2="354.18" y2="114.656" gradientUnits="userSpaceOnUse">
<stop stop-color="#5C557A"/>
<stop offset="1" stop-color="#152123"/>
</linearGradient>
<linearGradient id="paint15_linear_4986_11608" x1="348.505" y1="87.6411" x2="360.366" y2="99.0171" gradientUnits="userSpaceOnUse">
<stop stop-color="#1D2330"/>
<stop offset="1" stop-color="#20262E"/>
</linearGradient>
<linearGradient id="paint16_linear_4986_11608" x1="375.996" y1="106.334" x2="375.996" y2="123.103" gradientUnits="userSpaceOnUse">
<stop stop-color="#5C557A"/>
<stop offset="1" stop-color="#152123"/>
</linearGradient>
<linearGradient id="paint17_linear_4986_11608" x1="372.611" y1="106.986" x2="379.687" y2="113.773" gradientUnits="userSpaceOnUse">
<stop stop-color="#1D2330"/>
<stop offset="1" stop-color="#20262E"/>
</linearGradient>
<linearGradient id="paint18_linear_4986_11608" x1="256.043" y1="97.1108" x2="256.043" y2="128.215" gradientUnits="userSpaceOnUse">
<stop stop-color="#5C557A"/>
<stop offset="1" stop-color="#152123"/>
</linearGradient>
<linearGradient id="paint19_linear_4986_11608" x1="249.763" y1="98.3208" x2="262.889" y2="110.909" gradientUnits="userSpaceOnUse">
<stop stop-color="#1D2330"/>
<stop offset="1" stop-color="#20262E"/>
</linearGradient>
<linearGradient id="paint20_linear_4986_11608" x1="346.153" y1="9.5376" x2="346.153" y2="70.7833" gradientUnits="userSpaceOnUse">
<stop stop-color="#1E2121"/>
<stop offset="1"/>
</linearGradient>
<linearGradient id="paint21_linear_4986_11608" x1="346.153" y1="9.53841" x2="346.153" y2="70.7841" gradientUnits="userSpaceOnUse">
<stop stop-color="#1A61FF"/>
<stop offset="1" stop-color="#2CC3A8"/>
</linearGradient>
<linearGradient id="paint22_linear_4986_11608" x1="346.114" y1="10.0024" x2="346.114" y2="70.7836" gradientUnits="userSpaceOnUse">
<stop stop-color="#5C557A"/>
<stop offset="1" stop-color="#152123"/>
</linearGradient>
<linearGradient id="paint23_linear_4986_11608" x1="333.842" y1="12.3654" x2="359.491" y2="36.9644" gradientUnits="userSpaceOnUse">
<stop stop-color="#1D2330"/>
<stop offset="1" stop-color="#20262E"/>
</linearGradient>
<linearGradient id="paint24_linear_4986_11608" x1="305.954" y1="84.3957" x2="305.954" y2="118.489" gradientUnits="userSpaceOnUse">
<stop stop-color="#5C557A"/>
<stop offset="1" stop-color="#152123"/>
</linearGradient>
<linearGradient id="paint25_linear_4986_11608" x1="299.071" y1="85.7207" x2="313.458" y2="99.5189" gradientUnits="userSpaceOnUse">
<stop stop-color="#1D2330"/>
<stop offset="1" stop-color="#20262E"/>
</linearGradient>
<linearGradient id="paint26_linear_4986_11608" x1="234.473" y1="1.90389" x2="234.473" y2="31.3567" gradientUnits="userSpaceOnUse">
<stop stop-color="#5C557A"/>
<stop offset="1" stop-color="#152123"/>
</linearGradient>
<linearGradient id="paint27_linear_4986_11608" x1="228.527" y1="3.04869" x2="240.956" y2="14.9687" gradientUnits="userSpaceOnUse">
<stop stop-color="#1D2330"/>
<stop offset="1" stop-color="#20262E"/>
</linearGradient>
<linearGradient id="paint28_linear_4986_11608" x1="325.794" y1="-17.94" x2="325.794" y2="3.05417" gradientUnits="userSpaceOnUse">
<stop stop-color="#5C557A"/>
<stop offset="1" stop-color="#152123"/>
</linearGradient>
<clipPath id="clip0_4986_11608">
<rect width="375" height="109" fill="white"/>
</clipPath>
</defs>
</svg>
