<svg width="152" height="152" viewBox="0 0 152 152" fill="none" xmlns="http://www.w3.org/2000/svg">
<rect x="1" y="1" width="149.542" height="149.542" rx="13" fill="url(#paint0_linear_10993_4144)" fill-opacity="0.1" stroke="url(#paint1_linear_10993_4144)" stroke-width="2"/>
<path d="M81.9167 70.2425H97.9584V63.8258H81.9167V70.2425ZM81.9167 60.6175H97.9584V54.2008H81.9167V60.6175ZM53.0417 79.8675H78.7084V78.1029C78.7084 75.6967 77.532 73.7856 75.1792 72.3696C72.8265 70.9537 69.7251 70.2446 65.8751 70.2425C62.0251 70.2404 58.9237 70.9494 56.5709 72.3696C54.2181 73.7898 53.0417 75.7009 53.0417 78.1029V79.8675ZM65.8751 67.0342C67.6397 67.0342 69.1508 66.4064 70.4085 65.1509C71.6661 63.8953 72.2939 62.3842 72.2917 60.6175C72.2896 58.8508 71.6618 57.3407 70.4085 56.0873C69.1551 54.8339 67.6439 54.2051 65.8751 54.2008C64.1062 54.1965 62.5962 54.8254 61.3449 56.0873C60.0937 57.3493 59.4648 58.8593 59.4584 60.6175C59.452 62.3757 60.0808 63.8868 61.3449 65.1509C62.609 66.415 64.1191 67.0427 65.8751 67.0342ZM49.8334 92.7008C48.0688 92.7008 46.5588 92.0731 45.3032 90.8175C44.0477 89.562 43.4189 88.0509 43.4167 86.2842V47.7842C43.4167 46.0196 44.0456 44.5095 45.3032 43.254C46.5609 41.9985 48.071 41.3696 49.8334 41.3675H101.167C102.931 41.3675 104.442 41.9963 105.7 43.254C106.958 44.5117 107.586 46.0217 107.583 47.7842V86.2842C107.583 88.0487 106.956 89.5599 105.7 90.8175C104.445 92.0752 102.933 92.703 101.167 92.7008H49.8334Z" fill="url(#paint2_linear_10993_4144)"/>
<path d="M36.569 109.352H38.4134V116.004C38.4134 116.734 38.2411 117.375 37.8964 117.928C37.555 118.482 37.0744 118.914 36.4546 119.226C35.8348 119.534 35.1106 119.688 34.282 119.688C33.4501 119.688 32.7243 119.534 32.1045 119.226C31.4847 118.914 31.0041 118.482 30.6627 117.928C30.3213 117.375 30.1506 116.734 30.1506 116.004V109.352H31.9951V115.85C31.9951 116.274 32.0879 116.652 32.2735 116.984C32.4624 117.315 32.7276 117.575 33.069 117.764C33.4103 117.95 33.8147 118.043 34.282 118.043C34.7494 118.043 35.1537 117.95 35.4951 117.764C35.8398 117.575 36.1049 117.315 36.2905 116.984C36.4762 116.652 36.569 116.274 36.569 115.85V109.352Z" fill="url(#paint3_linear_10993_4144)"/>
<path d="M42.1384 115.06V119.534H40.3387V111.898H42.0588V113.195H42.1483C42.324 112.768 42.6041 112.428 42.9885 112.176C43.3763 111.924 43.8552 111.798 44.4253 111.798C44.9523 111.798 45.4113 111.911 45.8024 112.136C46.1969 112.362 46.5018 112.688 46.7172 113.116C46.936 113.543 47.0437 114.062 47.0404 114.672V119.534H45.2407V114.95C45.2407 114.44 45.1081 114.041 44.8429 113.752C44.5811 113.464 44.2182 113.32 43.7542 113.32C43.4393 113.32 43.1592 113.389 42.914 113.528C42.672 113.664 42.4814 113.862 42.3422 114.12C42.2063 114.379 42.1384 114.692 42.1384 115.06Z" fill="url(#paint4_linear_10993_4144)"/>
<path d="M51.7037 119.668C51.1038 119.668 50.5669 119.514 50.0929 119.206C49.619 118.898 49.2444 118.45 48.9693 117.864C48.6943 117.277 48.5567 116.564 48.5567 115.726C48.5567 114.877 48.6959 114.162 48.9743 113.578C49.256 112.992 49.6355 112.549 50.1128 112.251C50.5901 111.949 51.122 111.798 51.7087 111.798C52.1561 111.798 52.524 111.875 52.8124 112.027C53.1007 112.176 53.3294 112.357 53.4985 112.569C53.6675 112.778 53.7984 112.975 53.8912 113.161H53.9658V109.352H55.7705V119.534H54.0006V118.331H53.8912C53.7984 118.517 53.6642 118.714 53.4885 118.923C53.3129 119.128 53.0809 119.304 52.7925 119.45C52.5042 119.595 52.1412 119.668 51.7037 119.668ZM52.2059 118.192C52.587 118.192 52.9118 118.089 53.1803 117.884C53.4488 117.675 53.6526 117.385 53.7918 117.014C53.931 116.642 54.0006 116.21 54.0006 115.716C54.0006 115.222 53.931 114.793 53.7918 114.428C53.6559 114.064 53.4537 113.78 53.1853 113.578C52.9201 113.376 52.5936 113.275 52.2059 113.275C51.8048 113.275 51.4701 113.379 51.2016 113.588C50.9331 113.797 50.731 114.085 50.5951 114.453C50.4592 114.821 50.3912 115.242 50.3912 115.716C50.3912 116.193 50.4592 116.619 50.5951 116.994C50.7343 117.365 50.9381 117.658 51.2066 117.874C51.4783 118.086 51.8114 118.192 52.2059 118.192Z" fill="url(#paint5_linear_10993_4144)"/>
<path d="M61.069 119.683C60.3033 119.683 59.6421 119.524 59.0853 119.206C58.5318 118.885 58.1059 118.43 57.8076 117.844C57.5093 117.254 57.3602 116.56 57.3602 115.761C57.3602 114.975 57.5093 114.286 57.8076 113.693C58.1092 113.096 58.5301 112.632 59.0704 112.301C59.6106 111.966 60.2453 111.798 60.9745 111.798C61.4451 111.798 61.8893 111.875 62.3069 112.027C62.7278 112.176 63.099 112.408 63.4205 112.723C63.7453 113.038 64.0005 113.439 64.1861 113.926C64.3718 114.41 64.4646 114.987 64.4646 115.656V116.208H58.2053V114.995H62.7394C62.7361 114.65 62.6615 114.344 62.5157 114.075C62.3699 113.804 62.166 113.59 61.9042 113.434C61.6457 113.278 61.3441 113.2 60.9994 113.2C60.6315 113.2 60.3083 113.29 60.0299 113.469C59.7515 113.644 59.5344 113.877 59.3786 114.165C59.2262 114.45 59.1483 114.763 59.145 115.104V116.163C59.145 116.608 59.2262 116.989 59.3886 117.307C59.551 117.622 59.778 117.864 60.0697 118.033C60.3613 118.198 60.7027 118.281 61.0938 118.281C61.3557 118.281 61.5926 118.245 61.8048 118.172C62.0169 118.096 62.2008 117.985 62.3566 117.839C62.5124 117.693 62.63 117.512 62.7096 117.297L64.39 117.486C64.2839 117.93 64.0817 118.318 63.7834 118.649C63.4885 118.977 63.1106 119.233 62.6499 119.415C62.1892 119.594 61.6622 119.683 61.069 119.683Z" fill="url(#paint6_linear_10993_4144)"/>
<path d="M65.9871 119.534V111.898H67.7321V113.171H67.8117C67.9509 112.73 68.1895 112.39 68.5276 112.151C68.869 111.909 69.2584 111.788 69.6959 111.788C69.7953 111.788 69.9064 111.793 70.029 111.803C70.155 111.81 70.2594 111.822 70.3422 111.838V113.494C70.266 113.467 70.145 113.444 69.9793 113.424C69.8169 113.401 69.6595 113.389 69.507 113.389C69.1789 113.389 68.8839 113.461 68.622 113.603C68.3635 113.742 68.1597 113.936 68.0105 114.185C67.8614 114.433 67.7868 114.72 67.7868 115.045V119.534H65.9871Z" fill="url(#paint7_linear_10993_4144)"/>
<path d="M75.0901 119.534V109.352H78.9083C79.6905 109.352 80.3467 109.488 80.877 109.76C81.4106 110.032 81.8133 110.413 82.0851 110.903C82.3602 111.391 82.4978 111.959 82.4978 112.609C82.4978 113.262 82.3586 113.828 82.0801 114.309C81.8051 114.786 81.399 115.156 80.8621 115.418C80.3252 115.676 79.6656 115.805 78.8834 115.805H76.164V114.274H78.6348C79.0922 114.274 79.4667 114.211 79.7584 114.085C80.0501 113.956 80.2655 113.769 80.4047 113.524C80.5472 113.275 80.6185 112.97 80.6185 112.609C80.6185 112.247 80.5472 111.939 80.4047 111.684C80.2622 111.426 80.0451 111.23 79.7534 111.097C79.4618 110.961 79.0856 110.894 78.6249 110.894H76.9345V119.534H75.0901ZM80.35 114.921L82.8706 119.534H80.8124L78.3365 114.921H80.35Z" fill="url(#paint8_linear_10993_4144)"/>
<path d="M87.3873 119.683C86.6217 119.683 85.9605 119.524 85.4037 119.206C84.8501 118.885 84.4242 118.43 84.126 117.844C83.8277 117.254 83.6785 116.56 83.6785 115.761C83.6785 114.975 83.8277 114.286 84.126 113.693C84.4276 113.096 84.8485 112.632 85.3887 112.301C85.929 111.966 86.5637 111.798 87.2929 111.798C87.7635 111.798 88.2076 111.875 88.6252 112.027C89.0462 112.176 89.4174 112.408 89.7389 112.723C90.0637 113.038 90.3189 113.439 90.5045 113.926C90.6901 114.41 90.7829 114.987 90.7829 115.656V116.208H84.5237V114.995H89.0578C89.0545 114.65 88.9799 114.344 88.8341 114.075C88.6882 113.804 88.4844 113.59 88.2225 113.434C87.964 113.278 87.6624 113.2 87.3177 113.2C86.9498 113.2 86.6267 113.29 86.3483 113.469C86.0698 113.644 85.8528 113.877 85.697 114.165C85.5445 114.45 85.4666 114.763 85.4633 115.104V116.163C85.4633 116.608 85.5445 116.989 85.7069 117.307C85.8693 117.622 86.0964 117.864 86.388 118.033C86.6797 118.198 87.0211 118.281 87.4122 118.281C87.674 118.281 87.911 118.245 88.1231 118.172C88.3352 118.096 88.5192 117.985 88.675 117.839C88.8307 117.693 88.9484 117.512 89.0279 117.297L90.7083 117.486C90.6023 117.93 90.4001 118.318 90.1018 118.649C89.8068 118.977 89.429 119.233 88.9683 119.415C88.5076 119.594 87.9806 119.683 87.3873 119.683Z" fill="url(#paint9_linear_10993_4144)"/>
<path d="M98.9077 111.898L96.1883 119.534H94.1996L91.4802 111.898H93.3992L95.1542 117.57H95.2337L96.9937 111.898H98.9077Z" fill="url(#paint10_linear_10993_4144)"/>
<path d="M100.153 119.534V111.898H101.953V119.534H100.153ZM101.058 110.814C100.773 110.814 100.528 110.72 100.322 110.531C100.117 110.338 100.014 110.108 100.014 109.84C100.014 109.568 100.117 109.337 100.322 109.149C100.528 108.956 100.773 108.86 101.058 108.86C101.346 108.86 101.592 108.956 101.794 109.149C101.999 109.337 102.102 109.568 102.102 109.84C102.102 110.108 101.999 110.338 101.794 110.531C101.592 110.72 101.346 110.814 101.058 110.814Z" fill="url(#paint11_linear_10993_4144)"/>
<path d="M107.184 119.683C106.419 119.683 105.757 119.524 105.201 119.206C104.647 118.885 104.221 118.43 103.923 117.844C103.625 117.254 103.475 116.56 103.475 115.761C103.475 114.975 103.625 114.286 103.923 113.693C104.224 113.096 104.645 112.632 105.186 112.301C105.726 111.966 106.361 111.798 107.09 111.798C107.56 111.798 108.005 111.875 108.422 112.027C108.843 112.176 109.214 112.408 109.536 112.723C109.861 113.038 110.116 113.439 110.301 113.926C110.487 114.41 110.58 114.987 110.58 115.656V116.208H104.321V114.995H108.855C108.851 114.65 108.777 114.344 108.631 114.075C108.485 113.804 108.281 113.59 108.019 113.434C107.761 113.278 107.459 113.2 107.115 113.2C106.747 113.2 106.424 113.29 106.145 113.469C105.867 113.644 105.65 113.877 105.494 114.165C105.341 114.45 105.263 114.763 105.26 115.104V116.163C105.26 116.608 105.341 116.989 105.504 117.307C105.666 117.622 105.893 117.864 106.185 118.033C106.477 118.198 106.818 118.281 107.209 118.281C107.471 118.281 107.708 118.245 107.92 118.172C108.132 118.096 108.316 117.985 108.472 117.839C108.628 117.693 108.745 117.512 108.825 117.297L110.505 117.486C110.399 117.93 110.197 118.318 109.899 118.649C109.604 118.977 109.226 119.233 108.765 119.415C108.304 119.594 107.777 119.683 107.184 119.683Z" fill="url(#paint12_linear_10993_4144)"/>
<path d="M113.637 119.534L111.48 111.898H113.314L114.656 117.267H114.726L116.098 111.898H117.913L119.285 117.237H119.36L120.682 111.898H122.522L120.359 119.534H118.485L117.053 114.374H116.948L115.517 119.534H113.637Z" fill="url(#paint13_linear_10993_4144)"/>
<rect x="32.5" y="29.271" width="27" height="27" rx="13.5" fill="white"/>
<rect x="32.5" y="29.271" width="27" height="27" rx="13.5" stroke="#156FF7"/>
<path d="M45.4999 43.271L41.1614 40.3172C40.9706 40.1874 40.8144 40.013 40.7063 39.809C40.5983 39.6051 40.5418 39.3779 40.5416 39.1471L40.5416 37.2502C40.5416 37.1562 40.5789 37.0661 40.6453 36.9997C40.7117 36.9333 40.8018 36.896 40.8958 36.896L50.1041 36.896C50.198 36.896 50.2881 36.9333 50.3545 36.9997C50.4209 37.0661 50.4583 37.1562 50.4583 37.2502L50.4583 39.1464C50.4583 39.3774 50.4018 39.6049 50.2938 39.8091C50.1858 40.0133 50.0295 40.188 49.8385 40.318L45.4999 43.271ZM45.4999 43.271L41.1614 46.2247C40.9706 46.3546 40.8144 46.529 40.7063 46.733C40.5983 46.9369 40.5418 47.1641 40.5416 47.3949L40.5416 49.2918C40.5416 49.3858 40.5789 49.4758 40.6453 49.5423C40.7117 49.6087 40.8018 49.646 40.8958 49.646L50.1041 49.646C50.198 49.646 50.2881 49.6087 50.3545 49.5423C50.4209 49.4758 50.4583 49.3858 50.4583 49.2918L50.4583 47.3956C50.4583 47.1646 50.4018 46.9371 50.2938 46.7329C50.1858 46.5287 50.0295 46.354 49.8385 46.224L45.4999 43.271Z" stroke="#156FF7" stroke-width="2" stroke-linecap="round" stroke-linejoin="round"/>
<path d="M42.6666 38.4706L42.6666 37.0022C42.6666 36.974 42.6778 36.947 42.6977 36.9271C42.7176 36.9072 42.7447 36.896 42.7728 36.896L48.227 36.896C48.2552 36.896 48.2822 36.9072 48.3021 36.9271C48.3221 36.947 48.3333 36.974 48.3333 37.0022L48.3333 38.4706C48.3333 38.5307 48.318 38.5897 48.2889 38.6423C48.2597 38.6948 48.2177 38.7391 48.1668 38.7709L45.8003 40.2499C45.7102 40.3062 45.6061 40.3361 45.4999 40.3361C45.3937 40.3361 45.2896 40.3062 45.1996 40.2499L42.833 38.7709C42.7821 38.7391 42.7401 38.6948 42.711 38.6423C42.6819 38.5897 42.6666 38.5307 42.6666 38.4706Z" fill="#156FF7"/>
<defs>
<linearGradient id="paint0_linear_10993_4144" x1="-6.12995" y1="75.7703" x2="133.817" y2="28.8592" gradientUnits="userSpaceOnUse">
<stop stop-color="#427DFF"/>
<stop offset="1" stop-color="#44D5BB"/>
</linearGradient>
<linearGradient id="paint1_linear_10993_4144" x1="-6.12995" y1="75.7703" x2="133.817" y2="28.8592" gradientUnits="userSpaceOnUse">
<stop stop-color="#427DFF"/>
<stop offset="1" stop-color="#44D5BB"/>
</linearGradient>
<linearGradient id="paint2_linear_10993_4144" x1="39.881" y1="67.0339" x2="97.4722" y2="42.9028" gradientUnits="userSpaceOnUse">
<stop stop-color="#427DFF"/>
<stop offset="1" stop-color="#44D5BB"/>
</linearGradient>
<linearGradient id="paint3_linear_10993_4144" x1="25.0608" y1="114.274" x2="35.681" y2="83.9054" gradientUnits="userSpaceOnUse">
<stop stop-color="#427DFF"/>
<stop offset="1" stop-color="#44D5BB"/>
</linearGradient>
<linearGradient id="paint4_linear_10993_4144" x1="25.0608" y1="114.274" x2="35.681" y2="83.9054" gradientUnits="userSpaceOnUse">
<stop stop-color="#427DFF"/>
<stop offset="1" stop-color="#44D5BB"/>
</linearGradient>
<linearGradient id="paint5_linear_10993_4144" x1="25.0608" y1="114.274" x2="35.681" y2="83.9054" gradientUnits="userSpaceOnUse">
<stop stop-color="#427DFF"/>
<stop offset="1" stop-color="#44D5BB"/>
</linearGradient>
<linearGradient id="paint6_linear_10993_4144" x1="25.0608" y1="114.274" x2="35.681" y2="83.9054" gradientUnits="userSpaceOnUse">
<stop stop-color="#427DFF"/>
<stop offset="1" stop-color="#44D5BB"/>
</linearGradient>
<linearGradient id="paint7_linear_10993_4144" x1="25.0608" y1="114.274" x2="35.681" y2="83.9054" gradientUnits="userSpaceOnUse">
<stop stop-color="#427DFF"/>
<stop offset="1" stop-color="#44D5BB"/>
</linearGradient>
<linearGradient id="paint8_linear_10993_4144" x1="25.0608" y1="114.274" x2="35.681" y2="83.9054" gradientUnits="userSpaceOnUse">
<stop stop-color="#427DFF"/>
<stop offset="1" stop-color="#44D5BB"/>
</linearGradient>
<linearGradient id="paint9_linear_10993_4144" x1="25.0608" y1="114.274" x2="35.681" y2="83.9054" gradientUnits="userSpaceOnUse">
<stop stop-color="#427DFF"/>
<stop offset="1" stop-color="#44D5BB"/>
</linearGradient>
<linearGradient id="paint10_linear_10993_4144" x1="25.0608" y1="114.274" x2="35.681" y2="83.9054" gradientUnits="userSpaceOnUse">
<stop stop-color="#427DFF"/>
<stop offset="1" stop-color="#44D5BB"/>
</linearGradient>
<linearGradient id="paint11_linear_10993_4144" x1="25.0608" y1="114.274" x2="35.681" y2="83.9054" gradientUnits="userSpaceOnUse">
<stop stop-color="#427DFF"/>
<stop offset="1" stop-color="#44D5BB"/>
</linearGradient>
<linearGradient id="paint12_linear_10993_4144" x1="25.0608" y1="114.274" x2="35.681" y2="83.9054" gradientUnits="userSpaceOnUse">
<stop stop-color="#427DFF"/>
<stop offset="1" stop-color="#44D5BB"/>
</linearGradient>
<linearGradient id="paint13_linear_10993_4144" x1="25.0608" y1="114.274" x2="35.681" y2="83.9054" gradientUnits="userSpaceOnUse">
<stop stop-color="#427DFF"/>
<stop offset="1" stop-color="#44D5BB"/>
</linearGradient>
</defs>
</svg>
