<svg width="392" height="150" viewBox="0 0 392 150" fill="none" xmlns="http://www.w3.org/2000/svg">
<path d="M34.3085 130.8C31.2699 124.023 24.1661 130.637 20.9961 134.788L59.5043 135.287C60.2681 123.721 53.1643 128.139 49.518 131.8C51.801 119.432 45.7156 120.337 42.3896 123.325L34.3085 130.8Z" fill="white"/>
<path d="M191.382 79.305C189.205 74.4219 184.13 79.1844 181.863 82.1728L209.391 82.5345C209.933 74.2152 204.858 77.3931 202.255 80.0284C203.889 71.132 199.537 71.7779 197.155 73.931L191.373 79.3136L191.382 79.305Z" fill="white"/>
<path d="M373.139 79.305C370.963 74.4219 365.888 79.1844 363.621 82.1728L391.149 82.5345C391.691 74.2152 386.616 77.3931 384.013 80.0284C385.647 71.132 381.294 71.7779 378.913 73.931L373.131 79.3136L373.139 79.305Z" fill="white"/>
<path d="M9.737 79.305C7.56069 74.4219 2.48539 79.1844 0.21875 82.1728L27.7469 82.5345C28.289 74.2152 23.2137 77.3931 20.6103 80.0284C22.2446 71.132 17.892 71.7779 15.5104 73.931L9.72878 79.3136L9.737 79.305Z" fill="white"/>
<path d="M64.7772 117.87C62.3791 112.504 56.7782 117.74 54.2734 121.03L84.6513 121.426C85.2509 112.272 79.65 115.768 76.7756 118.662C78.5741 108.878 73.778 109.585 71.1501 111.953L64.7772 117.87Z" fill="white"/>
<path d="M56.1796 24.0856C53.141 17.3078 46.0372 23.922 42.8672 28.0731L81.3754 28.5726C82.1392 17.0064 75.0354 21.4245 71.3891 25.0847C73.6721 12.7175 67.5867 13.6218 64.2607 16.6103L56.1796 24.0856Z" fill="white"/>
<path d="M172.211 120.87C169.813 115.504 164.212 120.74 161.707 124.03L192.085 124.426C192.684 115.272 187.084 118.768 184.209 121.662C186.008 111.878 181.212 112.585 178.584 114.953L172.211 120.87Z" fill="white"/>
<path d="M168.363 34.0583C165.316 27.2805 158.221 33.8947 155.051 38.0457L193.559 38.5453C194.323 26.9791 187.219 31.3971 183.573 35.0573C185.856 22.6902 179.77 23.5945 176.444 26.5829L168.363 34.0583Z" fill="white"/>
<path d="M216.066 130.8C213.028 124.023 205.924 130.637 202.754 134.788L241.262 135.287C242.026 123.721 234.922 128.139 231.276 131.8C233.559 119.432 227.473 120.337 224.147 123.325L216.066 130.8Z" fill="white"/>
<path d="M373.139 79.305C370.963 74.4219 365.888 79.1844 363.621 82.1728L391.149 82.5345C391.691 74.2152 386.616 77.3931 384.013 80.0284C385.647 71.132 381.294 71.7779 378.913 73.931L373.131 79.3136L373.139 79.305Z" fill="white"/>
<path d="M191.495 79.305C189.319 74.4219 184.243 79.1844 181.977 82.1728L209.505 82.5345C210.047 74.2152 204.971 77.3931 202.368 80.0284C204.002 71.132 199.65 71.7779 197.268 73.931L191.487 79.3136L191.495 79.305Z" fill="white"/>
<path d="M246.535 117.87C244.137 112.504 238.536 117.74 236.031 121.03L266.409 121.426C267.009 112.272 261.408 115.768 258.533 118.662C260.332 108.878 255.536 109.585 252.908 111.953L246.535 117.87Z" fill="white"/>
<path d="M237.937 24.0856C234.899 17.3078 227.795 23.922 224.625 28.0731L263.133 28.5726C263.897 17.0064 256.793 21.4245 253.155 25.0847C255.438 12.7175 249.353 13.6218 246.027 16.6103L237.946 24.0856H237.937Z" fill="white"/>
<path d="M353.972 120.87C351.574 115.504 345.974 120.74 343.469 124.03L373.847 124.426C374.446 115.272 368.845 118.768 365.971 121.662C367.769 111.878 362.973 112.585 360.345 114.953L353.972 120.87Z" fill="white"/>
<path d="M350.117 34.0583C347.078 27.2805 339.975 33.8947 336.805 38.0457L375.313 38.5453C376.077 26.9791 368.973 31.3971 365.335 35.0573C367.618 22.6902 361.532 23.5945 358.206 26.5829L350.125 34.0583H350.117Z" fill="white"/>
</svg>
