<svg width="415" height="140" viewBox="0 0 415 122" fill="none" xmlns="http://www.w3.org/2000/svg">
<path d="M36.1746 117.46C32.9463 110.599 25.4136 117.292 22.0508 121.497L62.909 122C63.7161 110.295 56.1834 114.769 52.3161 118.47C54.7374 105.957 48.2808 106.867 44.7498 109.892L36.1746 117.46Z" fill="white"/>
<path d="M202.845 65.3534C200.536 60.4165 195.151 65.2324 192.746 68.2575L221.96 68.6202C222.537 60.1984 217.151 63.4177 214.386 66.0801C216.117 57.0775 211.501 57.7323 208.976 59.9089L202.845 65.3534Z" fill="white"/>
<path d="M10.0985 65.3534C7.7903 60.4165 2.40509 65.2324 0 68.2575L29.2141 68.6202C29.7912 60.1984 24.405 63.4177 21.6397 66.0801C23.3709 57.0775 18.7544 57.7323 16.2303 59.9089L10.0985 65.3534Z" fill="white"/>
<path d="M68.5026 104.382C65.9555 98.9509 60.0125 104.248 57.3594 107.576L89.5951 107.975C90.2318 98.711 84.2888 102.252 81.2376 105.181C83.148 95.278 78.0539 95.9983 75.2681 98.3927L68.5026 104.382Z" fill="white"/>
<path d="M59.3777 9.48495C56.1494 2.62304 48.6167 9.31676 45.2539 13.5213L86.1121 14.0256C86.9192 2.31997 79.3865 6.79452 75.5193 10.495C77.9405 -2.0179 71.4839 -1.10782 67.9529 1.91761L59.3777 9.48495Z" fill="white"/>
<path d="M182.503 107.409C179.956 101.978 174.013 107.276 171.359 110.604L203.595 111.002C204.232 101.739 198.288 105.28 195.238 108.208C197.147 98.3053 192.054 99.0256 189.268 101.42L182.503 107.409Z" fill="white"/>
<path d="M178.421 19.5767C175.192 12.7148 167.659 19.4086 164.297 23.6131L205.155 24.1174C205.962 12.4118 198.429 16.8863 194.562 20.5868C196.983 8.07389 190.527 8.98397 186.996 12.0094L178.421 19.5767Z" fill="white"/>
<path d="M229.038 117.46C225.81 110.599 218.277 117.292 214.914 121.497L255.772 122C256.579 110.295 249.047 114.769 245.179 118.47C247.601 105.957 241.144 106.867 237.613 109.892L229.038 117.46Z" fill="white"/>
<path d="M395.708 65.3534C393.4 60.4165 388.014 65.2324 385.609 68.2575L414.824 68.6202C415.401 60.1984 410.014 63.4177 407.249 66.0801C408.98 57.0775 404.364 57.7323 401.84 59.9089L395.708 65.3534Z" fill="white"/>
<path d="M202.962 65.3534C200.654 60.4165 195.268 65.2324 192.863 68.2575L222.077 68.6202C222.654 60.1984 217.268 63.4177 214.503 66.0801C216.234 57.0775 211.618 57.7323 209.094 59.9089L202.962 65.3534Z" fill="white"/>
<path d="M261.368 104.382C258.821 98.9509 252.878 104.248 250.225 107.576L282.46 107.975C283.097 98.711 277.154 102.252 274.103 105.181C276.013 95.278 270.919 95.9983 268.133 98.3927L261.368 104.382Z" fill="white"/>
<path d="M252.241 9.48495C249.013 2.62304 241.48 9.31676 238.117 13.5213L278.975 14.0256C279.783 2.31997 272.25 6.79452 268.383 10.495C270.804 -2.0179 264.347 -1.10782 260.816 1.91761L252.241 9.48495Z" fill="white"/>
<path d="M375.366 107.409C372.819 101.978 366.876 107.276 364.223 110.604L396.458 111.002C397.095 101.739 391.152 105.28 388.101 108.208C390.011 98.3053 384.917 99.0256 382.132 101.42L375.366 107.409Z" fill="white"/>
<path d="M371.284 19.5767C368.056 12.7148 360.523 19.4086 357.16 23.6131L398.018 24.1174C398.825 12.4118 391.292 16.8863 387.426 20.5868C389.847 8.07389 383.39 8.98397 379.859 12.0094L371.284 19.5767Z" fill="white"/>
</svg>
