<svg width="47" height="50" viewBox="0 0 47 50" fill="none" xmlns="http://www.w3.org/2000/svg">
<mask id="mask0_9974_93322" style="mask-type:alpha" maskUnits="userSpaceOnUse" x="0" y="0" width="47" height="50">
<path d="M0.908339 24.1381H45.8917C46.352 24.1381 46.7251 23.765 46.7251 23.3047C46.7251 22.8445 46.352 22.4714 45.8917 22.4714H44.6718V12.5041C44.6718 12.0438 44.2986 11.6707 43.8384 11.6707H38.1475V3.32419C38.1475 2.86395 37.7743 2.4908 37.3141 2.4908H28.6042C28.144 2.4908 27.7708 2.86395 27.7708 3.32419V7.04722L19.0703 4.25067V0.833387C19.0703 0.373149 18.6972 0 18.2369 0H2.9617C2.50146 0 2.12831 0.373149 2.12831 0.833387V5.99892C2.12831 6.45916 2.50146 6.83231 2.9617 6.83231C3.42194 6.83231 3.79508 6.45916 3.79508 5.99892V1.66677H17.4036V22.4453H3.79508V9.21691C3.79508 8.75667 3.42194 8.38352 2.9617 8.38352C2.50146 8.38352 2.12831 8.75667 2.12831 9.21691V22.4714H0.908339C0.4481 22.4714 0.0749512 22.8445 0.0749512 23.3047C0.0749512 23.765 0.4481 24.1381 0.908339 24.1381ZM43.005 13.3375V22.4453H38.1475V13.3375H43.005ZM29.4376 4.15758H36.4807V22.4453H29.4376V4.15758ZM27.7708 8.79818V22.4453H19.0703V6.00137L27.7708 8.79818Z" fill="black"/>
<path d="M45.8917 25.8438H0.908339C0.4481 25.8438 0.0749512 26.2169 0.0749512 26.6771C0.0749512 39.5385 10.5387 50.0022 23.4 50.0022C30.7422 50.0022 37.5086 46.6487 41.9641 40.8016C42.2432 40.4358 42.1724 39.9129 41.8062 39.6337C41.4391 39.3537 40.917 39.4262 40.6383 39.7916C39.5373 41.2365 38.2805 42.5118 36.9059 43.6138C35.083 41.439 34.1474 38.9678 34.1474 36.2525C34.1474 31.7857 31.0478 30.9792 28.5574 30.3309C26.3143 29.747 24.9464 29.2876 24.592 27.5105H45.0429C44.9249 30.6988 44.1269 33.7467 42.6664 36.5813C42.4556 36.9907 42.6168 37.4933 43.0257 37.7041C43.4363 37.9157 43.9381 37.7533 44.1484 37.3447C45.8339 34.0722 46.7251 30.3834 46.7251 26.6771C46.7251 26.2169 46.352 25.8438 45.8917 25.8438ZM1.75759 27.5105H15.1464C16.1936 29.4166 16.4636 31.4177 15.8865 33.1819C15.3376 34.8601 14.0419 36.2033 12.2384 36.9643C9.7384 38.019 8.73767 40.0758 8.03999 41.9236C4.3341 38.1904 1.97097 33.1225 1.75759 27.5105ZM28.1375 31.944C30.564 32.5756 32.4806 33.0745 32.4806 36.2526C32.4806 39.2937 33.5525 42.1629 35.5646 44.6041C32.0284 47.0138 27.8292 48.3355 23.4 48.3355C18.0488 48.3355 13.1481 46.3808 9.3647 43.153C10.0621 41.2194 10.7448 39.4036 12.8862 38.5C15.1414 37.5482 16.7696 35.8436 17.4707 33.7003C18.1108 31.7439 17.9357 29.5861 17.0071 27.5105H22.8966C23.3486 30.6933 25.9896 31.385 28.1375 31.944Z" fill="black"/>
<path d="M5.51478 7.32302H7.14778C7.60802 7.32302 7.98117 6.94988 7.98117 6.48964C7.98117 6.0294 7.60802 5.65625 7.14778 5.65625H5.51478C5.05455 5.65625 4.6814 6.0294 4.6814 6.48964C4.6814 6.94988 5.05455 7.32302 5.51478 7.32302Z" fill="black"/>
<path d="M9.78297 7.32302H11.416C11.8762 7.32302 12.2494 6.94988 12.2494 6.48964C12.2494 6.0294 11.8762 5.65625 11.416 5.65625H9.78297C9.32273 5.65625 8.94958 6.0294 8.94958 6.48964C8.94958 6.94988 9.32273 7.32302 9.78297 7.32302Z" fill="black"/>
<path d="M14.0513 7.32302H15.6843C16.1445 7.32302 16.5177 6.94988 16.5177 6.48964C16.5177 6.0294 16.1445 5.65625 15.6843 5.65625H14.0513C13.591 5.65625 13.2179 6.0294 13.2179 6.48964C13.2179 6.94988 13.591 7.32302 14.0513 7.32302Z" fill="black"/>
<path d="M32.1428 9.36209H33.7758C34.2361 9.36209 34.6092 8.98894 34.6092 8.5287C34.6092 8.06846 34.2361 7.69531 33.7758 7.69531H32.1428C31.6826 7.69531 31.3094 8.06846 31.3094 8.5287C31.3094 8.98894 31.6826 9.36209 32.1428 9.36209Z" fill="black"/>
<path d="M32.1428 14.1355H33.7758C34.2361 14.1355 34.6092 13.7624 34.6092 13.3021C34.6092 12.8419 34.2361 12.4688 33.7758 12.4688H32.1428C31.6826 12.4688 31.3094 12.8419 31.3094 13.3021C31.3094 13.7624 31.6826 14.1355 32.1428 14.1355Z" fill="black"/>
<path d="M32.1428 18.909H33.7758C34.2361 18.909 34.6092 18.5358 34.6092 18.0756C34.6092 17.6153 34.2361 17.2422 33.7758 17.2422H32.1428C31.6826 17.2422 31.3094 17.6153 31.3094 18.0756C31.3094 18.5358 31.6826 18.909 32.1428 18.909Z" fill="black"/>
<path d="M5.51478 12.8933H7.14778C7.60802 12.8933 7.98117 12.5202 7.98117 12.06C7.98117 11.5997 7.60802 11.2266 7.14778 11.2266H5.51478C5.05455 11.2266 4.6814 11.5997 4.6814 12.06C4.6814 12.5202 5.05455 12.8933 5.51478 12.8933Z" fill="black"/>
<path d="M9.78297 12.8933H11.416C11.8762 12.8933 12.2494 12.5202 12.2494 12.06C12.2494 11.5997 11.8762 11.2266 11.416 11.2266H9.78297C9.32273 11.2266 8.94958 11.5997 8.94958 12.06C8.94958 12.5202 9.32273 12.8933 9.78297 12.8933Z" fill="black"/>
<path d="M14.0513 12.8933H15.6843C16.1445 12.8933 16.5177 12.5202 16.5177 12.06C16.5177 11.5997 16.1445 11.2266 15.6843 11.2266H14.0513C13.591 11.2266 13.2179 11.5997 13.2179 12.06C13.2179 12.5202 13.591 12.8933 14.0513 12.8933Z" fill="black"/>
<path d="M5.51478 18.4558H7.14778C7.60802 18.4558 7.98117 18.0827 7.98117 17.6224C7.98117 17.1622 7.60802 16.7891 7.14778 16.7891H5.51478C5.05455 16.7891 4.6814 17.1622 4.6814 17.6224C4.6814 18.0827 5.05455 18.4558 5.51478 18.4558Z" fill="black"/>
<path d="M9.78297 18.4558H11.416C11.8762 18.4558 12.2494 18.0827 12.2494 17.6224C12.2494 17.1622 11.8762 16.7891 11.416 16.7891H9.78297C9.32273 16.7891 8.94958 17.1622 8.94958 17.6224C8.94958 18.0827 9.32273 18.4558 9.78297 18.4558Z" fill="black"/>
<path d="M14.0513 18.4558H15.6843C16.1445 18.4558 16.5177 18.0827 16.5177 17.6224C16.5177 17.1622 16.1445 16.7891 15.6843 16.7891H14.0513C13.591 16.7891 13.2179 17.1622 13.2179 17.6224C13.2179 18.0827 13.591 18.4558 14.0513 18.4558Z" fill="black"/>
</mask>
<g mask="url(#mask0_9974_93322)">
<rect x="-0.925049" width="50" height="50" fill="#156FF7"/>
</g>
</svg>
