<svg width="15" height="11" viewBox="0 0 15 11" fill="none" xmlns="http://www.w3.org/2000/svg">
<path d="M13.8626 4.63155C14.0652 4.91577 14.1666 5.05787 14.1666 5.26823C14.1666 5.47859 14.0652 5.62069 13.8626 5.90491C12.9519 7.18193 10.6261 9.9349 7.49992 9.9349C4.37377 9.9349 2.04798 7.18194 1.13728 5.90491C0.934594 5.62069 0.833252 5.47859 0.833252 5.26823C0.833252 5.05787 0.934594 4.91577 1.13728 4.63155C2.04798 3.35452 4.37377 0.601562 7.49992 0.601562C10.6261 0.601562 12.9519 3.35452 13.8626 4.63155Z" stroke="#156FF7"/>
<path d="M9.49988 5.26562C9.49988 4.16106 8.60445 3.26562 7.49988 3.26562C6.39531 3.26562 5.49988 4.16106 5.49988 5.26562C5.49988 6.37019 6.39531 7.26562 7.49988 7.26562C8.60445 7.26562 9.49988 6.37019 9.49988 5.26562Z" stroke="#156FF7"/>
</svg>
