<svg width="161" height="137" viewBox="0 0 161 137" fill="none" xmlns="http://www.w3.org/2000/svg">
<g clip-path="url(#clip0_9741_150832)">
<rect width="160.8" height="137" transform="translate(0.199585)" fill="url(#paint0_linear_9741_150832)"/>
<path d="M-2.99963 124.4C-6.19963 117.6 -13.6663 124.233 -16.9996 128.4L23.5004 128.899C24.3004 117.299 16.8337 121.733 13.0004 125.4C15.4004 113 9.00037 113.902 5.50037 116.9L-2.99963 124.4Z" fill="white"/>
<path d="M29.0459 111.439C26.5212 106.057 20.6302 111.307 18.0004 114.605L49.9534 115C50.5846 105.82 44.6937 109.329 41.6693 112.231C43.5628 102.418 38.5134 103.131 35.7521 105.504L29.0459 111.439Z" fill="white"/>
<path d="M20.0004 17.3995C16.8004 10.5995 9.3337 17.2329 6.00037 21.3995L46.5004 21.8992C47.3004 10.2992 39.8337 14.7334 36.0004 18.4005C38.4004 6.00047 32.0004 6.90234 28.5004 9.90047L20.0004 17.3995Z" fill="white"/>
<path d="M142.046 114.439C139.521 109.057 133.63 114.307 131 117.605L162.953 118C163.585 108.82 157.694 112.329 154.669 115.231C156.563 105.418 151.513 106.131 148.752 108.504L142.046 114.439Z" fill="white"/>
<path d="M138 27.3995C134.8 20.5995 127.334 27.2329 124 31.3995L164.5 31.8992C165.3 20.2992 157.834 24.7334 154 28.4005C156.4 16.0005 150 16.9023 146.5 19.9005L138 27.3995Z" fill="white"/>
</g>
<defs>
<linearGradient id="paint0_linear_9741_150832" x1="73.7999" y1="19" x2="137.8" y2="164" gradientUnits="userSpaceOnUse">
<stop stop-color="#F5F8FF"/>
<stop offset="1" stop-color="#BBDEF7"/>
</linearGradient>
<clipPath id="clip0_9741_150832">
<rect width="160.8" height="137" fill="white" transform="translate(0.199585)"/>
</clipPath>
</defs>
</svg>
