<svg width="20" height="20" viewBox="0 0 20 20" fill="none" xmlns="http://www.w3.org/2000/svg">
<rect width="20" height="20" rx="2" fill="#156FF7" fill-opacity="0.1"/>
<path d="M10.756 8.24406C10.5252 8.01314 10.2511 7.82996 9.9494 7.70498C9.64773 7.58 9.32439 7.51568 8.99785 7.51568C8.67131 7.51568 8.34797 7.58 8.0463 7.70498C7.74463 7.82996 7.47053 8.01314 7.23968 8.24406L4.728 10.7563C4.2618 11.2226 3.99993 11.8549 4 12.5143C4.00007 13.1736 4.26207 13.8059 4.72837 14.272C5.19466 14.7382 5.82706 15.0001 6.48643 15C7.14581 14.9999 7.77815 14.7379 8.24435 14.2717L8.47975 14.0488M8.24435 10.7563C8.4752 10.9872 8.7493 11.1704 9.05097 11.2954C9.35264 11.4204 9.67598 11.4847 10.0025 11.4847C10.3291 11.4847 10.6524 11.4204 10.9541 11.2954C11.2557 11.1704 11.5298 10.9872 11.7607 10.7563L14.2716 8.24406C14.7379 7.77789 14.9999 7.1456 15 6.48627C15.0001 5.82694 14.7382 5.19458 14.272 4.72832C13.8058 4.26205 13.1735 4.00007 12.5141 4C11.8547 3.99993 11.2223 4.26178 10.756 4.72795L10.0022 5.43264" stroke="#156FF7" stroke-width="1.4" stroke-linecap="round" stroke-linejoin="round"/>
</svg>
