<svg width="20" height="20" viewBox="0 0 20 20" fill="none" xmlns="http://www.w3.org/2000/svg">
<path d="M11.0108 8.15587C10.7485 7.89344 10.437 7.68527 10.0942 7.54324C9.75141 7.40121 9.38397 7.3281 9.01291 7.3281C8.64184 7.3281 8.27441 7.40121 7.93161 7.54324C7.5888 7.68527 7.27733 7.89344 7.01499 8.15587L4.16083 11.0109C3.63106 11.5407 3.33348 12.2594 3.33356 13.0087C3.33364 13.7579 3.63136 14.4765 4.16124 15.0063C4.69112 15.5361 5.40975 15.8336 6.15904 15.8336C6.90832 15.8335 7.62689 15.5357 8.15666 15.0059L8.42416 14.7525M8.15666 11.0109C8.419 11.2733 8.73047 11.4815 9.07327 11.6235C9.41608 11.7655 9.78351 11.8386 10.1546 11.8386C10.5256 11.8386 10.8931 11.7655 11.2359 11.6235C11.5787 11.4815 11.8902 11.2733 12.1525 11.0109L15.0058 8.15587C15.5357 7.6261 15.8334 6.90753 15.8335 6.15824C15.8336 5.40896 15.536 4.69033 15.0062 4.16045C14.4765 3.63057 13.7579 3.33284 13.0086 3.33276C12.2593 3.33269 11.5407 3.63026 11.0108 4.16003L10.1542 4.96087" stroke="#156FF7" stroke-width="1.4" stroke-linecap="round" stroke-linejoin="round"/>
</svg>
