<svg width="19" height="20" viewBox="0 0 19 20" fill="none" xmlns="http://www.w3.org/2000/svg">
<path d="M2.375 14.75C3.00489 14.75 3.60898 15.0002 4.05438 15.4456C4.49978 15.891 4.75 16.4951 4.75 17.125C4.75 17.7549 4.49978 18.359 4.05438 18.8044C3.60898 19.2498 3.00489 19.5 2.375 19.5C1.74511 19.5 1.14102 19.2498 0.695621 18.8044C0.250222 18.359 0 17.7549 0 17.125C0 16.4951 0.250222 15.891 0.695621 15.4456C1.14102 15.0002 1.74511 14.75 2.375 14.75ZM16.625 14.75C17.2549 14.75 17.859 15.0002 18.3044 15.4456C18.7498 15.891 19 16.4951 19 17.125C19 17.7549 18.7498 18.359 18.3044 18.8044C17.859 19.2498 17.2549 19.5 16.625 19.5C15.9951 19.5 15.391 19.2498 14.9456 18.8044C14.5002 18.359 14.25 17.7549 14.25 17.125C14.25 16.4951 14.5002 15.891 14.9456 15.4456C15.391 15.0002 15.9951 14.75 16.625 14.75ZM2.375 15.9375C2.06005 15.9375 1.75801 16.0626 1.53531 16.2853C1.31261 16.508 1.1875 16.8101 1.1875 17.125C1.1875 17.4399 1.31261 17.742 1.53531 17.9647C1.75801 18.1874 2.06005 18.3125 2.375 18.3125C2.68994 18.3125 2.99199 18.1874 3.21469 17.9647C3.43739 17.742 3.5625 17.4399 3.5625 17.125C3.5625 16.8101 3.43739 16.508 3.21469 16.2853C2.99199 16.0626 2.68994 15.9375 2.375 15.9375ZM16.625 15.9375C16.3101 15.9375 16.008 16.0626 15.7853 16.2853C15.5626 16.508 15.4375 16.8101 15.4375 17.125C15.4375 17.4399 15.5626 17.742 15.7853 17.9647C16.008 18.1874 16.3101 18.3125 16.625 18.3125C16.9399 18.3125 17.242 18.1874 17.4647 17.9647C17.6874 17.742 17.8125 17.4399 17.8125 17.125C17.8125 16.8101 17.6874 16.508 17.4647 16.2853C17.242 16.0626 16.9399 15.9375 16.625 15.9375ZM10.0937 5.84375V9.40625H13.6562V10.5937H10.0937V14.1562H8.90625V10.5937H5.34375V9.40625H8.90625V5.84375H10.0937ZM2.375 0.5C3.00489 0.5 3.60898 0.750222 4.05438 1.19562C4.49978 1.64102 4.75 2.24511 4.75 2.875C4.75 3.50489 4.49978 4.10898 4.05438 4.55438C3.60898 4.99978 3.00489 5.25 2.375 5.25C1.74511 5.25 1.14102 4.99978 0.695621 4.55438C0.250222 4.10898 0 3.50489 0 2.875C0 2.24511 0.250222 1.64102 0.695621 1.19562C1.14102 0.750222 1.74511 0.5 2.375 0.5ZM16.625 0.5C17.2549 0.5 17.859 0.750222 18.3044 1.19562C18.7498 1.64102 19 2.24511 19 2.875C19 3.50489 18.7498 4.10898 18.3044 4.55438C17.859 4.99978 17.2549 5.25 16.625 5.25C15.9951 5.25 15.391 4.99978 14.9456 4.55438C14.5002 4.10898 14.25 3.50489 14.25 2.875C14.25 2.24511 14.5002 1.64102 14.9456 1.19562C15.391 0.750222 15.9951 0.5 16.625 0.5ZM16.625 1.6875C16.3101 1.6875 16.008 1.81261 15.7853 2.03531C15.5626 2.25801 15.4375 2.56005 15.4375 2.875C15.4375 3.18994 15.5626 3.49199 15.7853 3.71469C16.008 3.93739 16.3101 4.0625 16.625 4.0625C16.9399 4.0625 17.242 3.93739 17.4647 3.71469C17.6874 3.49199 17.8125 3.18994 17.8125 2.875C17.8125 2.56005 17.6874 2.25801 17.4647 2.03531C17.242 1.81261 16.9399 1.6875 16.625 1.6875ZM2.375 1.6875C2.06005 1.6875 1.75801 1.81261 1.53531 2.03531C1.31261 2.25801 1.1875 2.56005 1.1875 2.875C1.1875 3.18994 1.31261 3.49199 1.53531 3.71469C1.75801 3.93739 2.06005 4.0625 2.375 4.0625C2.68994 4.0625 2.99199 3.93739 3.21469 3.71469C3.43739 3.49199 3.5625 3.18994 3.5625 2.875C3.5625 2.56005 3.43739 2.25801 3.21469 2.03531C2.99199 1.81261 2.68994 1.6875 2.375 1.6875Z" fill="#156FF7"/>
<path d="M12.5151 17.7484C12.5756 18.1504 12.6932 18.5334 12.8606 18.8884C11.7866 19.2937 10.648 19.5009 9.5 19.5C8.31666 19.5 7.18438 19.2839 6.13938 18.8884C6.30622 18.5334 6.42438 18.1504 6.48494 17.7484C7.4195 18.113 8.43659 18.3125 9.5 18.3125C10.5634 18.3125 11.5805 18.113 12.5151 17.7484ZM18.3884 6.63938C18.7937 7.71343 19.0009 8.85204 19 10C19 11.1833 18.7839 12.3156 18.3884 13.3606C18.027 13.1913 17.6431 13.0749 17.2484 13.0151C17.613 12.0805 17.8125 11.0634 17.8125 10C17.8125 8.93659 17.613 7.9195 17.2484 6.98494C17.6431 6.92509 18.027 6.8087 18.3884 6.63938ZM0.611565 6.63938C0.966627 6.80622 1.3496 6.92438 1.75156 6.98494C1.37814 7.94627 1.18686 8.96869 1.1875 10C1.1875 11.0634 1.387 12.0805 1.75156 13.0151C1.35694 13.0749 0.973001 13.1913 0.611565 13.3606C0.20634 12.2866 -0.000862512 11.148 2.69845e-06 10C2.69845e-06 8.81666 0.216128 7.68438 0.611565 6.63938ZM9.5 0.500003C10.6833 0.500003 11.8156 0.716128 12.8606 1.11157C12.6913 1.473 12.5749 1.85694 12.5151 2.25156C11.5537 1.87814 10.5313 1.68686 9.5 1.6875C8.43659 1.6875 7.4195 1.887 6.48494 2.25156C6.42509 1.85694 6.3087 1.473 6.13938 1.11157C7.21343 0.70634 8.35204 0.499137 9.5 0.500003Z" fill="#156FF7"/>
</svg>
