<svg width="347" height="341" viewBox="0 0 347 341" fill="none" xmlns="http://www.w3.org/2000/svg">
<path d="M245.612 96.3154L245.612 96.3153C246.449 95.8368 246.878 94.9336 246.878 94.013C246.878 93.0924 246.45 92.1894 245.613 91.7108L245.612 96.3154ZM245.612 96.3154L178.015 135.034C176.236 136.051 174.21 136.051 172.431 135.034L172.431 135.034L13.1209 44.3406C12.4193 43.8683 12.0464 42.9683 12.0464 42.034C12.0464 41.0995 12.4195 40.1993 13.1213 39.7271L80.4335 1.01966C82.214 0.260594 84.2554 0.255665 86.3124 1.02275L245.612 91.7106L245.612 96.3154ZM262.031 1.01263L262.03 1.01295L193.903 39.7317L262.031 1.01263ZM262.031 1.01263C263.81 -0.00421152 265.836 -0.00421152 267.615 1.01263L336.272 40.2621C337.109 40.7406 337.538 41.6437 337.538 42.5644C337.538 43.4851 337.109 44.3882 336.272 44.8668L268.145 83.5855L268.145 83.5858M262.031 1.01263L268.145 83.5858M268.145 83.5858C266.366 84.6026 264.34 84.6026 262.561 83.5858M268.145 83.5858H262.561M262.561 83.5858L193.903 44.3363M262.561 83.5858L193.903 44.3363M193.903 44.3363C193.066 43.8578 192.638 42.9547 192.638 42.034M193.903 44.3363L192.638 42.034M192.638 42.034C192.638 41.1135 193.066 40.2106 193.903 39.732L192.638 42.034ZM163.435 254.808L163.435 254.808C165.212 255.823 166.225 257.597 166.225 259.63V338.128C166.225 340.048 164.056 341.268 162.358 340.298C162.358 340.298 162.358 340.298 162.358 340.298L93.9655 301.049L93.9652 301.049C92.1883 300.033 91.1751 298.26 91.1751 296.227V217.728C91.1751 216.622 91.7254 215.779 92.4722 215.361C93.2173 214.943 94.1733 214.939 95.0212 215.545L95.0313 215.552L95.0421 215.558L163.435 254.808ZM166.225 234.7V234.701C166.225 235.529 165.82 236.04 165.275 236.298C164.719 236.561 164.004 236.567 163.403 236.331L79.9155 188.604C77.902 187.453 75.3 188.885 75.3 191.208V285.354C75.3 286.308 74.7009 287.162 73.9008 287.623C73.1015 288.085 72.1608 288.125 71.4687 287.548L71.4514 287.534L71.4318 287.523L3.04006 248.805C1.2632 247.789 0.25 246.016 0.25 243.983V61.2609C0.25 60.3065 0.849119 59.453 1.64924 58.9912C2.44858 58.5298 3.38925 58.4891 4.08134 59.0661L4.09841 59.0803L4.11774 59.0914L163.415 149.777C165.241 151.348 166.49 153.136 166.49 155.141L166.225 234.7ZM342.882 60.6826L342.883 60.6823C344.563 59.7217 346.75 60.9126 346.75 63.1173V245.309C346.75 247.342 345.737 249.115 343.96 250.13L185.968 340.298L185.957 340.304L185.946 340.312C185.109 340.91 184.158 340.853 183.404 340.4C182.644 339.944 182.1 339.094 182.1 338.128V259.895C182.1 257.862 183.113 256.089 184.89 255.073L184.891 255.073L269.453 206.542C269.453 206.542 269.454 206.542 269.454 206.541C271.388 205.436 272.495 203.496 272.495 201.286L272.495 201.285L272.23 103.973C272.49 101.922 273.514 100.149 275.285 99.1361L342.882 60.6826ZM185.968 235.81L185.957 235.816L185.946 235.823C185.109 236.421 184.158 236.364 183.404 235.912C182.644 235.456 182.1 234.606 182.1 233.64V155.406C182.1 153.367 183.116 151.612 184.865 150.863L184.878 150.857L184.89 150.85L252.487 112.396L252.498 112.39L252.509 112.382C253.346 111.784 254.297 111.841 255.051 112.294C255.811 112.75 256.355 113.6 256.355 114.566V194.125C256.355 194.617 256.232 195.106 256.02 195.499C255.808 195.894 255.519 196.169 255.201 196.275L255.177 196.283L255.156 196.295L185.968 235.81Z" stroke="#CBD5E1" stroke-width="0.5"/>
</svg>
