<svg width="100" height="25" viewBox="0 0 100 25" fill="none" xmlns="http://www.w3.org/2000/svg">
<path d="M25.8374 10.1873L22.5956 6.94548L23.1641 0.972721C23.1762 0.846863 23.1502 0.720277 23.0895 0.609367C23.0288 0.498457 22.9361 0.408335 22.8236 0.350683C22.7111 0.29303 22.5838 0.270504 22.4583 0.286023C22.3329 0.301541 22.2149 0.35439 22.1198 0.43772L18.6607 3.46448C18.6454 3.47786 18.6389 3.49641 18.6252 3.51088L7.9163 3.59329C7.88941 3.54615 7.85632 3.50283 7.81791 3.46448L4.35876 0.43772C4.26367 0.35439 4.14574 0.301541 4.02026 0.286023C3.89478 0.270504 3.76753 0.29303 3.655 0.350683C3.54247 0.408335 3.44985 0.498457 3.38915 0.609367C3.32844 0.720277 3.30244 0.846863 3.31453 0.972721L3.91092 7.23872L0.962535 10.1873L0.961057 10.1895C0.90222 10.2486 0.855623 10.3188 0.823932 10.3959C0.793354 10.4711 0.777578 10.5519 0.777692 10.6331L0.777588 10.6338C0.777572 10.6776 0.7821 10.7212 0.7911 10.7641L2.0279 16.6094C2.05564 16.7406 2.12441 16.8595 2.22425 16.9489L8.51419 22.587C8.6094 22.6689 8.72733 22.72 8.85226 22.7332C9.07635 22.9085 9.3106 23.0703 9.55379 23.2178C10.1899 23.6236 10.9236 23.8503 11.6778 23.874C11.9588 23.8732 12.2382 23.8314 12.5071 23.75C12.5639 23.835 12.6406 23.9048 12.7305 23.9534C12.8204 24.0019 12.9209 24.0277 13.0231 24.0286H13.8879C13.9737 24.0279 14.0584 24.0097 14.1369 23.975C14.2154 23.9404 14.2859 23.89 14.3441 23.8269C14.5085 23.8567 14.6751 23.8725 14.8422 23.874C15.5963 23.8503 16.3301 23.6236 16.9661 23.2178C17.0092 23.1923 17.0515 23.16 17.0945 23.1331C17.1752 23.1107 17.2504 23.0721 17.3158 23.0198L17.5641 22.8153C17.7723 22.6608 17.9775 22.4895 18.1802 22.3079L24.6665 16.9663C24.78 16.8729 24.8574 16.7428 24.8852 16.5985L26.011 10.7531C26.0305 10.6518 26.0249 10.5472 25.9946 10.4486C25.9644 10.3499 25.9104 10.2602 25.8374 10.1873ZM21.4377 5.78754L19.7977 4.14754L21.7567 2.43332L21.4377 5.78754ZM4.72187 2.43332L6.85207 4.29733L5.06876 6.08074L4.72187 2.43332ZM14.053 22.4109C14.0325 22.4009 14.0116 22.3921 13.9902 22.3844L13.9517 21.4534L15.5195 20.4735C15.6377 20.3998 15.7281 20.289 15.7768 20.1585C15.8254 20.028 15.8295 19.885 15.7885 19.7519C15.7458 19.6198 15.6615 19.505 15.5482 19.4248C15.4348 19.3447 15.2985 19.3034 15.1597 19.3073L13.4006 19.3786L11.7529 19.3073C11.6139 19.3024 11.4771 19.3432 11.3634 19.4233C11.2496 19.5034 11.1652 19.6185 11.1229 19.751C11.0817 19.8842 11.0856 20.0273 11.1342 20.158C11.1828 20.2887 11.2732 20.3996 11.3915 20.4735L12.6926 21.2867C12.6867 21.325 12.6844 21.3638 12.6857 21.4025L12.7242 22.3367C12.6341 22.3425 12.5463 22.3679 12.4669 22.4109C11.8458 22.7504 11.0819 22.6566 10.1977 22.1317C7.68107 20.6391 5.30121 16.3911 5.30121 13.391C5.30121 13.3857 5.29979 13.3808 5.29963 13.3756C5.29979 13.3703 5.30121 13.3654 5.30121 13.3601C5.28679 12.8454 5.37525 12.333 5.56143 11.8529C5.74761 11.3728 6.02775 10.9347 6.38543 10.5643C6.74312 10.1938 7.17115 9.89853 7.64444 9.69567C8.11773 9.49281 8.62675 9.38647 9.14167 9.38288C10.0771 9.3922 10.9706 9.77215 11.6262 10.4394C12.2818 11.1066 12.646 12.0067 12.6388 12.9421C12.6401 13.1087 12.7071 13.2681 12.8254 13.3855C12.9436 13.5029 13.1035 13.5687 13.2701 13.5687C13.4367 13.5687 13.5966 13.5029 13.7148 13.3855C13.8331 13.2681 13.9002 13.1087 13.9014 12.9421C13.8943 12.0066 14.2586 11.1066 14.9143 10.4394C15.57 9.77212 16.4635 9.39218 17.399 9.38288C17.9145 9.39001 18.4235 9.49995 18.8961 9.70625C19.3686 9.91256 19.7953 10.2111 20.151 10.5844C20.5067 10.9576 20.7844 11.3981 20.9677 11.88C21.1511 12.362 21.2364 12.8756 21.2187 13.391C21.2187 15.9542 19.4803 19.4226 17.4049 21.3111L16.7627 21.8399C16.6166 21.9456 16.4697 22.0443 16.3222 22.1317C15.4376 22.6566 14.6741 22.7504 14.053 22.4109ZM23.6885 16.1361L21.2082 18.1788C21.9788 16.6956 22.4134 15.061 22.4813 13.391C22.5043 12.0186 21.9822 10.6932 21.0295 9.7052C20.0768 8.71719 18.7712 8.14726 17.399 8.12034C16.5569 8.12337 15.7309 8.35018 15.0054 8.77754C14.2798 9.2049 13.681 9.81744 13.2701 10.5524C12.8593 9.81748 12.2605 9.20496 11.5351 8.7776C10.8096 8.35024 9.98363 8.12341 9.14167 8.12034C7.7707 8.14027 6.46359 8.70307 5.50697 9.68533C4.55036 10.6676 4.02232 11.9891 4.03866 13.3601C4.03866 13.3654 4.04008 13.3703 4.04024 13.3756C4.04008 13.3808 4.03866 13.3857 4.03866 13.391C4.09876 14.9607 4.48971 16.5 5.18594 17.9082L3.22074 16.1466L2.09738 10.8377L8.08012 4.85455L18.6379 4.77347L24.7079 10.8431L23.6885 16.1361Z" fill="#156FF7"/>
<path fill-rule="evenodd" clip-rule="evenodd" d="M7.39624 21.2969L10.7508 24.301H12.9838H13.4732H15.7062L19.0608 21.2969L15.6251 23.0925H13.4732H12.9838H10.8319L7.39624 21.2969Z" fill="#156FF7"/>
<path fill-rule="evenodd" clip-rule="evenodd" d="M15.5744 22.8765L18.963 21.1055L19.2074 21.4581L15.7912 24.5174H10.6705L7.25439 21.4581L7.49877 21.1055L10.8874 22.8765H15.5744ZM17.6306 22.2897L15.6806 23.3089H10.7812L8.83113 22.2897L10.8358 24.085H15.6259L17.6306 22.2897Z" fill="#156FF7"/>
<path d="M30.826 18.5701C30.5742 18.5701 30.3739 18.5015 30.2251 18.3641C30.0877 18.2153 30.0191 18.015 30.0191 17.7632V7.01524C30.0191 6.76342 30.0877 6.56884 30.2251 6.43149C30.3739 6.28269 30.5742 6.20829 30.826 6.20829C31.0778 6.20829 31.2781 6.28269 31.4269 6.43149C31.5757 6.56884 31.6501 6.76342 31.6501 7.01524V11.5651H38.7239V7.01524C38.7239 6.76342 38.7983 6.56884 38.9471 6.43149C39.0959 6.28269 39.2962 6.20829 39.548 6.20829C39.7884 6.20829 39.9772 6.28269 40.1146 6.43149C40.2634 6.56884 40.3378 6.76342 40.3378 7.01524V17.7632C40.3378 18.015 40.2634 18.2153 40.1146 18.3641C39.9772 18.5015 39.7884 18.5701 39.548 18.5701C39.2962 18.5701 39.0959 18.5015 38.9471 18.3641C38.7983 18.2153 38.7239 18.015 38.7239 17.7632V12.8871H31.6501V17.7632C31.6501 18.015 31.5757 18.2153 31.4269 18.3641C31.2781 18.5015 31.0778 18.5701 30.826 18.5701ZM46.2121 18.5701C45.0674 18.5701 44.1746 18.2439 43.5337 17.5915C42.8927 16.9276 42.5722 16.0176 42.5722 14.8616V10.6208C42.5722 10.369 42.6409 10.1744 42.7782 10.037C42.927 9.88822 43.1216 9.81382 43.362 9.81382C43.6138 9.81382 43.8084 9.88822 43.9457 10.037C44.0831 10.1744 44.1518 10.369 44.1518 10.6208V14.8616C44.1518 15.617 44.3521 16.2065 44.7527 16.63C45.1647 17.0421 45.737 17.2481 46.4696 17.2481C47.3624 17.2481 48.0778 16.9619 48.6158 16.3896C49.1652 15.8173 49.4399 15.0562 49.4399 14.1061V10.6208C49.4399 10.369 49.5086 10.1744 49.6459 10.037C49.7947 9.88822 49.995 9.81382 50.2468 9.81382C50.4986 9.81382 50.6875 9.8825 50.8134 10.0199C50.9508 10.1572 51.0194 10.3575 51.0194 10.6208V17.7632C51.0194 18.0264 50.9508 18.2267 50.8134 18.3641C50.6875 18.5015 50.4986 18.5701 50.2468 18.5701C49.995 18.5701 49.8004 18.5015 49.6631 18.3641C49.5257 18.2153 49.457 18.015 49.457 17.7632V16.9219C48.5986 18.0207 47.5169 18.5701 46.2121 18.5701ZM56.9824 18.5701C56.101 18.5701 55.317 18.4213 54.6302 18.1237C53.9434 17.8147 53.3998 17.4026 52.9991 16.8875C52.8847 16.7387 52.8274 16.5899 52.8274 16.4411C52.8274 16.1893 52.9476 16.0005 53.188 15.8746C53.291 15.8173 53.3998 15.7887 53.5142 15.7887C53.7088 15.7887 53.9091 15.8917 54.1151 16.0978C54.4929 16.4984 54.9106 16.7903 55.3685 16.9734C55.8263 17.1565 56.3529 17.2481 56.9481 17.2481C57.4975 17.2481 57.9439 17.1623 58.2873 16.9906C58.6421 16.8074 58.8195 16.5613 58.8195 16.2523C58.8195 16.0234 58.7508 15.8345 58.6135 15.6857C58.4876 15.5369 58.2644 15.3938 57.9439 15.2565C57.6234 15.1191 57.1198 14.936 56.433 14.7071C55.2769 14.3408 54.4585 13.9631 53.9778 13.5739C53.5085 13.1847 53.2738 12.6754 53.2738 12.0458C53.2738 11.3705 53.5657 10.8325 54.1495 10.4319C54.7447 10.0199 55.5459 9.81382 56.5532 9.81382C57.2972 9.81382 57.9839 9.93973 58.6135 10.1915C59.2545 10.4319 59.7295 10.7639 60.0385 11.1874C60.1415 11.3247 60.193 11.4678 60.193 11.6166C60.193 11.8112 60.09 11.9771 59.884 12.1145C59.7352 12.2061 59.5864 12.2519 59.4376 12.2519C59.2087 12.2519 58.9912 12.1488 58.7852 11.9428C58.5105 11.6681 58.19 11.4678 57.8237 11.3419C57.4689 11.2045 57.0396 11.1359 56.536 11.1359C55.998 11.1359 55.586 11.216 55.2998 11.3762C55.0251 11.5365 54.8878 11.7654 54.8878 12.063C54.8878 12.2919 54.9507 12.4751 55.0766 12.6124C55.2025 12.7498 55.42 12.8814 55.729 13.0073C56.0381 13.1332 56.5532 13.3106 57.2743 13.5395C58.0755 13.7914 58.6993 14.0432 59.1457 14.295C59.6036 14.5468 59.9298 14.8272 60.1244 15.1363C60.319 15.4453 60.4162 15.8173 60.4162 16.2523C60.4162 16.9505 60.1015 17.5114 59.4719 17.9349C58.8538 18.3584 58.024 18.5701 56.9824 18.5701ZM63.0319 18.5701C62.78 18.5701 62.5855 18.5015 62.4481 18.3641C62.3108 18.2153 62.2421 18.015 62.2421 17.7632V6.17395C62.2421 5.92213 62.3108 5.72755 62.4481 5.59019C62.5855 5.44139 62.78 5.36699 63.0319 5.36699C63.2722 5.36699 63.4611 5.44139 63.5984 5.59019C63.7472 5.72755 63.8216 5.92213 63.8216 6.17395V13.5739L69.2986 9.93401C69.4474 9.83099 69.6077 9.77948 69.7794 9.77948C70.0083 9.77948 70.18 9.8825 70.2944 10.0885C70.3631 10.2259 70.3975 10.3518 70.3975 10.4663C70.3975 10.6952 70.2773 10.8898 70.0369 11.05L67.101 12.973C68.1082 13.6254 68.8751 14.3351 69.4016 15.1019C69.9282 15.8574 70.283 16.7445 70.4661 17.7632C70.5005 17.9921 70.4547 18.1867 70.3288 18.3469C70.2029 18.4957 70.0197 18.5701 69.7794 18.5701C69.5619 18.5701 69.3788 18.5186 69.23 18.4156C69.0926 18.324 69.001 18.1867 68.9552 18.0035C68.7034 16.9505 68.36 16.1264 67.9251 15.5312C67.4901 14.9245 66.8034 14.3351 65.8648 13.7627L63.8216 15.1535V17.7632C63.8216 18.015 63.753 18.2153 63.6156 18.3641C63.4783 18.5015 63.2837 18.5701 63.0319 18.5701ZM76.2511 22.6907C75.4041 22.6907 74.6429 22.5648 73.9676 22.313C73.3037 22.0612 72.8115 21.7121 72.491 21.2657C72.388 21.1283 72.3365 20.9853 72.3365 20.8365C72.3365 20.619 72.4395 20.4301 72.6456 20.2699C72.7715 20.1783 72.9031 20.1325 73.0405 20.1325C73.2808 20.1325 73.504 20.247 73.7101 20.4759C73.9504 20.7621 74.2938 20.9853 74.7402 21.1455C75.1866 21.3058 75.6731 21.3859 76.1996 21.3859C77.1611 21.3859 77.9108 21.1055 78.4488 20.5446C78.9867 19.9952 79.2557 19.234 79.2557 18.2611V17.2481C78.9352 17.6373 78.5174 17.9463 78.0024 18.1752C77.4873 18.3927 76.9436 18.5015 76.3713 18.5015C74.9634 18.5015 73.8646 18.1123 73.0748 17.3339C72.285 16.5442 71.8901 15.4511 71.8901 14.0546V10.5521C71.8901 10.3461 71.9645 10.1744 72.1133 10.037C72.2736 9.89967 72.4681 9.83099 72.6971 9.83099C72.9145 9.83099 73.1034 9.90539 73.2637 10.0542C73.4239 10.1915 73.504 10.3575 73.504 10.5521V14.0546C73.504 15.0619 73.7558 15.8459 74.2595 16.4068C74.7631 16.9677 75.467 17.2481 76.3713 17.2481C77.2641 17.2481 77.9509 16.9791 78.4316 16.4411C78.9238 15.8917 79.1699 15.1191 79.1699 14.1233V10.741C79.1699 10.4434 79.2443 10.2144 79.3931 10.0542C79.5419 9.89395 79.7479 9.81382 80.0112 9.81382C80.2744 9.81382 80.4747 9.89395 80.6121 10.0542C80.7494 10.2144 80.8181 10.4434 80.8181 10.741V18.1066C80.8181 19.0223 80.6293 19.8235 80.2515 20.5103C79.8853 21.2085 79.353 21.7464 78.6548 22.1242C77.968 22.5019 77.1668 22.6907 76.2511 22.6907Z" fill="#156FF7"/>
<rect x="85.9231" y="6.63672" width="13.7778" height="12.7179" rx="2" fill="#156FF7"/>
<path d="M89.9728 15.6367H88.7805L90.9513 9.47044H92.3303L94.5042 15.6367H93.3119L91.6649 10.735H91.6168L89.9728 15.6367ZM90.012 13.219H93.2637V14.1162H90.012V13.219ZM96.4334 9.47044V15.6367H95.3164V9.47044H96.4334Z" fill="white"/>
</svg>
