<svg width="17" height="16" viewBox="0 0 17 16" fill="none" xmlns="http://www.w3.org/2000/svg">
<path fill-rule="evenodd" clip-rule="evenodd" d="M8.14175 9.15756C5.10638 9.15756 2.56833 11.3183 1.97384 14.1822C1.94525 14.348 1.98527 14.5195 2.09388 14.6509C2.20249 14.7824 2.36255 14.8567 2.53404 14.8567H11.6173C11.9317 14.8567 12.1889 15.114 12.1889 15.4284C12.1889 15.7428 11.9317 16 11.6173 16H2.53404C2.01957 16 1.53368 15.7713 1.20785 15.3769C0.882017 14.9825 0.750541 14.4623 0.847719 13.9593C0.847719 13.9593 0.847719 13.9593 0.847719 13.9536C1.37934 11.3869 3.23714 9.29475 5.66658 8.4373C4.39756 7.61986 3.55726 6.1965 3.55726 4.57878C3.55726 2.05216 5.60942 0 8.14175 0C10.6741 0 12.7205 2.05216 12.7205 4.57878C12.7205 6.1965 11.8802 7.61986 10.6112 8.4373C11.0685 8.59736 11.503 8.80314 11.9145 9.04323C12.1889 9.20329 12.2747 9.5577 12.1146 9.82637C11.9545 10.1008 11.6058 10.1865 11.3315 10.0264C10.394 9.47196 9.30788 9.15756 8.14175 9.15756ZM8.14175 8.01429C10.0396 8.01429 11.5773 6.4766 11.5773 4.57878C11.5773 2.68096 10.0396 1.14327 8.14175 1.14327C6.24393 1.14327 4.70624 2.68096 4.70624 4.57878C4.70624 6.4766 6.24393 8.01429 8.14175 8.01429ZM13.3951 13.1476H11.6802C11.3658 13.1476 11.1085 12.8903 11.1085 12.5759C11.1085 12.2615 11.3658 12.0043 11.6802 12.0043H13.3951V10.2894C13.3951 9.97499 13.6523 9.71776 13.9667 9.71776C14.2811 9.71776 14.5383 9.97499 14.5383 10.2894V12.0043H16.2532C16.5676 12.0043 16.8249 12.2615 16.8249 12.5759C16.8249 12.8903 16.5676 13.1476 16.2532 13.1476H14.5383V14.8625C14.5383 15.1768 14.2811 15.4341 13.9667 15.4341C13.6523 15.4341 13.3951 15.1768 13.3951 14.8625V13.1476Z" fill="#156FF7"/>
</svg>
