<svg width="17" height="16" viewBox="0 0 17 16" fill="none" xmlns="http://www.w3.org/2000/svg">
<g clip-path="url(#clip0_2068_1870)">
<g clip-path="url(#clip1_2068_1870)">
<path d="M8.3621 11.333C8.55099 11.333 8.70943 11.269 8.83743 11.141C8.96544 11.013 9.02921 10.8548 9.02877 10.6663V7.98301C9.02877 7.79412 8.96477 7.63856 8.83677 7.51634C8.70877 7.39412 8.55055 7.33301 8.3621 7.33301C8.17321 7.33301 8.01477 7.39701 7.88677 7.52501C7.75877 7.65301 7.69499 7.81123 7.69543 7.99967V10.683C7.69543 10.8719 7.75943 11.0275 7.88743 11.1497C8.01543 11.2719 8.17366 11.333 8.3621 11.333ZM8.3621 5.99967C8.55099 5.99967 8.70943 5.93567 8.83743 5.80767C8.96544 5.67967 9.02921 5.52145 9.02877 5.33301C9.02877 5.14412 8.96477 4.98567 8.83677 4.85767C8.70877 4.72967 8.55055 4.6659 8.3621 4.66634C8.17321 4.66634 8.01477 4.73034 7.88677 4.85834C7.75877 4.98634 7.69499 5.14456 7.69543 5.33301C7.69543 5.5219 7.75943 5.68034 7.88743 5.80834C8.01543 5.93634 8.17366 6.00012 8.3621 5.99967ZM8.3621 14.6663C7.43988 14.6663 6.57321 14.4912 5.7621 14.141C4.95099 13.7908 4.24543 13.3159 3.64543 12.7163C3.04543 12.1163 2.57055 11.4108 2.22077 10.5997C1.87099 9.78856 1.69588 8.9219 1.69543 7.99967C1.69543 7.07745 1.87055 6.21079 2.22077 5.39967C2.57099 4.58856 3.04588 3.88301 3.64543 3.28301C4.24543 2.68301 4.95099 2.20812 5.7621 1.85834C6.57321 1.50856 7.43988 1.33345 8.3621 1.33301C9.28432 1.33301 10.151 1.50812 10.9621 1.85834C11.7732 2.20856 12.4788 2.68345 13.0788 3.28301C13.6788 3.88301 14.1539 4.58856 14.5041 5.39967C14.8543 6.21079 15.0292 7.07745 15.0288 7.99967C15.0288 8.9219 14.8537 9.78856 14.5034 10.5997C14.1532 11.4108 13.6783 12.1163 13.0788 12.7163C12.4788 13.3163 11.7732 13.7915 10.9621 14.1417C10.151 14.4919 9.28432 14.6668 8.3621 14.6663Z" fill="#DD2C5A"/>
</g>
</g>
<defs>
<clipPath id="clip0_2068_1870">
<rect width="16" height="16" fill="white" transform="translate(0.362061)"/>
</clipPath>
<clipPath id="clip1_2068_1870">
<rect width="16" height="16" fill="white" transform="translate(0.362061)"/>
</clipPath>
</defs>
</svg>
