<svg width="158" height="36" viewBox="0 0 158 36" fill="none" xmlns="http://www.w3.org/2000/svg">
<path fill-rule="evenodd" clip-rule="evenodd" d="M9.28531 20.8891L15.8666 24.6732C16.0451 24.7755 16.1472 24.9545 16.1472 25.159V32.7272C16.1472 32.9318 15.9176 33.0596 15.739 32.9574L9.15777 29.1732C8.9792 29.071 8.87717 28.892 8.87717 28.6874V21.1192C8.87717 20.8891 9.10675 20.7613 9.28531 20.8891ZM16.1472 22.7556L16.1727 15.0851C16.1727 14.8806 16.0451 14.7016 15.8666 14.5482L0.535826 5.80382C0.382774 5.67597 0.127686 5.82939 0.127686 6.03394V23.6505C0.127686 23.855 0.229722 24.034 0.408283 24.1363L6.98953 27.8693C7.14258 27.9971 7.39766 27.8437 7.39766 27.6391V18.5624C7.39766 18.3579 7.62724 18.23 7.80581 18.3323L15.841 22.9346C15.9686 22.9857 16.1472 22.9346 16.1472 22.7556ZM26.6057 9.66463L33.1104 5.95723C33.289 5.85495 33.5186 5.98279 33.5186 6.21291V23.7783C33.5186 23.9829 33.4165 24.1619 33.238 24.2641L18.0348 32.9574C17.8562 33.0852 17.6267 32.9318 17.6267 32.7272V25.1846C17.6267 24.98 17.7287 24.8011 17.9072 24.6988L26.0445 20.0198C26.2231 19.9175 26.3251 19.7385 26.3251 19.534L26.2996 10.1504C26.3251 9.94588 26.4272 9.7669 26.6057 9.66463ZM17.6267 22.6533V15.1107C17.6267 14.9061 17.7287 14.7272 17.9072 14.6505L24.412 10.943C24.5905 10.8152 24.8201 10.9686 24.8201 11.1732V18.8436C24.8201 18.9459 24.7691 19.0482 24.6926 19.0738L18.0348 22.8834C17.8562 23.0113 17.6267 22.8579 17.6267 22.6533ZM7.85682 0.20436L1.37761 3.93733C1.22456 4.03961 1.22456 4.32086 1.37761 4.42313L16.7083 13.1675C16.8869 13.2698 17.091 13.2698 17.2695 13.1675L23.7742 9.43452C23.9528 9.33224 23.9528 9.05099 23.7742 8.94872L8.44352 0.20436C8.23945 0.127655 8.03538 0.127655 7.85682 0.20436ZM25.3303 0.20436L18.7745 3.93733C18.596 4.03961 18.596 4.32086 18.7745 4.42313L25.3813 8.20724C25.5599 8.30951 25.7639 8.30951 25.9425 8.20724L32.4982 4.47427C32.6768 4.372 32.6768 4.09075 32.4982 3.98847L25.8915 0.20436C25.7129 0.102087 25.5088 0.102087 25.3303 0.20436ZM52.0632 7.21034H49.997V2.86372H51.8846C53.2621 2.86372 54.8436 3.04271 54.8436 5.13931C54.8436 6.82682 53.6192 7.21034 52.0632 7.21034ZM51.9101 9.15353C54.8181 9.15353 57.42 8.36091 57.42 5.11374C57.42 1.27849 54.4355 0.92054 51.8336 0.92054H47.4971V13.628H49.997V9.15353H51.9101ZM62.6242 6.46864C61.4253 6.46864 60.66 6.9033 60.66 8.66752V13.6022H58.2367V4.19306H60.609V5.82943C61.1447 4.67886 62.012 4.19306 63.0834 4.19306C63.1569 4.19306 63.2423 4.19897 63.331 4.20511C63.4267 4.21174 63.5263 4.21863 63.619 4.21863V6.49421C63.4563 6.49421 63.2997 6.48805 63.1402 6.48178C62.9747 6.47527 62.8061 6.46864 62.6242 6.46864ZM71.0674 8.92329C71.0674 10.892 70.1236 11.9659 68.7971 11.9659C67.4452 11.9659 66.5013 10.892 66.5268 8.92329C66.5268 6.95453 67.4707 5.88066 68.7971 5.88066C70.1236 5.88066 71.0674 6.95453 71.0674 8.92329ZM73.5162 8.92329C73.5162 5.62498 71.1694 3.98861 68.7971 3.98861C66.3993 3.98861 64.0525 5.59941 64.078 8.92329C64.078 12.2472 66.4248 13.858 68.7971 13.858C71.1694 13.858 73.5162 12.2472 73.5162 8.92329ZM77.6229 1.63638V4.19321H79.5871V5.85515H77.6229V10.7387C77.6229 11.7103 77.9545 11.8893 78.8218 11.8893H79.5616V13.6279H77.8015C75.6588 13.6279 75.2251 12.9631 75.2251 11.0967V5.88072H73.8986V4.19321H75.2251V1.63638H77.6229ZM87.3165 8.92329C87.3165 10.892 86.3727 11.9659 85.0462 11.9659C83.7198 11.9659 82.776 10.892 82.776 8.92329C82.776 6.95453 83.7198 5.88066 85.0462 5.88066C86.3727 5.88066 87.3165 6.95453 87.3165 8.92329ZM89.7654 8.92329C89.7654 5.62498 87.4186 3.98861 85.0462 3.98861C82.6739 3.98861 80.3271 5.59941 80.3271 8.92329C80.3271 12.2472 82.6739 13.858 85.0462 13.858C87.4186 13.858 89.7654 12.2472 89.7654 8.92329ZM97.3413 7.41476C97.1628 6.51987 96.2955 5.85509 95.3772 5.85509C94.1272 5.85509 93.1324 6.92896 93.1324 8.89772C93.1324 10.8665 94.0762 11.9915 95.4027 11.9915C96.2189 11.9915 97.1118 11.5824 97.4434 10.4318H99.7647C99.2035 13.0142 97.2393 13.858 95.3006 13.858C92.4947 13.858 90.6836 11.7614 90.6836 8.92329C90.6836 6.08521 92.5967 3.98861 95.4027 3.98861C97.3668 3.98861 99.3565 5.08804 99.6626 7.41476H97.3413ZM107.443 8.92329C107.443 10.892 106.499 11.9659 105.173 11.9659C103.846 11.9659 102.902 10.892 102.902 8.92329C102.902 6.95453 103.846 5.88066 105.173 5.88066C106.499 5.88066 107.443 6.95453 107.443 8.92329ZM109.892 8.92329C109.892 5.62498 107.545 3.98861 105.173 3.98861C102.8 3.98861 100.454 5.59941 100.454 8.92329C100.454 12.2472 102.8 13.858 105.173 13.858C107.545 13.858 109.892 12.2472 109.892 8.92329ZM111.269 13.628V0.92054H113.692V13.628H111.269ZM128.181 13.628V11.5825H122.008V0.92054H119.508V13.628H128.181ZM131.294 10.9688C131.294 11.6591 131.829 12.2216 132.926 12.2216C134.431 12.2216 135.069 11.4034 135.069 10.0227V9.30684C132.365 9.58809 131.294 9.89491 131.294 10.9688ZM128.794 11.071C128.794 8.84661 131.294 8.18183 134.992 7.74717V7.59376C134.992 6.13637 134.202 5.625 133.232 5.625C132.314 5.625 131.523 6.1108 131.472 7.1591H129.227C129.406 5.29262 130.936 3.9375 133.36 3.9375C135.604 3.9375 137.416 4.90909 137.416 8.10513C137.416 8.21608 137.412 8.4474 137.408 8.73864L137.408 8.75954L137.408 8.76118V8.76249V8.76353V8.76437V8.76502V8.76553C137.4 9.277 137.39 9.96321 137.39 10.5086C137.39 11.9915 137.492 12.8353 137.671 13.6279H135.451C135.375 13.3211 135.324 12.912 135.298 12.4517C134.635 13.4233 133.64 13.858 132.212 13.858C130.401 13.858 128.794 12.8097 128.794 11.071ZM141.574 8.89785C141.574 7.00579 142.441 5.82965 143.767 5.82965C145.017 5.82965 145.936 7.0825 145.91 8.92342C145.91 10.7643 145.017 11.9916 143.767 11.9916C142.441 11.9916 141.574 10.7899 141.574 8.89785ZM141.676 0.92054H139.252V13.628H141.676V12.4263C142.262 13.4746 143.41 13.8581 144.379 13.8581C146.599 13.8581 148.461 11.8893 148.461 8.92342C148.461 5.95749 146.65 3.98874 144.379 3.98874C143.206 3.98874 142.186 4.55123 141.676 5.42056V0.92054ZM153.206 5.67614C152.313 5.67614 151.675 6.00853 151.675 6.5966C151.675 7.10796 152.032 7.49149 152.925 7.69604L154.175 7.97728C156.037 8.38638 157.644 8.87218 157.644 10.8154C157.644 12.7586 155.706 13.858 153.563 13.858C151.242 13.858 149.507 12.6563 149.277 10.5086H151.599C151.752 11.429 152.389 12.0938 153.639 12.0938C154.66 12.0938 155.348 11.7103 155.348 11.0199C155.348 10.3296 154.609 10.0483 153.818 9.86934L152.415 9.56252C150.655 9.20457 149.481 8.46308 149.481 6.75001C149.481 5.03693 151.293 3.9375 153.333 3.9375C155.374 3.9375 157.16 4.85796 157.491 7.03126H155.246C155.042 6.23864 154.303 5.67614 153.206 5.67614ZM54.6781 28.6363C54.0914 29.4034 53.3262 29.838 52.3823 29.9659C52.2771 29.9791 52.1719 29.9855 52.0632 29.9921C51.961 29.9983 51.8558 30.0046 51.7446 30.017H51.0304H49.5254V21.2727H51.0814C51.2328 21.2727 51.3768 21.2801 51.5094 21.287L51.5094 21.287L51.5095 21.287C51.6225 21.2928 51.7272 21.2982 51.8211 21.2982C52.0507 21.2982 52.2548 21.3238 52.4589 21.3494C53.4027 21.4772 54.1424 21.8863 54.7036 22.5767C55.2648 23.267 55.5454 24.2386 55.5454 25.517C55.5454 26.8466 55.2393 27.8693 54.6781 28.6363ZM55.0607 19.9175C54.423 19.6363 53.7343 19.4317 52.9945 19.355C52.8701 19.3446 52.7498 19.33 52.6372 19.3163C52.4729 19.2963 52.3248 19.2783 52.2038 19.2783H51.3875H47V31.9858H51.3365H52.1528C52.3568 31.9602 52.6119 31.9347 52.9435 31.9091C53.6833 31.8068 54.372 31.6023 55.0097 31.2954C55.6474 30.9886 56.2086 30.554 56.6933 30.017C57.178 29.4801 57.5351 28.8409 57.8157 28.0738C58.0963 27.3068 58.2238 26.4375 58.2238 25.4659C58.2238 24.5198 58.0963 23.6505 57.8157 22.9346C57.5606 22.2187 57.178 21.605 56.7188 21.0937C56.2597 20.5823 55.6985 20.1988 55.0607 19.9175ZM59.7035 22.1933H62.2289V32.0116H59.7035V22.1933ZM60.979 18.5371C61.3871 18.5371 61.7442 18.6649 61.9993 18.9206C62.2544 19.1763 62.3819 19.4831 62.3819 19.8922C62.3819 20.3013 62.2544 20.6337 61.9993 20.8638C61.7442 21.1195 61.4126 21.2217 60.979 21.2217C60.5708 21.2217 60.2137 21.0939 59.9586 20.8638C59.7035 20.6081 59.576 20.3013 59.576 19.8922C59.576 19.5087 59.7035 19.1763 59.9586 18.9206C60.2137 18.6649 60.5708 18.5371 60.979 18.5371ZM69.8047 22.0399C69.6006 21.9887 69.371 21.9632 69.0904 21.9632C68.8098 21.9632 68.5293 22.0143 68.2232 22.1422C67.917 22.2444 67.662 22.3978 67.4069 22.6279L66.6416 23.9831V22.1933H64.1162V32.0115H66.6416V27.5115C66.6416 26.1819 66.8967 25.2615 67.4324 24.7501C67.9681 24.2388 68.7588 24.0086 69.8047 24.0853V22.0399ZM74.8045 23.7273C74.2178 23.7273 73.7331 23.9318 73.325 24.3153C72.9424 24.6989 72.6873 25.3125 72.5597 26.1051H76.8707C76.7942 25.3381 76.5646 24.75 76.233 24.3409C75.9014 23.9318 75.4167 23.7273 74.8045 23.7273ZM79.4981 26.8977V27.2813V27.2814C79.4981 27.4348 79.4981 27.5881 79.4726 27.7415H72.5087C72.5342 28.2529 72.6363 28.6875 72.7638 29.0199C72.8914 29.3523 73.0699 29.6336 73.274 29.8637C73.4781 30.0682 73.7076 30.2216 73.9627 30.3239C74.2178 30.4262 74.4984 30.4517 74.8045 30.4517C75.3657 30.4517 75.8248 30.2983 76.182 30.0171C76.5391 29.7358 76.7687 29.3267 76.8452 28.7898H79.3706C79.243 29.3523 79.039 29.8637 78.7584 30.2983C78.4778 30.733 78.1206 31.0909 77.738 31.3722C77.3299 31.6534 76.8707 31.858 76.3605 32.0114C75.8504 32.1648 75.3147 32.2415 74.728 32.2415C74.0648 32.2415 73.427 32.1392 72.8403 31.9347C72.2536 31.7301 71.769 31.3978 71.3353 30.9887C70.9017 30.554 70.5701 30.0426 70.315 29.3779C70.0599 28.7387 69.9579 27.9716 69.9579 27.1279C69.9579 26.3864 70.0854 25.696 70.315 25.0568C70.5445 24.4176 70.8762 23.8551 71.3098 23.3949C71.7435 22.9346 72.2536 22.5767 72.8658 22.321C73.478 22.0653 74.1668 21.9375 74.9065 21.9375C75.6463 21.9375 76.3095 22.0653 76.8707 22.321C77.4319 22.5767 77.9166 22.9346 78.2992 23.3949C78.6818 23.8551 78.9879 24.3665 79.1665 24.9801C79.4216 25.5938 79.4981 26.233 79.4981 26.8977ZM86.9721 22.2187C86.4364 22.0398 85.8497 21.9375 85.1865 21.9375C84.5233 21.9375 83.8856 22.0653 83.2734 22.2699C82.6867 22.5 82.151 22.858 81.7173 23.2926C81.2837 23.7273 80.9266 24.2898 80.6715 24.929C80.4164 25.5682 80.2888 26.3097 80.2888 27.1534C80.2888 27.9972 80.4164 28.7387 80.646 29.3779C80.901 30.0171 81.2327 30.5284 81.6408 30.9631C82.0489 31.3722 82.5591 31.7046 83.1203 31.9091C83.6815 32.1392 84.2937 32.2415 84.9569 32.2415C86.1814 32.2415 87.2017 31.9347 88.0435 31.321C88.8853 30.7074 89.421 29.8125 89.625 28.5853H87.0997C86.9721 29.2245 86.717 29.6847 86.3854 29.9915C86.0283 30.2983 85.6202 30.4517 85.11 30.4517C84.4723 30.4517 83.9366 30.1705 83.5285 29.6335C83.1203 29.0966 82.9162 28.2273 82.9162 27C82.9162 25.875 83.1203 25.0568 83.5285 24.5199C83.9366 23.983 84.4723 23.7273 85.11 23.7273C85.6457 23.7273 86.0793 23.8807 86.4364 24.1875C86.7936 24.4943 87.0231 25.0057 87.1507 25.7216H89.6505C89.5995 25.1847 89.472 24.6733 89.2424 24.2131C89.0383 23.7528 88.7322 23.3437 88.3496 23.0114C87.967 22.679 87.5078 22.3977 86.9721 22.2187ZM93.9868 28.4831V28.9434V28.9435C93.9868 29.0713 93.9868 29.2247 94.0123 29.3525C94.0378 29.5826 94.0889 29.7871 94.1399 29.9405C94.1909 30.0939 94.2929 30.2218 94.446 30.2985C94.599 30.3752 94.7776 30.4263 95.0072 30.4519C95.2368 30.4775 95.5173 30.4775 95.8745 30.4519V32.1138C95.594 32.165 95.3135 32.1905 95.0331 32.2161L95.0327 32.2161C94.7521 32.2417 94.4715 32.2417 94.1909 32.2417C93.2471 32.2417 92.5838 32.0883 92.1757 31.7559C91.7931 31.4235 91.5635 30.9121 91.487 30.2474C91.4615 30.0173 91.4615 29.8128 91.4615 29.5828V29.5826V28.8155V23.9831H90.033V22.2956H91.4615V19.8922H93.9868V22.2956H96.002V23.9831H93.9868V28.4831ZM103.195 29.5824C102.762 30.1705 102.15 30.4773 101.384 30.4773C100.619 30.4773 100.007 30.1705 99.5732 29.5824C99.1396 28.9943 98.9355 28.1506 98.9355 27.1023C98.9355 26.054 99.1396 25.2102 99.5732 24.6222C100.007 24.0341 100.619 23.7273 101.384 23.7273C102.175 23.7273 102.762 24.0341 103.195 24.6222C103.629 25.2102 103.833 26.0284 103.833 27.1023C103.833 28.1506 103.629 28.9943 103.195 29.5824ZM103.553 22.321C102.915 22.0653 102.201 21.9375 101.384 21.9375C100.594 21.9375 99.8538 22.0653 99.2161 22.321C98.5784 22.5767 98.0427 22.9346 97.6091 23.3949C97.1754 23.8551 96.8438 24.392 96.6142 25.0313C96.3847 25.6705 96.2826 26.3608 96.2826 27.1023C96.2826 27.8182 96.3847 28.5085 96.6142 29.1477C96.8438 29.787 97.1754 30.3239 97.6091 30.7841C98.0427 31.2444 98.5784 31.6023 99.2161 31.858C99.8538 32.1137 100.568 32.2415 101.384 32.2415C102.201 32.2415 102.915 32.1137 103.553 31.858C104.19 31.6023 104.726 31.2444 105.16 30.7841C105.593 30.3239 105.925 29.787 106.154 29.1477C106.384 28.5341 106.486 27.8438 106.486 27.1023C106.486 26.3352 106.384 25.6705 106.154 25.0313C105.925 24.392 105.593 23.8551 105.16 23.3949C104.726 22.9346 104.19 22.5767 103.553 22.321ZM112.71 21.9632C112.991 21.9632 113.22 21.9887 113.425 22.0399V24.0853C112.379 24.0086 111.588 24.2388 111.052 24.7501C110.517 25.2615 110.261 26.1819 110.261 27.5115V32.0115H107.736V22.1933H110.261V23.9831L111.027 22.6279C111.282 22.3978 111.537 22.2444 111.843 22.1422C112.124 22.0143 112.43 21.9632 112.71 21.9632ZM119.445 34.0314C119.725 33.5968 119.981 33.0343 120.236 32.3695L124.215 22.1933H121.435L119.037 30.0683L116.613 22.1933H113.782L117.761 32.4718L117.634 32.7786C117.404 33.2644 117.175 33.6223 116.868 33.8013C116.562 33.9803 116.205 34.0826 115.772 34.0826H115.389C115.261 34.0826 115.134 34.0826 115.006 34.057V35.7956C115.185 35.8212 115.363 35.8468 115.542 35.8468C115.721 35.8723 115.925 35.8723 116.154 35.8723C116.639 35.8723 117.098 35.8212 117.481 35.6934C117.863 35.5655 118.22 35.3866 118.552 35.1053C118.884 34.8496 119.164 34.4917 119.445 34.0314Z" fill="#0F172A"/>
</svg>
