<svg width="12" height="12" viewBox="0 0 12 12" fill="none" xmlns="http://www.w3.org/2000/svg">
<path d="M2 5.5C1.72386 5.5 1.5 5.72386 1.5 6C1.5 6.27614 1.72386 6.5 2 6.5L2 5.5ZM10.3536 6.35355C10.5488 6.15829 10.5488 5.84171 10.3536 5.64645L7.17157 2.46447C6.97631 2.2692 6.65973 2.2692 6.46447 2.46447C6.2692 2.65973 6.2692 2.97631 6.46447 3.17157L9.29289 6L6.46447 8.82843C6.2692 9.02369 6.2692 9.34027 6.46447 9.53553C6.65973 9.7308 6.97631 9.7308 7.17157 9.53553L10.3536 6.35355ZM2 6.5L10 6.5L10 5.5L2 5.5L2 6.5Z" fill="#156FF7"/>
</svg>
