<svg width="9" height="9" viewBox="0 0 9 9" fill="none" xmlns="http://www.w3.org/2000/svg">
<path d="M0.146447 7.64645C-0.0488155 7.84171 -0.0488155 8.15829 0.146447 8.35355C0.341709 8.54882 0.658291 8.54882 0.853553 8.35355L0.146447 7.64645ZM8.07107 0.928932C8.07107 0.65279 7.84721 0.428932 7.57107 0.428932L3.07107 0.428932C2.79493 0.428932 2.57107 0.65279 2.57107 0.928932C2.57107 1.20507 2.79493 1.42893 3.07107 1.42893L7.07107 1.42893L7.07107 5.42893C7.07107 5.70507 7.29493 5.92893 7.57107 5.92893C7.84721 5.92893 8.07107 5.70507 8.07107 5.42893L8.07107 0.928932ZM0.853553 8.35355L7.92462 1.28249L7.21751 0.575379L0.146447 7.64645L0.853553 8.35355Z" fill="#156FF7"/>
</svg>
