<svg width="26" height="13" viewBox="0 0 26 13" fill="none" xmlns="http://www.w3.org/2000/svg">
<rect width="26" height="13" rx="2" fill="url(#paint0_linear_5199_62207)"/>
<path d="M2.79901 10V2.72727H5.46236C5.97846 2.72727 6.40578 2.8125 6.74432 2.98295C7.08286 3.15104 7.33617 3.3795 7.50426 3.66832C7.67235 3.95478 7.75639 4.27794 7.75639 4.63778C7.75639 4.94081 7.70076 5.1965 7.58949 5.40483C7.47822 5.6108 7.32907 5.77651 7.14205 5.90199C6.95739 6.02509 6.75379 6.11506 6.53125 6.17188V6.2429C6.77273 6.25473 7.00829 6.33286 7.23793 6.47727C7.46993 6.61932 7.6617 6.82173 7.81321 7.08452C7.96473 7.3473 8.04048 7.6669 8.04048 8.04332C8.04048 8.41501 7.95289 8.74882 7.7777 9.04474C7.60488 9.3383 7.33736 9.5715 6.97514 9.74432C6.61293 9.91477 6.15009 10 5.58665 10H2.79901ZM3.89631 9.05895H5.48011C6.00568 9.05895 6.3821 8.95715 6.60938 8.75355C6.83665 8.54995 6.95028 8.29545 6.95028 7.99006C6.95028 7.76042 6.89228 7.54972 6.77628 7.35795C6.66027 7.16619 6.49455 7.01349 6.27912 6.89986C6.06605 6.78622 5.81274 6.7294 5.51918 6.7294H3.89631V9.05895ZM3.89631 5.87358H5.36648C5.61269 5.87358 5.83404 5.82623 6.03054 5.73153C6.2294 5.63684 6.38684 5.50426 6.50284 5.33381C6.62121 5.16098 6.6804 4.95739 6.6804 4.72301C6.6804 4.42235 6.57505 4.17022 6.36435 3.96662C6.15365 3.76302 5.83049 3.66122 5.39489 3.66122H3.89631V5.87358ZM11.6076 10.1101C11.0702 10.1101 10.6074 9.99527 10.2191 9.76562C9.83321 9.53362 9.53492 9.2081 9.32422 8.78906C9.11589 8.36766 9.01172 7.87405 9.01172 7.30824C9.01172 6.74953 9.11589 6.2571 9.32422 5.83097C9.53492 5.40483 9.82848 5.07221 10.2049 4.8331C10.5837 4.59399 11.0264 4.47443 11.533 4.47443C11.8408 4.47443 12.1391 4.52533 12.4279 4.62713C12.7167 4.72893 12.976 4.88873 13.2056 5.10653C13.4353 5.32434 13.6164 5.60724 13.7489 5.95526C13.8815 6.3009 13.9478 6.72112 13.9478 7.21591V7.59233H9.61186V6.79688H12.9073C12.9073 6.51752 12.8505 6.27012 12.7369 6.05469C12.6232 5.83688 12.4634 5.66525 12.2575 5.53977C12.0539 5.4143 11.8147 5.35156 11.5401 5.35156C11.2418 5.35156 10.9814 5.42495 10.7589 5.57173C10.5387 5.71615 10.3683 5.90554 10.2475 6.13991C10.1291 6.37192 10.07 6.62405 10.07 6.89631V7.51776C10.07 7.88234 10.1339 8.19247 10.2617 8.44815C10.3919 8.70384 10.573 8.89915 10.805 9.03409C11.0371 9.16667 11.3081 9.23295 11.6183 9.23295C11.8195 9.23295 12.003 9.20455 12.1687 9.14773C12.3344 9.08854 12.4776 9.00095 12.5984 8.88494C12.7191 8.76894 12.8114 8.62571 12.8754 8.45526L13.8803 8.63636C13.7998 8.93229 13.6554 9.19152 13.4471 9.41406C13.2411 9.63423 12.9819 9.80587 12.6694 9.92898C12.3593 10.0497 12.0053 10.1101 11.6076 10.1101ZM17.6721 4.54545V5.39773H14.6926V4.54545H17.6721ZM15.4917 3.23864H16.5534V8.39844C16.5534 8.6044 16.5842 8.75947 16.6458 8.86364C16.7073 8.96544 16.7866 9.03527 16.8837 9.07315C16.9831 9.10866 17.0908 9.12642 17.2069 9.12642C17.2921 9.12642 17.3667 9.1205 17.4306 9.10866C17.4945 9.09683 17.5442 9.08736 17.5797 9.08026L17.7715 9.95739C17.7099 9.98106 17.6223 10.0047 17.5087 10.0284C17.3951 10.0545 17.253 10.0687 17.0826 10.071C16.8032 10.0758 16.5428 10.026 16.3013 9.92188C16.0598 9.81771 15.8645 9.65672 15.7154 9.43892C15.5662 9.22112 15.4917 8.94768 15.4917 8.61861V3.23864ZM20.4339 10.1207C20.0883 10.1207 19.7758 10.0568 19.4964 9.92898C19.2171 9.79877 18.9957 9.61056 18.8324 9.36435C18.6714 9.11813 18.5909 8.81629 18.5909 8.45881C18.5909 8.15104 18.6501 7.89773 18.7685 7.69886C18.8868 7.5 19.0466 7.34257 19.2479 7.22656C19.4491 7.11056 19.674 7.02296 19.9226 6.96378C20.1712 6.90459 20.4245 6.85961 20.6825 6.82884C21.0092 6.79096 21.2744 6.76018 21.478 6.73651C21.6816 6.71046 21.8295 6.66903 21.9219 6.61222C22.0142 6.5554 22.0604 6.46307 22.0604 6.33523V6.31037C22.0604 6.00024 21.9728 5.75994 21.7976 5.58949C21.6248 5.41903 21.3667 5.33381 21.0234 5.33381C20.666 5.33381 20.3842 5.41312 20.1783 5.57173C19.9747 5.72798 19.8338 5.90199 19.7557 6.09375L18.7578 5.86648C18.8762 5.53504 19.049 5.26752 19.2763 5.06392C19.5059 4.85795 19.7699 4.70881 20.0682 4.61648C20.3665 4.52178 20.6802 4.47443 21.0092 4.47443C21.227 4.47443 21.4579 4.50047 21.7017 4.55256C21.9479 4.60227 22.1776 4.6946 22.3906 4.82955C22.6061 4.96449 22.7824 5.15743 22.9197 5.40838C23.0571 5.65696 23.1257 5.98011 23.1257 6.37784V10H22.0888V9.25426H22.0462C21.9775 9.39157 21.8745 9.52652 21.7372 9.65909C21.5999 9.79167 21.4235 9.90175 21.2081 9.98935C20.9927 10.0769 20.7346 10.1207 20.4339 10.1207ZM20.6648 9.26847C20.9583 9.26847 21.2093 9.21046 21.4176 9.09446C21.6283 8.97846 21.7881 8.82694 21.897 8.63991C22.0083 8.45052 22.0639 8.24811 22.0639 8.03267V7.32955C22.026 7.36742 21.9527 7.40294 21.8438 7.43608C21.7372 7.46686 21.6153 7.49408 21.478 7.51776C21.3407 7.53906 21.2069 7.55919 21.0767 7.57812C20.9465 7.5947 20.8376 7.6089 20.75 7.62074C20.544 7.64678 20.3558 7.69058 20.1854 7.75213C20.0173 7.81368 19.8823 7.90246 19.7805 8.01847C19.6811 8.1321 19.6314 8.28362 19.6314 8.47301C19.6314 8.7358 19.7285 8.93466 19.9226 9.0696C20.1167 9.20218 20.3641 9.26847 20.6648 9.26847Z" fill="white"/>
<defs>
<linearGradient id="paint0_linear_5199_62207" x1="-1.43267" y1="6.49994" x2="17.4935" y2="-6.18842" gradientUnits="userSpaceOnUse">
<stop stop-color="#427DFF"/>
<stop offset="1" stop-color="#44D5BB"/>
</linearGradient>
</defs>
</svg>
