<svg width="72" height="44" viewBox="0 0 72 44" fill="none" xmlns="http://www.w3.org/2000/svg">
<path d="M12.184 -34.664L1 -41.192V-54.248L12.184 -60.776M12.184 -34.664V-48.2222L23.368 -54.248M12.184 -34.664L23.368 -41.192V-54.248M12.184 -34.664L1 -28.136V-15.08L12.184 -8.55201M12.184 -34.664L23.368 -28.136M34.552 -47.72V-34.664M34.552 -47.72L23.368 -54.248M34.552 -47.72L45.736 -54.248M34.552 -34.664L23.368 -28.136M34.552 -34.664L45.736 -28.136M12.184 -60.776L1 -67.304V-80.36L12.184 -86.888M12.184 -60.776L23.368 -54.248M12.184 -60.776V-74.3342L23.368 -80.36M12.184 -60.776L23.368 -67.304V-80.36M23.368 -54.248L34.552 -60.776M34.552 -73.832V-60.776M34.552 -73.832L23.368 -80.36M34.552 -73.832L45.736 -80.36M34.552 -60.776L45.736 -54.248M12.184 -86.888L1 -93.416V-106.472L12.184 -113L23.368 -106.472M12.184 -86.888L23.368 -80.36M12.184 -86.888V-100.446L23.368 -106.472M12.184 -86.888L23.368 -93.416V-106.472M23.368 -80.36L34.552 -86.888M34.552 -99.944V-86.888M34.552 -99.944L23.368 -106.472M34.552 -99.944L45.736 -106.472M34.552 -86.888L45.736 -80.36M23.368 -106.472L34.552 -113L45.736 -106.472M68.104 -41.192L56.92 -34.664M68.104 -41.192V-54.248M68.104 -41.192L79.288 -34.664M56.92 -34.664V-48.2222L45.736 -54.248M56.92 -34.664L45.736 -41.192V-54.248M56.92 -34.664L68.104 -28.136M56.92 -34.664L45.736 -28.136M68.104 -67.304L56.92 -60.776M68.104 -67.304V-80.36M68.104 -67.304L79.288 -60.776M56.92 -60.776L68.104 -54.248M56.92 -60.776L45.736 -54.248M56.92 -60.776V-74.3342L45.736 -80.36M56.92 -60.776L45.736 -67.304V-80.36M68.104 -54.248L79.288 -60.776M68.104 -93.416L56.92 -86.888M68.104 -93.416V-106.472M68.104 -93.416L79.288 -86.888M56.92 -86.888L68.104 -80.36M56.92 -86.888L45.736 -80.36M56.92 -86.888V-100.446L45.736 -106.472M56.92 -86.888L45.736 -93.416V-106.472M68.104 -80.36L79.288 -86.888M68.104 -106.472L56.92 -113L45.736 -106.472M68.104 -106.472L79.288 -113L90.472 -106.472M12.184 43.672L1 37.144V24.088L12.184 17.56M12.184 43.672V30.1138L23.368 24.088M12.184 43.672L23.368 37.144V24.088M34.552 30.616V43.672M34.552 30.616L23.368 24.088M34.552 30.616L45.736 24.088M12.184 17.56L1 11.032V-2.024L12.184 -8.55201M12.184 17.56L23.368 24.088M12.184 17.56V4.00184L23.368 -2.024M12.184 17.56L23.368 11.032V-2.024M23.368 24.088L34.552 17.56M34.552 4.50399V17.56M34.552 4.50399L23.368 -2.024M34.552 4.50399L45.736 -2.024M34.552 17.56L45.736 24.088M12.184 -8.55201L23.368 -2.024M12.184 -8.55201V-22.1102L23.368 -28.136M12.184 -8.55201L23.368 -15.08V-28.136M23.368 -2.024L34.552 -8.55201M34.552 -21.608V-8.55201M34.552 -21.608L23.368 -28.136M34.552 -21.608L45.736 -28.136M34.552 -8.55201L45.736 -2.024M68.104 37.144L56.92 43.672M68.104 37.144V24.088M68.104 37.144L79.288 43.672M56.92 43.672V30.1138L45.736 24.088M56.92 43.672L45.736 37.144V24.088M68.104 11.032L56.92 17.56M68.104 11.032V-2.024M68.104 11.032L79.288 17.56M56.92 17.56L68.104 24.088M56.92 17.56L45.736 24.088M56.92 17.56V4.00184L45.736 -2.024M56.92 17.56L45.736 11.032V-2.024M68.104 24.088L79.288 17.56M68.104 -15.08L56.92 -8.55201M68.104 -15.08V-28.136M68.104 -15.08L79.288 -8.55201M56.92 -8.55201L68.104 -2.024M56.92 -8.55201L45.736 -2.024M56.92 -8.55201V-22.1102L45.736 -28.136M56.92 -8.55201L45.736 -15.08V-28.136M68.104 -2.024L79.288 -8.55201M68.104 -28.136L79.288 -34.664M79.288 -34.664V-48.2222L90.472 -54.248M79.288 -34.664L90.472 -41.192V-54.248M79.288 -34.664L90.472 -28.136M101.656 -47.72V-34.664M101.656 -47.72L90.472 -54.248M101.656 -47.72L112.84 -54.248M101.656 -34.664L90.472 -28.136M101.656 -34.664L112.84 -28.136M79.288 -60.776L90.472 -54.248M79.288 -60.776V-74.3342L90.472 -80.36M79.288 -60.776L90.472 -67.304V-80.36M90.472 -54.248L101.656 -60.776M101.656 -73.832V-60.776M101.656 -73.832L90.472 -80.36M101.656 -73.832L112.84 -80.36M101.656 -60.776L112.84 -54.248M79.288 -86.888L90.472 -80.36M79.288 -86.888V-100.446L90.472 -106.472M79.288 -86.888L90.472 -93.416V-106.472M90.472 -80.36L101.656 -86.888M101.656 -99.944V-86.888M101.656 -99.944L90.472 -106.472M101.656 -99.944L112.84 -106.472M101.656 -86.888L112.84 -80.36M90.472 -106.472L101.656 -113L112.84 -106.472M124.024 -34.664L135.208 -41.192V-54.248L124.024 -60.776M124.024 -34.664V-48.2222L112.84 -54.248M124.024 -34.664L112.84 -41.192V-54.248M124.024 -34.664L135.208 -28.136V-15.08L124.024 -8.55201M124.024 -34.664L112.84 -28.136M124.024 -60.776L135.208 -67.304V-80.36L124.024 -86.888M124.024 -60.776L112.84 -54.248M124.024 -60.776V-74.3342L112.84 -80.36M124.024 -60.776L112.84 -67.304V-80.36M124.024 -86.888L135.208 -93.416V-106.472L124.024 -113L112.84 -106.472M124.024 -86.888L112.84 -80.36M124.024 -86.888V-100.446L112.84 -106.472M124.024 -86.888L112.84 -93.416V-106.472M79.288 43.672V30.1138L90.472 24.088M79.288 43.672L90.472 37.144V24.088M101.656 30.616V43.672M101.656 30.616L90.472 24.088M101.656 30.616L112.84 24.088M79.288 17.56L90.472 24.088M79.288 17.56V4.00184L90.472 -2.024M79.288 17.56L90.472 11.032V-2.024M90.472 24.088L101.656 17.56M101.656 4.50399V17.56M101.656 4.50399L90.472 -2.024M101.656 4.50399L112.84 -2.024M101.656 17.56L112.84 24.088M79.288 -8.55201L90.472 -2.024M79.288 -8.55201V-22.1102L90.472 -28.136M79.288 -8.55201L90.472 -15.08V-28.136M90.472 -2.024L101.656 -8.55201M101.656 -21.608V-8.55201M101.656 -21.608L90.472 -28.136M101.656 -21.608L112.84 -28.136M101.656 -8.55201L112.84 -2.024M124.024 43.672L135.208 37.144V24.088L124.024 17.56M124.024 43.672V30.1138L112.84 24.088M124.024 43.672L112.84 37.144V24.088M124.024 17.56L135.208 11.032V-2.024L124.024 -8.55201M124.024 17.56L112.84 24.088M124.024 17.56V4.00184L112.84 -2.024M124.024 17.56L112.84 11.032V-2.024M124.024 -8.55201L112.84 -2.024M124.024 -8.55201V-22.1102L112.84 -28.136M124.024 -8.55201L112.84 -15.08V-28.136" stroke="#94A3B8" stroke-width="0.498692" stroke-linecap="round" stroke-linejoin="round"/>
<path d="M12.4336 4.14949L23.1241 -1.60938L23.1194 10.903L12.4336 17.1245V4.14949Z" fill="#156FF7"/>
<path d="M45.9805 24.332L56.8032 30.2586L56.6759 43.3448L45.9805 37.307V24.332Z" fill="#77FF85"/>
<path d="M23.8789 24.0734L34.5714 17.8359L45.2722 24.0833L34.5628 30.315L23.8789 24.0734Z" fill="#DBEAFE"/>
</svg>
