<svg width="16" height="16" viewBox="0 0 16 16" fill="none" xmlns="http://www.w3.org/2000/svg">
<g clip-path="url(#clip0_9370_89950)">
<path d="M8 9.33203C7.81111 9.33203 7.65289 9.26803 7.52533 9.14003C7.39733 9.01248 7.33333 8.85425 7.33333 8.66536C7.33333 8.47648 7.39733 8.31803 7.52533 8.19003C7.65289 8.06248 7.81111 7.9987 8 7.9987C8.18889 7.9987 8.34733 8.06248 8.47533 8.19003C8.60289 8.31803 8.66667 8.47648 8.66667 8.66536C8.66667 8.85425 8.60289 9.01248 8.47533 9.14003C8.34733 9.26803 8.18889 9.33203 8 9.33203ZM5.33333 9.33203C5.14444 9.33203 4.986 9.26803 4.858 9.14003C4.73044 9.01248 4.66667 8.85425 4.66667 8.66536C4.66667 8.47648 4.73044 8.31803 4.858 8.19003C4.986 8.06248 5.14444 7.9987 5.33333 7.9987C5.52222 7.9987 5.68067 8.06248 5.80867 8.19003C5.93622 8.31803 6 8.47648 6 8.66536C6 8.85425 5.93622 9.01248 5.80867 9.14003C5.68067 9.26803 5.52222 9.33203 5.33333 9.33203ZM10.6667 9.33203C10.4778 9.33203 10.3196 9.26803 10.192 9.14003C10.064 9.01248 10 8.85425 10 8.66536C10 8.47648 10.064 8.31803 10.192 8.19003C10.3196 8.06248 10.4778 7.9987 10.6667 7.9987C10.8556 7.9987 11.0138 8.06248 11.1413 8.19003C11.2693 8.31803 11.3333 8.47648 11.3333 8.66536C11.3333 8.85425 11.2693 9.01248 11.1413 9.14003C11.0138 9.26803 10.8556 9.33203 10.6667 9.33203ZM8 11.9987C7.81111 11.9987 7.65289 11.9347 7.52533 11.8067C7.39733 11.6791 7.33333 11.5209 7.33333 11.332C7.33333 11.1431 7.39733 10.9849 7.52533 10.8574C7.65289 10.7294 7.81111 10.6654 8 10.6654C8.18889 10.6654 8.34733 10.7294 8.47533 10.8574C8.60289 10.9849 8.66667 11.1431 8.66667 11.332C8.66667 11.5209 8.60289 11.6791 8.47533 11.8067C8.34733 11.9347 8.18889 11.9987 8 11.9987ZM5.33333 11.9987C5.14444 11.9987 4.986 11.9347 4.858 11.8067C4.73044 11.6791 4.66667 11.5209 4.66667 11.332C4.66667 11.1431 4.73044 10.9849 4.858 10.8574C4.986 10.7294 5.14444 10.6654 5.33333 10.6654C5.52222 10.6654 5.68067 10.7294 5.80867 10.8574C5.93622 10.9849 6 11.1431 6 11.332C6 11.5209 5.93622 11.6791 5.80867 11.8067C5.68067 11.9347 5.52222 11.9987 5.33333 11.9987ZM10.6667 11.9987C10.4778 11.9987 10.3196 11.9347 10.192 11.8067C10.064 11.6791 10 11.5209 10 11.332C10 11.1431 10.064 10.9849 10.192 10.8574C10.3196 10.7294 10.4778 10.6654 10.6667 10.6654C10.8556 10.6654 11.0138 10.7294 11.1413 10.8574C11.2693 10.9849 11.3333 11.1431 11.3333 11.332C11.3333 11.5209 11.2693 11.6791 11.1413 11.8067C11.0138 11.9347 10.8556 11.9987 10.6667 11.9987ZM3.33333 14.6654C2.96667 14.6654 2.65267 14.5349 2.39133 14.274C2.13044 14.0127 2 13.6987 2 13.332V3.9987C2 3.63203 2.13044 3.31825 2.39133 3.05736C2.65267 2.79603 2.96667 2.66536 3.33333 2.66536H4V1.9987C4 1.80981 4.06378 1.65136 4.19133 1.52336C4.31933 1.39581 4.47778 1.33203 4.66667 1.33203C4.85556 1.33203 5.014 1.39581 5.142 1.52336C5.26956 1.65136 5.33333 1.80981 5.33333 1.9987V2.66536H10.6667V1.9987C10.6667 1.80981 10.7307 1.65136 10.8587 1.52336C10.9862 1.39581 11.1444 1.33203 11.3333 1.33203C11.5222 1.33203 11.6804 1.39581 11.808 1.52336C11.936 1.65136 12 1.80981 12 1.9987V2.66536H12.6667C13.0333 2.66536 13.3473 2.79603 13.6087 3.05736C13.8696 3.31825 14 3.63203 14 3.9987V13.332C14 13.6987 13.8696 14.0127 13.6087 14.274C13.3473 14.5349 13.0333 14.6654 12.6667 14.6654H3.33333ZM3.33333 13.332H12.6667V6.66536H3.33333V13.332Z" fill="#0F172A"/>
</g>
<defs>
<clipPath id="clip0_9370_89950">
<rect width="16" height="16" fill="white"/>
</clipPath>
</defs>
</svg>
