<svg width="32" height="32" viewBox="0 0 32 32" fill="none" xmlns="http://www.w3.org/2000/svg"><path d="M3.99968 29.3332C3.26634 29.3332 2.63834 29.0718 2.11568 28.5492C1.59301 28.0265 1.33212 27.3989 1.33301 26.6665V10.6665C1.33301 9.93317 1.59434 9.30517 2.11701 8.7825C2.63968 8.25984 3.26723 7.99895 3.99968 7.99984H8.19968L10.6663 5.33317H18.6663V10.6665H22.6663V14.6665H27.9997V26.6665C27.9997 27.3998 27.7383 28.0278 27.2157 28.5505C26.693 29.0732 26.0655 29.3341 25.333 29.3332H3.99968ZM14.6663 24.6665C16.333 24.6665 17.7499 24.0829 18.917 22.9158C20.0841 21.7487 20.6672 20.3323 20.6663 18.6665C20.6663 16.9998 20.0828 15.5829 18.9157 14.4158C17.7486 13.2487 16.3321 12.6656 14.6663 12.6665C12.9997 12.6665 11.5828 13.2501 10.4157 14.4172C9.24857 15.5843 8.66545 17.0007 8.66634 18.6665C8.66634 20.3332 9.2499 21.7501 10.417 22.9172C11.5841 24.0843 13.0006 24.6674 14.6663 24.6665ZM14.6663 21.9998C13.733 21.9998 12.9441 21.6776 12.2997 21.0332C11.6552 20.3887 11.333 19.5998 11.333 18.6665C11.333 17.7332 11.6552 16.9443 12.2997 16.2998C12.9441 15.6554 13.733 15.3332 14.6663 15.3332C15.5997 15.3332 16.3886 15.6554 17.033 16.2998C17.6775 16.9443 17.9997 17.7332 17.9997 18.6665C17.9997 19.5998 17.6775 20.3887 17.033 21.0332C16.3886 21.6776 15.5997 21.9998 14.6663 21.9998ZM25.333 10.6665V7.99984H22.6663V5.33317H25.333V2.6665H27.9997V5.33317H30.6663V7.99984H27.9997V10.6665H25.333Z" fill="#CBD5E1"></path></svg>