<svg width="16" height="16" viewBox="0 0 16 16" fill="none" xmlns="http://www.w3.org/2000/svg">
<path fill-rule="evenodd" clip-rule="evenodd" d="M3.28598 11.7713C3.161 11.8963 3.09079 12.0659 3.09079 12.2427C3.09079 12.4194 3.161 12.589 3.28598 12.714C5.88931 15.3173 10.1106 15.3173 12.714 12.714C15.3173 10.1107 15.3173 5.88933 12.714 3.286C10.1106 0.682663 5.88931 0.682663 3.28598 3.286C2.19657 4.37204 1.51794 5.80257 1.36598 7.33333H0.666647C0.534813 7.33336 0.405948 7.37247 0.296341 7.44573C0.186734 7.51898 0.101308 7.62309 0.0508614 7.74489C0.000414674 7.86669 -0.0127873 8.00072 0.0129244 8.13002C0.0386361 8.25932 0.102107 8.3781 0.195313 8.47133L1.52865 9.80466L1.52998 9.806C1.59187 9.86789 1.66537 9.91695 1.74627 9.95036C1.82717 9.98377 1.91387 10.0009 2.0014 10.0007C2.08892 10.0005 2.17555 9.98303 2.2563 9.94928C2.33706 9.91552 2.41035 9.86615 2.47198 9.804L3.80531 8.47133C3.89856 8.37806 3.96204 8.25922 3.98773 8.12985C4.01343 8.00049 4.00017 7.86641 3.94964 7.74459C3.89911 7.62276 3.81358 7.51866 3.70387 7.44545C3.59416 7.37225 3.4652 7.33323 3.33331 7.33333H2.70798C2.85871 6.13757 3.41 5.02811 4.27201 4.18579C5.13401 3.34346 6.25591 2.81794 7.45483 2.69486C8.65376 2.57179 9.85902 2.85843 10.8742 3.50806C11.8893 4.1577 12.6545 5.13201 13.045 6.27222C13.4356 7.41242 13.4284 8.65128 13.0246 9.78687C12.6209 10.9225 11.8445 11.8878 10.8218 12.5256C9.79921 13.1634 8.5907 13.4361 7.39328 13.2991C6.19587 13.1621 5.08015 12.6236 4.22798 11.7713C4.10299 11.6466 3.93359 11.5765 3.75698 11.5765C3.58037 11.5765 3.41097 11.6466 3.28598 11.7713ZM6.66665 5.33333C6.66665 5.15652 6.73689 4.98695 6.86191 4.86193C6.98693 4.7369 7.1565 4.66666 7.33331 4.66666C7.51012 4.66666 7.67969 4.7369 7.80472 4.86193C7.92974 4.98695 7.99998 5.15652 7.99998 5.33333V8H10.6666C10.8435 8 11.013 8.07023 11.1381 8.19526C11.2631 8.32028 11.3333 8.48985 11.3333 8.66666C11.3333 8.84347 11.2631 9.01304 11.1381 9.13807C11.013 9.26309 10.8435 9.33333 10.6666 9.33333H7.33331C7.1565 9.33333 6.98693 9.26309 6.86191 9.13807C6.73689 9.01304 6.66665 8.84347 6.66665 8.66666V5.33333Z" fill="#64748B"/>
</svg>
