<svg width="21" height="21" viewBox="0 0 21 21" fill="none" xmlns="http://www.w3.org/2000/svg">
<circle cx="10.5" cy="10.2212" r="9.5" fill="url(#paint0_linear_997_88702)" stroke="#E2E8F0"/>
<g clip-path="url(#clip0_997_88702)">
<path d="M10.5288 5.75858C9.59271 4.82253 8.19096 4.63159 7.06397 5.18112L8.75445 6.8716C8.93608 7.05322 8.93608 7.34661 8.75445 7.52823L8.014 8.26869C7.83237 8.45497 7.53899 8.45497 7.35736 8.26869L5.66688 6.57821C5.12202 7.70985 5.31295 9.10229 6.249 10.0383C6.66118 10.4492 7.18295 10.7327 7.75195 10.8549C8.32095 10.9771 8.91311 10.9329 9.45766 10.7276L13.1646 14.4345C13.2777 14.5485 13.4123 14.639 13.5606 14.7008C13.7088 14.7626 13.8679 14.7944 14.0285 14.7944C14.1891 14.7944 14.3481 14.7626 14.4964 14.7008C14.6447 14.639 14.7792 14.5485 14.8923 14.4345C15.0064 14.3214 15.0969 14.1868 15.1586 14.0386C15.2204 13.8903 15.2522 13.7313 15.2522 13.5707C15.2522 13.41 15.2204 13.251 15.1586 13.1027C15.0969 12.9545 15.0064 12.8199 14.8923 12.7068L11.204 9.0138C11.6325 7.92407 11.4089 6.63875 10.5288 5.75858Z" fill="white"/>
</g>
<defs>
<linearGradient id="paint0_linear_997_88702" x1="-0.602052" y1="10.2211" x2="18.3684" y2="3.86208" gradientUnits="userSpaceOnUse">
<stop stop-color="#427DFF"/>
<stop offset="1" stop-color="#44D5BB"/>
</linearGradient>
<clipPath id="clip0_997_88702">
<rect width="12" height="12" fill="white" transform="translate(4.5 4.00244)"/>
</clipPath>
</defs>
</svg>
