<svg width="18" height="18" viewBox="0 0 18 18" fill="none" xmlns="http://www.w3.org/2000/svg">
<path fill-rule="evenodd" clip-rule="evenodd" d="M6.6998 5.17187C6.6998 3.92842 6.95278 3.2401 7.3479 2.84497C7.74302 2.44985 8.43134 2.19687 9.6748 2.19687H12.8248C14.0683 2.19687 14.7566 2.44985 15.1517 2.84497C15.5468 3.2401 15.7998 3.92842 15.7998 5.17187V8.32187C15.7998 9.56533 15.5468 10.2537 15.1517 10.6488C14.7566 11.0439 14.0683 11.2969 12.8248 11.2969H12.6998V9.67187C12.6998 8.29033 12.4278 7.14115 11.6417 6.35502C10.8555 5.5689 9.70634 5.29687 8.3248 5.29687H6.6998V5.17187ZM5.2998 5.29688V5.17187C5.2998 3.79033 5.57183 2.64115 6.35795 1.85503C7.14408 1.0689 8.29326 0.796875 9.6748 0.796875H12.8248C14.2063 0.796875 15.3555 1.0689 16.1417 1.85503C16.9278 2.64115 17.1998 3.79033 17.1998 5.17187V8.32187C17.1998 9.70341 16.9278 10.8526 16.1417 11.6387C15.3555 12.4249 14.2063 12.6969 12.8248 12.6969H12.6998V12.8219C12.6998 14.2034 12.4278 15.3526 11.6417 16.1387C10.8555 16.9249 9.70634 17.1969 8.3248 17.1969H5.1748C3.79326 17.1969 2.64408 16.9249 1.85795 16.1387C1.07183 15.3526 0.799805 14.2034 0.799805 12.8219V9.67187C0.799805 8.29033 1.07183 7.14115 1.85795 6.35502C2.64408 5.5689 3.79326 5.29688 5.1748 5.29688H5.2998ZM5.9998 6.69687H5.1748C3.93134 6.69687 3.24302 6.94985 2.8479 7.34497C2.45278 7.74009 2.1998 8.42841 2.1998 9.67187V12.8219C2.1998 14.0653 2.45278 14.7537 2.8479 15.1488C3.24302 15.5439 3.93134 15.7969 5.1748 15.7969H8.3248C9.56826 15.7969 10.2566 15.5439 10.6517 15.1488C11.0468 14.7537 11.2998 14.0653 11.2998 12.8219L11.2998 11.9969V9.67187C11.2998 8.42841 11.0468 7.74009 10.6517 7.34497C10.2566 6.94985 9.56826 6.69687 8.3248 6.69687H5.9998Z" fill="#64748B"/>
</svg>
