<svg width="24" height="21" viewBox="0 0 24 21" fill="none" xmlns="http://www.w3.org/2000/svg">
<path d="M3.21506 20.5H20.7851C22.5817 20.5 23.7017 18.5517 22.8034 17L14.0184 1.82171C13.1201 0.270042 10.8801 0.270042 9.98173 1.82171L1.19673 17C0.298393 18.5517 1.41839 20.5 3.21506 20.5ZM12.0001 12.3334C11.3584 12.3334 10.8334 11.8084 10.8334 11.1667V8.83338C10.8334 8.19171 11.3584 7.66671 12.0001 7.66671C12.6417 7.66671 13.1667 8.19171 13.1667 8.83338V11.1667C13.1667 11.8084 12.6417 12.3334 12.0001 12.3334ZM13.1667 17H10.8334V14.6667H13.1667V17Z" fill="#DD2C5A"/>
</svg>
