<svg width="100" height="100" viewBox="0 0 100 100" fill="none" xmlns="http://www.w3.org/2000/svg">
<rect width="100" height="100" fill="#F1F5F9"/>
<path fill-rule="evenodd" clip-rule="evenodd" d="M49.4057 16.9268C49.7741 16.7178 50.2259 16.7178 50.5942 16.9268L78.3863 32.6356C78.7656 32.8497 79 33.2518 79 33.6875V66.3131C79 66.7488 78.7656 67.1509 78.3863 67.365L50.5942 83.0738C50.2259 83.282 49.7741 83.282 49.4057 83.0738L21.6136 67.365C21.2343 67.1509 21 66.7488 21 66.3131V33.6875C21 33.2518 21.2343 32.8497 21.6136 32.6356L49.4057 16.9268ZM23.4154 35.7972L42.5639 47.037L38.4035 55.3833L23.4154 64.1997V35.7972ZM24.6257 66.2908L48.7907 79.9497V65.6621C44.6167 65.3468 40.5447 63.3998 37.0612 59.9161C36.8589 59.7138 36.7401 59.4525 36.7131 59.1803L24.6257 66.2908ZM51.2074 65.662V79.9497L75.3679 66.2934L63.281 59.214C63.2481 59.4736 63.1309 59.7222 62.9371 59.9161C59.4533 63.3998 55.3814 65.3468 51.2076 65.662L51.2074 65.662ZM61.6229 55.4422L76.5823 64.2038V35.7967L57.4135 47.0484L61.6229 55.4422ZM56.328 44.8833L75.3703 33.7058L51.2011 20.0452L51.1573 34.573L56.328 44.8833ZM48.7404 34.6466L48.7842 20.0521L24.6279 33.7058L43.645 44.868L48.7404 34.6466ZM44.6533 48.2626L39.3938 58.807C42.3102 61.4958 45.5527 62.9488 48.7902 63.2371V50.6908L44.6533 48.2626ZM51.2076 50.691V63.2373C54.4451 62.9491 57.6876 61.496 60.604 58.8072L55.325 48.2747L51.2076 50.691ZM49.9989 48.5981L45.7338 46.0947L49.9702 37.5967L54.2393 46.1089L49.9989 48.5981Z" fill="#93C5FD"/>
</svg>
