<svg width="72" height="72" viewBox="0 0 72 72" fill="none" xmlns="http://www.w3.org/2000/svg">
<rect x="1.125" y="1.125" width="69.75" height="69.75" rx="34.875" stroke="#DBEAFE" stroke-width="2.25"/>
<rect x="2.25" y="2.25" width="67.5" height="67.5" fill="#DBEAFE"/>
<path fill-rule="evenodd" clip-rule="evenodd" d="M36 33.75C37.7902 33.75 39.5071 33.0388 40.773 31.773C42.0388 30.5071 42.75 28.7902 42.75 27C42.75 25.2098 42.0388 23.4929 40.773 22.227C39.5071 20.9612 37.7902 20.25 36 20.25C34.2098 20.25 32.4929 20.9612 31.227 22.227C29.9612 23.4929 29.25 25.2098 29.25 27C29.25 28.7902 29.9612 30.5071 31.227 31.773C32.4929 33.0388 34.2098 33.75 36 33.75ZM26.435 54C23.0191 54 20.1417 51.1286 21.4489 47.9727V47.9727C22.2404 46.0619 23.4005 44.3256 24.8631 42.8631C26.3256 41.4005 28.0619 40.2404 29.9727 39.4489C31.8836 38.6574 33.9317 38.25 36 38.25C38.0683 38.25 40.1164 38.6574 42.0273 39.4489C43.9381 40.2404 45.6744 41.4005 47.1369 42.8631C48.5995 44.3256 49.7596 46.0619 50.5511 47.9727V47.9727C51.8583 51.1286 48.9809 54 45.565 54H26.435Z" fill="white"/>
</svg>
