<svg width="24" height="24" viewBox="0 0 24 24" fill="none" xmlns="http://www.w3.org/2000/svg">
<rect width="24" height="24" rx="12" fill="#E2E8F0"/>
<g clip-path="url(#clip0_2157_54061)">
<path d="M17.3333 7.33301C17.5101 7.33301 17.6797 7.40325 17.8047 7.52827C17.9298 7.65329 18 7.82286 18 7.99967C18 8.17649 17.9298 8.34605 17.8047 8.47108C17.6797 8.5961 17.5101 8.66634 17.3333 8.66634H16.6667L16.6647 8.71367L16.0427 17.4277C16.0187 17.7641 15.8682 18.0789 15.6214 18.3087C15.3746 18.5386 15.0499 18.6663 14.7127 18.6663H9.28667C8.94943 18.6663 8.62471 18.5386 8.37792 18.3087C8.13114 18.0789 7.98061 17.7641 7.95667 17.4277L7.33467 8.71434C7.33366 8.69836 7.33321 8.68235 7.33333 8.66634H6.66667C6.48986 8.66634 6.32029 8.5961 6.19526 8.47108C6.07024 8.34605 6 8.17649 6 7.99967C6 7.82286 6.07024 7.65329 6.19526 7.52827C6.32029 7.40325 6.48986 7.33301 6.66667 7.33301H17.3333ZM15.3313 8.66634H8.66867L9.28733 17.333H14.7127L15.3313 8.66634ZM13.3333 5.33301C13.5101 5.33301 13.6797 5.40325 13.8047 5.52827C13.9298 5.65329 14 5.82286 14 5.99967C14 6.17649 13.9298 6.34605 13.8047 6.47108C13.6797 6.5961 13.5101 6.66634 13.3333 6.66634H10.6667C10.4899 6.66634 10.3203 6.5961 10.1953 6.47108C10.0702 6.34605 10 6.17649 10 5.99967C10 5.82286 10.0702 5.65329 10.1953 5.52827C10.3203 5.40325 10.4899 5.33301 10.6667 5.33301H13.3333Z" fill="#94A3B8"/>
</g>
<defs>
<clipPath id="clip0_2157_54061">
<rect width="16" height="16" fill="white" transform="translate(4 4)"/>
</clipPath>
</defs>
</svg>
