<svg width="12" height="12" viewBox="0 0 12 12" fill="none" xmlns="http://www.w3.org/2000/svg">
<path d="M3.08366 1.33366C3.08366 1.02424 3.20658 0.727493 3.42537 0.508701C3.64416 0.289908 3.94091 0.166992 4.25033 0.166992H7.75033C8.05975 0.166992 8.35649 0.289908 8.57528 0.508701C8.79408 0.727493 8.91699 1.02424 8.91699 1.33366V2.50033H11.2503C11.405 2.50033 11.5534 2.56178 11.6628 2.67118C11.7722 2.78058 11.8337 2.92895 11.8337 3.08366C11.8337 3.23837 11.7722 3.38674 11.6628 3.49614C11.5534 3.60553 11.405 3.66699 11.2503 3.66699H10.6267L10.121 10.7498C10.1 11.0442 9.96833 11.3196 9.75239 11.5207C9.53645 11.7219 9.25233 11.8337 8.95724 11.8337H3.04283C2.74774 11.8337 2.46361 11.7219 2.24768 11.5207C2.03174 11.3196 1.90003 11.0442 1.87908 10.7498L1.37449 3.66699H0.750326C0.595616 3.66699 0.447243 3.60553 0.337847 3.49614C0.22845 3.38674 0.166992 3.23837 0.166992 3.08366C0.166992 2.92895 0.22845 2.78058 0.337847 2.67118C0.447243 2.56178 0.595616 2.50033 0.750326 2.50033H3.08366V1.33366ZM4.25033 2.50033H7.75033V1.33366H4.25033V2.50033ZM2.54349 3.66699L3.04341 10.667H8.95783L9.45774 3.66699H2.54349Z" fill="#DD2C5A"/>
</svg>
