<svg xmlns="http://www.w3.org/2000/svg" width="17" height="16" viewBox="0 0 17 16" fill="none">
  <path d="M4 3.29412L4.7005 13.2896C4.71395 13.4823 4.79847 13.6627 4.93705 13.7945C5.07562 13.9263 5.258 13.9997 5.4475 14H11.551C11.7406 13.9999 11.9232 13.9266 12.0619 13.7948C12.2007 13.663 12.2853 13.4825 12.2988 13.2896L13 3.29412M8.5 7.11765V10.1765M14.5 3.29412H2.5M5.875 3.29412L6.283 2.04612C6.38248 1.74157 6.57342 1.47666 6.82877 1.28891C7.08412 1.10116 7.39093 1.00008 7.70575 1H9.2935C9.60845 0.999923 9.91543 1.10092 10.1709 1.28869C10.4264 1.47645 10.6175 1.74145 10.717 2.04612L11.125 3.29412" stroke="#F66A4B" stroke-width="1.5" stroke-linecap="round" stroke-linejoin="round"/>
</svg>