<svg width="40" height="40" viewBox="0 0 40 40" fill="none" xmlns="http://www.w3.org/2000/svg">
<mask id="mask0_1446_26804" style="mask-type:alpha" maskUnits="userSpaceOnUse" x="0" y="0" width="40" height="40">
<rect width="40" height="40" fill="#D9D9D9"/>
</mask>
<g mask="url(#mask0_1446_26804)">
<rect width="40" height="40" fill="#F1F5F9"/>
</g>
<path d="M12.8125 20C12.5639 20 12.3254 20.0988 12.1496 20.2746C11.9738 20.4504 11.875 20.6889 11.875 20.9375C11.875 21.1861 11.9738 21.4246 12.1496 21.6004C12.3254 21.7762 12.5639 21.875 12.8125 21.875H13.4375C13.6861 21.875 13.9246 21.7762 14.1004 21.6004C14.2762 21.4246 14.375 21.1861 14.375 20.9375C14.375 20.6889 14.2762 20.4504 14.1004 20.2746C13.9246 20.0988 13.6861 20 13.4375 20H12.8125ZM11.875 16.5625C11.875 16.3139 11.9738 16.0754 12.1496 15.8996C12.3254 15.7238 12.5639 15.625 12.8125 15.625H13.4375C13.6861 15.625 13.9246 15.7238 14.1004 15.8996C14.2762 16.0754 14.375 16.3139 14.375 16.5625C14.375 16.8111 14.2762 17.0496 14.1004 17.2254C13.9246 17.4012 13.6861 17.5 13.4375 17.5H12.8125C12.5639 17.5 12.3254 17.4012 12.1496 17.2254C11.9738 17.0496 11.875 16.8111 11.875 16.5625ZM12.8125 11.25C12.5639 11.25 12.3254 11.3488 12.1496 11.5246C11.9738 11.7004 11.875 11.9389 11.875 12.1875C11.875 12.4361 11.9738 12.6746 12.1496 12.8504C12.3254 13.0262 12.5639 13.125 12.8125 13.125H13.4375C13.6861 13.125 13.9246 13.0262 14.1004 12.8504C14.2762 12.6746 14.375 12.4361 14.375 12.1875C14.375 11.9389 14.2762 11.7004 14.1004 11.5246C13.9246 11.3488 13.6861 11.25 13.4375 11.25H12.8125ZM16.25 20.9375C16.25 20.6889 16.3488 20.4504 16.5246 20.2746C16.7004 20.0988 16.9389 20 17.1875 20H17.8125C18.0611 20 18.2996 20.0988 18.4754 20.2746C18.6512 20.4504 18.75 20.6889 18.75 20.9375C18.75 21.1861 18.6512 21.4246 18.4754 21.6004C18.2996 21.7762 18.0611 21.875 17.8125 21.875H17.1875C16.9389 21.875 16.7004 21.7762 16.5246 21.6004C16.3488 21.4246 16.25 21.1861 16.25 20.9375ZM17.1875 15.625C16.9389 15.625 16.7004 15.7238 16.5246 15.8996C16.3488 16.0754 16.25 16.3139 16.25 16.5625C16.25 16.8111 16.3488 17.0496 16.5246 17.2254C16.7004 17.4012 16.9389 17.5 17.1875 17.5H17.8125C18.0611 17.5 18.2996 17.4012 18.4754 17.2254C18.6512 17.0496 18.75 16.8111 18.75 16.5625C18.75 16.3139 18.6512 16.0754 18.4754 15.8996C18.2996 15.7238 18.0611 15.625 17.8125 15.625H17.1875ZM16.25 12.1875C16.25 11.9389 16.3488 11.7004 16.5246 11.5246C16.7004 11.3488 16.9389 11.25 17.1875 11.25H17.8125C18.0611 11.25 18.2996 11.3488 18.4754 11.5246C18.6512 11.7004 18.75 11.9389 18.75 12.1875C18.75 12.4361 18.6512 12.6746 18.4754 12.8504C18.2996 13.0262 18.0611 13.125 17.8125 13.125H17.1875C16.9389 13.125 16.7004 13.0262 16.5246 12.8504C16.3488 12.6746 16.25 12.4361 16.25 12.1875ZM21.5625 20C21.3139 20 21.0754 20.0988 20.8996 20.2746C20.7238 20.4504 20.625 20.6889 20.625 20.9375C20.625 21.1861 20.7238 21.4246 20.8996 21.6004C21.0754 21.7762 21.3139 21.875 21.5625 21.875H22.1875C22.4361 21.875 22.6746 21.7762 22.8504 21.6004C23.0262 21.4246 23.125 21.1861 23.125 20.9375C23.125 20.6889 23.0262 20.4504 22.8504 20.2746C22.6746 20.0988 22.4361 20 22.1875 20H21.5625ZM20.625 16.5625C20.625 16.3139 20.7238 16.0754 20.8996 15.8996C21.0754 15.7238 21.3139 15.625 21.5625 15.625H22.1875C22.4361 15.625 22.6746 15.7238 22.8504 15.8996C23.0262 16.0754 23.125 16.3139 23.125 16.5625C23.125 16.8111 23.0262 17.0496 22.8504 17.2254C22.6746 17.4012 22.4361 17.5 22.1875 17.5H21.5625C21.3139 17.5 21.0754 17.4012 20.8996 17.2254C20.7238 17.0496 20.625 16.8111 20.625 16.5625ZM21.5625 11.25C21.3139 11.25 21.0754 11.3488 20.8996 11.5246C20.7238 11.7004 20.625 11.9389 20.625 12.1875C20.625 12.4361 20.7238 12.6746 20.8996 12.8504C21.0754 13.0262 21.3139 13.125 21.5625 13.125H22.1875C22.4361 13.125 22.6746 13.0262 22.8504 12.8504C23.0262 12.6746 23.125 12.4361 23.125 12.1875C23.125 11.9389 23.0262 11.7004 22.8504 11.5246C22.6746 11.3488 22.4361 11.25 22.1875 11.25H21.5625Z" fill="#93C5FD"/>
<path d="M7.5 30V8.75C7.5 8.08696 7.76339 7.45107 8.23223 6.98223C8.70107 6.51339 9.33696 6.25 10 6.25H25C25.663 6.25 26.2989 6.51339 26.7678 6.98223C27.2366 7.45107 27.5 8.08696 27.5 8.75V30C27.5 30.2162 27.4725 30.425 27.4212 30.625H30C30.1658 30.625 30.3247 30.5592 30.4419 30.4419C30.5592 30.3247 30.625 30.1658 30.625 30V20C30.625 19.903 30.6024 19.8073 30.559 19.7205C30.5156 19.6337 30.4526 19.5582 30.375 19.5L29.75 19.0312C29.5511 18.8821 29.4196 18.66 29.3844 18.4138C29.3493 18.1677 29.4133 17.9177 29.5625 17.7188C29.7117 17.5198 29.9338 17.3883 30.1799 17.3532C30.4261 17.318 30.6761 17.3821 30.875 17.5312L31.5 18C32.13 18.4725 32.5 19.2125 32.5 20V30C32.5 30.663 32.2366 31.2989 31.7678 31.7678C31.2989 32.2366 30.663 32.5 30 32.5H25.5475C25.4777 32.5001 25.4081 32.4925 25.34 32.4775C25.2287 32.4925 25.115 32.5 25 32.5H20.3125C20.0639 32.5 19.8254 32.4012 19.6496 32.2254C19.4738 32.0496 19.375 31.8111 19.375 31.5625V28.75H15.625V31.5625C15.625 31.8111 15.5262 32.0496 15.3504 32.2254C15.1746 32.4012 14.9361 32.5 14.6875 32.5H10C9.33696 32.5 8.70107 32.2366 8.23223 31.7678C7.76339 31.2989 7.5 30.663 7.5 30ZM10 30.625H13.75V27.8125C13.75 27.5639 13.8488 27.3254 14.0246 27.1496C14.2004 26.9738 14.4389 26.875 14.6875 26.875H20.3125C20.5611 26.875 20.7996 26.9738 20.9754 27.1496C21.1512 27.3254 21.25 27.5639 21.25 27.8125V30.625H25C25.1658 30.625 25.3247 30.5592 25.4419 30.4419C25.5592 30.3247 25.625 30.1658 25.625 30V8.75C25.625 8.58424 25.5592 8.42527 25.4419 8.30806C25.3247 8.19085 25.1658 8.125 25 8.125H10C9.83424 8.125 9.67527 8.19085 9.55806 8.30806C9.44085 8.42527 9.375 8.58424 9.375 8.75V30C9.375 30.1658 9.44085 30.3247 9.55806 30.4419C9.67527 30.5592 9.83424 30.625 10 30.625Z" fill="#93C5FD"/>
</svg>
