<svg width="16" height="16" viewBox="0 0 16 16" fill="none" xmlns="http://www.w3.org/2000/svg">
<path d="M3.5 3.29412L4.2005 13.2896C4.21395 13.4823 4.29847 13.6627 4.43705 13.7945C4.57562 13.9263 4.758 13.9997 4.9475 14H11.051C11.2406 13.9999 11.4232 13.9266 11.5619 13.7948C11.7007 13.663 11.7853 13.4825 11.7988 13.2896L12.5 3.29412M8 7.11765V10.1765M14 3.29412H2M5.375 3.29412L5.783 2.04612C5.88248 1.74157 6.07342 1.47666 6.32877 1.28891C6.58412 1.10116 6.89093 1.00008 7.20575 1H8.7935C9.10845 0.999923 9.41543 1.10092 9.67093 1.28869C9.92642 1.47645 10.1175 1.74145 10.217 2.04612L10.625 3.29412" stroke="#F66A4B" stroke-width="1.5" stroke-linecap="round" stroke-linejoin="round"/>
</svg>
