<svg width="81" height="72" viewBox="0 0 81 72" fill="none" xmlns="http://www.w3.org/2000/svg">
<path d="M80.6843 -62.3157L73.9924 -55.6237M73.9924 -55.6237L76.223 -53.3931L73.9924 -51.1624M73.9924 -55.6237L71.7617 -57.8544L69.5311 -55.6237M73.9924 -51.1624L80.6843 -44.4705L87.3763 -37.7786M73.9924 -51.1624L71.7617 -48.9318L69.5311 -51.1624M69.5311 -51.1624L62.8391 -44.4705L56.1472 -37.7786M69.5311 -51.1624L67.3004 -53.3931L69.5311 -55.6237M69.5311 -55.6237L62.8391 -62.3157M56.1472 -37.7786L58.3778 -35.5479L56.1472 -33.3173M56.1472 -37.7786L53.9165 -40.0092L51.6859 -37.7786M56.1472 -33.3173L62.8391 -26.6253L69.5311 -19.9334M56.1472 -33.3173L53.9165 -31.0866L51.6859 -33.3173M51.6859 -33.3173L44.9939 -26.6253L38.302 -19.9334M51.6859 -33.3173L49.4552 -35.5479L51.6859 -37.7786M51.6859 -37.7786L44.9939 -44.4705M38.302 -19.9334L40.5326 -17.7027L38.302 -15.4721M38.302 -19.9334L36.0714 -22.164L33.8407 -19.9334M38.302 -15.4721L44.9939 -8.78013L51.6859 -2.08819M38.302 -15.4721L36.0713 -13.2414L33.8407 -15.4721M33.8407 -15.4721L27.1488 -8.78013L20.4568 -2.08819M33.8407 -15.4721L31.6101 -17.7027L33.8407 -19.9334M33.8407 -19.9334L27.1488 -26.6253M20.4568 -2.08819L22.6875 0.142461L20.4568 2.37311M20.4568 -2.08819L18.2262 -4.31884L15.9955 -2.08819M20.4568 2.37311L27.1488 9.06505L33.8407 15.757M20.4568 2.37311L18.2262 4.60375L15.9955 2.37311M9.30358 9.06505L15.9955 2.37311M15.9955 2.37311L13.7649 0.142458L15.9955 -2.08819M15.9955 -2.08819L9.30357 -8.78014M98.5295 -44.4705L91.8376 -37.7786M91.8376 -37.7786L94.0682 -35.5479L91.8376 -33.3173M91.8376 -37.7786L89.6069 -40.0092L87.3763 -37.7786M91.8376 -33.3173L98.5295 -26.6253L105.221 -19.9334M91.8376 -33.3173L89.6069 -31.0866L87.3763 -33.3173M87.3763 -33.3173L80.6843 -26.6253L73.9924 -19.9334M87.3763 -33.3173L85.1456 -35.5479L87.3763 -37.7786M73.9924 -19.9334L76.223 -17.7027L73.9924 -15.4721M73.9924 -19.9334L71.7617 -22.164L69.5311 -19.9334M73.9924 -15.4721L80.6843 -8.78013L87.3763 -2.08819M73.9924 -15.4721L71.7617 -13.2414L69.5311 -15.4721M69.5311 -15.4721L62.8391 -8.78013L56.1472 -2.08819M69.5311 -15.4721L67.3004 -17.7027L69.5311 -19.9334M56.1472 -2.08819L58.3778 0.14246L56.1472 2.37311M56.1472 -2.08819L53.9165 -4.31884L51.6859 -2.08819M56.1472 2.37311L62.8391 9.06505L69.5311 15.757M56.1472 2.37311L53.9165 4.60376L51.6859 2.37311M51.6859 2.37311L44.9939 9.06505L38.302 15.757M51.6859 2.37311L49.4552 0.142458L51.6859 -2.08819M38.302 15.757L40.5326 17.9876L38.302 20.2183M38.302 15.757L36.0713 13.5263L33.8407 15.757M38.302 20.2183L44.9939 26.9102L51.6859 33.6022M38.302 20.2183L36.0714 22.4489L33.8407 20.2183M27.1488 26.9102L33.8407 20.2183M33.8407 20.2183L31.6101 17.9876L33.8407 15.757M116.375 -26.6253L109.683 -19.9334M109.683 -19.9334L111.913 -17.7027L109.683 -15.4721M109.683 -19.9334L107.452 -22.164L105.221 -19.9334M109.683 -15.4721L116.375 -8.78013L123.067 -2.08818M109.683 -15.4721L107.452 -13.2414L105.221 -15.4721M105.221 -15.4721L98.5295 -8.78013L91.8376 -2.08819M105.221 -15.4721L102.991 -17.7027L105.221 -19.9334M91.8376 -2.08819L94.0682 0.14246L91.8376 2.37311M91.8376 -2.08819L89.6069 -4.31884L87.3763 -2.08819M91.8376 2.37311L98.5295 9.06506L105.221 15.757M91.8376 2.37311L89.6069 4.60376L87.3763 2.37311M87.3763 2.37311L80.6843 9.06505L73.9924 15.757M87.3763 2.37311L85.1456 0.142462L87.3763 -2.08819M73.9924 15.757L76.223 17.9876L73.9924 20.2183M73.9924 15.757L71.7617 13.5263L69.5311 15.757M73.9924 20.2183L80.6843 26.9102L87.3763 33.6022M73.9924 20.2183L71.7617 22.4489L69.5311 20.2183M69.5311 20.2183L62.8391 26.9102L56.1472 33.6022M69.5311 20.2183L67.3004 17.9876L69.5311 15.757M56.1472 33.6022L58.3778 35.8328L56.1472 38.0635M56.1472 33.6022L53.9165 31.3715L51.6859 33.6022M56.1472 38.0635L62.8391 44.7554L69.5311 51.4474M56.1472 38.0635L53.9165 40.2941L51.6859 38.0635M44.9939 44.7554L51.6859 38.0635M51.6859 38.0635L49.4552 35.8328L51.6859 33.6022M134.22 -8.78013L127.528 -2.08818M127.528 -2.08818L129.759 0.142465L127.528 2.37311M127.528 -2.08818L125.297 -4.31883L123.067 -2.08818M127.528 2.37311L134.22 9.06505M127.528 2.37311L125.297 4.60376L123.067 2.37311M123.067 2.37311L116.375 9.06506L109.683 15.757M123.067 2.37311L120.836 0.142464L123.067 -2.08818M109.683 15.757L111.913 17.9876L109.683 20.2183M109.683 15.757L107.452 13.5264L105.221 15.757M109.683 20.2183L116.375 26.9102M109.683 20.2183L107.452 22.4489L105.221 20.2183M105.221 20.2183L98.5295 26.9102L91.8376 33.6022M105.221 20.2183L102.991 17.9877L105.221 15.757M91.8376 33.6022L94.0682 35.8328L91.8376 38.0635M91.8376 33.6022L89.6069 31.3715L87.3763 33.6022M91.8376 38.0635L91.9737 38.1996M91.8376 38.0635L89.6069 40.2941L87.3763 38.0635M87.3763 38.0635L80.6843 44.7554L73.9924 51.4474M87.3763 38.0635L85.1456 35.8328L87.3763 33.6022M73.9924 51.4474L76.223 53.678L73.9924 55.9087M73.9924 51.4474L71.7617 49.2167L69.5311 51.4474M73.9924 55.9087L74.1285 56.0448M73.9924 55.9087L71.7617 58.1393L69.5311 55.9087M62.8391 62.6006L69.5311 55.9087M69.5311 55.9087L67.3004 53.678L69.5311 51.4474" stroke="#94A3B8" stroke-width="0.5" stroke-linecap="round" stroke-linejoin="round"/>
<rect x="67.6758" y="17.9922" width="5.77756" height="5.77756" transform="rotate(-45 67.6758 17.9922)" fill="#156FF7"/>
<rect x="31.9766" y="17.9844" width="5.77756" height="5.77756" transform="rotate(-45 31.9766 17.9844)" fill="#77FF85"/>
</svg>
