<svg width="101" height="58" viewBox="0 0 101 58" fill="none" xmlns="http://www.w3.org/2000/svg">
<circle cx="2.12261" cy="2.12261" r="2.12261" transform="matrix(-0.500001 -0.866025 0.866026 -0.499999 40.6953 5.60156)" fill="#CBD5E1"/>
<circle cx="2.12261" cy="2.12261" r="2.12261" transform="matrix(-0.642788 -0.766044 0.766045 -0.642787 44.9961 11.1875)" fill="#93C5FD"/>
<circle cx="2.12261" cy="2.12261" r="2.12261" transform="matrix(-0.766045 -0.642787 0.642788 -0.766044 50.2148 15.9492)" fill="#CBD5E1"/>
<circle cx="2.12261" cy="2.12261" r="2.12261" transform="matrix(-0.866026 -0.499999 0.500001 -0.866025 56.1914 19.7422)" fill="#30C593"/>
<circle cx="2.12261" cy="2.12261" r="2.12261" transform="matrix(-0.939693 -0.34202 0.342021 -0.939692 62.75 22.457)" fill="#156FF7"/>
<ellipse cx="67.9618" cy="21.5723" rx="2.12261" ry="2.12261" transform="rotate(-170 67.9618 21.5723)" fill="#CBD5E1"/>
<circle cx="74.6586" cy="22.2133" r="2.12261" transform="rotate(180 74.6586 22.2133)" fill="#CBD5E1"/>
<ellipse cx="81.2832" cy="21.6376" rx="2.12261" ry="2.12261" transform="rotate(170 81.2832 21.6376)" fill="#93C5FD"/>
<circle cx="2.12261" cy="2.12261" r="2.12261" transform="matrix(-0.939693 0.34202 -0.342021 -0.939692 90.4453 21.1875)" fill="#CBD5E1"/>
<circle cx="2.12261" cy="2.12261" r="2.12261" transform="matrix(-0.866026 0.499999 -0.500001 -0.866025 96.6797 17.8906)" fill="#CBD5E1"/>
<circle cx="2.12261" cy="2.12261" r="2.12261" transform="matrix(-0.766045 0.642787 -0.642788 -0.766044 102.266 13.5664)" fill="#156FF7"/>
<circle cx="1.91035" cy="1.91035" r="1.91035" transform="matrix(-0.422619 -0.906308 0.906308 -0.422618 33.8722 4.49219)" fill="#30C593"/>
<circle cx="1.91035" cy="1.91035" r="1.91035" transform="matrix(-0.573577 -0.819152 0.819152 -0.573576 38.1381 11.2383)" fill="#CBD5E1"/>
<ellipse cx="1.91035" cy="1.91035" rx="1.91035" ry="1.91035" transform="matrix(-0.707107 -0.707106 0.707107 -0.707106 43.5273 17.1484)" fill="#CBD5E1"/>
<circle cx="1.91035" cy="1.91035" r="1.91035" transform="matrix(-0.819153 -0.573576 0.573577 -0.819152 49.8776 22.043)" fill="#156FF7"/>
<circle cx="1.91035" cy="1.91035" r="1.91035" transform="matrix(-0.906308 -0.422618 0.422619 -0.906307 56.9989 25.7773)" fill="#CBD5E1"/>
<ellipse cx="63.3194" cy="25.8908" rx="1.91035" ry="1.91035" transform="rotate(-165 63.3194 25.8908)" fill="#CBD5E1"/>
<ellipse cx="70.9181" cy="27.2624" rx="1.91035" ry="1.91035" transform="rotate(-175 70.9181 27.2624)" fill="#CBD5E1"/>
<ellipse cx="78.6536" cy="27.3064" rx="1.91035" ry="1.91035" transform="rotate(175 78.6536 27.3064)" fill="#CBD5E1"/>
<ellipse cx="86.166" cy="25.9304" rx="1.91035" ry="1.91035" transform="rotate(165 86.166 25.9304)" fill="#CBD5E1"/>
<circle cx="1.91035" cy="1.91035" r="1.91035" transform="matrix(-0.906308 0.422618 -0.422619 -0.906308 95.8781 24.1914)" fill="#30C593"/>
<circle cx="1.91035" cy="1.91035" r="1.91035" transform="matrix(-0.819152 0.573576 -0.573577 -0.819152 102.626 19.8789)" fill="#CBD5E1"/>
<circle cx="1.69809" cy="1.69809" r="1.69809" transform="matrix(-0.342021 -0.939692 0.939693 -0.34202 27.0662 3.10938)" fill="#CBD5E1"/>
<circle cx="1.69809" cy="1.69809" r="1.69809" transform="matrix(-0.500001 -0.866025 0.866026 -0.499999 31.132 11.0625)" fill="#CBD5E1"/>
<circle cx="1.69809" cy="1.69809" r="1.69809" transform="matrix(-0.642788 -0.766044 0.766045 -0.642787 36.5445 18.1992)" fill="#CBD5E1"/>
<circle cx="1.69809" cy="1.69809" r="1.69809" transform="matrix(-0.766045 -0.642787 0.642788 -0.766044 43.1274 24.3008)" fill="#CBD5E1"/>
<circle cx="1.69809" cy="1.69809" r="1.69809" transform="matrix(-0.866026 -0.499999 0.500001 -0.866025 50.6805 29.1797)" fill="#CBD5E1"/>
<circle cx="1.69809" cy="1.69809" r="1.69809" transform="matrix(-0.939693 -0.34202 0.342021 -0.939692 58.9807 32.6914)" fill="#156FF7"/>
<ellipse cx="66.3954" cy="32.7594" rx="1.69809" ry="1.69809" transform="rotate(-170 66.3954 32.7594)" fill="#CBD5E1"/>
<circle cx="75.0962" cy="33.5246" r="1.69809" transform="rotate(180 75.0962 33.5246)" fill="#CBD5E1"/>
<ellipse cx="83.6738" cy="32.6695" rx="1.69809" ry="1.69809" transform="rotate(170 83.6738 32.6695)" fill="#CBD5E1"/>
<circle cx="1.69809" cy="1.69809" r="1.69809" transform="matrix(-0.939693 0.34202 -0.342021 -0.939692 94.1746 31.3555)" fill="#156FF7"/>
<circle cx="1.69809" cy="1.69809" r="1.69809" transform="matrix(-0.866026 0.499999 -0.500001 -0.866025 102.131 27.2266)" fill="#CBD5E1"/>
<ellipse cx="19.9031" cy="-1.44086" rx="1.48583" ry="1.48583" transform="rotate(-105 19.9031 -1.44086)" fill="#CBD5E1"/>
<circle cx="1.48583" cy="1.48583" r="1.48583" transform="matrix(-0.422619 -0.906308 0.906308 -0.422618 22.5227 9.54297)" fill="#CBD5E1"/>
<circle cx="1.48583" cy="1.48583" r="1.48583" transform="matrix(-0.573577 -0.819152 0.819152 -0.573576 27.7539 17.9336)" fill="#CBD5E1"/>
<circle cx="1.48583" cy="1.48583" r="1.48583" transform="matrix(-0.707107 -0.707106 0.707107 -0.707106 34.3788 25.293)" fill="#CBD5E1"/>
<ellipse cx="1.48583" cy="1.48583" rx="1.48583" ry="1.48583" transform="matrix(-0.819153 -0.573576 0.573577 -0.819152 42.2069 31.4102)" fill="#CBD5E1"/>
<circle cx="1.48583" cy="1.48583" r="1.48583" transform="matrix(-0.906308 -0.422618 0.422619 -0.906307 50.9888 36.082)" fill="#CBD5E1"/>
<ellipse cx="59.417" cy="37.356" rx="1.48583" ry="1.48583" transform="rotate(-165 59.417 37.356)" fill="#CBD5E1"/>
<ellipse cx="69.0039" cy="38.988" rx="1.48583" ry="1.48583" transform="rotate(-175 69.0039 38.988)" fill="#CBD5E1"/>
<circle cx="78.7355" cy="38.9579" r="1.48583" transform="rotate(175 78.7355 38.9579)" fill="#CBD5E1"/>
<ellipse cx="88.1697" cy="37.1369" rx="1.48583" ry="1.48583" transform="rotate(165 88.1697 37.1369)" fill="#CBD5E1"/>
<circle cx="1.48583" cy="1.48583" r="1.48583" transform="matrix(-0.906308 0.422618 -0.422619 -0.906308 99.1458 34.4219)" fill="#CBD5E1"/>
<circle cx="1.27357" cy="1.27357" r="1.27357" transform="matrix(-0.342021 -0.939692 0.939693 -0.34202 16.699 6.85156)" fill="#CBD5E1"/>
<circle cx="1.27357" cy="1.27357" r="1.27357" transform="matrix(-0.500001 -0.866025 0.866026 -0.499999 21.5842 16.5273)" fill="#CBD5E1"/>
<circle cx="1.27357" cy="1.27357" r="1.27357" transform="matrix(-0.642788 -0.766044 0.766045 -0.642787 28.0969 25.2148)" fill="#CBD5E1"/>
<circle cx="1.27357" cy="1.27357" r="1.27357" transform="matrix(-0.766045 -0.642787 0.642788 -0.766044 36.0438 32.6562)" fill="#CBD5E1"/>
<circle cx="1.27357" cy="1.27357" r="1.27357" transform="matrix(-0.866026 -0.499999 0.500001 -0.866025 45.1775 38.6211)" fill="#CBD5E1"/>
<circle cx="1.27357" cy="1.27357" r="1.27357" transform="matrix(-0.939693 -0.34202 0.342021 -0.939692 55.2269 42.9258)" fill="#CBD5E1"/>
<ellipse cx="64.8407" cy="43.9738" rx="1.27357" ry="1.27357" transform="rotate(-170 64.8407 43.9738)" fill="#CBD5E1"/>
<circle cx="75.5375" cy="44.8397" r="1.27357" transform="rotate(180 75.5375 44.8397)" fill="#CBD5E1"/>
<ellipse cx="86.0723" cy="43.7091" rx="1.27357" ry="1.27357" transform="rotate(170 86.0723 43.7091)" fill="#CBD5E1"/>
<circle cx="1.27357" cy="1.27357" r="1.27357" transform="matrix(-0.939693 0.34202 -0.342021 -0.939692 97.9156 41.5273)" fill="#CBD5E1"/>
<ellipse cx="10.3368" cy="1.51267" rx="1.06131" ry="1.06131" transform="rotate(-105 10.3368 1.51267)" fill="#CBD5E1"/>
<circle cx="1.06131" cy="1.06131" r="1.06131" transform="matrix(-0.422619 -0.906308 0.906308 -0.422618 13.9157 13.7578)" fill="#CBD5E1"/>
<circle cx="1.06131" cy="1.06131" r="1.06131" transform="matrix(-0.573577 -0.819152 0.819152 -0.573576 20.1083 23.793)" fill="#CBD5E1"/>
<ellipse cx="1.06131" cy="1.06131" rx="1.06131" ry="1.06131" transform="matrix(-0.707107 -0.707106 0.707107 -0.707106 27.9727 32.6016)" fill="#CBD5E1"/>
<circle cx="1.06131" cy="1.06131" r="1.06131" transform="matrix(-0.819153 -0.573576 0.573577 -0.819152 37.2745 39.9297)" fill="#CBD5E1"/>
<circle cx="1.06131" cy="1.06131" r="1.06131" transform="matrix(-0.906308 -0.422618 0.422619 -0.906307 47.7249 45.5469)" fill="#CBD5E1"/>
<ellipse cx="58.2608" cy="47.9853" rx="1.06131" ry="1.06131" transform="rotate(-165 58.2608 47.9853)" fill="#CBD5E1"/>
<ellipse cx="69.8673" cy="49.8815" rx="1.06131" ry="1.06131" transform="rotate(-175 69.8673 49.8815)" fill="#CBD5E1"/>
<circle cx="81.595" cy="49.7657" r="1.06131" transform="rotate(175 81.595 49.7657)" fill="#CBD5E1"/>
<ellipse cx="92.959" cy="47.4995" rx="1.06131" ry="1.06131" transform="rotate(165 92.959 47.4995)" fill="#CBD5E1"/>
</svg>
