<svg width="28" height="28" viewBox="0 0 28 28" fill="none" xmlns="http://www.w3.org/2000/svg">
<path d="M8.75031 6.53594L5.83364 8.16927L7.46698 5.2526L5.83364 2.33594L8.75031 3.96927L11.667 2.33594L10.0336 5.2526L11.667 8.16927L8.75031 6.53594ZM22.7503 17.9693L25.667 16.3359L24.0336 19.2526L25.667 22.1693L22.7503 20.5359L19.8336 22.1693L21.467 19.2526L19.8336 16.3359L22.7503 17.9693ZM25.667 2.33594L24.0336 5.2526L25.667 8.16927L22.7503 6.53594L19.8336 8.16927L21.467 5.2526L19.8336 2.33594L22.7503 3.96927L25.667 2.33594ZM15.5636 14.9126L18.4103 12.0659L15.937 9.5926L13.0903 12.4393L15.5636 14.9126ZM16.7653 8.5076L19.4953 11.2376C19.9503 11.6693 19.9503 12.4276 19.4953 12.8826L5.88031 26.4976C5.42531 26.9526 4.66698 26.9526 4.23531 26.4976L1.50531 23.7676C1.05031 23.3359 1.05031 22.5776 1.50531 22.1226L15.1203 8.5076C15.5753 8.0526 16.3336 8.0526 16.7653 8.5076Z" fill="black"/>
</svg>
