<svg width="18" height="18" viewBox="0 0 18 18" fill="none" xmlns="http://www.w3.org/2000/svg">
<path d="M9 2.25H3.75C3.35218 2.25 2.97064 2.40804 2.68934 2.68934C2.40804 2.97064 2.25 3.35218 2.25 3.75V14.25C2.25 14.6478 2.40804 15.0294 2.68934 15.3107C2.97064 15.592 3.35218 15.75 3.75 15.75H14.25C14.6478 15.75 15.0294 15.592 15.3107 15.3107C15.592 15.0294 15.75 14.6478 15.75 14.25V9" stroke="#64748B" stroke-width="1.4" stroke-linecap="round" stroke-linejoin="round"/>
<path d="M13.7812 1.9699C14.0796 1.67153 14.4843 1.50391 14.9062 1.50391C15.3282 1.50391 15.7329 1.67153 16.0312 1.9699C16.3296 2.26826 16.4972 2.67294 16.4972 3.0949C16.4972 3.51685 16.3296 3.92153 16.0312 4.2199L9 11.2511L6 12.0011L6.75 9.00115L13.7812 1.9699Z" stroke="#64748B" stroke-width="1.4" stroke-linecap="round" stroke-linejoin="round"/>
</svg>
