<svg width="16" height="17" viewBox="0 0 16 17" fill="none" xmlns="http://www.w3.org/2000/svg">
<path d="M5.5 6V4.75C5.5 4.41848 5.6317 4.10054 5.86612 3.86612C6.10054 3.6317 6.41848 3.5 6.75 3.5H13.25C13.5815 3.5 13.8995 3.6317 14.1339 3.86612C14.3683 4.10054 14.5 4.41848 14.5 4.75V12.25C14.5 12.5815 14.3683 12.8995 14.1339 13.1339C13.8995 13.3683 13.5815 13.5 13.25 13.5H6.75C6.41848 13.5 6.10054 13.3683 5.86612 13.1339C5.6317 12.8995 5.5 12.5815 5.5 12.25V11" stroke="#108F64" stroke-width="1.4" stroke-linecap="round" stroke-linejoin="round"/>
<path d="M8.5 11L11 8.5L8.5 6M1.5 8.5H10.5" stroke="#108F64" stroke-width="1.4" stroke-linecap="round" stroke-linejoin="round"/>
</svg>
