<svg width="14" height="14" viewBox="0 0 14 14" fill="none" xmlns="http://www.w3.org/2000/svg">
<path d="M8.75 7C8.75 7.46413 8.56563 7.90925 8.23744 8.23744C7.90925 8.56563 7.46413 8.75 7 8.75C6.53587 8.75 6.09075 8.56563 5.76256 8.23744C5.43437 7.90925 5.25 7.46413 5.25 7C5.25 6.53587 5.43437 6.09075 5.76256 5.76256C6.09075 5.43437 6.53587 5.25 7 5.25C7.46413 5.25 7.90925 5.43437 8.23744 5.76256C8.56563 6.09075 8.75 6.53587 8.75 7Z" stroke="#64748B" stroke-width="1.3" stroke-linecap="round" stroke-linejoin="round"/>
<path d="M1.16797 6.9974C2.1013 4.60748 4.28064 2.91406 7.0013 2.91406C9.72197 2.91406 11.9013 4.60748 12.8346 6.9974C11.9013 9.38731 9.72197 11.0807 7.0013 11.0807C4.28064 11.0807 2.1013 9.38731 1.16797 6.9974Z" stroke="#64748B" stroke-width="1.3" stroke-linecap="round" stroke-linejoin="round"/>
</svg>
