<svg width="28" height="28" viewBox="0 0 28 28" fill="none" xmlns="http://www.w3.org/2000/svg">
<path d="M14.0003 22.9276L11.842 24.5609C11.6087 24.7359 11.3753 24.741 11.142 24.5761C10.9087 24.4112 10.8406 24.1923 10.9378 23.9193L11.7837 21.2359L9.65449 19.7193C9.42116 19.5637 9.3531 19.3498 9.45033 19.0776C9.54755 18.8054 9.73227 18.6693 10.0045 18.6693H12.6003L13.417 15.9859L9.27533 13.5359C8.92533 13.322 8.6531 13.0401 8.45866 12.6901C8.26421 12.3401 8.16699 11.9415 8.16699 11.4943V4.66927C8.16699 4.0276 8.39566 3.47849 8.85299 3.02194C9.31033 2.56538 9.85944 2.33672 10.5003 2.33594H17.5003C18.142 2.33594 18.6915 2.5646 19.1488 3.02194C19.6062 3.47927 19.8344 4.02838 19.8337 4.66927V11.4943C19.8337 11.9415 19.7364 12.3401 19.542 12.6901C19.3475 13.0401 19.0753 13.322 18.7253 13.5359L14.5837 15.9859L15.4003 18.6693H17.9962C18.2684 18.6693 18.4531 18.8054 18.5503 19.0776C18.6475 19.3498 18.5795 19.5637 18.3462 19.7193L16.217 21.2359L17.0628 23.9193C17.16 24.1915 17.092 24.4104 16.8587 24.5761C16.6253 24.7418 16.392 24.7367 16.1587 24.5609L14.0003 22.9276ZM10.5003 4.66927V11.4943L12.8337 12.8943V4.66927H10.5003ZM17.5003 4.66927H15.167V12.8943L17.5003 11.4943V4.66927Z" fill="black"/>
</svg>
