<svg width="16" height="16" viewBox="0 0 16 16" fill="none" xmlns="http://www.w3.org/2000/svg">
<path d="M0 1.75C0 0.784 0.784 0 1.75 0H14.25C15.216 0 16 0.784 16 1.75V11.25C16 11.7141 15.8156 12.1592 15.4874 12.4874C15.1592 12.8156 14.7141 13 14.25 13H8.06L5.487 15.573C5.28305 15.7762 5.02352 15.9144 4.74112 15.9703C4.45872 16.0262 4.16609 15.9973 3.90011 15.8871C3.63414 15.777 3.40673 15.5905 3.24655 15.3513C3.08636 15.1121 3.00058 14.8309 3 14.543V13H1.75C1.28587 13 0.840752 12.8156 0.512563 12.4874C0.184374 12.1592 0 11.7141 0 11.25L0 1.75ZM1.75 1.5C1.6837 1.5 1.62011 1.52634 1.57322 1.57322C1.52634 1.62011 1.5 1.6837 1.5 1.75V11.25C1.5 11.388 1.612 11.5 1.75 11.5H3.75C3.94891 11.5 4.13968 11.579 4.28033 11.7197C4.42098 11.8603 4.5 12.0511 4.5 12.25V14.44L7.22 11.72C7.36052 11.5793 7.55115 11.5002 7.75 11.5H14.25C14.3163 11.5 14.3799 11.4737 14.4268 11.4268C14.4737 11.3799 14.5 11.3163 14.5 11.25V1.75C14.5 1.6837 14.4737 1.62011 14.4268 1.57322C14.3799 1.52634 14.3163 1.5 14.25 1.5H1.75ZM8.75 3.75V6.25C8.75 6.44891 8.67098 6.63968 8.53033 6.78033C8.38968 6.92098 8.19891 7 8 7C7.80109 7 7.61032 6.92098 7.46967 6.78033C7.32902 6.63968 7.25 6.44891 7.25 6.25V3.75C7.25 3.55109 7.32902 3.36032 7.46967 3.21967C7.61032 3.07902 7.80109 3 8 3C8.19891 3 8.38968 3.07902 8.53033 3.21967C8.67098 3.36032 8.75 3.55109 8.75 3.75ZM9 9C9 9.26522 8.89464 9.51957 8.70711 9.70711C8.51957 9.89464 8.26522 10 8 10C7.73478 10 7.48043 9.89464 7.29289 9.70711C7.10536 9.51957 7 9.26522 7 9C7 8.73478 7.10536 8.48043 7.29289 8.29289C7.48043 8.10536 7.73478 8 8 8C8.26522 8 8.51957 8.10536 8.70711 8.29289C8.89464 8.48043 9 8.73478 9 9Z" fill="#64748B"/>
</svg>
