<svg width="16" height="16" viewBox="0 0 16 16" fill="none" xmlns="http://www.w3.org/2000/svg">
<path fill-rule="evenodd" clip-rule="evenodd" d="M2.75 3.625C2.75 3.39294 2.84219 3.17038 3.00628 3.00628C3.17038 2.84219 3.39294 2.75 3.625 2.75H12.375C12.6071 2.75 12.8296 2.84219 12.9937 3.00628C13.1578 3.17038 13.25 3.39294 13.25 3.625V4.84183C13.2499 5.15123 13.127 5.44793 12.9082 5.66667L9.75 8.82483V13.1555C9.75002 13.2649 9.72207 13.3725 9.66881 13.468C9.61555 13.5636 9.53875 13.6439 9.4457 13.7014C9.35265 13.7589 9.24644 13.7917 9.13717 13.7966C9.02789 13.8015 8.91917 13.7784 8.82133 13.7295L6.65308 12.6457C6.53197 12.5851 6.4301 12.492 6.35891 12.3768C6.28772 12.2616 6.25 12.1289 6.25 11.9935V8.82483L3.09183 5.66667C2.87303 5.44793 2.75007 5.15123 2.75 4.84183V3.625ZM3.91667 3.91667V4.84183L7.16 8.08517C7.24134 8.16641 7.30588 8.26289 7.34992 8.36908C7.39396 8.47528 7.41664 8.58912 7.41667 8.70408V11.7228L8.58333 12.3062V8.70408C8.58333 8.47192 8.6755 8.24908 8.84 8.08575L12.0833 4.84125V3.91667H3.91667Z" fill="#156FF7"/>
</svg>
