<svg width="16" height="16" viewBox="0 0 16 16" fill="none" xmlns="http://www.w3.org/2000/svg">
<path d="M1.66675 12.6667V4.66675H14.3334V12.6667C14.3334 13.4001 13.7334 14.0001 13.0001 14.0001H3.00008C2.26675 14.0001 1.66675 13.4001 1.66675 12.6667Z" fill="#CFD8DC"/>
<path d="M14.3334 3.33333V5.33333H1.66675V3.33333C1.66675 2.6 2.26675 2 3.00008 2H13.0001C13.7334 2 14.3334 2.6 14.3334 3.33333Z" fill="#F44336"/>
<path d="M11 4.33325C11.5523 4.33325 12 3.88554 12 3.33325C12 2.78097 11.5523 2.33325 11 2.33325C10.4477 2.33325 10 2.78097 10 3.33325C10 3.88554 10.4477 4.33325 11 4.33325Z" fill="#B71C1C"/>
<path d="M5 4.33325C5.55228 4.33325 6 3.88554 6 3.33325C6 2.78097 5.55228 2.33325 5 2.33325C4.44772 2.33325 4 2.78097 4 3.33325C4 3.88554 4.44772 4.33325 5 4.33325Z" fill="#B71C1C"/>
<path d="M10.9999 1C10.6333 1 10.3333 1.3 10.3333 1.66667V3.33333C10.3333 3.7 10.6333 4 10.9999 4C11.3666 4 11.6666 3.7 11.6666 3.33333V1.66667C11.6666 1.3 11.3666 1 10.9999 1ZM4.99992 1C4.63325 1 4.33325 1.3 4.33325 1.66667V3.33333C4.33325 3.7 4.63325 4 4.99992 4C5.36659 4 5.66659 3.7 5.66659 3.33333V1.66667C5.66659 1.3 5.36659 1 4.99992 1Z" fill="#B0BEC5"/>
<path d="M4.33325 6.66675H5.66659V8.00008H4.33325V6.66675ZM6.33325 6.66675H7.66659V8.00008H6.33325V6.66675ZM8.33325 6.66675H9.66659V8.00008H8.33325V6.66675ZM10.3333 6.66675H11.6666V8.00008H10.3333V6.66675ZM4.33325 8.66675H5.66659V10.0001H4.33325V8.66675ZM6.33325 8.66675H7.66659V10.0001H6.33325V8.66675ZM8.33325 8.66675H9.66659V10.0001H8.33325V8.66675ZM10.3333 8.66675H11.6666V10.0001H10.3333V8.66675ZM4.33325 10.6667H5.66659V12.0001H4.33325V10.6667ZM6.33325 10.6667H7.66659V12.0001H6.33325V10.6667ZM8.33325 10.6667H9.66659V12.0001H8.33325V10.6667ZM10.3333 10.6667H11.6666V12.0001H10.3333V10.6667Z" fill="#90A4AE"/>
</svg>
