<svg width="10" height="14" viewBox="0 0 10 14" fill="none" xmlns="http://www.w3.org/2000/svg">
<path d="M7.83662 5.41319C8.20809 5.28668 8.47727 4.93674 8.47727 4.52086C8.47727 4.04307 8.11791 3.64738 7.65627 3.58816L8.22693 2.12113C8.30499 1.9179 8.25519 1.69044 8.09907 1.53836C7.94295 1.38762 7.7128 1.34589 7.51226 1.43069L6.3844 1.91386L5.62801 1.15612C5.52572 1.05518 5.39113 1 5.24712 1C5.10311 1 4.96717 1.05653 4.86623 1.15747L4.10849 1.91521L2.98063 1.43203C2.78144 1.34589 2.55129 1.38896 2.39517 1.5397C2.23904 1.69179 2.1879 1.91925 2.26731 2.12248L2.83797 3.5895C2.37498 3.64872 2.01697 4.04441 2.01697 4.52221C2.01697 4.93674 2.2848 5.28802 2.65627 5.41454C1.58763 6.86003 0.805664 8.81157 0.805664 9.90444C0.805664 10.8412 1.34537 11.6729 2.32787 12.2476C3.14618 12.7254 4.20943 13 5.24712 13C6.28346 13 7.34806 12.7254 8.16502 12.2476C9.14752 11.6743 9.68857 10.8425 9.68857 9.90444C9.68857 8.81157 8.90661 6.86003 7.83662 5.41319ZM2.76932 1.92732L4.06408 2.48183C4.16502 2.52624 4.28211 2.50336 4.36017 2.4253L5.24712 1.53836L6.13272 2.4253C6.21078 2.50336 6.32787 2.5249 6.43016 2.48183L7.72491 1.92732L7.08157 3.58008H3.41266L2.76932 1.92732ZM2.55533 4.52086C2.55533 4.29879 2.73568 4.11709 2.9591 4.11709H7.53514C7.75721 4.11709 7.93891 4.29879 7.93891 4.52086C7.93891 4.74428 7.75721 4.92463 7.53514 4.92463H2.9591C2.73568 4.92463 2.55533 4.74563 2.55533 4.52086ZM5.24712 12.4616C3.67242 12.4616 1.34402 11.6487 1.34402 9.90444C1.34402 8.79408 2.2377 6.79677 3.30903 5.46299H7.18521C8.25519 6.79677 9.15021 8.79408 9.15021 9.90444C9.15021 11.6501 6.82047 12.4616 5.24712 12.4616Z" fill="white" stroke="white" stroke-width="0.6"/>
</svg>
