<svg width="12" height="14" viewBox="0 0 12 14" fill="none" xmlns="http://www.w3.org/2000/svg">
<path d="M9.03095 5.41319C9.40242 5.28668 9.6716 4.93674 9.6716 4.52086C9.6716 4.04307 9.31225 3.64738 8.85061 3.58816L9.42126 2.12113C9.49933 1.9179 9.44953 1.69044 9.29341 1.53836C9.13728 1.38762 8.90713 1.34589 8.70659 1.43069L7.57873 1.91386L6.82234 1.15612C6.72005 1.05518 6.58546 1 6.44145 1C6.29744 1 6.16151 1.05653 6.06056 1.15747L5.30283 1.91521L4.17497 1.43203C3.97577 1.34589 3.74563 1.38896 3.5895 1.5397C3.43338 1.69179 3.38223 1.91925 3.46164 2.12248L4.0323 3.5895C3.56931 3.64872 3.21131 4.04441 3.21131 4.52221C3.21131 4.93674 3.47914 5.28802 3.85061 5.41454C2.78196 6.86003 2 8.81157 2 9.90444C2 10.8412 2.5397 11.6729 3.52221 12.2476C4.34051 12.7254 5.40377 13 6.44145 13C7.47779 13 8.5424 12.7254 9.35935 12.2476C10.3419 11.6743 10.8829 10.8425 10.8829 9.90444C10.8829 8.81157 10.1009 6.86003 9.03095 5.41319ZM3.96366 1.92732L5.25841 2.48183C5.35935 2.52624 5.47645 2.50336 5.55451 2.4253L6.44145 1.53836L7.32705 2.4253C7.40511 2.50336 7.52221 2.5249 7.6245 2.48183L8.91925 1.92732L8.27591 3.58008H4.607L3.96366 1.92732ZM3.74966 4.52086C3.74966 4.29879 3.93001 4.11709 4.15343 4.11709H8.72947C8.95155 4.11709 9.13324 4.29879 9.13324 4.52086C9.13324 4.74428 8.95155 4.92463 8.72947 4.92463H4.15343C3.93001 4.92463 3.74966 4.74563 3.74966 4.52086ZM6.44145 12.4616C4.86676 12.4616 2.53836 11.6487 2.53836 9.90444C2.53836 8.79408 3.43203 6.79677 4.50336 5.46299H8.37954C9.44953 6.79677 10.3445 8.79408 10.3445 9.90444C10.3445 11.6501 8.0148 12.4616 6.44145 12.4616Z" fill="#D87705" stroke="#D87705" stroke-width="0.6"/>
</svg>
