<svg width="14" height="14" viewBox="0 0 14 14" fill="none" xmlns="http://www.w3.org/2000/svg">
<path d="M13 6.80078C13 8.39208 12.3679 9.9182 11.2426 11.0434C10.1174 12.1686 8.5913 12.8008 7 12.8008M13 6.80078C13 5.20948 12.3679 3.68336 11.2426 2.55814C10.1174 1.43292 8.5913 0.800781 7 0.800781M13 6.80078H1M7 12.8008C5.4087 12.8008 3.88258 12.1686 2.75736 11.0434C1.63214 9.9182 1 8.39208 1 6.80078M7 12.8008C8.28867 12.8008 9.33333 10.1141 9.33333 6.80078C9.33333 3.48745 8.28867 0.800781 7 0.800781M7 12.8008C5.71133 12.8008 4.66667 10.1141 4.66667 6.80078C4.66667 3.48745 5.71133 0.800781 7 0.800781M7 0.800781C5.4087 0.800781 3.88258 1.43292 2.75736 2.55814C1.63214 3.68336 1 5.20948 1 6.80078" stroke="#156FF7" stroke-width="1.2" stroke-linejoin="round"/>
</svg>
