<svg width="22" height="22" viewBox="0 0 22 22" fill="none" xmlns="http://www.w3.org/2000/svg">
<circle cx="11" cy="11" r="9" fill="#F1F5F9"/>
<circle cx="11" cy="11" r="10" stroke="url(#paint0_linear_4511_61209)" stroke-opacity="0.6" stroke-width="2"/>
<path d="M10.0226 12.881V12.7932C10.0288 12.2208 10.0857 11.7653 10.1934 11.4268C10.3042 11.0882 10.4612 10.8143 10.6643 10.605C10.8674 10.3958 11.1121 10.2049 11.3983 10.0326C11.583 9.91564 11.7492 9.78484 11.8969 9.64019C12.0446 9.49555 12.1616 9.32935 12.2477 9.14162C12.3339 8.95388 12.377 8.74614 12.377 8.51839C12.377 8.24448 12.3124 8.0075 12.1831 7.80745C12.0539 7.60741 11.8815 7.45352 11.6661 7.34581C11.4537 7.23501 11.2167 7.17961 10.9551 7.17961C10.7182 7.17961 10.4919 7.22885 10.2765 7.32734C10.0611 7.42582 9.88257 7.57971 9.741 7.78899C9.59943 7.99519 9.51787 8.26141 9.49633 8.58764H8.09292C8.11446 8.03366 8.2545 7.56586 8.51302 7.18423C8.77154 6.79952 9.11316 6.50868 9.53788 6.31171C9.96567 6.11474 10.4381 6.01626 10.9551 6.01626C11.5214 6.01626 12.0169 6.12244 12.4416 6.3348C12.8664 6.54408 13.1957 6.83799 13.4296 7.21654C13.6665 7.59202 13.785 8.03058 13.785 8.53224C13.785 8.87694 13.7312 9.18778 13.6235 9.46477C13.5157 9.73868 13.3619 9.98335 13.1618 10.1988C12.9648 10.4142 12.7279 10.605 12.4509 10.7712C12.1893 10.9343 11.9769 11.1036 11.8138 11.279C11.6538 11.4545 11.5368 11.6622 11.4629 11.9023C11.3891 12.1423 11.3491 12.4393 11.3429 12.7932V12.881H10.0226ZM10.7197 15.6878C10.4673 15.6878 10.2504 15.5985 10.0688 15.42C9.88719 15.2384 9.7964 15.0199 9.7964 14.7645C9.7964 14.5121 9.88719 14.2967 10.0688 14.1182C10.2504 13.9366 10.4673 13.8458 10.7197 13.8458C10.969 13.8458 11.1844 13.9366 11.366 14.1182C11.5507 14.2967 11.643 14.5121 11.643 14.7645C11.643 14.9338 11.5999 15.0892 11.5137 15.2307C11.4306 15.3692 11.3198 15.48 11.1813 15.5631C11.0428 15.6462 10.889 15.6878 10.7197 15.6878Z" fill="#475569"/>
<defs>
<linearGradient id="paint0_linear_4511_61209" x1="1.00815" y1="10.9999" x2="18.0815" y2="5.27683" gradientUnits="userSpaceOnUse">
<stop stop-color="#427DFF"/>
<stop offset="1" stop-color="#44D5BB"/>
</linearGradient>
</defs>
</svg>
