<svg width="18" height="18" viewBox="0 0 18 18" fill="none" xmlns="http://www.w3.org/2000/svg">
<circle cx="9" cy="9.00003" r="8.5" fill="url(#paint0_linear_4452_58306)" stroke="url(#paint1_linear_4452_58306)"/>
<path d="M8.02261 10.881V10.7932C8.02876 10.2208 8.0857 9.76531 8.19342 9.42677C8.30421 9.08823 8.46117 8.81432 8.6643 8.60504C8.86742 8.39576 9.1121 8.20494 9.39832 8.0326C9.58298 7.91564 9.74917 7.78484 9.8969 7.64019C10.0446 7.49555 10.1616 7.32935 10.2477 7.14162C10.3339 6.95388 10.377 6.74614 10.377 6.51839C10.377 6.24448 10.3124 6.0075 10.1831 5.80745C10.0539 5.60741 9.88151 5.45352 9.66607 5.34581C9.45372 5.23501 9.21674 5.17961 8.95514 5.17961C8.71816 5.17961 8.49195 5.22885 8.27651 5.32734C8.06108 5.42582 7.88257 5.57971 7.741 5.78899C7.59943 5.99519 7.51787 6.26141 7.49633 6.58764H6.09292C6.11446 6.03366 6.2545 5.56586 6.51302 5.18423C6.77154 4.79952 7.11316 4.50868 7.53788 4.31171C7.96567 4.11474 8.43809 4.01626 8.95514 4.01626C9.52142 4.01626 10.0169 4.12244 10.4416 4.3348C10.8664 4.54408 11.1957 4.83799 11.4296 5.21654C11.6665 5.59202 11.785 6.03058 11.785 6.53224C11.785 6.87694 11.7312 7.18778 11.6235 7.46477C11.5157 7.73868 11.3619 7.98335 11.1618 8.19879C10.9648 8.41422 10.7279 8.60504 10.4509 8.77123C10.1893 8.93435 9.97692 9.10362 9.8138 9.27904C9.65376 9.45447 9.53681 9.66221 9.46295 9.90227C9.38909 10.1423 9.34908 10.4393 9.34292 10.7932V10.881H8.02261ZM8.7197 13.6878C8.46733 13.6878 8.25035 13.5985 8.06877 13.42C7.88719 13.2384 7.7964 13.0199 7.7964 12.7645C7.7964 12.5121 7.88719 12.2967 8.06877 12.1182C8.25035 11.9366 8.46733 11.8458 8.7197 11.8458C8.96899 11.8458 9.18442 11.9366 9.366 12.1182C9.55066 12.2967 9.64299 12.5121 9.64299 12.7645C9.64299 12.9338 9.5999 13.0892 9.51373 13.2307C9.43063 13.3692 9.31984 13.48 9.18134 13.5631C9.04285 13.6462 8.88897 13.6878 8.7197 13.6878Z" fill="white"/>
<defs>
<linearGradient id="paint0_linear_4452_58306" x1="-0.991847" y1="8.99994" x2="16.0815" y2="3.27683" gradientUnits="userSpaceOnUse">
<stop stop-color="#427DFF"/>
<stop offset="1" stop-color="#44D5BB"/>
</linearGradient>
<linearGradient id="paint1_linear_4452_58306" x1="-0.991847" y1="8.99994" x2="16.0815" y2="3.27683" gradientUnits="userSpaceOnUse">
<stop stop-color="#427DFF"/>
<stop offset="1" stop-color="#44D5BB"/>
</linearGradient>
</defs>
</svg>
