<svg width="24" height="24" viewBox="0 0 24 24" fill="none" xmlns="http://www.w3.org/2000/svg">
<circle cx="12" cy="12" r="12" fill="#F1F5F9"/>
<path d="M10.9472 13.8717V13.7773C10.9538 13.1608 11.0152 12.6703 11.1312 12.3057C11.2505 11.9411 11.4195 11.6461 11.6383 11.4207C11.857 11.1954 12.1205 10.9899 12.4288 10.8043C12.6276 10.6783 12.8066 10.5375 12.9657 10.3817C13.1248 10.2259 13.2507 10.0469 13.3435 9.84475C13.4363 9.64257 13.4827 9.41885 13.4827 9.17358C13.4827 8.8786 13.4131 8.62339 13.2739 8.40796C13.1347 8.19252 12.9491 8.0268 12.7171 7.9108C12.4884 7.79148 12.2332 7.73182 11.9515 7.73182C11.6963 7.73182 11.4527 7.78485 11.2207 7.89091C10.9886 7.99697 10.7964 8.16269 10.644 8.38807C10.4915 8.61014 10.4037 8.89683 10.3805 9.24816H8.86909C8.89229 8.65157 9.0431 8.14778 9.32151 7.73679C9.59992 7.32249 9.96781 7.00928 10.4252 6.79716C10.8859 6.58504 11.3947 6.47898 11.9515 6.47898C12.5613 6.47898 13.0949 6.59333 13.5523 6.82202C14.0097 7.0474 14.3644 7.36392 14.6163 7.77159C14.8715 8.17595 14.9991 8.64825 14.9991 9.1885C14.9991 9.55971 14.9411 9.89446 14.8251 10.1928C14.7091 10.4877 14.5433 10.7512 14.3279 10.9832C14.1158 11.2152 13.8606 11.4207 13.5623 11.5997C13.2806 11.7754 13.0519 11.9577 12.8762 12.1466C12.7038 12.3355 12.5779 12.5592 12.4984 12.8178C12.4188 13.0763 12.3757 13.3961 12.3691 13.7773V13.8717H10.9472ZM11.6979 16.8945C11.4261 16.8945 11.1925 16.7983 10.9969 16.6061C10.8014 16.4106 10.7036 16.1752 10.7036 15.9001C10.7036 15.6284 10.8014 15.3964 10.9969 15.2041C11.1925 15.0086 11.4261 14.9108 11.6979 14.9108C11.9664 14.9108 12.1984 15.0086 12.3939 15.2041C12.5928 15.3964 12.6922 15.6284 12.6922 15.9001C12.6922 16.0824 12.6458 16.2498 12.553 16.4023C12.4636 16.5514 12.3442 16.6707 12.1951 16.7602C12.0459 16.8497 11.8802 16.8945 11.6979 16.8945Z" fill="#64748B"/>
</svg>
