<svg width="28" height="28" viewBox="0 0 28 28" fill="none" xmlns="http://www.w3.org/2000/svg">
<path d="M5.83301 18.6693L11.6663 15.1693M16.333 12.8359L22.1663 9.33594M13.9997 5.83594V11.6693M13.9997 16.3359V22.1693M5.83301 9.33594L11.6663 12.8359M16.333 15.1693L22.1663 18.6693M23.9163 10.5026V16.9193M15.7497 23.9193L22.1663 20.4193M5.24967 20.4193L12.2497 23.9193M4.08301 17.5026V10.5026M5.24967 7.58594L12.2497 4.08594M22.7497 7.58594L15.7497 4.08594" stroke="black" stroke-width="1.5" stroke-linecap="round" stroke-linejoin="round"/>
<path d="M14 5.83594C14.9665 5.83594 15.75 5.05244 15.75 4.08594C15.75 3.11944 14.9665 2.33594 14 2.33594C13.0335 2.33594 12.25 3.11944 12.25 4.08594C12.25 5.05244 13.0335 5.83594 14 5.83594Z" stroke="black" stroke-width="1.5" stroke-linecap="round" stroke-linejoin="round"/>
<path d="M14 25.6719C14.9665 25.6719 15.75 24.8884 15.75 23.9219C15.75 22.9554 14.9665 22.1719 14 22.1719C13.0335 22.1719 12.25 22.9554 12.25 23.9219C12.25 24.8884 13.0335 25.6719 14 25.6719Z" stroke="black" stroke-width="1.5" stroke-linecap="round" stroke-linejoin="round"/>
<path d="M4.08301 10.5C5.04951 10.5 5.83301 9.7165 5.83301 8.75C5.83301 7.7835 5.04951 7 4.08301 7C3.11651 7 2.33301 7.7835 2.33301 8.75C2.33301 9.7165 3.11651 10.5 4.08301 10.5Z" stroke="black" stroke-width="1.5" stroke-linecap="round" stroke-linejoin="round"/>
<path d="M23.916 10.5C24.8825 10.5 25.666 9.7165 25.666 8.75C25.666 7.7835 24.8825 7 23.916 7C22.9495 7 22.166 7.7835 22.166 8.75C22.166 9.7165 22.9495 10.5 23.916 10.5Z" stroke="black" stroke-width="1.5" stroke-linecap="round" stroke-linejoin="round"/>
<path d="M23.916 21C24.8825 21 25.666 20.2165 25.666 19.25C25.666 18.2835 24.8825 17.5 23.916 17.5C22.9495 17.5 22.166 18.2835 22.166 19.25C22.166 20.2165 22.9495 21 23.916 21Z" stroke="black" stroke-width="1.5" stroke-linecap="round" stroke-linejoin="round"/>
<path d="M4.08301 21C5.04951 21 5.83301 20.2165 5.83301 19.25C5.83301 18.2835 5.04951 17.5 4.08301 17.5C3.11651 17.5 2.33301 18.2835 2.33301 19.25C2.33301 20.2165 3.11651 21 4.08301 21Z" stroke="black" stroke-width="1.5" stroke-linecap="round" stroke-linejoin="round"/>
<path d="M13.9993 11.375L16.3327 12.6875V15.3125L13.9993 16.625L11.666 15.3125V12.6875L13.9993 11.375Z" stroke="black" stroke-width="1.5" stroke-linecap="round" stroke-linejoin="round"/>
</svg>
