<svg width="20" height="20" viewBox="0 0 20 20" fill="none" xmlns="http://www.w3.org/2000/svg">
<rect width="20" height="20" rx="4" fill="url(#paint0_linear_11268_134891)"/>
<rect x="0.5" y="0.5" width="19" height="19" rx="3.5" stroke="white" stroke-opacity="0.4"/>
<path d="M10.36 6.77666C10.6933 6.66866 10.9607 6.41466 11.0873 6.09L13.9093 8.91266C13.7483 8.97588 13.6032 9.07393 13.4845 9.19978C13.3658 9.32564 13.2764 9.4762 13.2227 9.64066L10.36 6.77666ZM13.2233 10.36L10.3593 13.2233C10.6927 13.3313 10.9607 13.5853 11.0873 13.91L13.9093 11.0873C13.7483 11.0241 13.6032 10.9261 13.4845 10.8002C13.3658 10.6743 13.2764 10.5238 13.2227 10.3593M9.64 13.2233L6.77666 10.3593C6.66866 10.6927 6.41533 10.9607 6.09 11.0873L8.91266 13.9093C9.03933 13.5847 9.30666 13.3313 9.64066 13.2227M9.64 6.77666L6.77666 9.64066C6.72296 9.4762 6.63355 9.32564 6.51484 9.19978C6.39612 9.07393 6.25105 8.97588 6.09 8.91266L8.91266 6.09066C9.03933 6.41533 9.30666 6.66866 9.64066 6.77733" fill="white"/>
<path d="M10.36 6.77666C10.6933 6.66866 10.9606 6.41466 11.0873 6.09L13.9093 8.91266C13.7482 8.97588 13.6032 9.07393 13.4845 9.19978C13.3657 9.32564 13.2763 9.4762 13.2226 9.64066L10.36 6.77666ZM13.2233 10.36L10.3593 13.2233C10.6926 13.3313 10.9606 13.5853 11.0873 13.91L13.9093 11.0873C13.7482 11.0241 13.6032 10.9261 13.4845 10.8002C13.3657 10.6743 13.2763 10.5238 13.2226 10.3593M9.63997 13.2233L6.77663 10.3593C6.66863 10.6927 6.4153 10.9607 6.08997 11.0873L8.91263 13.9093C9.0393 13.5847 9.30663 13.3313 9.64063 13.2227M9.63997 6.77666L6.77663 9.64066C6.72293 9.4762 6.63352 9.32564 6.51481 9.19978C6.39609 9.07393 6.25102 8.97588 6.08997 8.91266L8.91263 6.09066C9.0393 6.41533 9.30663 6.66866 9.64063 6.77733" fill="white"/>
<path fill-rule="evenodd" clip-rule="evenodd" d="M5.17594 9.33572C4.99913 9.33572 4.82956 9.40596 4.70454 9.53099C4.57952 9.65601 4.50928 9.82558 4.50928 10.0024C4.50928 10.1792 4.57952 10.3488 4.70454 10.4738C4.82956 10.5988 4.99913 10.6691 5.17594 10.6691C5.35275 10.6691 5.52232 10.5988 5.64735 10.4738C5.77237 10.3488 5.84261 10.1792 5.84261 10.0024C5.84261 9.82558 5.77237 9.65601 5.64735 9.53099C5.52232 9.40596 5.35275 9.33572 5.17594 9.33572ZM3.50928 10.0024C3.50928 9.56036 3.68487 9.13644 3.99743 8.82388C4.30999 8.51132 4.73392 8.33572 5.17594 8.33572C5.61797 8.33572 6.04189 8.51132 6.35446 8.82388C6.66702 9.13644 6.84261 9.56036 6.84261 10.0024C6.84261 10.4444 6.66702 10.8683 6.35446 11.1809C6.04189 11.4935 5.61797 11.6691 5.17594 11.6691C4.73392 11.6691 4.30999 11.4935 3.99743 11.1809C3.68487 10.8683 3.50928 10.4444 3.50928 10.0024Z" fill="white"/>
<path fill-rule="evenodd" clip-rule="evenodd" d="M14.804 9.33572C14.6272 9.33572 14.4576 9.40596 14.3326 9.53099C14.2076 9.65601 14.1374 9.82558 14.1374 10.0024C14.1374 10.1792 14.2076 10.3488 14.3326 10.4738C14.4576 10.5988 14.6272 10.6691 14.804 10.6691C14.9808 10.6691 15.1504 10.5988 15.2754 10.4738C15.4004 10.3488 15.4707 10.1792 15.4707 10.0024C15.4707 9.82558 15.4004 9.65601 15.2754 9.53099C15.1504 9.40596 14.9808 9.33572 14.804 9.33572ZM13.1374 10.0024C13.1374 9.56036 13.3129 9.13644 13.6255 8.82388C13.9381 8.51132 14.362 8.33572 14.804 8.33572C15.246 8.33572 15.67 8.51132 15.9825 8.82388C16.2951 9.13644 16.4707 9.56036 16.4707 10.0024C16.4707 10.4444 16.2951 10.8683 15.9825 11.1809C15.67 11.4935 15.246 11.6691 14.804 11.6691C14.362 11.6691 13.9381 11.4935 13.6255 11.1809C13.3129 10.8683 13.1374 10.4444 13.1374 10.0024Z" fill="white"/>
<path d="M9.98187 6.82218C10.9023 6.82218 11.6485 6.07599 11.6485 5.15551C11.6485 4.23504 10.9023 3.48885 9.98187 3.48885C9.06139 3.48885 8.3152 4.23504 8.3152 5.15551C8.3152 6.07599 9.06139 6.82218 9.98187 6.82218Z" fill="white"/>
<path fill-rule="evenodd" clip-rule="evenodd" d="M9.98191 14.1208C9.8051 14.1208 9.63553 14.1911 9.51051 14.3161C9.38548 14.4411 9.31525 14.6107 9.31525 14.7875C9.31525 14.9643 9.38548 15.1339 9.51051 15.2589C9.63553 15.3839 9.8051 15.4542 9.98191 15.4542C10.1587 15.4542 10.3283 15.3839 10.4533 15.2589C10.5783 15.1339 10.6486 14.9643 10.6486 14.7875C10.6486 14.6107 10.5783 14.4411 10.4533 14.3161C10.3283 14.1911 10.1587 14.1208 9.98191 14.1208ZM8.31525 14.7875C8.31525 14.3455 8.49084 13.9216 8.8034 13.609C9.11596 13.2964 9.53989 13.1208 9.98191 13.1208C10.4239 13.1208 10.8479 13.2964 11.1604 13.609C11.473 13.9216 11.6486 14.3455 11.6486 14.7875C11.6486 15.2295 11.473 15.6535 11.1604 15.966C10.8479 16.2786 10.4239 16.4542 9.98191 16.4542C9.53989 16.4542 9.11596 16.2786 8.8034 15.966C8.49084 15.6535 8.31525 15.2295 8.31525 14.7875Z" fill="white"/>
<defs>
<linearGradient id="paint0_linear_11268_134891" x1="1.40351" y1="2.6991e-06" x2="22.0631" y2="2.59869" gradientUnits="userSpaceOnUse">
<stop stop-color="#9E7EFF"/>
<stop offset="1" stop-color="#E58EFF"/>
</linearGradient>
</defs>
</svg>
