<svg width="16" height="16" viewBox="0 0 16 16" fill="none" xmlns="http://www.w3.org/2000/svg">
<g clip-path="url(#clip0_8743_121180)">
<path d="M7.99971 7.35176V11.8889C7.99849 12.308 7.91267 12.7225 7.74739 13.1076C7.58211 13.4928 7.34077 13.8405 7.03784 14.1302C6.73492 14.4198 6.37663 14.6452 5.98447 14.793C5.5923 14.9408 5.17434 15.0079 4.75562 14.9903C4.3369 14.9726 3.92605 14.8707 3.5477 14.6904C3.16935 14.5102 2.83128 14.2554 2.55377 13.9414C2.27625 13.6273 2.065 13.2605 1.93268 12.8628C1.80036 12.4652 1.74969 12.0449 1.78371 11.6272C1.13571 10.9312 0.726562 9.57005 0.726562 8.43405C0.726562 6.88662 1.48656 5.38147 2.57456 4.78833C2.51562 4.24783 2.62001 3.70207 2.87426 3.22148C3.12851 2.74089 3.52096 2.34752 4.00096 2.09215C4.48096 1.83677 5.02647 1.73111 5.56711 1.78879C6.10774 1.84647 6.61868 2.06486 7.03399 2.41576" stroke="#FF820E" stroke-linecap="round" stroke-linejoin="round"/>
<path d="M4.01211 6.63916C3.61211 6.54773 2.70811 5.95345 2.57211 4.79688M2.61668 9.99573C2.20982 10.3169 1.88525 11.0437 1.78125 11.6266M7.99954 11.8894C8.00075 12.3085 8.08657 12.7231 8.25185 13.1082C8.41713 13.4933 8.65847 13.8411 8.9614 14.1307C9.26433 14.4203 9.62261 14.6458 10.0148 14.7936C10.4069 14.9413 10.8249 15.0084 11.2436 14.9908C11.6623 14.9732 12.0732 14.8712 12.4515 14.691C12.8299 14.5107 13.168 14.2559 13.4455 13.9419C13.723 13.6279 13.9342 13.261 14.0666 12.8634C14.1989 12.4657 14.2496 12.0454 14.2155 11.6277C14.8635 10.9317 15.2715 9.57059 15.2715 8.43459C15.2715 7.93859 15.1938 7.44716 15.0521 6.98773" stroke="#FF820E" stroke-linecap="round" stroke-linejoin="round"/>
<path d="M13.3822 9.99467C13.789 10.3158 14.1136 11.0427 14.2176 11.6255M8.07246 4.92153C7.67246 4.85067 7.67246 4.27581 8.07246 4.2061C8.78294 4.08269 9.44055 3.75045 9.96142 3.25176C10.4823 2.75307 10.8428 2.11053 10.997 1.4061L11.021 1.29524C11.1079 0.898671 11.6725 0.895242 11.7627 1.29181L11.7913 1.42096C11.9514 2.1222 12.3152 2.76048 12.837 3.25561C13.3588 3.75073 14.0152 4.08062 14.7239 4.20381C15.1273 4.27353 15.1273 4.85296 14.7239 4.92381C14.0152 5.04701 13.3588 5.37689 12.837 5.87202C12.3152 6.36714 11.9514 7.00543 11.7913 7.70667L11.7627 7.83467C11.6713 8.2301 11.1079 8.22781 11.021 7.83124L10.997 7.72153C10.8428 7.01709 10.4823 6.37456 9.96142 5.87587C9.44055 5.37718 8.78294 5.04494 8.07246 4.92153Z" stroke="#FF820E" stroke-linecap="round" stroke-linejoin="round"/>
</g>
<defs>
<clipPath id="clip0_8743_121180">
<rect width="16" height="16" fill="white"/>
</clipPath>
</defs>
</svg>
