<svg width="32" height="32" viewBox="0 0 32 32" fill="none" xmlns="http://www.w3.org/2000/svg">
<rect width="32" height="32" rx="16" fill="#156FF7"/>
<path d="M25.456 13.5724L22.9915 11.3257L23.4236 7.18625C23.4328 7.09903 23.4131 7.0113 23.3669 6.93443C23.3208 6.85757 23.2503 6.79511 23.1648 6.75515C23.0792 6.7152 22.9825 6.69958 22.8871 6.71034C22.7917 6.72109 22.702 6.75772 22.6298 6.81547L19.9999 8.91316C19.9883 8.92243 19.9834 8.93529 19.973 8.94531L11.8315 9.00243C11.8111 8.96976 11.7859 8.93973 11.7567 8.91316L9.12688 6.81547C9.05459 6.75772 8.96493 6.72109 8.86954 6.71034C8.77414 6.69958 8.6774 6.7152 8.59185 6.75515C8.5063 6.79511 8.43589 6.85757 8.38974 6.93443C8.34358 7.0113 8.32382 7.09903 8.33301 7.18625L8.78641 11.5289L6.5449 13.5724L6.54378 13.5739C6.49905 13.6149 6.46362 13.6635 6.43953 13.717C6.41628 13.7691 6.40429 13.825 6.40438 13.8813L6.4043 13.8818C6.40428 13.9122 6.40773 13.9424 6.41457 13.9721L7.35485 18.0232C7.37594 18.1141 7.42822 18.1965 7.50412 18.2585L12.2861 22.1659C12.3584 22.2227 12.4481 22.2581 12.5431 22.2673C12.7134 22.3887 12.8915 22.5009 13.0764 22.6031C13.56 22.8844 14.1178 23.0415 14.6912 23.0579C14.9048 23.0573 15.1172 23.0283 15.3217 22.9719C15.3648 23.0308 15.4231 23.0792 15.4915 23.1129C15.5599 23.1465 15.6362 23.1644 15.7139 23.165H16.3714C16.4366 23.1646 16.5011 23.152 16.5607 23.1279C16.6204 23.1039 16.674 23.0689 16.7183 23.0253C16.8432 23.0459 16.9699 23.0568 17.0969 23.0579C17.6702 23.0415 18.2281 22.8844 18.7117 22.6031C18.7444 22.5854 18.7766 22.563 18.8092 22.5444C18.8706 22.5289 18.9278 22.5021 18.9775 22.4659L19.1663 22.3241C19.3246 22.2171 19.4805 22.0984 19.6347 21.9725L24.5658 18.2705C24.6522 18.2058 24.711 18.1157 24.7321 18.0156L25.588 13.9645C25.6028 13.8943 25.5986 13.8218 25.5756 13.7535C25.5526 13.6851 25.5115 13.6229 25.456 13.5724ZM22.1111 10.5231L20.8643 9.38655L22.3537 8.19851L22.1111 10.5231ZM9.40294 8.19851L11.0224 9.49036L9.66666 10.7263L9.40294 8.19851ZM16.4969 22.0439C16.4814 22.037 16.4654 22.0308 16.4492 22.0255L16.4199 21.3803L17.6118 20.7012C17.7017 20.6501 17.7705 20.5733 17.8074 20.4829C17.8444 20.3924 17.8476 20.2933 17.8163 20.2011C17.7839 20.1095 17.7198 20.03 17.6336 19.9744C17.5474 19.9189 17.4438 19.8903 17.3383 19.8929L16.0009 19.9424L14.7483 19.8929C14.6426 19.8896 14.5386 19.9178 14.4521 19.9734C14.3657 20.0289 14.3015 20.1086 14.2693 20.2005C14.238 20.2928 14.241 20.392 14.2779 20.4825C14.3149 20.5731 14.3836 20.65 14.4735 20.7012L15.4627 21.2648C15.4582 21.2913 15.4565 21.3182 15.4574 21.345L15.4867 21.9924C15.4182 21.9965 15.3515 22.0141 15.2911 22.0439C14.8189 22.2792 14.2382 22.2142 13.566 21.8504C11.6527 20.8159 9.84339 17.8719 9.84339 15.7927C9.84339 15.789 9.8423 15.7856 9.84218 15.782C9.8423 15.7783 9.84339 15.775 9.84339 15.7713C9.83242 15.4146 9.89967 15.0594 10.0412 14.7267C10.1828 14.394 10.3957 14.0904 10.6677 13.8336C10.9396 13.5769 11.265 13.3722 11.6248 13.2317C11.9846 13.0911 12.3716 13.0174 12.7631 13.0149C13.4742 13.0213 14.1535 13.2847 14.6519 13.7471C15.1504 14.2095 15.4272 14.8333 15.4218 15.4816C15.4227 15.5971 15.4737 15.7075 15.5636 15.7889C15.6535 15.8702 15.7751 15.9159 15.9017 15.9159C16.0284 15.9159 16.1499 15.8702 16.2399 15.7889C16.3298 15.7075 16.3807 15.5971 16.3817 15.4816C16.3763 14.8333 16.6533 14.2095 17.1517 13.7471C17.6502 13.2846 18.3295 13.0213 19.0407 13.0149C19.4327 13.0198 19.8196 13.096 20.1789 13.239C20.5381 13.382 20.8625 13.5889 21.1329 13.8476C21.4034 14.1062 21.6145 14.4115 21.7539 14.7455C21.8932 15.0795 21.9581 15.4355 21.9447 15.7927C21.9447 17.5691 20.6231 19.9729 19.0452 21.2817L18.557 21.6482C18.4459 21.7214 18.3342 21.7898 18.2221 21.8504C17.5496 22.2142 16.9691 22.2792 16.4969 22.0439ZM23.8223 17.6951L21.9366 19.1109C22.5225 18.083 22.8529 16.9501 22.9045 15.7927C22.922 14.8416 22.5251 13.923 21.8008 13.2383C21.0765 12.5535 20.084 12.1585 19.0407 12.1399C18.4006 12.142 17.7725 12.2992 17.221 12.5953C16.6694 12.8915 16.2141 13.3161 15.9017 13.8254C15.5894 13.3161 15.1342 12.8916 14.5827 12.5954C14.0312 12.2992 13.4032 12.142 12.7631 12.1399C11.7208 12.1537 10.7271 12.5437 9.99981 13.2245C9.27255 13.9052 8.87111 14.8211 8.88353 15.7713C8.88353 15.775 8.88461 15.7783 8.88473 15.782C8.88461 15.7856 8.88353 15.789 8.88353 15.7927C8.92922 16.8806 9.22644 17.9474 9.75575 18.9233L8.2617 17.7025L7.40767 14.0231L11.956 9.87653L19.9826 9.82035L24.5973 14.0268L23.8223 17.6951Z" fill="white"/>
<path fill-rule="evenodd" clip-rule="evenodd" d="M11.4395 23.3359L13.9898 25.6198H15.6874H16.0595H17.7571L20.3074 23.3359L17.6955 24.7011H16.0595H15.6874H14.0514L11.4395 23.3359Z" fill="white"/>
<path fill-rule="evenodd" clip-rule="evenodd" d="M17.6554 24.5339L20.2315 23.1875L20.4173 23.4556L17.8202 25.7814H13.9272L11.3301 23.4556L11.5159 23.1875L14.092 24.5339H17.6554ZM19.2186 24.0878L17.7361 24.8626H14.0113L12.5288 24.0878L14.0529 25.4527H17.6945L19.2186 24.0878Z" fill="white"/>
</svg>
