<svg width="23" height="24" viewBox="0 0 23 24" fill="none" xmlns="http://www.w3.org/2000/svg">
<path d="M16.6746 6.09221C17.0858 5.68103 17.6011 5.4375 18.1356 5.36159M18.1356 5.36159C18.9122 5.25132 19.7294 5.49486 20.3268 6.09221C21.3353 7.10073 21.3353 8.73587 20.3268 9.7444C19.5142 10.557 18.2948 10.7149 17.3241 10.218C16.9274 10.0149 16.4191 9.99989 16.1039 10.315L9.81749 16.6015C9.50233 16.9167 9.51735 17.425 9.72044 17.8217C10.2173 18.7924 10.0594 20.0117 9.24684 20.8243C8.23831 21.8329 6.60317 21.8329 5.59465 20.8243C4.9973 20.227 4.75376 19.4098 4.86403 18.6332M18.1356 5.36159C18.2459 4.58499 18.0024 3.76781 17.405 3.17046C16.3965 2.16193 14.7614 2.16193 13.7528 3.17046C12.9402 3.98305 12.7824 5.20244 13.2792 6.17309C13.4823 6.56984 13.4973 7.07813 13.1822 7.39329L6.89573 13.6797C6.58057 13.9949 6.07228 13.9799 5.67553 13.7768C4.70488 13.2799 3.48549 13.4378 2.6729 14.2504C1.66437 15.2589 1.66437 16.8941 2.6729 17.9026C3.27025 18.4999 4.08743 18.7435 4.86403 18.6332M6.32509 17.9026C5.91392 18.3138 5.39859 18.5573 4.86403 18.6332" stroke="#1E3A8A" stroke-width="1.4375" stroke-linecap="round" stroke-linejoin="round"/>
</svg>
