<svg width="24" height="25" viewBox="0 0 24 25" fill="none" xmlns="http://www.w3.org/2000/svg">
<g clip-path="url(#clip0_8506_49955)">
<path d="M3 18.5C3.79565 18.5 4.55871 18.8161 5.12132 19.3787C5.68393 19.9413 6 20.7044 6 21.5C6 22.2956 5.68393 23.0587 5.12132 23.6213C4.55871 24.1839 3.79565 24.5 3 24.5C2.20435 24.5 1.44129 24.1839 0.87868 23.6213C0.316071 23.0587 0 22.2956 0 21.5C0 20.7044 0.316071 19.9413 0.87868 19.3787C1.44129 18.8161 2.20435 18.5 3 18.5ZM21 18.5C21.7956 18.5 22.5587 18.8161 23.1213 19.3787C23.6839 19.9413 24 20.7044 24 21.5C24 22.2956 23.6839 23.0587 23.1213 23.6213C22.5587 24.1839 21.7956 24.5 21 24.5C20.2044 24.5 19.4413 24.1839 18.8787 23.6213C18.3161 23.0587 18 22.2956 18 21.5C18 20.7044 18.3161 19.9413 18.8787 19.3787C19.4413 18.8161 20.2044 18.5 21 18.5ZM3 20C2.60218 20 2.22064 20.158 1.93934 20.4393C1.65804 20.7206 1.5 21.1022 1.5 21.5C1.5 21.8978 1.65804 22.2794 1.93934 22.5607C2.22064 22.842 2.60218 23 3 23C3.39782 23 3.77936 22.842 4.06066 22.5607C4.34196 22.2794 4.5 21.8978 4.5 21.5C4.5 21.1022 4.34196 20.7206 4.06066 20.4393C3.77936 20.158 3.39782 20 3 20ZM21 20C20.6022 20 20.2206 20.158 19.9393 20.4393C19.658 20.7206 19.5 21.1022 19.5 21.5C19.5 21.8978 19.658 22.2794 19.9393 22.5607C20.2206 22.842 20.6022 23 21 23C21.3978 23 21.7794 22.842 22.0607 22.5607C22.342 22.2794 22.5 21.8978 22.5 21.5C22.5 21.1022 22.342 20.7206 22.0607 20.4393C21.7794 20.158 21.3978 20 21 20ZM12.75 7.25V11.75H17.25V13.25H12.75V17.75H11.25V13.25H6.75V11.75H11.25V7.25H12.75ZM3 0.5C3.79565 0.5 4.55871 0.816071 5.12132 1.37868C5.68393 1.94129 6 2.70435 6 3.5C6 4.29565 5.68393 5.05871 5.12132 5.62132C4.55871 6.18393 3.79565 6.5 3 6.5C2.20435 6.5 1.44129 6.18393 0.87868 5.62132C0.316071 5.05871 0 4.29565 0 3.5C0 2.70435 0.316071 1.94129 0.87868 1.37868C1.44129 0.816071 2.20435 0.5 3 0.5ZM21 0.5C21.7956 0.5 22.5587 0.816071 23.1213 1.37868C23.6839 1.94129 24 2.70435 24 3.5C24 4.29565 23.6839 5.05871 23.1213 5.62132C22.5587 6.18393 21.7956 6.5 21 6.5C20.2044 6.5 19.4413 6.18393 18.8787 5.62132C18.3161 5.05871 18 4.29565 18 3.5C18 2.70435 18.3161 1.94129 18.8787 1.37868C19.4413 0.816071 20.2044 0.5 21 0.5ZM21 2C20.6022 2 20.2206 2.15804 19.9393 2.43934C19.658 2.72064 19.5 3.10218 19.5 3.5C19.5 3.89782 19.658 4.27936 19.9393 4.56066C20.2206 4.84196 20.6022 5 21 5C21.3978 5 21.7794 4.84196 22.0607 4.56066C22.342 4.27936 22.5 3.89782 22.5 3.5C22.5 3.10218 22.342 2.72064 22.0607 2.43934C21.7794 2.15804 21.3978 2 21 2ZM3 2C2.60218 2 2.22064 2.15804 1.93934 2.43934C1.65804 2.72064 1.5 3.10218 1.5 3.5C1.5 3.89782 1.65804 4.27936 1.93934 4.56066C2.22064 4.84196 2.60218 5 3 5C3.39782 5 3.77936 4.84196 4.06066 4.56066C4.34196 4.27936 4.5 3.89782 4.5 3.5C4.5 3.10218 4.34196 2.72064 4.06066 2.43934C3.77936 2.15804 3.39782 2 3 2Z" fill="#156FF7"/>
<path d="M15.8085 22.2875C15.885 22.7953 16.0335 23.279 16.245 23.7275C14.8883 24.2394 13.4501 24.5011 12 24.5C10.5053 24.5 9.075 24.227 7.755 23.7275C7.96575 23.279 8.115 22.7953 8.1915 22.2875C9.372 22.748 10.6568 23 12 23C13.3433 23 14.628 22.748 15.8085 22.2875ZM23.2275 8.255C23.7394 9.61171 24.0011 11.05 24 12.5C24 13.9948 23.727 15.425 23.2275 16.745C22.771 16.5311 22.286 16.3841 21.7875 16.3085C22.248 15.128 22.5 13.8433 22.5 12.5C22.5 11.1568 22.248 9.872 21.7875 8.6915C22.286 8.6159 22.771 8.46889 23.2275 8.255ZM0.772503 8.255C1.221 8.46575 1.70475 8.615 2.2125 8.6915C1.7408 9.90581 1.49919 11.1973 1.5 12.5C1.5 13.8433 1.752 15.128 2.2125 16.3085C1.71403 16.3841 1.22905 16.5311 0.772503 16.745C0.26064 15.3883 -0.00108949 13.9501 3.40857e-06 12.5C3.40857e-06 11.0053 0.273003 9.575 0.772503 8.255ZM12 0.500003C13.4948 0.500003 14.925 0.773003 16.245 1.2725C16.0311 1.72905 15.8841 2.21403 15.8085 2.7125C14.5942 2.2408 13.3027 1.99919 12 2C10.6568 2 9.372 2.252 8.1915 2.7125C8.1159 2.21403 7.96889 1.72905 7.755 1.2725C9.11171 0.76064 10.55 0.498911 12 0.500003Z" fill="#156FF7"/>
</g>
<defs>
<clipPath id="clip0_8506_49955">
<rect width="24" height="24" fill="white" transform="translate(0 0.5)"/>
</clipPath>
</defs>
</svg>
