<svg width="16" height="16" viewBox="0 0 16 16" fill="none" xmlns="http://www.w3.org/2000/svg">
<g clip-path="url(#clip0_9533_85988)">
<path d="M11.5995 3.89074C11.8855 3.60471 12.244 3.43529 12.6159 3.38249M12.6159 3.38249C13.1561 3.30577 13.7246 3.47519 14.1402 3.89074C14.8417 4.59232 14.8417 5.72981 14.1402 6.43139C13.5749 6.99668 12.7266 7.1065 12.0514 6.76086C11.7754 6.61958 11.4218 6.60913 11.2025 6.82837L6.82934 11.2016C6.6101 11.4208 6.62055 11.7744 6.76183 12.0504C7.10747 12.7256 6.99765 13.5739 6.43237 14.1392C5.73079 14.8408 4.5933 14.8408 3.89172 14.1392C3.47617 13.7236 3.30675 13.1552 3.38346 12.6149M12.6159 3.38249C12.6926 2.84224 12.5232 2.27377 12.1076 1.85822C11.406 1.15664 10.2686 1.15664 9.56698 1.85822C9.0017 2.4235 8.89187 3.27177 9.23752 3.94701C9.37879 4.22301 9.38925 4.5766 9.17001 4.79584L4.79682 9.16903C4.57758 9.38827 4.22398 9.37782 3.94798 9.23654C3.27275 8.8909 2.42448 9.00072 1.85919 9.566C1.15761 10.2676 1.15761 11.4051 1.85919 12.1067C2.27474 12.5222 2.84322 12.6916 3.38346 12.6149M4.39985 12.1067C4.11382 12.3927 3.75533 12.5621 3.38346 12.6149" stroke="#156FF7" stroke-width="1.4375" stroke-linecap="round" stroke-linejoin="round"/>
</g>
<defs>
<clipPath id="clip0_9533_85988">
<rect width="16" height="16" fill="white"/>
</clipPath>
</defs>
</svg>
