<svg width="23" height="22" viewBox="0 0 23 22" fill="none" xmlns="http://www.w3.org/2000/svg">
<rect x="1" y="0.5" width="21" height="21" rx="10.5" fill="white" stroke="#E2E8F0"/>
<path d="M12.023 14.7209C12.0929 14.7906 12.1484 14.8734 12.1862 14.9645C12.2241 15.0557 12.2436 15.1534 12.2436 15.2521C12.2436 15.3509 12.2241 15.4486 12.1862 15.5398C12.1484 15.6309 12.0929 15.7137 12.023 15.7834L11.6517 16.1546C10.9483 16.8581 9.99413 17.2533 8.99925 17.2533C8.00437 17.2533 7.05024 16.8581 6.34675 16.1546C5.64326 15.4512 5.24805 14.497 5.24805 13.5021C5.24805 12.5073 5.64326 11.5531 6.34675 10.8496L7.85425 9.34277C8.53018 8.66517 9.43961 8.27166 10.3963 8.24285C11.3529 8.21403 12.2844 8.55209 12.9999 9.18777C13.0737 9.25343 13.134 9.333 13.1771 9.42193C13.2202 9.51086 13.2454 9.60741 13.2512 9.70608C13.257 9.80474 13.2433 9.90358 13.2109 9.99695C13.1785 10.0903 13.128 10.1764 13.0624 10.2503C12.9967 10.3241 12.9171 10.3844 12.8282 10.4275C12.7393 10.4706 12.6427 10.4958 12.5441 10.5016C12.4454 10.5074 12.3466 10.4937 12.2532 10.4613C12.1598 10.4289 12.0737 10.3784 11.9999 10.3128C11.5708 9.93173 11.0124 9.72901 10.4388 9.74609C9.86524 9.76317 9.31987 9.99875 8.91425 10.4046L7.408 11.9096C6.98597 12.3317 6.74888 12.9041 6.74888 13.5009C6.74888 14.0977 6.98597 14.6701 7.408 15.0921C7.83002 15.5142 8.40241 15.7513 8.99925 15.7513C9.59608 15.7513 10.1685 15.5142 10.5905 15.0921L10.9617 14.7209C11.0314 14.6512 11.1141 14.5958 11.2052 14.5581C11.2962 14.5204 11.3938 14.5009 11.4924 14.5009C11.5909 14.5009 11.6885 14.5204 11.7796 14.5581C11.8706 14.5958 11.9533 14.6512 12.023 14.7209ZM16.653 5.8459C15.9489 5.14349 14.995 4.74902 14.0005 4.74902C13.006 4.74902 12.0521 5.14349 11.348 5.8459L10.9767 6.21715C10.8359 6.35804 10.7567 6.54914 10.7567 6.7484C10.7567 6.94765 10.8359 7.13875 10.9767 7.27965C11.1176 7.42054 11.3087 7.4997 11.508 7.4997C11.7073 7.4997 11.8984 7.42054 12.0392 7.27965L12.4105 6.9084C12.8325 6.48637 13.4049 6.24928 14.0017 6.24928C14.5986 6.24928 15.171 6.48637 15.593 6.9084C16.015 7.33042 16.2521 7.90281 16.2521 8.49965C16.2521 9.09648 16.015 9.66887 15.593 10.0909L14.0861 11.5984C13.6801 12.0041 13.1345 12.2394 12.5607 12.256C11.987 12.2726 11.4286 12.0693 10.9999 11.6878C10.926 11.6221 10.8399 11.5716 10.7466 11.5392C10.6532 11.5069 10.5543 11.4932 10.4557 11.499C10.357 11.5048 10.2605 11.53 10.1715 11.5731C10.0826 11.6162 10.003 11.6764 9.93737 11.7503C9.87171 11.8241 9.82124 11.9102 9.78885 12.0036C9.75646 12.097 9.74277 12.1958 9.74857 12.2945C9.75438 12.3931 9.77956 12.4897 9.82267 12.5786C9.86579 12.6675 9.926 12.7471 9.99987 12.8128C10.7149 13.4483 11.6457 13.7866 12.6019 13.7584C13.5581 13.7301 14.4674 13.3375 15.1436 12.6609L16.6511 11.154C17.3543 10.4501 17.7495 9.49595 17.7499 8.50097C17.7502 7.50599 17.3557 6.55153 16.653 5.84715V5.8459Z" fill="#64748B"/>
</svg>
