<svg width="16" height="16" viewBox="0 0 16 16" fill="none" xmlns="http://www.w3.org/2000/svg">
<g clip-path="url(#clip0_7413_5668)">
<g clip-path="url(#clip1_7413_5668)">
<path d="M8.00016 11.3333C8.18905 11.3333 8.3475 11.2693 8.4755 11.1413C8.6035 11.0133 8.66727 10.8551 8.66683 10.6666V7.98331C8.66683 7.79442 8.60283 7.63887 8.47483 7.51665C8.34683 7.39442 8.18861 7.33331 8.00016 7.33331C7.81127 7.33331 7.65283 7.39731 7.52483 7.52531C7.39683 7.65331 7.33305 7.81154 7.3335 7.99998V10.6833C7.3335 10.8722 7.3975 11.0278 7.5255 11.15C7.6535 11.2722 7.81172 11.3333 8.00016 11.3333ZM8.00016 5.99998C8.18905 5.99998 8.3475 5.93598 8.4755 5.80798C8.6035 5.67998 8.66727 5.52176 8.66683 5.33331C8.66683 5.14442 8.60283 4.98598 8.47483 4.85798C8.34683 4.72998 8.18861 4.6662 8.00016 4.66665C7.81127 4.66665 7.65283 4.73065 7.52483 4.85865C7.39683 4.98665 7.33305 5.14487 7.3335 5.33331C7.3335 5.5222 7.3975 5.68065 7.5255 5.80865C7.6535 5.93665 7.81172 6.00042 8.00016 5.99998ZM8.00016 14.6666C7.07794 14.6666 6.21127 14.4915 5.40016 14.1413C4.58905 13.7911 3.8835 13.3162 3.2835 12.7166C2.6835 12.1166 2.20861 11.4111 1.85883 10.6C1.50905 9.78887 1.33394 8.9222 1.3335 7.99998C1.3335 7.07776 1.50861 6.21109 1.85883 5.39998C2.20905 4.58887 2.68394 3.88331 3.2835 3.28331C3.8835 2.68331 4.58905 2.20842 5.40016 1.85865C6.21127 1.50887 7.07794 1.33376 8.00016 1.33331C8.92239 1.33331 9.78905 1.50842 10.6002 1.85865C11.4113 2.20887 12.1168 2.68376 12.7168 3.28331C13.3168 3.88331 13.7919 4.58887 14.1422 5.39998C14.4924 6.21109 14.6673 7.07776 14.6668 7.99998C14.6668 8.9222 14.4917 9.78887 14.1415 10.6C13.7913 11.4111 13.3164 12.1166 12.7168 12.7166C12.1168 13.3166 11.4113 13.7918 10.6002 14.142C9.78905 14.4922 8.92239 14.6671 8.00016 14.6666Z" fill="#FF820E"/>
</g>
</g>
<defs>
<clipPath id="clip0_7413_5668">
<rect width="16" height="16" fill="white"/>
</clipPath>
<clipPath id="clip1_7413_5668">
<rect width="16" height="16" fill="white"/>
</clipPath>
</defs>
</svg>
