<svg width="13" height="12" viewBox="0 0 13 12" fill="none" xmlns="http://www.w3.org/2000/svg">
<path fill-rule="evenodd" clip-rule="evenodd" d="M0.5 6C0.5 2.6862 3.1862 0 6.5 0C9.8138 0 12.5 2.6862 12.5 6C12.5 9.3138 9.8138 12 6.5 12C3.1862 12 0.5 9.3138 0.5 6ZM6.5 6.6C6.34087 6.6 6.18826 6.53679 6.07574 6.42426C5.96321 6.31174 5.9 6.15913 5.9 6V3.6C5.9 3.44087 5.96321 3.28826 6.07574 3.17574C6.18826 3.06321 6.34087 3 6.5 3C6.65913 3 6.81174 3.06321 6.92426 3.17574C7.03679 3.28826 7.1 3.44087 7.1 3.6V6C7.1 6.15913 7.03679 6.31174 6.92426 6.42426C6.81174 6.53679 6.65913 6.6 6.5 6.6ZM5.6 8.4C5.6 8.16131 5.69482 7.93239 5.8636 7.7636C6.03239 7.59482 6.26131 7.5 6.5 7.5H6.506C6.7447 7.5 6.97361 7.59482 7.1424 7.7636C7.31118 7.93239 7.406 8.16131 7.406 8.4V8.406C7.406 8.6447 7.31118 8.87361 7.1424 9.0424C6.97361 9.21118 6.7447 9.306 6.506 9.306H6.5C6.26131 9.306 6.03239 9.21118 5.8636 9.0424C5.69482 8.87361 5.6 8.6447 5.6 8.406V8.4Z" fill="#F59741"/>
</svg>
