<svg width="16" height="16" viewBox="0 0 16 16" fill="none" xmlns="http://www.w3.org/2000/svg">
<g clip-path="url(#clip0_2797_49673)">
<g clip-path="url(#clip1_2797_49673)">
<path d="M8.00016 11.3333C8.18905 11.3333 8.3475 11.2693 8.4755 11.1413C8.6035 11.0133 8.66727 10.855 8.66683 10.6666V7.98325C8.66683 7.79436 8.60283 7.63881 8.47483 7.51659C8.34683 7.39436 8.18861 7.33325 8.00016 7.33325C7.81127 7.33325 7.65283 7.39725 7.52483 7.52525C7.39683 7.65325 7.33305 7.81147 7.3335 7.99992V10.6833C7.3335 10.8721 7.3975 11.0277 7.5255 11.1499C7.6535 11.2721 7.81172 11.3333 8.00016 11.3333ZM8.00016 5.99992C8.18905 5.99992 8.3475 5.93592 8.4755 5.80792C8.6035 5.67992 8.66727 5.5217 8.66683 5.33325C8.66683 5.14436 8.60283 4.98592 8.47483 4.85792C8.34683 4.72992 8.18861 4.66614 8.00016 4.66659C7.81127 4.66659 7.65283 4.73059 7.52483 4.85859C7.39683 4.98659 7.33305 5.14481 7.3335 5.33325C7.3335 5.52214 7.3975 5.68059 7.5255 5.80859C7.6535 5.93659 7.81172 6.00036 8.00016 5.99992ZM8.00016 14.6666C7.07794 14.6666 6.21127 14.4915 5.40016 14.1413C4.58905 13.791 3.8835 13.3161 3.2835 12.7166C2.6835 12.1166 2.20861 11.411 1.85883 10.5999C1.50905 9.78881 1.33394 8.92214 1.3335 7.99992C1.3335 7.0777 1.50861 6.21103 1.85883 5.39992C2.20905 4.58881 2.68394 3.88325 3.2835 3.28325C3.8835 2.68325 4.58905 2.20836 5.40016 1.85859C6.21127 1.50881 7.07794 1.3337 8.00016 1.33325C8.92239 1.33325 9.78905 1.50836 10.6002 1.85859C11.4113 2.20881 12.1168 2.6837 12.7168 3.28325C13.3168 3.88325 13.7919 4.58881 14.1422 5.39992C14.4924 6.21103 14.6673 7.0777 14.6668 7.99992C14.6668 8.92214 14.4917 9.78881 14.1415 10.5999C13.7913 11.411 13.3164 12.1166 12.7168 12.7166C12.1168 13.3166 11.4113 13.7917 10.6002 14.1419C9.78905 14.4921 8.92239 14.667 8.00016 14.6666Z" fill="#156FF7"/>
</g>
</g>
<defs>
<clipPath id="clip0_2797_49673">
<rect width="16" height="16" fill="white"/>
</clipPath>
<clipPath id="clip1_2797_49673">
<rect width="16" height="16" fill="white"/>
</clipPath>
</defs>
</svg>
