<svg width="14" height="14" viewBox="0 0 14 14" fill="none" xmlns="http://www.w3.org/2000/svg">
<path d="M6.99992 0.333252C10.6819 0.333252 13.6666 3.31792 13.6666 6.99992C13.6666 10.6819 10.6819 13.6666 6.99992 13.6666C3.31792 13.6666 0.333252 10.6819 0.333252 6.99992C0.333252 3.31792 3.31792 0.333252 6.99992 0.333252ZM6.99992 1.66659C5.58543 1.66659 4.22888 2.22849 3.22868 3.22868C2.22849 4.22888 1.66659 5.58543 1.66659 6.99992C1.66659 8.41441 2.22849 9.77096 3.22868 10.7712C4.22888 11.7713 5.58543 12.3333 6.99992 12.3333C8.41441 12.3333 9.77096 11.7713 10.7712 10.7712C11.7713 9.77096 12.3333 8.41441 12.3333 6.99992C12.3333 5.58543 11.7713 4.22888 10.7712 3.22868C9.77096 2.22849 8.41441 1.66659 6.99992 1.66659ZM6.99992 8.99992C7.17673 8.99992 7.3463 9.07016 7.47132 9.19518C7.59635 9.3202 7.66658 9.48977 7.66658 9.66658C7.66658 9.8434 7.59635 10.013 7.47132 10.138C7.3463 10.263 7.17673 10.3333 6.99992 10.3333C6.82311 10.3333 6.65354 10.263 6.52851 10.138C6.40349 10.013 6.33325 9.8434 6.33325 9.66658C6.33325 9.48977 6.40349 9.3202 6.52851 9.19518C6.65354 9.07016 6.82311 8.99992 6.99992 8.99992ZM6.99992 2.99992C7.17673 2.99992 7.3463 3.07016 7.47132 3.19518C7.59635 3.3202 7.66658 3.48977 7.66658 3.66658V7.66658C7.66658 7.8434 7.59635 8.01297 7.47132 8.13799C7.3463 8.26301 7.17673 8.33325 6.99992 8.33325C6.82311 8.33325 6.65354 8.26301 6.52851 8.13799C6.40349 8.01297 6.33325 7.8434 6.33325 7.66658V3.66658C6.33325 3.48977 6.40349 3.3202 6.52851 3.19518C6.65354 3.07016 6.82311 2.99992 6.99992 2.99992Z" fill="#475569"/>
</svg>
