<svg width="16" height="16" viewBox="0 0 16 16" fill="none" xmlns="http://www.w3.org/2000/svg">
<g clip-path="url(#clip0_307_55018)">
<g clip-path="url(#clip1_307_55018)">
<path d="M7.99992 11.3335C8.18881 11.3335 8.34725 11.2695 8.47525 11.1415C8.60325 11.0135 8.66703 10.8553 8.66659 10.6668V7.9835C8.66659 7.79461 8.60259 7.63905 8.47459 7.51683C8.34659 7.39461 8.18836 7.3335 7.99992 7.3335C7.81103 7.3335 7.65259 7.3975 7.52459 7.5255C7.39659 7.6535 7.33281 7.81172 7.33325 8.00016V10.6835C7.33325 10.8724 7.39725 11.0279 7.52525 11.1502C7.65325 11.2724 7.81147 11.3335 7.99992 11.3335ZM7.99992 6.00016C8.18881 6.00016 8.34725 5.93616 8.47525 5.80816C8.60325 5.68016 8.66703 5.52194 8.66659 5.3335C8.66659 5.14461 8.60259 4.98616 8.47459 4.85816C8.34659 4.73016 8.18836 4.66639 7.99992 4.66683C7.81103 4.66683 7.65259 4.73083 7.52459 4.85883C7.39659 4.98683 7.33281 5.14505 7.33325 5.3335C7.33325 5.52239 7.39725 5.68083 7.52525 5.80883C7.65325 5.93683 7.81147 6.00061 7.99992 6.00016ZM7.99992 14.6668C7.0777 14.6668 6.21103 14.4917 5.39992 14.1415C4.58881 13.7913 3.88325 13.3164 3.28325 12.7168C2.68325 12.1168 2.20836 11.4113 1.85859 10.6002C1.50881 9.78905 1.3337 8.92239 1.33325 8.00016C1.33325 7.07794 1.50836 6.21127 1.85859 5.40016C2.20881 4.58905 2.6837 3.8835 3.28325 3.2835C3.88325 2.6835 4.58881 2.20861 5.39992 1.85883C6.21103 1.50905 7.0777 1.33394 7.99992 1.3335C8.92214 1.3335 9.78881 1.50861 10.5999 1.85883C11.411 2.20905 12.1166 2.68394 12.7166 3.2835C13.3166 3.8835 13.7917 4.58905 14.1419 5.40016C14.4921 6.21127 14.667 7.07794 14.6666 8.00016C14.6666 8.92239 14.4915 9.78905 14.1413 10.6002C13.791 11.4113 13.3161 12.1168 12.7166 12.7168C12.1166 13.3168 11.411 13.7919 10.5999 14.1422C9.78881 14.4924 8.92214 14.6673 7.99992 14.6668Z" fill="#64748B"/>
</g>
</g>
<defs>
<clipPath id="clip0_307_55018">
<rect width="16" height="16" fill="white"/>
</clipPath>
<clipPath id="clip1_307_55018">
<rect width="16" height="16" fill="white"/>
</clipPath>
</defs>
</svg>
