<svg width="16" height="16" viewBox="0 0 16 16" fill="none" xmlns="http://www.w3.org/2000/svg">
<path d="M3.79168 3H12.2089C12.3021 2.99999 12.3939 3.02087 12.477 3.06095C12.56 3.10102 12.6318 3.15915 12.6866 3.23057L14.9436 6.17206C14.9837 6.22439 15.0035 6.2883 14.9995 6.35288C14.9955 6.41747 14.968 6.47876 14.9217 6.52631L8.21701 13.4099C8.18937 13.4383 8.15581 13.461 8.11846 13.4765C8.08111 13.492 8.04078 13.5 8 13.5C7.95922 13.5 7.91889 13.492 7.88154 13.4765C7.84419 13.461 7.81063 13.4383 7.78299 13.4099L1.07826 6.52687C1.03196 6.47932 1.00449 6.41803 1.0005 6.35344C0.99652 6.28886 1.01628 6.22495 1.05641 6.17262L3.31395 3.23113C3.36874 3.15971 3.44059 3.10158 3.52362 3.06151C3.60665 3.02143 3.69851 2.99999 3.79168 3Z" fill="#F19100"/>
</svg>
