<svg width="20" height="21" viewBox="0 0 20 21" fill="none" xmlns="http://www.w3.org/2000/svg">
<rect x="0.416667" y="0.916667" width="19.1667" height="19.1667" rx="9.58333" fill="#F9F3E9"/>
<rect x="0.416667" y="0.916667" width="19.1667" height="19.1667" rx="9.58333" stroke="#F19100" stroke-width="0.833333"/>
<path d="M6.99406 6.75H13.0064C13.0729 6.74999 13.1385 6.76491 13.1978 6.79353C13.2571 6.82216 13.3085 6.86368 13.3476 6.91469L14.9597 9.01575C14.9884 9.05314 15.0025 9.09878 14.9996 9.14492C14.9968 9.19105 14.9772 9.23483 14.9441 9.26879L10.155 14.1857C10.1353 14.2059 10.1113 14.2221 10.0846 14.2332C10.0579 14.2443 10.0291 14.25 10 14.25C9.97087 14.25 9.94206 14.2443 9.91539 14.2332C9.88871 14.2221 9.86474 14.2059 9.84499 14.1857L5.0559 9.26919C5.02283 9.23523 5.0032 9.19145 5.00036 9.14532C4.99751 9.09918 5.01163 9.05354 5.04029 9.01615L6.65282 6.91509C6.69196 6.86408 6.74328 6.82256 6.80258 6.79393C6.86189 6.76531 6.9275 6.74999 6.99406 6.75Z" fill="#F19100"/>
</svg>
