<svg width="20" height="20" viewBox="0 0 20 20" fill="none" xmlns="http://www.w3.org/2000/svg">
<rect x="0.416667" y="0.416667" width="19.1667" height="19.1667" rx="9.58333" fill="#F9F3E9"/>
<rect x="0.416667" y="0.416667" width="19.1667" height="19.1667" rx="9.58333" stroke="#F19100" stroke-width="0.833333"/>
<path d="M6.99406 6.25H13.0064C13.0729 6.24999 13.1385 6.26491 13.1978 6.29353C13.2571 6.32216 13.3085 6.36368 13.3476 6.41469L14.9597 8.51575C14.9884 8.55314 15.0025 8.59878 14.9996 8.64492C14.9968 8.69105 14.9772 8.73483 14.9441 8.76879L10.155 13.6857C10.1353 13.7059 10.1113 13.7221 10.0846 13.7332C10.0579 13.7443 10.0291 13.75 10 13.75C9.97087 13.75 9.94206 13.7443 9.91539 13.7332C9.88871 13.7221 9.86474 13.7059 9.84499 13.6857L5.0559 8.76919C5.02283 8.73523 5.0032 8.69145 5.00036 8.64532C4.99751 8.59918 5.01163 8.55354 5.04029 8.51615L6.65282 6.41509C6.69196 6.36408 6.74328 6.32256 6.80258 6.29393C6.86189 6.26531 6.9275 6.24999 6.99406 6.25Z" fill="#F19100"/>
</svg>
