<svg width="216" height="233" viewBox="0 0 216 233" fill="none" xmlns="http://www.w3.org/2000/svg">
<g clip-path="url(#clip0_10643_31541)">
<path d="M161.656 104.867C174.761 104.867 185.385 94.312 185.385 81.2917C185.385 68.2714 174.761 57.7163 161.656 57.7163C148.551 57.7163 137.928 68.2714 137.928 81.2917C137.928 94.312 148.551 104.867 161.656 104.867Z" fill="#156FF7"/>
<path d="M215.849 95.7798C215.901 95.7705 215.94 95.7345 216 95.7436C215.973 95.6426 215.939 95.5437 215.897 95.448C215.822 95.5493 215.746 95.6527 215.679 95.7432L215.849 95.7798Z" fill="white"/>
<path d="M58.2043 133.639C58.3416 138.734 59.2006 143.784 60.7559 148.641C60.7914 148.754 60.8287 148.865 60.8659 148.978H70.388C70.3779 148.877 70.3677 148.764 70.3575 148.641C69.7226 141.389 66.0621 97.2512 70.4388 89.7031C70.0562 90.3155 57.4661 110.596 58.2043 133.639Z" fill="#64748B"/>
<path d="M58.9188 148.641C58.9984 148.754 59.0813 148.867 59.166 148.978H66.3093C66.2551 148.882 66.1925 148.769 66.1197 148.641C64.9396 146.525 61.4467 140.198 58.2043 133.639C54.7199 126.591 51.5233 119.275 51.7925 116.627C51.7095 117.224 49.2985 135.429 58.9188 148.641Z" fill="#64748B"/>
<path d="M133.148 149.854C133.028 154.296 132.279 158.699 130.923 162.933C130.892 163.032 130.86 163.128 130.827 163.227H122.526C122.535 163.139 122.543 163.04 122.552 162.933C123.106 156.611 126.297 118.131 122.481 111.55C122.815 112.084 133.791 129.765 133.148 149.854Z" fill="#64748B"/>
<path d="M132.525 162.933C132.455 163.032 132.383 163.13 132.309 163.227H126.082C126.129 163.143 126.183 163.045 126.247 162.933C127.276 161.088 130.321 155.573 133.148 149.854C136.185 143.709 138.972 137.331 138.738 135.023C138.81 135.544 140.912 151.415 132.525 162.933Z" fill="#64748B"/>
<path d="M39.3901 16.3773L47.9565 9.56994C41.3017 8.84046 38.5673 12.4465 37.4482 15.3007C32.2492 13.1558 26.5894 15.9668 26.5894 15.9668L43.7292 22.1491C42.8645 19.8544 41.3593 17.8523 39.3901 16.3773Z" fill="#156FF7"/>
<path d="M152.596 5.05335L158.703 0.200771C153.959 -0.319236 152.01 2.2513 151.212 4.28591C147.506 2.75691 143.471 4.76074 143.471 4.76074L155.689 9.16772C155.073 7.53199 154 6.10475 152.596 5.05335Z" fill="#156FF7"/>
<path d="M211.791 124.909C211.791 127.458 211.702 129.986 211.523 132.493C210.144 152.275 203.241 171.283 191.588 187.382C190.065 189.493 188.466 191.546 186.791 193.539C182.451 198.711 177.632 203.467 172.397 207.744L149.453 194.368L135.735 162.556C135.735 162.556 156.203 121.38 211.755 122.126C211.778 123.05 211.79 123.978 211.791 124.909Z" fill="#94A3B8"/>
<path d="M211.523 132.494C210.468 147.276 206.34 161.68 199.4 174.798C192.46 187.916 182.859 199.462 171.202 208.708L149.887 196.282L137.721 168.068C137.721 168.068 157.434 128.412 211.523 132.494Z" fill="#E4EDF6"/>
<path d="M191.588 187.382C190.065 189.493 188.466 191.546 186.791 193.539C175.567 206.938 161.225 217.416 145.007 224.068C141.723 225.413 138.362 226.6 134.923 227.627C110.096 234.187 83.7924 232.528 59.9991 222.9C36.4677 212.465 17.4519 194.036 6.36722 170.923C4.87754 167.812 3.53793 164.621 2.34839 161.352C23.0947 146.252 63.9749 124.629 108.53 145.64C120.854 151.452 131.859 156.749 141.544 161.533C166.121 173.637 182.477 182.363 191.588 187.382Z" fill="#94A3B8"/>
<path d="M186.791 193.539C175.188 207.355 160.275 218.049 143.423 224.639C126.572 231.229 108.322 233.503 90.3547 231.25C72.387 228.998 55.2779 222.293 40.6014 211.751C25.925 201.209 14.1526 187.169 6.36719 170.923C23.6938 157.31 63.6571 132.845 107.513 153.524C118.792 158.842 128.861 163.69 137.721 168.068C163.549 180.787 179.458 189.431 186.791 193.539Z" fill="#E4EDF6"/>
<path d="M156.209 218.703C152.581 220.702 148.841 222.493 145.007 224.068C131.96 229.41 117.983 232.15 103.872 232.133C87.1741 232.126 70.7051 228.274 55.7584 220.877C40.8118 213.481 27.7943 202.743 17.7285 189.506C43.5033 186.806 114.75 183.165 156.209 218.703Z" fill="#94A3B8"/>
<path d="M145.007 224.068C124.776 232.333 102.497 234.302 81.1154 229.714C59.734 225.126 40.2579 214.197 25.2632 198.374C34.6382 197.005 108.242 187.608 145.007 224.068Z" fill="#E4EDF6"/>
<path d="M193.69 65.4489V65.4522C116.63 8.84385 28.3419 48.6878 27.6599 48.9936V48.9904C37.667 39.049 49.5496 31.1666 62.6273 25.7947C75.705 20.4228 89.7208 17.667 103.872 17.6849C141.336 17.6849 174.341 36.653 193.69 65.4489Z" fill="#DBEAFE"/>
<path d="M33.8405 126.987C46.8765 124.652 53.5566 101.336 48.7609 74.9082C43.9653 48.4809 29.5098 28.9504 16.4739 31.2856C3.43788 33.6209 -3.24222 56.9375 1.55345 83.3648C6.34912 109.792 20.8045 129.323 33.8405 126.987Z" fill="#94A3B8"/>
<path d="M37.1905 157.851C36.4177 99.8036 16.8699 45.3296 16.6726 44.7866L14.8899 45.4255C15.0862 45.9659 34.5268 100.155 35.2955 157.877L37.1905 157.851Z" fill="#E4EDF6"/>
<path d="M2.50904 72.5699L1.92578 74.3618L25.3283 81.8814L25.9116 80.0895L2.50904 72.5699Z" fill="#E4EDF6"/>
<path d="M46.5312 70.5514L27.249 85.7239L28.4258 87.2002L47.708 72.0277L46.5312 70.5514Z" fill="#E4EDF6"/>
<path d="M96.5223 118.619C110.856 118.619 122.476 95.0629 122.476 66.0051C122.476 36.9472 110.856 13.3911 96.5223 13.3911C82.1888 13.3911 70.5691 36.9472 70.5691 66.0051C70.5691 95.0629 82.1888 118.619 96.5223 118.619Z" fill="#94A3B8"/>
<path d="M94.1257 152.125C104.52 90.1619 94.2304 28.4223 94.1252 27.8064L92.1033 28.1467C92.2079 28.7596 102.439 90.1749 92.1028 151.791L94.1257 152.125Z" fill="#E4EDF6"/>
<path d="M73.673 54.6913L72.7056 56.4883L96.1743 68.9605L97.1417 67.1635L73.673 54.6913Z" fill="#E4EDF6"/>
<path d="M120.943 60.9389L97.4773 73.4182L98.4452 75.2149L121.911 62.7356L120.943 60.9389Z" fill="#E4EDF6"/>
<path d="M209.255 101.695C199.733 96.3828 189.784 91.8636 179.511 88.183C122.708 67.7611 66.3815 75.6319 44.3342 104.859C61.4921 69.0537 122.715 57.7952 184.497 80.0064C191.688 82.5892 198.725 85.5761 205.574 88.9527C207.066 93.1198 208.296 97.3754 209.255 101.695Z" fill="#DBEAFE"/>
<path d="M136.237 50.0155L141.931 45.4901C137.507 45.0052 135.69 47.4024 134.946 49.2998C131.49 47.8739 127.727 49.7426 127.727 49.7426L139.121 53.8524C138.546 52.327 137.546 50.996 136.237 50.0155Z" fill="#156FF7"/>
</g>
<defs>
<clipPath id="clip0_10643_31541">
<rect width="216" height="232" fill="white" transform="translate(0 0.132812)"/>
</clipPath>
</defs>
</svg>
