<svg width="24" height="24" viewBox="0 0 24 24" fill="none" xmlns="http://www.w3.org/2000/svg">
<g clip-path="url(#clip0_9578_110363)">
<rect width="24" height="24" rx="12" fill="#DBEAFE"/>
<g clip-path="url(#clip1_9578_110363)">
<path d="M12 13.25C11.8229 13.25 11.6746 13.19 11.555 13.07C11.435 12.9504 11.375 12.8021 11.375 12.625C11.375 12.4479 11.435 12.2994 11.555 12.1794C11.6746 12.0598 11.8229 12 12 12C12.1771 12 12.3256 12.0598 12.4456 12.1794C12.5652 12.2994 12.625 12.4479 12.625 12.625C12.625 12.8021 12.5652 12.9504 12.4456 13.07C12.3256 13.19 12.1771 13.25 12 13.25ZM9.5 13.25C9.32292 13.25 9.17438 13.19 9.05438 13.07C8.93479 12.9504 8.875 12.8021 8.875 12.625C8.875 12.4479 8.93479 12.2994 9.05438 12.1794C9.17438 12.0598 9.32292 12 9.5 12C9.67708 12 9.82563 12.0598 9.94563 12.1794C10.0652 12.2994 10.125 12.4479 10.125 12.625C10.125 12.8021 10.0652 12.9504 9.94563 13.07C9.82563 13.19 9.67708 13.25 9.5 13.25ZM14.5 13.25C14.3229 13.25 14.1746 13.19 14.055 13.07C13.935 12.9504 13.875 12.8021 13.875 12.625C13.875 12.4479 13.935 12.2994 14.055 12.1794C14.1746 12.0598 14.3229 12 14.5 12C14.6771 12 14.8254 12.0598 14.945 12.1794C15.065 12.2994 15.125 12.4479 15.125 12.625C15.125 12.8021 15.065 12.9504 14.945 13.07C14.8254 13.19 14.6771 13.25 14.5 13.25ZM12 15.75C11.8229 15.75 11.6746 15.69 11.555 15.57C11.435 15.4504 11.375 15.3021 11.375 15.125C11.375 14.9479 11.435 14.7996 11.555 14.68C11.6746 14.56 11.8229 14.5 12 14.5C12.1771 14.5 12.3256 14.56 12.4456 14.68C12.5652 14.7996 12.625 14.9479 12.625 15.125C12.625 15.3021 12.5652 15.4504 12.4456 15.57C12.3256 15.69 12.1771 15.75 12 15.75ZM9.5 15.75C9.32292 15.75 9.17438 15.69 9.05438 15.57C8.93479 15.4504 8.875 15.3021 8.875 15.125C8.875 14.9479 8.93479 14.7996 9.05438 14.68C9.17438 14.56 9.32292 14.5 9.5 14.5C9.67708 14.5 9.82563 14.56 9.94563 14.68C10.0652 14.7996 10.125 14.9479 10.125 15.125C10.125 15.3021 10.0652 15.4504 9.94563 15.57C9.82563 15.69 9.67708 15.75 9.5 15.75ZM14.5 15.75C14.3229 15.75 14.1746 15.69 14.055 15.57C13.935 15.4504 13.875 15.3021 13.875 15.125C13.875 14.9479 13.935 14.7996 14.055 14.68C14.1746 14.56 14.3229 14.5 14.5 14.5C14.6771 14.5 14.8254 14.56 14.945 14.68C15.065 14.7996 15.125 14.9479 15.125 15.125C15.125 15.3021 15.065 15.4504 14.945 15.57C14.8254 15.69 14.6771 15.75 14.5 15.75ZM7.625 18.25C7.28125 18.25 6.98687 18.1277 6.74187 17.8831C6.49729 17.6381 6.375 17.3438 6.375 17V8.25C6.375 7.90625 6.49729 7.61208 6.74187 7.3675C6.98687 7.1225 7.28125 7 7.625 7H8.25V6.375C8.25 6.19792 8.30979 6.04937 8.42938 5.92937C8.54938 5.80979 8.69792 5.75 8.875 5.75C9.05208 5.75 9.20062 5.80979 9.32062 5.92937C9.44021 6.04937 9.5 6.19792 9.5 6.375V7H14.5V6.375C14.5 6.19792 14.56 6.04937 14.68 5.92937C14.7996 5.80979 14.9479 5.75 15.125 5.75C15.3021 5.75 15.4504 5.80979 15.57 5.92937C15.69 6.04937 15.75 6.19792 15.75 6.375V7H16.375C16.7188 7 17.0131 7.1225 17.2581 7.3675C17.5027 7.61208 17.625 7.90625 17.625 8.25V17C17.625 17.3438 17.5027 17.6381 17.2581 17.8831C17.0131 18.1277 16.7188 18.25 16.375 18.25H7.625ZM7.625 17H16.375V10.75H7.625V17Z" fill="white"/>
</g>
</g>
<defs>
<clipPath id="clip0_9578_110363">
<rect width="24" height="24" rx="3" fill="white"/>
</clipPath>
<clipPath id="clip1_9578_110363">
<rect width="15" height="15" fill="white" transform="translate(4.5 4.5)"/>
</clipPath>
</defs>
</svg>
