<svg width="20" height="20" viewBox="0 0 20 20" fill="none" xmlns="http://www.w3.org/2000/svg">
<path d="M14.1665 16.6666H18.3332V15C18.3331 14.4804 18.1712 13.9738 17.87 13.5505C17.5687 13.1272 17.143 12.8083 16.6521 12.6381C16.1612 12.4679 15.6295 12.4549 15.1309 12.6008C14.6323 12.7468 14.1915 13.0445 13.8698 13.4525M14.1665 16.6666H5.83317M14.1665 16.6666V15C14.1665 14.4533 14.0615 13.9308 13.8698 13.4525M13.8698 13.4525C13.5604 12.6791 13.0263 12.0162 12.3365 11.5492C11.6467 11.0823 10.8328 10.8327 9.99984 10.8327C9.16685 10.8327 8.35297 11.0823 7.66317 11.5492C6.97337 12.0162 6.4393 12.6791 6.12984 13.4525M5.83317 16.6666H1.6665V15C1.66654 14.4804 1.82845 13.9738 2.12972 13.5505C2.43099 13.1272 2.85666 12.8083 3.34755 12.6381C3.83843 12.4679 4.37015 12.4549 4.86879 12.6008C5.36742 12.7468 5.80819 13.0445 6.12984 13.4525M5.83317 16.6666V15C5.83317 14.4533 5.93817 13.9308 6.12984 13.4525M12.4998 5.83331C12.4998 6.49635 12.2364 7.13224 11.7676 7.60108C11.2988 8.06992 10.6629 8.33331 9.99984 8.33331C9.3368 8.33331 8.70091 8.06992 8.23207 7.60108C7.76323 7.13224 7.49984 6.49635 7.49984 5.83331C7.49984 5.17027 7.76323 4.53439 8.23207 4.06555C8.70091 3.59671 9.3368 3.33331 9.99984 3.33331C10.6629 3.33331 11.2988 3.59671 11.7676 4.06555C12.2364 4.53439 12.4998 5.17027 12.4998 5.83331ZM17.4998 8.33331C17.4998 8.77534 17.3242 9.19926 17.0117 9.51182C16.6991 9.82438 16.2752 9.99998 15.8332 9.99998C15.3911 9.99998 14.9672 9.82438 14.6547 9.51182C14.3421 9.19926 14.1665 8.77534 14.1665 8.33331C14.1665 7.89129 14.3421 7.46736 14.6547 7.1548C14.9672 6.84224 15.3911 6.66665 15.8332 6.66665C16.2752 6.66665 16.6991 6.84224 17.0117 7.1548C17.3242 7.46736 17.4998 7.89129 17.4998 8.33331ZM5.83317 8.33331C5.83317 8.77534 5.65758 9.19926 5.34502 9.51182C5.03245 9.82438 4.60853 9.99998 4.1665 9.99998C3.72448 9.99998 3.30055 9.82438 2.98799 9.51182C2.67543 9.19926 2.49984 8.77534 2.49984 8.33331C2.49984 7.89129 2.67543 7.46736 2.98799 7.1548C3.30055 6.84224 3.72448 6.66665 4.1665 6.66665C4.60853 6.66665 5.03245 6.84224 5.34502 7.1548C5.65758 7.46736 5.83317 7.89129 5.83317 8.33331Z" stroke="#64748B" stroke-width="1.2" stroke-linecap="round" stroke-linejoin="round"/>
</svg>
