<svg width="16" height="16" viewBox="0 0 16 16" fill="none" xmlns="http://www.w3.org/2000/svg">
<path d="M14 8C14 9.5913 13.3679 11.1174 12.2426 12.2426C11.1174 13.3679 9.5913 14 8 14M14 8C14 6.4087 13.3679 4.88258 12.2426 3.75736C11.1174 2.63214 9.5913 2 8 2M14 8H2M8 14C6.4087 14 4.88258 13.3679 3.75736 12.2426C2.63214 11.1174 2 9.5913 2 8M8 14C9.28867 14 10.3333 11.3133 10.3333 8C10.3333 4.68667 9.28867 2 8 2M8 14C6.71133 14 5.66667 11.3133 5.66667 8C5.66667 4.68667 6.71133 2 8 2M8 2C6.4087 2 4.88258 2.63214 3.75736 3.75736C2.63214 4.88258 2 6.4087 2 8" stroke="#64748B" stroke-width="1.2" stroke-linejoin="round"/>
</svg>
