<svg width="17" height="17" viewBox="0 0 17 17" fill="none" xmlns="http://www.w3.org/2000/svg">
<path d="M7.32116 7.32046C7.92591 6.71575 8.73996 6.36661 9.59491 6.34527C10.4499 6.32393 11.2803 6.63201 11.9145 7.20579L12.0352 7.32046L13.9205 9.20646C14.5345 9.82157 14.884 10.6522 14.8945 11.5212C14.9049 12.3903 14.5756 13.2291 13.9765 13.8588C13.3775 14.4885 12.5562 14.8594 11.6877 14.8923C10.8192 14.9253 9.97216 14.6177 9.32716 14.0351L9.20716 13.9205L7.79249 12.5058C7.67293 12.3858 7.60351 12.2248 7.59834 12.0555C7.59317 11.8862 7.65264 11.7213 7.76466 11.5943C7.87668 11.4672 8.03286 11.3876 8.20148 11.3715C8.37009 11.3555 8.5385 11.4042 8.67249 11.5078L8.73516 11.5631L10.1498 12.9778C10.5165 13.3466 11.0125 13.5581 11.5326 13.5674C12.0526 13.5766 12.5558 13.3829 12.9354 13.0273C13.315 12.6718 13.5412 12.1823 13.5659 11.6627C13.5906 11.1432 13.412 10.6345 13.0678 10.2445L12.9778 10.1491L11.0925 8.26379C10.9068 8.07804 10.6863 7.93069 10.4436 7.83016C10.2009 7.72963 9.94083 7.67789 9.67816 7.67789C9.41549 7.67789 9.15539 7.72963 8.91271 7.83016C8.67004 7.93069 8.44955 8.07804 8.26383 8.26379C8.13873 8.3888 7.9691 8.45899 7.79226 8.45893C7.61541 8.45886 7.44583 8.38855 7.32083 8.26346C7.19582 8.13836 7.12563 7.96874 7.12569 7.79189C7.12575 7.61504 7.19607 7.44546 7.32116 7.32046ZM3.07849 3.07779C3.68325 2.47308 4.49729 2.12394 5.35225 2.1026C6.2072 2.08126 7.03765 2.38934 7.67183 2.96312L7.79249 3.07779L9.20649 4.49312C9.32606 4.6131 9.39548 4.77408 9.40065 4.94338C9.40581 5.11268 9.34635 5.2776 9.23433 5.40464C9.1223 5.53169 8.96613 5.61133 8.79751 5.62739C8.6289 5.64345 8.46049 5.59473 8.32649 5.49113L8.26383 5.43579L6.84983 4.02179C6.48247 3.65683 5.98789 3.44858 5.47012 3.44084C4.95235 3.43311 4.45176 3.62649 4.07367 3.98032C3.69558 4.33414 3.46946 4.82082 3.44288 5.33796C3.4163 5.85511 3.59133 6.3624 3.93116 6.75313L4.02116 6.84913L5.90716 8.73512C6.28222 9.11007 6.79083 9.3207 7.32116 9.3207C7.85149 9.3207 8.3601 9.11007 8.73516 8.73512C8.79706 8.67318 8.87055 8.62404 8.95143 8.5905C9.03232 8.55697 9.11903 8.53969 9.20659 8.53966C9.29416 8.53963 9.38087 8.55684 9.46178 8.59032C9.54269 8.62381 9.61622 8.6729 9.67816 8.73479C9.7401 8.79669 9.78924 8.87018 9.82278 8.95107C9.85632 9.03195 9.8736 9.11866 9.87363 9.20622C9.87366 9.29379 9.85644 9.3805 9.82296 9.46141C9.78948 9.54233 9.74039 9.61585 9.67849 9.67779C9.07374 10.2825 8.25969 10.6316 7.40474 10.653C6.54979 10.6743 5.71933 10.3662 5.08516 9.79246L4.96383 9.67779L3.07849 7.79179C2.45359 7.1667 2.10254 6.31901 2.10254 5.43513C2.10254 4.55124 2.45359 3.70288 3.07849 3.07779Z" fill="#0F172A"/>
</svg>
