<svg width="15" height="14" viewBox="0 0 15 14" fill="none" xmlns="http://www.w3.org/2000/svg">
<g clip-path="url(#clip0_6846_131233)">
<path d="M7.72893 11.1669C7.80723 11.2449 7.86935 11.3376 7.91174 11.4397C7.95413 11.5418 7.97596 11.6512 7.97596 11.7618C7.97596 11.8723 7.95413 11.9818 7.91174 12.0839C7.86935 12.186 7.80723 12.2787 7.72893 12.3567L7.31319 12.7724C6.5254 13.5602 5.45693 14.0028 4.34282 14.0028C3.22872 14.0028 2.16025 13.5602 1.37246 12.7724C0.584666 11.9846 0.14209 10.9162 0.14209 9.80207C0.14209 8.68796 0.584666 7.61949 1.37246 6.8317L3.06061 5.14425C3.81754 4.38545 4.83595 3.94478 5.90725 3.91251C6.97855 3.88024 8.02164 4.25881 8.82287 4.97067C8.90559 5.0442 8.97302 5.1333 9.0213 5.23289C9.06959 5.33248 9.09779 5.4406 9.10429 5.55109C9.11078 5.66158 9.09546 5.77226 9.05918 5.87682C9.02291 5.98138 8.96639 6.07778 8.89286 6.1605C8.81933 6.24322 8.73023 6.31065 8.63064 6.35893C8.53105 6.40722 8.42293 6.43542 8.31244 6.44192C8.20196 6.44841 8.09127 6.43309 7.98671 6.39681C7.88215 6.36053 7.78575 6.30402 7.70303 6.23049C7.22257 5.80378 6.59722 5.57677 5.95491 5.5959C5.3126 5.61502 4.70186 5.87883 4.24764 6.33337L2.56088 8.01873C2.08828 8.49133 1.82278 9.13231 1.82278 9.80067C1.82278 10.469 2.08828 11.11 2.56088 11.5826C3.03348 12.0552 3.67447 12.3207 4.34282 12.3207C5.01118 12.3207 5.65216 12.0552 6.12476 11.5826L6.5405 11.1669C6.6185 11.0888 6.71113 11.0268 6.81309 10.9846C6.91505 10.9423 7.02434 10.9205 7.13472 10.9205C7.24509 10.9205 7.35438 10.9423 7.45634 10.9846C7.5583 11.0268 7.65093 11.0888 7.72893 11.1669ZM12.9138 1.22832C12.1253 0.44174 11.0571 0 9.94341 0C8.8297 0 7.76147 0.44174 6.97304 1.22832L6.5573 1.64406C6.39952 1.80184 6.31088 2.01584 6.31088 2.23897C6.31088 2.46211 6.39952 2.6761 6.5573 2.83388C6.71508 2.99167 6.92908 3.08031 7.15221 3.08031C7.37535 3.08031 7.58935 2.99167 7.74713 2.83388L8.16287 2.41814C8.63547 1.94554 9.27645 1.68004 9.94481 1.68004C10.6132 1.68004 11.2541 1.94554 11.7267 2.41814C12.1993 2.89074 12.4648 3.53173 12.4648 4.20008C12.4648 4.86844 12.1993 5.50943 11.7267 5.98203L10.0393 7.67018C9.58467 8.12453 8.97359 8.38796 8.33112 8.40657C7.68865 8.42517 7.06335 8.19754 6.5832 7.77026C6.50048 7.69673 6.40408 7.64022 6.29952 7.60394C6.19496 7.56766 6.08427 7.55234 5.97379 7.55884C5.8633 7.56534 5.75518 7.59353 5.65559 7.64182C5.556 7.69011 5.4669 7.75753 5.39337 7.84025C5.31984 7.92297 5.26332 8.01937 5.22705 8.12393C5.19077 8.22849 5.17544 8.33918 5.18194 8.44966C5.18844 8.56015 5.21664 8.66827 5.26492 8.76786C5.31321 8.86745 5.38064 8.95655 5.46336 9.03008C6.26403 9.74179 7.30642 10.1206 8.37722 10.089C9.44801 10.0574 10.4662 9.61771 11.2235 8.86001L12.9117 7.17255C13.6992 6.38431 14.1417 5.31579 14.1421 4.20157C14.1425 3.08735 13.7007 2.01852 12.9138 1.22972V1.22832Z" fill="#156FF7" stroke="white" stroke-width="0.4"/>
</g>
<defs>
<clipPath id="clip0_6846_131233">
<rect width="14" height="14" fill="white" transform="translate(0.14209)"/>
</clipPath>
</defs>
</svg>
