<svg width="12" height="15" viewBox="0 0 12 15" fill="none" xmlns="http://www.w3.org/2000/svg">
<path fill-rule="evenodd" clip-rule="evenodd" d="M2.04006 2.24002C3.09032 1.18976 4.51477 0.599731 6.00006 0.599731C7.48535 0.599731 8.9098 1.18976 9.96006 2.24002C11.0103 3.29027 11.6003 4.71473 11.6003 6.20002C11.6003 7.68531 11.0103 9.10976 9.96006 10.16L6.00006 14.12L2.04006 10.16C1.51999 9.64 1.10745 9.02264 0.825987 8.34318C0.544525 7.66372 0.399658 6.93547 0.399658 6.20002C0.399658 5.46457 0.544525 4.73632 0.825987 4.05686C1.10745 3.3774 1.51999 2.76003 2.04006 2.24002ZM6.00006 7.80002C6.42441 7.80002 6.83137 7.63144 7.13143 7.33139C7.43149 7.03133 7.60006 6.62436 7.60006 6.20002C7.60006 5.77567 7.43149 5.3687 7.13143 5.06865C6.83137 4.76859 6.42441 4.60002 6.00006 4.60002C5.57572 4.60002 5.16875 4.76859 4.86869 5.06865C4.56863 5.3687 4.40006 5.77567 4.40006 6.20002C4.40006 6.62436 4.56863 7.03133 4.86869 7.33139C5.16875 7.63144 5.57572 7.80002 6.00006 7.80002Z" fill="#94A3B8"/>
</svg>
