<svg width="16" height="16" viewBox="0 0 16 16" fill="none" xmlns="http://www.w3.org/2000/svg">
<path d="M8.00033 11.3346C8.35395 11.3346 8.69309 11.1942 8.94313 10.9441C9.19318 10.6941 9.33366 10.3549 9.33366 10.0013C9.33366 9.64768 9.19318 9.30854 8.94313 9.05849C8.69309 8.80844 8.35395 8.66797 8.00033 8.66797C7.6467 8.66797 7.30757 8.80844 7.05752 9.05849C6.80747 9.30854 6.66699 9.64768 6.66699 10.0013C6.66699 10.3549 6.80747 10.6941 7.05752 10.9441C7.30757 11.1942 7.6467 11.3346 8.00033 11.3346ZM12.0003 5.33464C12.3539 5.33464 12.6931 5.47511 12.9431 5.72516C13.1932 5.97521 13.3337 6.31435 13.3337 6.66797V13.3346C13.3337 13.6883 13.1932 14.0274 12.9431 14.2774C12.6931 14.5275 12.3539 14.668 12.0003 14.668H4.00033C3.6467 14.668 3.30756 14.5275 3.05752 14.2774C2.80747 14.0274 2.66699 13.6883 2.66699 13.3346V6.66797C2.66699 6.31435 2.80747 5.97521 3.05752 5.72516C3.30756 5.47511 3.6467 5.33464 4.00033 5.33464H4.66699V4.0013C4.66699 3.11725 5.01818 2.2694 5.6433 1.64428C6.26842 1.01916 7.11627 0.667969 8.00033 0.667969C8.43807 0.667969 8.87152 0.754188 9.27594 0.921704C9.68036 1.08922 10.0478 1.33475 10.3573 1.64428C10.6669 1.95381 10.9124 2.32127 11.0799 2.72569C11.2474 3.13011 11.3337 3.56356 11.3337 4.0013V5.33464H12.0003ZM8.00033 2.0013C7.46989 2.0013 6.96118 2.21202 6.58611 2.58709C6.21104 2.96216 6.00033 3.47087 6.00033 4.0013V5.33464H10.0003V4.0013C10.0003 3.47087 9.78961 2.96216 9.41454 2.58709C9.03947 2.21202 8.53076 2.0013 8.00033 2.0013Z" fill="#64748B"/>
</svg>
