<svg width="14" height="14" viewBox="0 0 14 14" fill="none" xmlns="http://www.w3.org/2000/svg">
<path d="M11.0833 6.41797H2.91667C2.27233 6.41797 1.75 6.9403 1.75 7.58464V11.668C1.75 12.3123 2.27233 12.8346 2.91667 12.8346H11.0833C11.7277 12.8346 12.25 12.3123 12.25 11.668V7.58464C12.25 6.9403 11.7277 6.41797 11.0833 6.41797Z" stroke="white" stroke-width="1.5" stroke-linecap="round" stroke-linejoin="round"/>
<path d="M4.08301 6.41797V4.08464C4.08301 3.31109 4.3903 2.56922 4.93728 2.02224C5.48426 1.47526 6.22613 1.16797 6.99967 1.16797C7.77322 1.16797 8.51509 1.47526 9.06207 2.02224C9.60905 2.56922 9.91634 3.31109 9.91634 4.08464V6.41797" stroke="white" stroke-width="1.5" stroke-linecap="round" stroke-linejoin="round"/>
</svg>
