<svg width="15" height="14" viewBox="0 0 15 14" fill="none" xmlns="http://www.w3.org/2000/svg">
<path d="M11.5833 6.41797H3.41667C2.77233 6.41797 2.25 6.9403 2.25 7.58464V11.668C2.25 12.3123 2.77233 12.8346 3.41667 12.8346H11.5833C12.2277 12.8346 12.75 12.3123 12.75 11.668V7.58464C12.75 6.9403 12.2277 6.41797 11.5833 6.41797Z" stroke="#1D4ED8" stroke-width="1.5" stroke-linecap="round" stroke-linejoin="round"/>
<path d="M4.58301 6.41797V4.08464C4.58301 3.31109 4.8903 2.56922 5.43728 2.02224C5.98426 1.47526 6.72613 1.16797 7.49967 1.16797C8.27322 1.16797 9.01509 1.47526 9.56207 2.02224C10.1091 2.56922 10.4163 3.31109 10.4163 4.08464V6.41797" stroke="#1D4ED8" stroke-width="1.5" stroke-linecap="round" stroke-linejoin="round"/>
</svg>
