<svg width="36" height="40" viewBox="0 0 36 40" fill="none" xmlns="http://www.w3.org/2000/svg">
<g clip-path="url(#clip0_982_52476)">
<path d="M9.09704 -19.5L0.816406 -24.3333V-34L9.09704 -38.8333M9.09704 -19.5V-29.5385L17.3777 -34M9.09704 -19.5L17.3777 -24.3333V-34M9.09704 -19.5L0.816406 -14.6667V-5L9.09704 -0.166671M9.09704 -19.5L17.3777 -14.6667M25.6583 -29.1667V-19.5M25.6583 -29.1667L17.3777 -34M25.6583 -29.1667L33.939 -34M25.6583 -19.5L17.3777 -14.6667M25.6583 -19.5L33.939 -14.6667M9.09704 -38.8333L0.816406 -43.6667V-53.3333L9.09704 -58.1667M9.09704 -38.8333L17.3777 -34M9.09704 -38.8333V-48.8718L17.3777 -53.3333M9.09704 -38.8333L17.3777 -43.6667V-53.3333M17.3777 -34L25.6583 -38.8333M25.6583 -48.5V-38.8333M25.6583 -48.5L17.3777 -53.3333M25.6583 -48.5L33.939 -53.3333M25.6583 -38.8333L33.939 -34M9.09704 -58.1667L0.816406 -63V-72.6667L9.09704 -77.5L17.3777 -72.6667M9.09704 -58.1667L17.3777 -53.3333M9.09704 -58.1667V-68.2051L17.3777 -72.6667M9.09704 -58.1667L17.3777 -63V-72.6667M17.3777 -53.3333L25.6583 -58.1667M25.6583 -67.8333V-58.1667M25.6583 -67.8333L17.3777 -72.6667M25.6583 -67.8333L33.939 -72.6667M25.6583 -58.1667L33.939 -53.3333M17.3777 -72.6667L25.6583 -77.5L33.939 -72.6667M50.5002 -24.3333L42.2196 -19.5M50.5002 -24.3333V-34M50.5002 -24.3333L58.7809 -19.5M42.2196 -19.5V-29.5385L33.939 -34M42.2196 -19.5L33.939 -24.3333V-34M42.2196 -19.5L50.5002 -14.6667M42.2196 -19.5L33.939 -14.6667M50.5002 -43.6667L42.2196 -38.8333M50.5002 -43.6667V-53.3333M50.5002 -43.6667L58.7809 -38.8333M42.2196 -38.8333L50.5002 -34M42.2196 -38.8333L33.939 -34M42.2196 -38.8333V-48.8718L33.939 -53.3333M42.2196 -38.8333L33.939 -43.6667V-53.3333M50.5002 -34L58.7809 -38.8333M50.5002 -63L42.2196 -58.1667M50.5002 -63V-72.6667M50.5002 -63L58.7809 -58.1667M42.2196 -58.1667L50.5002 -53.3333M42.2196 -58.1667L33.939 -53.3333M42.2196 -58.1667V-68.2051L33.939 -72.6667M42.2196 -58.1667L33.939 -63V-72.6667M50.5002 -53.3333L58.7809 -58.1667M50.5002 -72.6667L42.2196 -77.5L33.939 -72.6667M50.5002 -72.6667L58.7809 -77.5L67.0615 -72.6667M9.09704 38.5L0.816406 33.6667V24L9.09704 19.1667M9.09704 38.5V28.4615L17.3777 24M9.09704 38.5L17.3777 33.6667V24M25.6583 28.8333V38.5M25.6583 28.8333L17.3777 24M25.6583 28.8333L33.939 24M9.09704 19.1667L0.816406 14.3333V4.66667L9.09704 -0.166671M9.09704 19.1667L17.3777 24M9.09704 19.1667V9.1282L17.3777 4.66667M9.09704 19.1667L17.3777 14.3333V4.66667M17.3777 24L25.6583 19.1667M25.6583 9.5V19.1667M25.6583 9.5L17.3777 4.66667M25.6583 9.5L33.939 4.66667M25.6583 19.1667L33.939 24M9.09704 -0.166671L17.3777 4.66667M9.09704 -0.166671V-10.2051L17.3777 -14.6667M9.09704 -0.166671L17.3777 -5V-14.6667M17.3777 4.66667L25.6583 -0.166671M25.6583 -9.83333V-0.166671M25.6583 -9.83333L17.3777 -14.6667M25.6583 -9.83333L33.939 -14.6667M25.6583 -0.166671L33.939 4.66667M50.5002 33.6667L42.2196 38.5M50.5002 33.6667V24M50.5002 33.6667L58.7809 38.5M42.2196 38.5V28.4615L33.939 24M42.2196 38.5L33.939 33.6667V24M50.5002 14.3333L42.2196 19.1667M50.5002 14.3333V4.66667M50.5002 14.3333L58.7809 19.1667M42.2196 19.1667L50.5002 24M42.2196 19.1667L33.939 24M42.2196 19.1667V9.1282L33.939 4.66667M42.2196 19.1667L33.939 14.3333V4.66667M50.5002 24L58.7809 19.1667M50.5002 -5L42.2196 -0.166671M50.5002 -5V-14.6667M50.5002 -5L58.7809 -0.166671M42.2196 -0.166671L50.5002 4.66667M42.2196 -0.166671L33.939 4.66667M42.2196 -0.166671V-10.2051L33.939 -14.6667M42.2196 -0.166671L33.939 -5V-14.6667M50.5002 4.66667L58.7809 -0.166671M50.5002 -14.6667L58.7809 -19.5M58.7809 -19.5V-29.5385L67.0615 -34M58.7809 -19.5L67.0615 -24.3333V-34M58.7809 -19.5L67.0615 -14.6667M75.3421 -29.1667V-19.5M75.3421 -29.1667L67.0615 -34M75.3421 -29.1667L83.6228 -34M75.3421 -19.5L67.0615 -14.6667M75.3421 -19.5L83.6228 -14.6667M58.7809 -38.8333L67.0615 -34M58.7809 -38.8333V-48.8718L67.0615 -53.3333M58.7809 -38.8333L67.0615 -43.6667V-53.3333M67.0615 -34L75.3421 -38.8333M75.3421 -48.5V-38.8333M75.3421 -48.5L67.0615 -53.3333M75.3421 -48.5L83.6228 -53.3333M75.3421 -38.8333L83.6228 -34M58.7809 -58.1667L67.0615 -53.3333M58.7809 -58.1667V-68.2051L67.0615 -72.6667M58.7809 -58.1667L67.0615 -63V-72.6667M67.0615 -53.3333L75.3421 -58.1667M75.3421 -67.8333V-58.1667M75.3421 -67.8333L67.0615 -72.6667M75.3421 -67.8333L83.6228 -72.6667M75.3421 -58.1667L83.6228 -53.3333M67.0615 -72.6667L75.3421 -77.5L83.6228 -72.6667M91.9034 -19.5L100.184 -24.3333V-34L91.9034 -38.8333M91.9034 -19.5V-29.5385L83.6228 -34M91.9034 -19.5L83.6228 -24.3333V-34M91.9034 -19.5L100.184 -14.6667V-5L91.9034 -0.166671M91.9034 -19.5L83.6228 -14.6667M91.9034 -38.8333L100.184 -43.6667V-53.3333L91.9034 -58.1667M91.9034 -38.8333L83.6228 -34M91.9034 -38.8333V-48.8718L83.6228 -53.3333M91.9034 -38.8333L83.6228 -43.6667V-53.3333M91.9034 -58.1667L100.184 -63V-72.6667L91.9034 -77.5L83.6228 -72.6667M91.9034 -58.1667L83.6228 -53.3333M91.9034 -58.1667V-68.2051L83.6228 -72.6667M91.9034 -58.1667L83.6228 -63V-72.6667M58.7809 38.5V28.4615L67.0615 24M58.7809 38.5L67.0615 33.6667V24M75.3421 28.8333V38.5M75.3421 28.8333L67.0615 24M75.3421 28.8333L83.6228 24M58.7809 19.1667L67.0615 24M58.7809 19.1667V9.1282L67.0615 4.66667M58.7809 19.1667L67.0615 14.3333V4.66667M67.0615 24L75.3421 19.1667M75.3421 9.5V19.1667M75.3421 9.5L67.0615 4.66667M75.3421 9.5L83.6228 4.66667M75.3421 19.1667L83.6228 24M58.7809 -0.166671L67.0615 4.66667M58.7809 -0.166671V-10.2051L67.0615 -14.6667M58.7809 -0.166671L67.0615 -5V-14.6667M67.0615 4.66667L75.3421 -0.166671M75.3421 -9.83333V-0.166671M75.3421 -9.83333L67.0615 -14.6667M75.3421 -9.83333L83.6228 -14.6667M75.3421 -0.166671L83.6228 4.66667M91.9034 38.5L100.184 33.6667V24L91.9034 19.1667M91.9034 38.5V28.4615L83.6228 24M91.9034 38.5L83.6228 33.6667V24M91.9034 19.1667L100.184 14.3333V4.66667L91.9034 -0.166671M91.9034 19.1667L83.6228 24M91.9034 19.1667V9.1282L83.6228 4.66667M91.9034 19.1667L83.6228 14.3333V4.66667M91.9034 -0.166671L83.6228 4.66667M91.9034 -0.166671V-10.2051L83.6228 -14.6667M91.9034 -0.166671L83.6228 -5V-14.6667" stroke="#94A3B8" stroke-width="0.498692" stroke-linecap="round" stroke-linejoin="round"/>
<path d="M9.2832 9.24043L17.1985 4.97656L17.195 14.2407L9.2832 18.8471V9.24043Z" fill="#156FF7"/>
<path d="M34.1191 24.1797L42.1323 28.5677L42.0381 38.2568L34.1191 33.7864V24.1797Z" fill="#77FF85"/>
<path d="M17.7559 23.9893L25.6726 19.3711L33.5954 23.9966L25.6662 28.6106L17.7559 23.9893Z" fill="#DBEAFE"/>
</g>
<defs>
<clipPath id="clip0_982_52476">
<rect width="36" height="39" fill="white" transform="translate(0 0.5)"/>
</clipPath>
</defs>
</svg>
