<svg width="57" height="57" viewBox="0 0 57 57" fill="none" xmlns="http://www.w3.org/2000/svg">
<g clip-path="url(#clip0_988_58439)">
<circle cx="27.5626" cy="1.37292" r="1.54505" transform="rotate(-90 27.5626 1.37292)" fill="#CBD5E1"/>
<circle cx="1.54505" cy="1.54505" r="1.54505" transform="matrix(-0.173646 -0.984808 0.984807 -0.173651 26.5615 7.92578)" fill="#CBD5E1"/>
<circle cx="1.54505" cy="1.54505" r="1.54505" transform="matrix(-0.342016 -0.939694 0.939691 -0.342024 28.0625 12.7656)" fill="#93C5FD"/>
<circle cx="1.54505" cy="1.54505" r="1.54505" transform="matrix(-0.499995 -0.866028 0.866022 -0.500005 30.375 17.2734)" fill="#CBD5E1"/>
<circle cx="1.54505" cy="1.54505" r="1.54505" transform="matrix(-0.642782 -0.766049 0.76604 -0.642793 33.458 21.3242)" fill="#93C5FD"/>
<circle cx="1.54505" cy="1.54505" r="1.54505" transform="matrix(-0.76604 -0.642793 0.642782 -0.766049 37.2139 24.7891)" fill="#CBD5E1"/>
<circle cx="1.54505" cy="1.54505" r="1.54505" transform="matrix(-0.866022 -0.500005 0.499995 -0.866028 41.5303 27.5664)" fill="#30C593"/>
<circle cx="1.54505" cy="1.54505" r="1.54505" transform="matrix(-0.939691 -0.342024 0.342016 -0.939694 46.2803 29.5703)" fill="#156FF7"/>
<circle cx="1.54505" cy="1.54505" r="1.54505" transform="matrix(-0.984807 -0.173651 0.173646 -0.984808 51.3105 30.7578)" fill="#CBD5E1"/>
<circle cx="54.9276" cy="29.4901" r="1.54505" transform="rotate(180 54.9276 29.4901)" fill="#CBD5E1"/>
<circle cx="1.39055" cy="1.39055" r="1.39055" transform="matrix(0.0871546 -0.996195 0.996194 0.0871569 21.8594 0.410156)" fill="#CBD5E1"/>
<circle cx="1.39055" cy="1.39055" r="1.39055" transform="matrix(-0.0871545 -0.996195 0.996195 -0.0871569 22.1436 6.26953)" fill="#CBD5E1"/>
<circle cx="1.39055" cy="1.39055" r="1.39055" transform="matrix(-0.258816 -0.965926 0.965925 -0.258823 23.2803 11.8867)" fill="#93C5FD"/>
<circle cx="1.39055" cy="1.39055" r="1.39055" transform="matrix(-0.422613 -0.906309 0.906306 -0.422623 25.4043 17.2188)" fill="#30C593"/>
<circle cx="1.39055" cy="1.39055" r="1.39055" transform="matrix(-0.57357 -0.819155 0.819149 -0.573582 28.4453 22.1016)" fill="#CBD5E1"/>
<circle cx="1.39055" cy="1.39055" r="1.39055" transform="matrix(-0.707101 -0.707111 0.707103 -0.707113 32.3115 26.3945)" fill="#CBD5E1"/>
<circle cx="1.39055" cy="1.39055" r="1.39055" transform="matrix(-0.819147 -0.573581 0.573572 -0.819157 36.8867 29.9609)" fill="#156FF7"/>
<circle cx="1.39055" cy="1.39055" r="1.39055" transform="matrix(-0.906305 -0.422623 0.422614 -0.906311 42.0332 32.6953)" fill="#CBD5E1"/>
<circle cx="1.39055" cy="1.39055" r="1.39055" transform="matrix(-0.965924 -0.258822 0.258816 -0.965927 47.5918 34.5195)" fill="#CBD5E1"/>
<circle cx="1.39055" cy="1.39055" r="1.39055" transform="matrix(-0.996194 -0.0871569 0.0871546 -0.996195 53.3906 35.3711)" fill="#CBD5E1"/>
<circle cx="1.39055" cy="1.39055" r="1.39055" transform="matrix(-0.996195 0.0871569 -0.0871545 -0.996195 59.2627 35.2188)" fill="#CBD5E1"/>
<circle cx="19.1853" cy="1.59208" r="1.23604" transform="rotate(-90 19.1853 1.59208)" fill="#CBD5E1"/>
<circle cx="1.23604" cy="1.23604" r="1.23604" transform="matrix(-0.173646 -0.984808 0.984807 -0.173651 18.6494 9.19922)" fill="#CBD5E1"/>
<circle cx="1.23604" cy="1.23604" r="1.23604" transform="matrix(-0.342016 -0.939694 0.939691 -0.342024 20.4746 15.3633)" fill="#CBD5E1"/>
<ellipse cx="1.23604" cy="1.23604" rx="1.23604" ry="1.23604" transform="matrix(-0.499995 -0.866028 0.866022 -0.500005 23.3652 21.1133)" fill="#CBD5E1"/>
<circle cx="1.23604" cy="1.23604" r="1.23604" transform="matrix(-0.642782 -0.766049 0.76604 -0.642793 27.2432 26.293)" fill="#CBD5E1"/>
<circle cx="1.23604" cy="1.23604" r="1.23604" transform="matrix(-0.76604 -0.642793 0.642782 -0.766049 31.9824 30.7344)" fill="#CBD5E1"/>
<ellipse cx="1.23604" cy="1.23604" rx="1.23604" ry="1.23604" transform="matrix(-0.866022 -0.500005 0.499995 -0.866028 37.4355 34.3008)" fill="#CBD5E1"/>
<circle cx="1.23604" cy="1.23604" r="1.23604" transform="matrix(-0.939691 -0.342024 0.342016 -0.939694 43.4463 36.8945)" fill="#156FF7"/>
<circle cx="1.23604" cy="1.23604" r="1.23604" transform="matrix(-0.984807 -0.173651 0.173646 -0.984808 49.8262 38.4297)" fill="#CBD5E1"/>
<circle cx="55.1507" cy="37.6233" r="1.23604" transform="rotate(180 55.1507 37.6233)" fill="#CBD5E1"/>
<circle cx="1.08154" cy="1.08154" r="1.08154" transform="matrix(-0.0871545 -0.996195 0.996195 -0.0871569 13.4629 6.43359)" fill="#CBD5E1"/>
<circle cx="1.08154" cy="1.08154" r="1.08154" transform="matrix(-0.258816 -0.965926 0.965925 -0.258823 14.834 13.3945)" fill="#CBD5E1"/>
<circle cx="1.08154" cy="1.08154" r="1.08154" transform="matrix(-0.422613 -0.906309 0.906306 -0.422623 17.4189 20.0117)" fill="#CBD5E1"/>
<circle cx="1.08154" cy="1.08154" r="1.08154" transform="matrix(-0.57357 -0.819155 0.819149 -0.573582 21.1475 26.082)" fill="#CBD5E1"/>
<circle cx="1.08154" cy="1.08154" r="1.08154" transform="matrix(-0.707101 -0.707111 0.707103 -0.707113 25.8984 31.4297)" fill="#CBD5E1"/>
<circle cx="1.08154" cy="1.08154" r="1.08154" transform="matrix(-0.819147 -0.573581 0.573572 -0.819157 31.5371 35.8867)" fill="#CBD5E1"/>
<circle cx="1.08154" cy="1.08154" r="1.08154" transform="matrix(-0.906305 -0.422623 0.422614 -0.906311 37.8838 39.3086)" fill="#CBD5E1"/>
<circle cx="1.08154" cy="1.08154" r="1.08154" transform="matrix(-0.965924 -0.258822 0.258816 -0.965927 44.751 41.6094)" fill="#CBD5E1"/>
<circle cx="1.08154" cy="1.08154" r="1.08154" transform="matrix(-0.996194 -0.0871569 0.0871546 -0.996195 51.9316 42.7031)" fill="#CBD5E1"/>
<circle cx="1.08154" cy="1.08154" r="1.08154" transform="matrix(-0.996195 0.0871569 -0.0871545 -0.996195 59.2041 42.5664)" fill="#CBD5E1"/>
<circle cx="10.8421" cy="1.82688" r="0.927031" transform="rotate(-90 10.8421 1.82688)" fill="#CBD5E1"/>
<circle cx="0.927031" cy="0.927031" r="0.927031" transform="matrix(-0.173646 -0.984808 0.984807 -0.173651 10.7246 10.4883)" fill="#CBD5E1"/>
<circle cx="0.927031" cy="0.927031" r="0.927031" transform="matrix(-0.342016 -0.939694 0.939691 -0.342024 12.8975 17.9648)" fill="#CBD5E1"/>
<circle cx="0.927031" cy="0.927031" r="0.927031" transform="matrix(-0.499995 -0.866028 0.866022 -0.500005 16.3701 24.9609)" fill="#CBD5E1"/>
<circle cx="0.927031" cy="0.927031" r="0.927031" transform="matrix(-0.642782 -0.766049 0.76604 -0.642793 21.0352 31.2617)" fill="#CBD5E1"/>
<circle cx="0.927031" cy="0.927031" r="0.927031" transform="matrix(-0.76604 -0.642793 0.642782 -0.766049 26.7539 36.6797)" fill="#CBD5E1"/>
<circle cx="0.927031" cy="0.927031" r="0.927031" transform="matrix(-0.866022 -0.500005 0.499995 -0.866028 33.3506 41.043)" fill="#CBD5E1"/>
<circle cx="0.927031" cy="0.927031" r="0.927031" transform="matrix(-0.939691 -0.342024 0.342016 -0.939694 40.627 44.2227)" fill="#CBD5E1"/>
<circle cx="0.927031" cy="0.927031" r="0.927031" transform="matrix(-0.984807 -0.173651 0.173646 -0.984808 48.3516 46.125)" fill="#CBD5E1"/>
<circle cx="55.3786" cy="45.7683" r="0.927031" transform="rotate(180 55.3786 45.7683)" fill="#CBD5E1"/>
<circle cx="0.772526" cy="0.772526" r="0.772526" transform="matrix(-0.0871545 -0.996195 0.996195 -0.0871569 6.15039 7.52734)" fill="#CBD5E1"/>
<circle cx="0.772526" cy="0.772526" r="0.772526" transform="matrix(-0.258816 -0.965926 0.965925 -0.258823 7.74316 15.8359)" fill="#CBD5E1"/>
<circle cx="0.772526" cy="0.772526" r="0.772526" transform="matrix(-0.422613 -0.906309 0.906306 -0.422623 10.793 23.7383)" fill="#CBD5E1"/>
<circle cx="0.772526" cy="0.772526" r="0.772526" transform="matrix(-0.57357 -0.819155 0.819149 -0.573582 15.2041 31.0039)" fill="#CBD5E1"/>
<circle cx="0.772526" cy="0.772526" r="0.772526" transform="matrix(-0.707101 -0.707111 0.707103 -0.707113 20.8447 37.3984)" fill="#CBD5E1"/>
<circle cx="0.772526" cy="0.772526" r="0.772526" transform="matrix(-0.819147 -0.573581 0.573572 -0.819157 27.5439 42.7383)" fill="#CBD5E1"/>
<circle cx="0.772526" cy="0.772526" r="0.772526" transform="matrix(-0.906305 -0.422623 0.422614 -0.906311 35.0967 46.8516)" fill="#CBD5E1"/>
<circle cx="0.772526" cy="0.772526" r="0.772526" transform="matrix(-0.965924 -0.258822 0.258816 -0.965927 43.2734 49.6328)" fill="#CBD5E1"/>
<circle cx="0.772526" cy="0.772526" r="0.772526" transform="matrix(-0.996194 -0.0871569 0.0871546 -0.996195 51.8584 50.9727)" fill="#CBD5E1"/>
</g>
<defs>
<clipPath id="clip0_988_58439">
<rect width="57" height="57" fill="white"/>
</clipPath>
</defs>
</svg>
