<svg width="41" height="36" viewBox="0 0 41 36" fill="none" xmlns="http://www.w3.org/2000/svg">
<g clip-path="url(#clip0_982_52469)">
<path d="M38.723 -31.0621L35.1808 -27.5199M35.1808 -27.5199L36.3615 -26.3391L35.1808 -25.1584M35.1808 -27.5199L34 -28.7006L32.8192 -27.5199M35.1808 -25.1584L38.723 -21.6161L42.2653 -18.0738M35.1808 -25.1584L34 -23.9776L32.8192 -25.1584M32.8192 -25.1584L29.277 -21.6161L25.7347 -18.0738M32.8192 -25.1584L31.6385 -26.3391L32.8192 -27.5199M32.8192 -27.5199L29.277 -31.0621M25.7347 -18.0738L26.9155 -16.8931L25.7347 -15.7123M25.7347 -18.0738L24.554 -19.2546L23.3732 -18.0738M25.7347 -15.7123L29.277 -12.17L32.8192 -8.62778M25.7347 -15.7123L24.554 -14.5316L23.3732 -15.7123M23.3732 -15.7123L19.8309 -12.17L16.2887 -8.62778M23.3732 -15.7123L22.1924 -16.8931L23.3732 -18.0738M23.3732 -18.0738L19.8309 -21.6161M16.2887 -8.62778L17.4694 -7.44702L16.2887 -6.26626M16.2887 -8.62778L15.1079 -9.80853L13.9272 -8.62778M16.2887 -6.26626L19.8309 -2.724L23.3732 0.818269M16.2887 -6.26626L15.1079 -5.08551L13.9272 -6.26626M13.9272 -6.26626L10.3849 -2.724L6.84262 0.81827M13.9272 -6.26626L12.7464 -7.44702L13.9272 -8.62778M13.9272 -8.62778L10.3849 -12.17M6.84262 0.81827L8.02338 1.99903L6.84262 3.17978M6.84262 0.81827L5.66186 -0.362485L4.48111 0.818268M6.84262 3.17978L10.3849 6.72205L13.9272 10.2643M6.84262 3.17978L5.66187 4.36054L4.48111 3.17978M0.938844 6.72205L4.48111 3.17978M4.48111 3.17978L3.30035 1.99902L4.48111 0.818268M4.48111 0.818268L0.938843 -2.724M48.1691 -21.6161L44.6268 -18.0738M44.6268 -18.0738L45.8076 -16.8931L44.6268 -15.7123M44.6268 -18.0738L43.446 -19.2546L42.2653 -18.0738M44.6268 -15.7123L48.1691 -12.17L51.7113 -8.62777M44.6268 -15.7123L43.446 -14.5316L42.2653 -15.7123M42.2653 -15.7123L38.723 -12.17L35.1808 -8.62778M42.2653 -15.7123L41.0845 -16.8931L42.2653 -18.0738M35.1808 -8.62778L36.3615 -7.44702L35.1808 -6.26626M35.1808 -8.62778L34 -9.80853L32.8192 -8.62778M35.1808 -6.26626L38.723 -2.724L42.2653 0.818271M35.1808 -6.26626L34 -5.08551L32.8192 -6.26626M32.8192 -6.26626L29.277 -2.724L25.7347 0.81827M32.8192 -6.26626L31.6385 -7.44702L32.8192 -8.62778M25.7347 0.81827L26.9155 1.99903L25.7347 3.17978M25.7347 0.81827L24.554 -0.362487L23.3732 0.818269M25.7347 3.17978L29.277 6.72205L32.8192 10.2643M25.7347 3.17978L24.554 4.36054L23.3732 3.17978M23.3732 3.17978L19.8309 6.72205L16.2887 10.2643M23.3732 3.17978L22.1924 1.99902L23.3732 0.818269M16.2887 10.2643L17.4694 11.4451L16.2887 12.6258M16.2887 10.2643L15.1079 9.08356L13.9272 10.2643M16.2887 12.6258L19.8309 16.1681L23.3732 19.7104M16.2887 12.6258L15.1079 13.8066L13.9272 12.6258M10.3849 16.1681L13.9272 12.6258M13.9272 12.6258L12.7464 11.4451L13.9272 10.2643M57.6151 -12.17L54.0728 -8.62777M54.0728 -8.62777L55.2536 -7.44702L54.0728 -6.26626M54.0728 -8.62777L52.8921 -9.80853L51.7113 -8.62777M54.0728 -6.26626L57.6151 -2.724L61.1574 0.818272M54.0728 -6.26626L52.8921 -5.08551L51.7113 -6.26626M51.7113 -6.26626L48.1691 -2.724L44.6268 0.81827M51.7113 -6.26626L50.5306 -7.44702L51.7113 -8.62777M44.6268 0.81827L45.8076 1.99903L44.6268 3.17978M44.6268 0.81827L43.446 -0.362486L42.2653 0.818271M44.6268 3.17978L48.1691 6.72205L51.7113 10.2643M44.6268 3.17978L43.446 4.36054L42.2653 3.17978M42.2653 3.17978L38.723 6.72205L35.1808 10.2643M42.2653 3.17978L41.0845 1.99903L42.2653 0.818271M35.1808 10.2643L36.3615 11.4451L35.1808 12.6258M35.1808 10.2643L34 9.08356L32.8192 10.2643M35.1808 12.6258L38.723 16.1681L42.2653 19.7104M35.1808 12.6258L34 13.8066L32.8192 12.6258M32.8192 12.6258L29.277 16.1681L25.7347 19.7104M32.8192 12.6258L31.6385 11.4451L32.8192 10.2643M25.7347 19.7104L26.9155 20.8911L25.7347 22.0719M25.7347 19.7104L24.554 18.5296L23.3732 19.7104M25.7347 22.0719L29.277 25.6141L32.8192 29.1564M25.7347 22.0719L24.554 23.2526L23.3732 22.0719M19.8309 25.6141L23.3732 22.0719M23.3732 22.0719L22.1924 20.8911L23.3732 19.7104M67.0612 -2.72399L63.5189 0.818272M63.5189 0.818272L64.6997 1.99903L63.5189 3.17978M63.5189 0.818272L62.3381 -0.362483L61.1574 0.818272M63.5189 3.17978L67.0612 6.72205M63.5189 3.17978L62.3381 4.36054L61.1574 3.17978M61.1574 3.17978L57.6151 6.72205L54.0729 10.2643M61.1574 3.17978L59.9766 1.99903L61.1574 0.818272M54.0729 10.2643L55.2536 11.4451L54.0728 12.6258M54.0729 10.2643L52.8921 9.08356L51.7113 10.2643M54.0728 12.6258L57.6151 16.1681M54.0728 12.6258L52.8921 13.8066L51.7113 12.6258M51.7113 12.6258L48.1691 16.1681L44.6268 19.7104M51.7113 12.6258L50.5306 11.4451L51.7113 10.2643M44.6268 19.7104L45.8076 20.8911L44.6268 22.0719M44.6268 19.7104L43.446 18.5296L42.2653 19.7104M44.6268 22.0719L44.6989 22.1439M44.6268 22.0719L43.446 23.2526L42.2653 22.0719M42.2653 22.0719L38.723 25.6141L35.1808 29.1564M42.2653 22.0719L41.0845 20.8911L42.2653 19.7104M35.1808 29.1564L36.3615 30.3372L35.1808 31.5179M35.1808 29.1564L34 27.9757L32.8192 29.1564M35.1808 31.5179L35.2528 31.59M35.1808 31.5179L34 32.6987L32.8192 31.5179M29.277 35.0602L32.8192 31.5179M32.8192 31.5179L31.6385 30.3372L32.8192 29.1564" stroke="#94A3B8" stroke-width="0.5" stroke-linecap="round" stroke-linejoin="round"/>
<rect x="31.8398" y="11.4492" width="3.05825" height="3.05825" transform="rotate(-45 31.8398 11.4492)" fill="#156FF7"/>
<rect x="12.9414" y="11.4414" width="3.05825" height="3.05825" transform="rotate(-45 12.9414 11.4414)" fill="#77FF85"/>
</g>
<defs>
<clipPath id="clip0_982_52469">
<rect width="41" height="36" fill="white"/>
</clipPath>
</defs>
</svg>
