<svg width="62" height="47" viewBox="0 0 62 47" fill="none" xmlns="http://www.w3.org/2000/svg">
<g clip-path="url(#clip0_988_59095)">
<mask id="path-1-outside-1_988_59095" maskUnits="userSpaceOnUse" x="-0.5" y="-44.5" width="47" height="91" fill="black">
<rect fill="white" x="-0.5" y="-44.5" width="47" height="91"/>
<path d="M45.5 -17.2431C45.5 -17.758 45.1553 -18.189 44.689 -18.3233V-23.8549C45.1553 -23.9892 45.5 -24.4202 45.5 -24.9351C45.5 -25.45 45.1553 -25.881 44.689 -26.0153V-38.2277L41.9944 -40.6586C41.9981 -40.6922 42.0036 -40.7221 42.0036 -40.7557C42.0036 -41.3788 41.5041 -41.8844 40.8885 -41.8844C40.8535 -41.8844 40.8203 -41.8769 40.7871 -41.8732L39.6573 -43.3358L35.2651 -42.8843C35.0808 -43.2481 34.7103 -43.5 34.2772 -43.5C33.7851 -43.5 33.3722 -43.1754 33.2248 -42.7276L29.7781 -42.5504L14.8082 -34.9256L15.2192 -29.1981C14.8156 -29.0488 14.5225 -28.672 14.493 -28.2186L7.98679 -26.8175L0.505529 -4.2303L2.44819 -1.07552C2.33576 -0.948654 2.25097 -0.797536 2.20305 -0.627764L2.19568 -0.601645C2.17172 -0.512095 2.15697 -0.418814 2.15697 -0.319936C2.15697 -0.0251656 2.27125 0.239756 2.45187 0.439378L0.5 3.65013L4.69128 14.2917C4.54383 14.4503 4.44245 14.6499 4.40375 14.8719H4.38716L4.40375 14.8831C4.39453 14.9428 4.38532 15.0006 4.38532 15.0622C4.38532 15.6853 4.8848 16.1909 5.50041 16.1909C5.76951 16.1909 6.0128 16.0902 6.20449 15.9297L11.92 19.2524C11.8979 19.3401 11.8832 19.4297 11.8832 19.5248C11.8832 19.8364 12.0085 20.1181 12.2094 20.3214L10.5045 23.4016L18.8096 33.851L23.9704 36.2614C23.987 36.6998 24.2506 37.0729 24.6247 37.2446L24.7242 37.28C24.7777 37.2987 24.8311 37.3155 24.8864 37.3248L23.0046 41.1978L29.6417 44.6791H38.3505C38.4832 45.1511 38.909 45.5 39.4177 45.5C39.9264 45.5 40.3521 45.1511 40.4848 44.6791L40.4996 44.6306C40.5199 44.5467 40.5328 44.4608 40.5328 44.3713C40.5328 44.0728 40.4166 43.8041 40.2305 43.6027L44.114 36.7688C44.2006 36.7912 44.2891 36.8062 44.3831 36.8062C44.9987 36.8062 45.4982 36.3006 45.4982 35.6774C45.4982 35.1625 45.1535 34.7316 44.6872 34.5972V28.297C45.1535 28.1627 45.4982 27.7317 45.4982 27.2168C45.4982 26.7019 45.1535 26.2709 44.6872 26.1366V9.91306C45.1535 9.77873 45.4982 9.34777 45.4982 8.83286C45.4982 8.31795 45.1535 7.88698 44.6872 7.75266V-4.31798C45.1535 -4.45231 45.4982 -4.88327 45.4982 -5.39819C45.4982 -5.9131 45.1535 -6.34406 44.6872 -6.47839V-16.1648C45.1535 -16.2991 45.4982 -16.73 45.4982 -17.245L45.5 -17.2431ZM4.3374 -0.627764C4.32818 -0.661345 4.31896 -0.694926 4.3079 -0.726642L12.3808 -6.88696L22.0554 -14.2693C22.2065 -14.1536 22.3853 -14.0771 22.5825 -14.0529L24.4681 -1.34603C24.1732 -1.20984 23.9501 -0.948653 23.8598 -0.627764H4.3374ZM21.9374 -15.9651C21.7347 -15.7599 21.6094 -15.4782 21.6094 -15.1666C21.6094 -15.023 21.6388 -14.8868 21.6868 -14.7599L4.03144 -1.28633L15.4386 -27.0283C15.492 -27.0209 15.5436 -27.0115 15.5989 -27.0115C15.6874 -27.0115 15.7703 -27.0246 15.8533 -27.0433L17.9047 -23.3083L21.9393 -15.9633L21.9374 -15.9651ZM25.7066 13.3328L34.7177 18.5621C34.6956 18.6498 34.6808 18.7394 34.6808 18.8326C34.6808 19.1237 34.7914 19.3849 34.9702 19.5845L25.3417 35.1234C25.3048 35.114 25.268 35.1103 25.2311 35.1047V13.6051C25.4117 13.5529 25.5739 13.4596 25.7048 13.3309L25.7066 13.3328ZM37.8436 34.6551C37.5322 34.7987 37.2981 35.0823 37.2188 35.4293L26.1729 36.0002C26.1306 35.7782 26.0237 35.5823 25.8725 35.4274L35.4863 19.9128C35.5416 19.9296 35.5969 19.9408 35.654 19.9483L35.7222 20.4016L37.8436 34.6569V34.6551ZM26.0071 12.7973C26.0292 12.7096 26.0439 12.6201 26.0439 12.5268C26.0439 12.4335 26.0292 12.3402 26.0071 12.2507L25.9555 12.0847C25.8246 11.775 25.5592 11.5399 25.2348 11.4466V0.834891L34.9757 18.0024L26.0089 12.7973H26.0071ZM25.1076 -1.42999C25.0947 -1.43185 25.0818 -1.43185 25.0708 -1.43372L23.1852 -14.1405C23.5704 -14.3178 23.8395 -14.7096 23.8395 -15.1666C23.8395 -15.2525 23.8285 -15.3364 23.8101 -15.4166L32.0599 -19.9818L34.1648 -21.146C34.185 -21.1255 34.209 -21.1087 34.2293 -21.09L30.5006 -13.0566L25.1058 -1.43185L25.1076 -1.42999ZM43.5592 -17.9968L36.054 -21.7337C36.065 -21.799 36.0742 -21.8661 36.0742 -21.9352C36.0742 -21.9463 36.0706 -21.9557 36.0706 -21.9669L43.4523 -24.3176C43.5979 -24.0956 43.8191 -23.9314 44.0789 -23.8568V-18.3252C43.8762 -18.2673 43.6974 -18.1535 43.5592 -17.9987V-17.9968ZM33.8496 -21.9687C33.8496 -21.9575 33.8459 -21.9463 33.8459 -21.9352C33.8459 -21.8493 33.857 -21.7654 33.8754 -21.6852L32.7548 -21.0658L23.5188 -15.9558C23.3161 -16.1648 23.0359 -16.2935 22.7245 -16.2935C22.636 -16.2935 22.553 -16.2804 22.4701 -16.2618L18.0374 -24.3306L16.3841 -27.3418C16.4375 -27.3959 16.4855 -27.4556 16.5279 -27.519L25.2366 -24.728L33.8496 -21.9687ZM4.39085 -0.0121045H23.8617C23.9667 0.361022 24.2561 0.653926 24.6247 0.760267V11.4466C24.4478 11.497 24.2893 11.5884 24.1584 11.7134L5.66445 0.743474L4.39085 -0.0121045ZM6.60076 15.2096L23.4728 13.0249L13.7724 18.717C13.5715 18.5211 13.3005 18.398 12.9983 18.398C12.696 18.398 12.4214 18.5211 12.2205 18.7188L6.55099 15.4241C6.57311 15.3551 6.5897 15.2842 6.59891 15.2096H6.60076ZM39.4195 43.2444C39.1209 43.2444 38.8518 43.3639 38.6528 43.5579L26.7609 36.642L37.3478 36.2502C37.5414 36.5841 37.8952 36.8099 38.3063 36.8099C38.7449 36.8099 39.1209 36.5506 39.3034 36.1774L43.3306 36.0282C43.3841 36.1942 43.4707 36.3453 43.5887 36.4685L39.7126 43.2911C39.6186 43.265 39.5227 43.2482 39.4214 43.2482L39.4195 43.2444ZM43.3177 35.3733H39.3734C39.2536 34.9461 38.8924 34.6252 38.4482 34.5674L36.6456 22.4632L36.2585 19.8606C36.2917 19.8457 36.3231 19.8252 36.3562 19.8065L37.1488 20.5807L43.408 26.6926C43.3251 26.8511 43.2735 27.0284 43.2735 27.2205C43.2735 27.7354 43.6182 28.1664 44.0845 28.3007V34.601C43.7159 34.7073 43.4265 35.0002 43.3214 35.3733H43.3177ZM43.8283 26.2485L36.7765 19.3644C36.8594 19.2058 36.9129 19.0285 36.9129 18.8364C36.9129 18.6088 36.8447 18.398 36.7304 18.2207L38.2086 16.5006L43.9149 9.85709C43.9684 9.88321 44.0255 9.90186 44.0826 9.91865V26.1422C43.9923 26.1683 43.9075 26.2038 43.8283 26.2504V26.2485ZM43.2717 8.83472C43.2717 9.06233 43.3399 9.27315 43.4541 9.45038L36.2696 17.8159C36.1258 17.7469 35.9673 17.7058 35.7978 17.7058C35.7038 17.7058 35.6153 17.7207 35.5287 17.7431L25.7269 0.467362C25.9168 0.269605 26.0347 0.00282058 26.0421 -0.291949L43.4265 -4.82917C43.5702 -4.58104 43.8025 -4.39634 44.0808 -4.31612V7.75452C43.6145 7.88885 43.2698 8.31981 43.2698 8.83472H43.2717ZM43.2753 -5.42431L25.8909 -0.887087C25.8301 -0.993428 25.7527 -1.08671 25.6624 -1.16693L31.1217 -12.9297L34.7859 -20.8251C34.8449 -20.8158 34.9039 -20.8064 34.9647 -20.8064C35.2928 -20.8064 35.584 -20.952 35.7886 -21.1814L43.2938 -17.4446C43.2827 -17.3793 43.2735 -17.3121 43.2735 -17.2431C43.2735 -16.7282 43.6182 -16.2972 44.0845 -16.1629V-6.47652C43.6255 -6.34406 43.2882 -5.92616 43.2772 -5.42431H43.2753ZM44.0826 -37.9516V-26.0172C43.6163 -25.8828 43.2717 -25.4519 43.2717 -24.937C43.2717 -24.9258 43.2753 -24.9164 43.2753 -24.9052L35.8936 -22.5545C35.8088 -22.6833 35.7001 -22.7952 35.5711 -22.8792L39.2905 -34.9946L40.7189 -39.6456C40.7761 -39.6363 40.8314 -39.6288 40.8903 -39.6288C41.2405 -39.6288 41.5502 -39.7967 41.7548 -40.0523L44.0826 -37.9516ZM40.201 -41.6362C39.9448 -41.4291 39.7752 -41.1139 39.7752 -40.7557C39.7752 -40.3975 39.9264 -40.1139 40.1623 -39.9087L38.6675 -35.0394L34.9905 -23.062C34.9813 -23.062 34.972 -23.0639 34.9628 -23.0639C34.5739 -23.0639 34.233 -22.8624 34.0339 -22.5564L25.7453 -25.2131L16.7122 -28.1085C16.7122 -28.1197 16.7159 -28.1309 16.7159 -28.1421C16.7159 -28.2876 16.6864 -28.4238 16.6384 -28.5507L25.8357 -35.6084L33.5492 -41.528C33.7445 -41.3545 33.9989 -41.2445 34.2809 -41.2445C34.8651 -41.2445 35.3388 -41.7015 35.3868 -42.2799L39.39 -42.6903L40.2047 -41.6381L40.201 -41.6362ZM29.8739 -41.9385L33.1971 -42.1101C33.2026 -42.0877 33.21 -42.0672 33.2174 -42.0448L25.0763 -35.7968L16.268 -29.0376C16.139 -29.1365 15.9897 -29.2093 15.8256 -29.2447L15.4459 -34.5599L29.8721 -41.9403L29.8739 -41.9385ZM8.45126 -26.2858L14.6184 -27.6141C14.6866 -27.4854 14.775 -27.3735 14.8838 -27.2802L3.43058 -1.43185C3.37897 -1.43931 3.32552 -1.44864 3.27022 -1.44864C3.16332 -1.44864 3.06195 -1.42812 2.96426 -1.40014L1.17274 -4.30866L8.45126 -26.2858ZM2.96979 0.760267C3.06564 0.788252 3.16516 0.806908 3.27022 0.806908C3.56881 0.806908 3.83975 0.685641 4.04065 0.491616L4.79449 0.939366L23.8543 12.2451C23.8451 12.2824 23.8377 12.3197 23.8322 12.3589L6.51413 14.6014C6.33903 14.2115 5.95198 13.9372 5.50041 13.9372C5.40272 13.9372 5.31057 13.954 5.2221 13.9764L1.17827 3.70983L2.96979 0.762132V0.760267ZM11.2362 23.34L12.7421 20.6199C12.825 20.6404 12.9098 20.6535 13.0001 20.6535C13.6157 20.6535 14.1152 20.1479 14.1152 19.5248C14.1152 19.4297 14.1005 19.3382 14.0783 19.2487L24.1584 13.3346C24.2874 13.4615 24.4496 13.5529 24.6284 13.6051V35.1905C24.4146 35.2875 24.2395 35.4517 24.1234 35.6551L19.1967 33.3529L11.2381 23.34H11.2362ZM23.8137 40.9292L25.6274 37.1961C25.7619 37.1196 25.878 37.0151 25.9702 36.892L38.3044 44.0653H29.791L23.8137 40.9311V40.9292Z"/>
</mask>
<path d="M45.5 -17.2431C45.5 -17.758 45.1553 -18.189 44.689 -18.3233V-23.8549C45.1553 -23.9892 45.5 -24.4202 45.5 -24.9351C45.5 -25.45 45.1553 -25.881 44.689 -26.0153V-38.2277L41.9944 -40.6586C41.9981 -40.6922 42.0036 -40.7221 42.0036 -40.7557C42.0036 -41.3788 41.5041 -41.8844 40.8885 -41.8844C40.8535 -41.8844 40.8203 -41.8769 40.7871 -41.8732L39.6573 -43.3358L35.2651 -42.8843C35.0808 -43.2481 34.7103 -43.5 34.2772 -43.5C33.7851 -43.5 33.3722 -43.1754 33.2248 -42.7276L29.7781 -42.5504L14.8082 -34.9256L15.2192 -29.1981C14.8156 -29.0488 14.5225 -28.672 14.493 -28.2186L7.98679 -26.8175L0.505529 -4.2303L2.44819 -1.07552C2.33576 -0.948654 2.25097 -0.797536 2.20305 -0.627764L2.19568 -0.601645C2.17172 -0.512095 2.15697 -0.418814 2.15697 -0.319936C2.15697 -0.0251656 2.27125 0.239756 2.45187 0.439378L0.5 3.65013L4.69128 14.2917C4.54383 14.4503 4.44245 14.6499 4.40375 14.8719H4.38716L4.40375 14.8831C4.39453 14.9428 4.38532 15.0006 4.38532 15.0622C4.38532 15.6853 4.8848 16.1909 5.50041 16.1909C5.76951 16.1909 6.0128 16.0902 6.20449 15.9297L11.92 19.2524C11.8979 19.3401 11.8832 19.4297 11.8832 19.5248C11.8832 19.8364 12.0085 20.1181 12.2094 20.3214L10.5045 23.4016L18.8096 33.851L23.9704 36.2614C23.987 36.6998 24.2506 37.0729 24.6247 37.2446L24.7242 37.28C24.7777 37.2987 24.8311 37.3155 24.8864 37.3248L23.0046 41.1978L29.6417 44.6791H38.3505C38.4832 45.1511 38.909 45.5 39.4177 45.5C39.9264 45.5 40.3521 45.1511 40.4848 44.6791L40.4996 44.6306C40.5199 44.5467 40.5328 44.4608 40.5328 44.3713C40.5328 44.0728 40.4166 43.8041 40.2305 43.6027L44.114 36.7688C44.2006 36.7912 44.2891 36.8062 44.3831 36.8062C44.9987 36.8062 45.4982 36.3006 45.4982 35.6774C45.4982 35.1625 45.1535 34.7316 44.6872 34.5972V28.297C45.1535 28.1627 45.4982 27.7317 45.4982 27.2168C45.4982 26.7019 45.1535 26.2709 44.6872 26.1366V9.91306C45.1535 9.77873 45.4982 9.34777 45.4982 8.83286C45.4982 8.31795 45.1535 7.88698 44.6872 7.75266V-4.31798C45.1535 -4.45231 45.4982 -4.88327 45.4982 -5.39819C45.4982 -5.9131 45.1535 -6.34406 44.6872 -6.47839V-16.1648C45.1535 -16.2991 45.4982 -16.73 45.4982 -17.245L45.5 -17.2431ZM4.3374 -0.627764C4.32818 -0.661345 4.31896 -0.694926 4.3079 -0.726642L12.3808 -6.88696L22.0554 -14.2693C22.2065 -14.1536 22.3853 -14.0771 22.5825 -14.0529L24.4681 -1.34603C24.1732 -1.20984 23.9501 -0.948653 23.8598 -0.627764H4.3374ZM21.9374 -15.9651C21.7347 -15.7599 21.6094 -15.4782 21.6094 -15.1666C21.6094 -15.023 21.6388 -14.8868 21.6868 -14.7599L4.03144 -1.28633L15.4386 -27.0283C15.492 -27.0209 15.5436 -27.0115 15.5989 -27.0115C15.6874 -27.0115 15.7703 -27.0246 15.8533 -27.0433L17.9047 -23.3083L21.9393 -15.9633L21.9374 -15.9651ZM25.7066 13.3328L34.7177 18.5621C34.6956 18.6498 34.6808 18.7394 34.6808 18.8326C34.6808 19.1237 34.7914 19.3849 34.9702 19.5845L25.3417 35.1234C25.3048 35.114 25.268 35.1103 25.2311 35.1047V13.6051C25.4117 13.5529 25.5739 13.4596 25.7048 13.3309L25.7066 13.3328ZM37.8436 34.6551C37.5322 34.7987 37.2981 35.0823 37.2188 35.4293L26.1729 36.0002C26.1306 35.7782 26.0237 35.5823 25.8725 35.4274L35.4863 19.9128C35.5416 19.9296 35.5969 19.9408 35.654 19.9483L35.7222 20.4016L37.8436 34.6569V34.6551ZM26.0071 12.7973C26.0292 12.7096 26.0439 12.6201 26.0439 12.5268C26.0439 12.4335 26.0292 12.3402 26.0071 12.2507L25.9555 12.0847C25.8246 11.775 25.5592 11.5399 25.2348 11.4466V0.834891L34.9757 18.0024L26.0089 12.7973H26.0071ZM25.1076 -1.42999C25.0947 -1.43185 25.0818 -1.43185 25.0708 -1.43372L23.1852 -14.1405C23.5704 -14.3178 23.8395 -14.7096 23.8395 -15.1666C23.8395 -15.2525 23.8285 -15.3364 23.8101 -15.4166L32.0599 -19.9818L34.1648 -21.146C34.185 -21.1255 34.209 -21.1087 34.2293 -21.09L30.5006 -13.0566L25.1058 -1.43185L25.1076 -1.42999ZM43.5592 -17.9968L36.054 -21.7337C36.065 -21.799 36.0742 -21.8661 36.0742 -21.9352C36.0742 -21.9463 36.0706 -21.9557 36.0706 -21.9669L43.4523 -24.3176C43.5979 -24.0956 43.8191 -23.9314 44.0789 -23.8568V-18.3252C43.8762 -18.2673 43.6974 -18.1535 43.5592 -17.9987V-17.9968ZM33.8496 -21.9687C33.8496 -21.9575 33.8459 -21.9463 33.8459 -21.9352C33.8459 -21.8493 33.857 -21.7654 33.8754 -21.6852L32.7548 -21.0658L23.5188 -15.9558C23.3161 -16.1648 23.0359 -16.2935 22.7245 -16.2935C22.636 -16.2935 22.553 -16.2804 22.4701 -16.2618L18.0374 -24.3306L16.3841 -27.3418C16.4375 -27.3959 16.4855 -27.4556 16.5279 -27.519L25.2366 -24.728L33.8496 -21.9687ZM4.39085 -0.0121045H23.8617C23.9667 0.361022 24.2561 0.653926 24.6247 0.760267V11.4466C24.4478 11.497 24.2893 11.5884 24.1584 11.7134L5.66445 0.743474L4.39085 -0.0121045ZM6.60076 15.2096L23.4728 13.0249L13.7724 18.717C13.5715 18.5211 13.3005 18.398 12.9983 18.398C12.696 18.398 12.4214 18.5211 12.2205 18.7188L6.55099 15.4241C6.57311 15.3551 6.5897 15.2842 6.59891 15.2096H6.60076ZM39.4195 43.2444C39.1209 43.2444 38.8518 43.3639 38.6528 43.5579L26.7609 36.642L37.3478 36.2502C37.5414 36.5841 37.8952 36.8099 38.3063 36.8099C38.7449 36.8099 39.1209 36.5506 39.3034 36.1774L43.3306 36.0282C43.3841 36.1942 43.4707 36.3453 43.5887 36.4685L39.7126 43.2911C39.6186 43.265 39.5227 43.2482 39.4214 43.2482L39.4195 43.2444ZM43.3177 35.3733H39.3734C39.2536 34.9461 38.8924 34.6252 38.4482 34.5674L36.6456 22.4632L36.2585 19.8606C36.2917 19.8457 36.3231 19.8252 36.3562 19.8065L37.1488 20.5807L43.408 26.6926C43.3251 26.8511 43.2735 27.0284 43.2735 27.2205C43.2735 27.7354 43.6182 28.1664 44.0845 28.3007V34.601C43.7159 34.7073 43.4265 35.0002 43.3214 35.3733H43.3177ZM43.8283 26.2485L36.7765 19.3644C36.8594 19.2058 36.9129 19.0285 36.9129 18.8364C36.9129 18.6088 36.8447 18.398 36.7304 18.2207L38.2086 16.5006L43.9149 9.85709C43.9684 9.88321 44.0255 9.90186 44.0826 9.91865V26.1422C43.9923 26.1683 43.9075 26.2038 43.8283 26.2504V26.2485ZM43.2717 8.83472C43.2717 9.06233 43.3399 9.27315 43.4541 9.45038L36.2696 17.8159C36.1258 17.7469 35.9673 17.7058 35.7978 17.7058C35.7038 17.7058 35.6153 17.7207 35.5287 17.7431L25.7269 0.467362C25.9168 0.269605 26.0347 0.00282058 26.0421 -0.291949L43.4265 -4.82917C43.5702 -4.58104 43.8025 -4.39634 44.0808 -4.31612V7.75452C43.6145 7.88885 43.2698 8.31981 43.2698 8.83472H43.2717ZM43.2753 -5.42431L25.8909 -0.887087C25.8301 -0.993428 25.7527 -1.08671 25.6624 -1.16693L31.1217 -12.9297L34.7859 -20.8251C34.8449 -20.8158 34.9039 -20.8064 34.9647 -20.8064C35.2928 -20.8064 35.584 -20.952 35.7886 -21.1814L43.2938 -17.4446C43.2827 -17.3793 43.2735 -17.3121 43.2735 -17.2431C43.2735 -16.7282 43.6182 -16.2972 44.0845 -16.1629V-6.47652C43.6255 -6.34406 43.2882 -5.92616 43.2772 -5.42431H43.2753ZM44.0826 -37.9516V-26.0172C43.6163 -25.8828 43.2717 -25.4519 43.2717 -24.937C43.2717 -24.9258 43.2753 -24.9164 43.2753 -24.9052L35.8936 -22.5545C35.8088 -22.6833 35.7001 -22.7952 35.5711 -22.8792L39.2905 -34.9946L40.7189 -39.6456C40.7761 -39.6363 40.8314 -39.6288 40.8903 -39.6288C41.2405 -39.6288 41.5502 -39.7967 41.7548 -40.0523L44.0826 -37.9516ZM40.201 -41.6362C39.9448 -41.4291 39.7752 -41.1139 39.7752 -40.7557C39.7752 -40.3975 39.9264 -40.1139 40.1623 -39.9087L38.6675 -35.0394L34.9905 -23.062C34.9813 -23.062 34.972 -23.0639 34.9628 -23.0639C34.5739 -23.0639 34.233 -22.8624 34.0339 -22.5564L25.7453 -25.2131L16.7122 -28.1085C16.7122 -28.1197 16.7159 -28.1309 16.7159 -28.1421C16.7159 -28.2876 16.6864 -28.4238 16.6384 -28.5507L25.8357 -35.6084L33.5492 -41.528C33.7445 -41.3545 33.9989 -41.2445 34.2809 -41.2445C34.8651 -41.2445 35.3388 -41.7015 35.3868 -42.2799L39.39 -42.6903L40.2047 -41.6381L40.201 -41.6362ZM29.8739 -41.9385L33.1971 -42.1101C33.2026 -42.0877 33.21 -42.0672 33.2174 -42.0448L25.0763 -35.7968L16.268 -29.0376C16.139 -29.1365 15.9897 -29.2093 15.8256 -29.2447L15.4459 -34.5599L29.8721 -41.9403L29.8739 -41.9385ZM8.45126 -26.2858L14.6184 -27.6141C14.6866 -27.4854 14.775 -27.3735 14.8838 -27.2802L3.43058 -1.43185C3.37897 -1.43931 3.32552 -1.44864 3.27022 -1.44864C3.16332 -1.44864 3.06195 -1.42812 2.96426 -1.40014L1.17274 -4.30866L8.45126 -26.2858ZM2.96979 0.760267C3.06564 0.788252 3.16516 0.806908 3.27022 0.806908C3.56881 0.806908 3.83975 0.685641 4.04065 0.491616L4.79449 0.939366L23.8543 12.2451C23.8451 12.2824 23.8377 12.3197 23.8322 12.3589L6.51413 14.6014C6.33903 14.2115 5.95198 13.9372 5.50041 13.9372C5.40272 13.9372 5.31057 13.954 5.2221 13.9764L1.17827 3.70983L2.96979 0.762132V0.760267ZM11.2362 23.34L12.7421 20.6199C12.825 20.6404 12.9098 20.6535 13.0001 20.6535C13.6157 20.6535 14.1152 20.1479 14.1152 19.5248C14.1152 19.4297 14.1005 19.3382 14.0783 19.2487L24.1584 13.3346C24.2874 13.4615 24.4496 13.5529 24.6284 13.6051V35.1905C24.4146 35.2875 24.2395 35.4517 24.1234 35.6551L19.1967 33.3529L11.2381 23.34H11.2362ZM23.8137 40.9292L25.6274 37.1961C25.7619 37.1196 25.878 37.0151 25.9702 36.892L38.3044 44.0653H29.791L23.8137 40.9311V40.9292Z" fill="#CBD5E1"/>
<path d="M45.5 -17.2431C45.5 -17.758 45.1553 -18.189 44.689 -18.3233V-23.8549C45.1553 -23.9892 45.5 -24.4202 45.5 -24.9351C45.5 -25.45 45.1553 -25.881 44.689 -26.0153V-38.2277L41.9944 -40.6586C41.9981 -40.6922 42.0036 -40.7221 42.0036 -40.7557C42.0036 -41.3788 41.5041 -41.8844 40.8885 -41.8844C40.8535 -41.8844 40.8203 -41.8769 40.7871 -41.8732L39.6573 -43.3358L35.2651 -42.8843C35.0808 -43.2481 34.7103 -43.5 34.2772 -43.5C33.7851 -43.5 33.3722 -43.1754 33.2248 -42.7276L29.7781 -42.5504L14.8082 -34.9256L15.2192 -29.1981C14.8156 -29.0488 14.5225 -28.672 14.493 -28.2186L7.98679 -26.8175L0.505529 -4.2303L2.44819 -1.07552C2.33576 -0.948654 2.25097 -0.797536 2.20305 -0.627764L2.19568 -0.601645C2.17172 -0.512095 2.15697 -0.418814 2.15697 -0.319936C2.15697 -0.0251656 2.27125 0.239756 2.45187 0.439378L0.5 3.65013L4.69128 14.2917C4.54383 14.4503 4.44245 14.6499 4.40375 14.8719H4.38716L4.40375 14.8831C4.39453 14.9428 4.38532 15.0006 4.38532 15.0622C4.38532 15.6853 4.8848 16.1909 5.50041 16.1909C5.76951 16.1909 6.0128 16.0902 6.20449 15.9297L11.92 19.2524C11.8979 19.3401 11.8832 19.4297 11.8832 19.5248C11.8832 19.8364 12.0085 20.1181 12.2094 20.3214L10.5045 23.4016L18.8096 33.851L23.9704 36.2614C23.987 36.6998 24.2506 37.0729 24.6247 37.2446L24.7242 37.28C24.7777 37.2987 24.8311 37.3155 24.8864 37.3248L23.0046 41.1978L29.6417 44.6791H38.3505C38.4832 45.1511 38.909 45.5 39.4177 45.5C39.9264 45.5 40.3521 45.1511 40.4848 44.6791L40.4996 44.6306C40.5199 44.5467 40.5328 44.4608 40.5328 44.3713C40.5328 44.0728 40.4166 43.8041 40.2305 43.6027L44.114 36.7688C44.2006 36.7912 44.2891 36.8062 44.3831 36.8062C44.9987 36.8062 45.4982 36.3006 45.4982 35.6774C45.4982 35.1625 45.1535 34.7316 44.6872 34.5972V28.297C45.1535 28.1627 45.4982 27.7317 45.4982 27.2168C45.4982 26.7019 45.1535 26.2709 44.6872 26.1366V9.91306C45.1535 9.77873 45.4982 9.34777 45.4982 8.83286C45.4982 8.31795 45.1535 7.88698 44.6872 7.75266V-4.31798C45.1535 -4.45231 45.4982 -4.88327 45.4982 -5.39819C45.4982 -5.9131 45.1535 -6.34406 44.6872 -6.47839V-16.1648C45.1535 -16.2991 45.4982 -16.73 45.4982 -17.245L45.5 -17.2431ZM4.3374 -0.627764C4.32818 -0.661345 4.31896 -0.694926 4.3079 -0.726642L12.3808 -6.88696L22.0554 -14.2693C22.2065 -14.1536 22.3853 -14.0771 22.5825 -14.0529L24.4681 -1.34603C24.1732 -1.20984 23.9501 -0.948653 23.8598 -0.627764H4.3374ZM21.9374 -15.9651C21.7347 -15.7599 21.6094 -15.4782 21.6094 -15.1666C21.6094 -15.023 21.6388 -14.8868 21.6868 -14.7599L4.03144 -1.28633L15.4386 -27.0283C15.492 -27.0209 15.5436 -27.0115 15.5989 -27.0115C15.6874 -27.0115 15.7703 -27.0246 15.8533 -27.0433L17.9047 -23.3083L21.9393 -15.9633L21.9374 -15.9651ZM25.7066 13.3328L34.7177 18.5621C34.6956 18.6498 34.6808 18.7394 34.6808 18.8326C34.6808 19.1237 34.7914 19.3849 34.9702 19.5845L25.3417 35.1234C25.3048 35.114 25.268 35.1103 25.2311 35.1047V13.6051C25.4117 13.5529 25.5739 13.4596 25.7048 13.3309L25.7066 13.3328ZM37.8436 34.6551C37.5322 34.7987 37.2981 35.0823 37.2188 35.4293L26.1729 36.0002C26.1306 35.7782 26.0237 35.5823 25.8725 35.4274L35.4863 19.9128C35.5416 19.9296 35.5969 19.9408 35.654 19.9483L35.7222 20.4016L37.8436 34.6569V34.6551ZM26.0071 12.7973C26.0292 12.7096 26.0439 12.6201 26.0439 12.5268C26.0439 12.4335 26.0292 12.3402 26.0071 12.2507L25.9555 12.0847C25.8246 11.775 25.5592 11.5399 25.2348 11.4466V0.834891L34.9757 18.0024L26.0089 12.7973H26.0071ZM25.1076 -1.42999C25.0947 -1.43185 25.0818 -1.43185 25.0708 -1.43372L23.1852 -14.1405C23.5704 -14.3178 23.8395 -14.7096 23.8395 -15.1666C23.8395 -15.2525 23.8285 -15.3364 23.8101 -15.4166L32.0599 -19.9818L34.1648 -21.146C34.185 -21.1255 34.209 -21.1087 34.2293 -21.09L30.5006 -13.0566L25.1058 -1.43185L25.1076 -1.42999ZM43.5592 -17.9968L36.054 -21.7337C36.065 -21.799 36.0742 -21.8661 36.0742 -21.9352C36.0742 -21.9463 36.0706 -21.9557 36.0706 -21.9669L43.4523 -24.3176C43.5979 -24.0956 43.8191 -23.9314 44.0789 -23.8568V-18.3252C43.8762 -18.2673 43.6974 -18.1535 43.5592 -17.9987V-17.9968ZM33.8496 -21.9687C33.8496 -21.9575 33.8459 -21.9463 33.8459 -21.9352C33.8459 -21.8493 33.857 -21.7654 33.8754 -21.6852L32.7548 -21.0658L23.5188 -15.9558C23.3161 -16.1648 23.0359 -16.2935 22.7245 -16.2935C22.636 -16.2935 22.553 -16.2804 22.4701 -16.2618L18.0374 -24.3306L16.3841 -27.3418C16.4375 -27.3959 16.4855 -27.4556 16.5279 -27.519L25.2366 -24.728L33.8496 -21.9687ZM4.39085 -0.0121045H23.8617C23.9667 0.361022 24.2561 0.653926 24.6247 0.760267V11.4466C24.4478 11.497 24.2893 11.5884 24.1584 11.7134L5.66445 0.743474L4.39085 -0.0121045ZM6.60076 15.2096L23.4728 13.0249L13.7724 18.717C13.5715 18.5211 13.3005 18.398 12.9983 18.398C12.696 18.398 12.4214 18.5211 12.2205 18.7188L6.55099 15.4241C6.57311 15.3551 6.5897 15.2842 6.59891 15.2096H6.60076ZM39.4195 43.2444C39.1209 43.2444 38.8518 43.3639 38.6528 43.5579L26.7609 36.642L37.3478 36.2502C37.5414 36.5841 37.8952 36.8099 38.3063 36.8099C38.7449 36.8099 39.1209 36.5506 39.3034 36.1774L43.3306 36.0282C43.3841 36.1942 43.4707 36.3453 43.5887 36.4685L39.7126 43.2911C39.6186 43.265 39.5227 43.2482 39.4214 43.2482L39.4195 43.2444ZM43.3177 35.3733H39.3734C39.2536 34.9461 38.8924 34.6252 38.4482 34.5674L36.6456 22.4632L36.2585 19.8606C36.2917 19.8457 36.3231 19.8252 36.3562 19.8065L37.1488 20.5807L43.408 26.6926C43.3251 26.8511 43.2735 27.0284 43.2735 27.2205C43.2735 27.7354 43.6182 28.1664 44.0845 28.3007V34.601C43.7159 34.7073 43.4265 35.0002 43.3214 35.3733H43.3177ZM43.8283 26.2485L36.7765 19.3644C36.8594 19.2058 36.9129 19.0285 36.9129 18.8364C36.9129 18.6088 36.8447 18.398 36.7304 18.2207L38.2086 16.5006L43.9149 9.85709C43.9684 9.88321 44.0255 9.90186 44.0826 9.91865V26.1422C43.9923 26.1683 43.9075 26.2038 43.8283 26.2504V26.2485ZM43.2717 8.83472C43.2717 9.06233 43.3399 9.27315 43.4541 9.45038L36.2696 17.8159C36.1258 17.7469 35.9673 17.7058 35.7978 17.7058C35.7038 17.7058 35.6153 17.7207 35.5287 17.7431L25.7269 0.467362C25.9168 0.269605 26.0347 0.00282058 26.0421 -0.291949L43.4265 -4.82917C43.5702 -4.58104 43.8025 -4.39634 44.0808 -4.31612V7.75452C43.6145 7.88885 43.2698 8.31981 43.2698 8.83472H43.2717ZM43.2753 -5.42431L25.8909 -0.887087C25.8301 -0.993428 25.7527 -1.08671 25.6624 -1.16693L31.1217 -12.9297L34.7859 -20.8251C34.8449 -20.8158 34.9039 -20.8064 34.9647 -20.8064C35.2928 -20.8064 35.584 -20.952 35.7886 -21.1814L43.2938 -17.4446C43.2827 -17.3793 43.2735 -17.3121 43.2735 -17.2431C43.2735 -16.7282 43.6182 -16.2972 44.0845 -16.1629V-6.47652C43.6255 -6.34406 43.2882 -5.92616 43.2772 -5.42431H43.2753ZM44.0826 -37.9516V-26.0172C43.6163 -25.8828 43.2717 -25.4519 43.2717 -24.937C43.2717 -24.9258 43.2753 -24.9164 43.2753 -24.9052L35.8936 -22.5545C35.8088 -22.6833 35.7001 -22.7952 35.5711 -22.8792L39.2905 -34.9946L40.7189 -39.6456C40.7761 -39.6363 40.8314 -39.6288 40.8903 -39.6288C41.2405 -39.6288 41.5502 -39.7967 41.7548 -40.0523L44.0826 -37.9516ZM40.201 -41.6362C39.9448 -41.4291 39.7752 -41.1139 39.7752 -40.7557C39.7752 -40.3975 39.9264 -40.1139 40.1623 -39.9087L38.6675 -35.0394L34.9905 -23.062C34.9813 -23.062 34.972 -23.0639 34.9628 -23.0639C34.5739 -23.0639 34.233 -22.8624 34.0339 -22.5564L25.7453 -25.2131L16.7122 -28.1085C16.7122 -28.1197 16.7159 -28.1309 16.7159 -28.1421C16.7159 -28.2876 16.6864 -28.4238 16.6384 -28.5507L25.8357 -35.6084L33.5492 -41.528C33.7445 -41.3545 33.9989 -41.2445 34.2809 -41.2445C34.8651 -41.2445 35.3388 -41.7015 35.3868 -42.2799L39.39 -42.6903L40.2047 -41.6381L40.201 -41.6362ZM29.8739 -41.9385L33.1971 -42.1101C33.2026 -42.0877 33.21 -42.0672 33.2174 -42.0448L25.0763 -35.7968L16.268 -29.0376C16.139 -29.1365 15.9897 -29.2093 15.8256 -29.2447L15.4459 -34.5599L29.8721 -41.9403L29.8739 -41.9385ZM8.45126 -26.2858L14.6184 -27.6141C14.6866 -27.4854 14.775 -27.3735 14.8838 -27.2802L3.43058 -1.43185C3.37897 -1.43931 3.32552 -1.44864 3.27022 -1.44864C3.16332 -1.44864 3.06195 -1.42812 2.96426 -1.40014L1.17274 -4.30866L8.45126 -26.2858ZM2.96979 0.760267C3.06564 0.788252 3.16516 0.806908 3.27022 0.806908C3.56881 0.806908 3.83975 0.685641 4.04065 0.491616L4.79449 0.939366L23.8543 12.2451C23.8451 12.2824 23.8377 12.3197 23.8322 12.3589L6.51413 14.6014C6.33903 14.2115 5.95198 13.9372 5.50041 13.9372C5.40272 13.9372 5.31057 13.954 5.2221 13.9764L1.17827 3.70983L2.96979 0.762132V0.760267ZM11.2362 23.34L12.7421 20.6199C12.825 20.6404 12.9098 20.6535 13.0001 20.6535C13.6157 20.6535 14.1152 20.1479 14.1152 19.5248C14.1152 19.4297 14.1005 19.3382 14.0783 19.2487L24.1584 13.3346C24.2874 13.4615 24.4496 13.5529 24.6284 13.6051V35.1905C24.4146 35.2875 24.2395 35.4517 24.1234 35.6551L19.1967 33.3529L11.2381 23.34H11.2362ZM23.8137 40.9292L25.6274 37.1961C25.7619 37.1196 25.878 37.0151 25.9702 36.892L38.3044 44.0653H29.791L23.8137 40.9311V40.9292Z" stroke="#CBD5E1" stroke-width="0.2" mask="url(#path-1-outside-1_988_59095)"/>
<mask id="path-2-outside-2_988_59095" maskUnits="userSpaceOnUse" x="46.5" y="-44.5" width="47" height="91" fill="black">
<rect fill="white" x="46.5" y="-44.5" width="47" height="91"/>
<path d="M48.311 -16.1635V-6.4773C47.8447 -6.34297 47.5 -5.91202 47.5 -5.39712C47.5 -4.88221 47.8447 -4.45126 48.311 -4.31694V7.75345C47.8447 7.88777 47.5 8.31872 47.5 8.83363C47.5 9.34853 47.8447 9.77948 48.311 9.91381V26.137C47.8447 26.2713 47.5 26.7023 47.5 27.2172C47.5 27.7321 47.8447 28.163 48.311 28.2974V34.5975C47.8447 34.7318 47.5 35.1628 47.5 35.6777C47.5 36.3008 47.9995 36.8063 48.6151 36.8063C48.7091 36.8063 48.7976 36.7914 48.8842 36.769L52.7679 43.6027C52.5817 43.8042 52.4656 44.0728 52.4656 44.3713C52.4656 44.4609 52.4785 44.5467 52.4988 44.6306L52.5135 44.6791C52.6462 45.1511 53.072 45.5 53.5807 45.5C54.0895 45.5 54.5152 45.1511 54.648 44.6791H63.3571L69.9945 41.1979L68.1126 37.325C68.1679 37.3156 68.2213 37.2989 68.2748 37.2802L68.3743 37.2448C68.7485 37.0731 69.0102 36.7 69.0286 36.2616L74.1896 33.8512L82.4951 23.402L80.7901 20.322C80.991 20.1186 81.1164 19.8369 81.1164 19.5253C81.1164 19.4302 81.1016 19.3407 81.0795 19.253L86.7953 15.9303C86.987 16.0908 87.2303 16.1915 87.4994 16.1915C88.115 16.1915 88.6145 15.686 88.6145 15.0628C88.6145 15.0013 88.6053 14.9416 88.5961 14.8838L88.6127 14.8744H88.5961C88.5574 14.6487 88.456 14.4491 88.3086 14.2905L92.5 3.64914L90.548 0.438459C90.7305 0.236975 90.843 -0.027941 90.843 -0.320839C90.843 -0.41785 90.8264 -0.511129 90.8043 -0.602543L90.7969 -0.628661C90.749 -0.796564 90.666 -0.949545 90.5517 -1.07641L92.4945 -4.23112L85.0129 -26.816L78.5064 -28.2171C78.4769 -28.6704 78.1838 -29.0472 77.7802 -29.1965L78.1912 -34.9239L63.2225 -42.5504L59.7757 -42.7276C59.6283 -43.1754 59.2154 -43.5 58.7233 -43.5C58.292 -43.5 57.9215 -43.2481 57.7353 -42.8844L53.343 -43.3358L52.2131 -41.8732C52.1799 -41.8769 52.1467 -41.8844 52.1117 -41.8844C51.4961 -41.8844 50.9966 -41.3788 50.9966 -40.7557C50.9966 -40.7221 51.0039 -40.6904 51.0058 -40.6587L48.311 -38.2278V-26.0157C47.8447 -25.8813 47.5 -25.4504 47.5 -24.9355C47.5 -24.4206 47.8447 -23.9896 48.311 -23.8553V-18.3238C47.8447 -18.1895 47.5 -17.7585 47.5 -17.2436C47.5 -16.7287 47.8447 -16.2978 48.311 -16.1635ZM69.1374 -0.628661C69.0471 -0.949543 68.824 -1.21073 68.5291 -1.34692L70.4147 -14.0535C70.6119 -14.0796 70.7907 -14.1542 70.9419 -14.2699L80.6169 -6.88773L88.6901 -0.727537C88.6772 -0.695822 88.6698 -0.662242 88.6606 -0.628661H69.1355H69.1374ZM75.0946 -23.3105L77.1461 -27.0455C77.2272 -27.0268 77.312 -27.0137 77.4005 -27.0137C77.4558 -27.0137 77.5074 -27.0231 77.5608 -27.0305L88.9684 -1.28908L71.3124 -14.7624C71.3603 -14.8893 71.3898 -15.0254 71.3898 -15.1691C71.3898 -15.4807 71.2644 -15.7642 71.0617 -15.9676L75.0965 -23.3124L75.0946 -23.3105ZM67.766 13.604V35.103C67.7292 35.1086 67.6923 35.1142 67.6554 35.1217L58.0265 19.5832C58.2053 19.3836 58.3159 19.1205 58.3159 18.8313C58.3159 18.7381 58.3012 18.6467 58.2791 18.5608L67.2905 13.3316C67.4214 13.4603 67.5836 13.5536 67.7642 13.6058L67.766 13.604ZM57.2764 20.3966L57.3446 19.9432C57.4017 19.9358 57.457 19.9246 57.5123 19.9078L67.1264 35.4221C66.9753 35.5769 66.8702 35.7747 66.826 35.9948L55.7797 35.4239C55.7023 35.0788 55.4682 34.7952 55.1548 34.6497L57.2764 20.3947V20.3966ZM58.0247 17.9974L67.766 0.830232V11.4417C67.4416 11.535 67.1762 11.7701 67.0453 12.0798L66.9937 12.2458C66.9716 12.3353 66.9569 12.4268 66.9569 12.5219C66.9569 12.6171 66.9716 12.7066 66.9937 12.7924L58.0265 17.9974H58.0247ZM62.4963 -13.0591L58.7675 -21.0924C58.7896 -21.111 58.8117 -21.1278 58.832 -21.1483L60.937 -19.9842L69.1872 -15.4191C69.1687 -15.3389 69.1577 -15.2549 69.1577 -15.1691C69.1577 -14.712 69.4268 -14.3203 69.812 -14.143L67.9264 -1.43646C67.9135 -1.43646 67.9006 -1.43646 67.8895 -1.43273L62.4945 -13.0572L62.4963 -13.0591ZM48.9193 -18.3275V-23.859C49.1792 -23.9337 49.4003 -24.0978 49.546 -24.3198L56.928 -21.9692C56.928 -21.958 56.9243 -21.9487 56.9243 -21.9375C56.9243 -21.8684 56.9335 -21.8013 56.9446 -21.736L49.4391 -17.9992C49.3008 -18.154 49.122 -18.2678 48.9193 -18.3257V-18.3275ZM67.7642 -24.7321L76.4733 -27.5231C76.5157 -27.4596 76.5618 -27.3999 76.6171 -27.3458L74.9638 -24.3348L70.5308 -16.2661C70.4497 -16.2847 70.365 -16.2978 70.2765 -16.2978C69.965 -16.2978 69.6848 -16.1672 69.4821 -15.9601L60.2458 -21.07L59.1251 -21.6893C59.1435 -21.7696 59.1546 -21.8535 59.1546 -21.9393C59.1546 -21.9505 59.1509 -21.9617 59.1509 -21.9729L67.7642 -24.7321ZM87.3372 0.738819L68.8406 11.7085C68.7116 11.5835 68.5512 11.4921 68.3743 11.4417V0.755609C68.7429 0.64927 69.0323 0.356372 69.1374 -0.0167465H88.609L87.3353 0.738819H87.3372ZM86.4506 15.4192L80.7809 18.7138C80.58 18.5161 80.3054 18.3929 80.0031 18.3929C79.7008 18.3929 79.4298 18.5142 79.2289 18.7119L69.5281 13.02L86.4008 15.2046C86.4101 15.2793 86.4266 15.3501 86.4488 15.4192H86.4506ZM53.2895 43.2818L49.4133 36.4593C49.5312 36.3362 49.6178 36.187 49.6713 36.0191L53.6987 36.1683C53.8812 36.5414 54.2572 36.8007 54.6959 36.8007C55.1051 36.8007 55.4608 36.575 55.6543 36.2411L66.2417 36.6328L54.3494 43.5486C54.1503 43.3564 53.8812 43.2352 53.5826 43.2352C53.4812 43.2352 53.3854 43.2538 53.2913 43.2781L53.2895 43.2818ZM48.9193 34.5937V28.2936C49.3856 28.1593 49.7303 27.7284 49.7303 27.2135C49.7303 27.0213 49.6787 26.8441 49.5957 26.6855L55.8552 20.5738L56.6478 19.7996C56.6792 19.8182 56.7105 19.8369 56.7455 19.8537L56.3584 22.4562L54.5558 34.5602C54.1097 34.618 53.7503 34.9389 53.6305 35.3661H49.686C49.581 34.993 49.2916 34.7001 48.923 34.5937H48.9193ZM48.9193 26.1314V9.90821C48.9764 9.89142 49.0335 9.87277 49.087 9.84665L54.7936 16.49L56.2718 18.2101C56.1575 18.3873 56.0893 18.5981 56.0893 18.8257C56.0893 19.0179 56.1409 19.1951 56.2257 19.3537L49.1736 26.2377C49.0944 26.1911 49.0096 26.1557 48.9193 26.1295V26.1314ZM48.9193 7.74786V-4.32254C49.1976 -4.40276 49.4298 -4.58745 49.5736 -4.83557L66.9587 -0.29845C66.9661 -0.00368634 67.0841 0.263092 67.2739 0.460845L57.4717 17.7362C57.3851 17.7139 57.2966 17.6989 57.2026 17.6989C57.0331 17.6989 56.8745 17.74 56.7308 17.809L49.546 9.44368C49.6602 9.26645 49.7284 9.05563 49.7284 8.82803C49.7284 8.31313 49.3838 7.88218 48.9174 7.74786H48.9193ZM48.9193 -6.48289V-16.1691C49.3856 -16.3034 49.7303 -16.7343 49.7303 -17.2492C49.7303 -17.3183 49.7211 -17.3854 49.71 -17.4507L57.2155 -21.1875C57.4201 -20.9599 57.7114 -20.8125 58.0394 -20.8125C58.1003 -20.8125 58.1593 -20.8218 58.2182 -20.8312L61.8825 -12.936L67.3421 -1.17341C67.2518 -1.09319 67.1744 -0.999914 67.1135 -0.893575L49.7284 -5.4307C49.7155 -5.93441 49.3782 -6.35044 48.9211 -6.48289H48.9193ZM51.2472 -40.0561C51.4518 -39.8005 51.7615 -39.6326 52.1117 -39.6326C52.1707 -39.6326 52.2278 -39.642 52.2831 -39.6494L53.7116 -34.9985L57.4312 -22.8833C57.3022 -22.7975 57.1934 -22.6874 57.1086 -22.5587L49.7266 -24.9094C49.7266 -24.9206 49.7303 -24.9299 49.7303 -24.9411C49.7303 -25.456 49.3856 -25.8869 48.9193 -26.0213V-37.9517L51.2472 -40.0524V-40.0561ZM53.6158 -42.6941L57.6192 -42.2836C57.6671 -41.7053 58.1408 -41.2482 58.7251 -41.2482C59.0071 -41.2482 59.2615 -41.3564 59.4569 -41.5318L67.1707 -35.6123L76.3683 -28.5547C76.3185 -28.4279 76.2909 -28.2898 76.2909 -28.1462C76.2909 -28.135 76.2945 -28.1238 76.2945 -28.1126L67.261 -25.2172L58.9721 -22.5606C58.773 -22.8665 58.432 -23.068 58.0431 -23.068C58.0339 -23.068 58.0247 -23.0662 58.0155 -23.0662L54.3383 -35.0433L52.8435 -39.9125C53.0775 -40.1195 53.2305 -40.4199 53.2305 -40.7594C53.2305 -41.1176 53.0628 -41.4329 52.8047 -41.64L53.6194 -42.6922L53.6158 -42.6941ZM77.5571 -34.5657L77.1774 -29.2506C77.0134 -29.217 76.8641 -29.1424 76.7351 -29.0435L67.9264 -35.8026L59.785 -42.0448C59.7923 -42.0672 59.7997 -42.0877 59.8052 -42.1101L63.1285 -41.9385L77.5571 -34.5601V-34.5657ZM91.8291 -4.31321L90.0375 -1.40475C89.9398 -1.43273 89.8384 -1.45325 89.7315 -1.45325C89.6762 -1.45325 89.6246 -1.44393 89.5712 -1.43646L78.1156 -27.2843C78.2244 -27.3775 78.3147 -27.4895 78.3811 -27.6182L84.5484 -26.2899L91.8272 -4.31321H91.8291ZM91.8235 3.70511L87.7796 13.9715C87.6892 13.9472 87.5971 13.9323 87.5012 13.9323C87.0496 13.9323 86.6626 14.2047 86.4875 14.5964L69.1687 12.354C69.1632 12.3148 69.1558 12.2775 69.1466 12.2402L88.2072 0.934704L88.9611 0.486963C89.162 0.680985 89.4311 0.802249 89.7315 0.802249C89.8366 0.802249 89.9361 0.783593 90.032 0.755609L91.8235 3.70325V3.70511ZM73.8062 33.3494L68.8793 35.6515C68.7632 35.4482 68.5881 35.284 68.3743 35.187V13.6021C68.5531 13.5498 68.7134 13.4584 68.8443 13.3316L78.9248 19.2455C78.9027 19.3351 78.8879 19.4265 78.8879 19.5216C78.8879 20.1447 79.3874 20.6503 80.0031 20.6503C80.0915 20.6503 80.1782 20.6372 80.2611 20.6167L81.767 23.3368L73.8081 33.3494H73.8062ZM63.2078 44.0598H54.694L67.0288 36.8866C67.1209 37.0116 67.237 37.1142 67.3716 37.1906L69.1853 40.9237L63.2078 44.0579V44.0598Z"/>
</mask>
<path d="M48.311 -16.1635V-6.4773C47.8447 -6.34297 47.5 -5.91202 47.5 -5.39712C47.5 -4.88221 47.8447 -4.45126 48.311 -4.31694V7.75345C47.8447 7.88777 47.5 8.31872 47.5 8.83363C47.5 9.34853 47.8447 9.77948 48.311 9.91381V26.137C47.8447 26.2713 47.5 26.7023 47.5 27.2172C47.5 27.7321 47.8447 28.163 48.311 28.2974V34.5975C47.8447 34.7318 47.5 35.1628 47.5 35.6777C47.5 36.3008 47.9995 36.8063 48.6151 36.8063C48.7091 36.8063 48.7976 36.7914 48.8842 36.769L52.7679 43.6027C52.5817 43.8042 52.4656 44.0728 52.4656 44.3713C52.4656 44.4609 52.4785 44.5467 52.4988 44.6306L52.5135 44.6791C52.6462 45.1511 53.072 45.5 53.5807 45.5C54.0895 45.5 54.5152 45.1511 54.648 44.6791H63.3571L69.9945 41.1979L68.1126 37.325C68.1679 37.3156 68.2213 37.2989 68.2748 37.2802L68.3743 37.2448C68.7485 37.0731 69.0102 36.7 69.0286 36.2616L74.1896 33.8512L82.4951 23.402L80.7901 20.322C80.991 20.1186 81.1164 19.8369 81.1164 19.5253C81.1164 19.4302 81.1016 19.3407 81.0795 19.253L86.7953 15.9303C86.987 16.0908 87.2303 16.1915 87.4994 16.1915C88.115 16.1915 88.6145 15.686 88.6145 15.0628C88.6145 15.0013 88.6053 14.9416 88.5961 14.8838L88.6127 14.8744H88.5961C88.5574 14.6487 88.456 14.4491 88.3086 14.2905L92.5 3.64914L90.548 0.438459C90.7305 0.236975 90.843 -0.027941 90.843 -0.320839C90.843 -0.41785 90.8264 -0.511129 90.8043 -0.602543L90.7969 -0.628661C90.749 -0.796564 90.666 -0.949545 90.5517 -1.07641L92.4945 -4.23112L85.0129 -26.816L78.5064 -28.2171C78.4769 -28.6704 78.1838 -29.0472 77.7802 -29.1965L78.1912 -34.9239L63.2225 -42.5504L59.7757 -42.7276C59.6283 -43.1754 59.2154 -43.5 58.7233 -43.5C58.292 -43.5 57.9215 -43.2481 57.7353 -42.8844L53.343 -43.3358L52.2131 -41.8732C52.1799 -41.8769 52.1467 -41.8844 52.1117 -41.8844C51.4961 -41.8844 50.9966 -41.3788 50.9966 -40.7557C50.9966 -40.7221 51.0039 -40.6904 51.0058 -40.6587L48.311 -38.2278V-26.0157C47.8447 -25.8813 47.5 -25.4504 47.5 -24.9355C47.5 -24.4206 47.8447 -23.9896 48.311 -23.8553V-18.3238C47.8447 -18.1895 47.5 -17.7585 47.5 -17.2436C47.5 -16.7287 47.8447 -16.2978 48.311 -16.1635ZM69.1374 -0.628661C69.0471 -0.949543 68.824 -1.21073 68.5291 -1.34692L70.4147 -14.0535C70.6119 -14.0796 70.7907 -14.1542 70.9419 -14.2699L80.6169 -6.88773L88.6901 -0.727537C88.6772 -0.695822 88.6698 -0.662242 88.6606 -0.628661H69.1355H69.1374ZM75.0946 -23.3105L77.1461 -27.0455C77.2272 -27.0268 77.312 -27.0137 77.4005 -27.0137C77.4558 -27.0137 77.5074 -27.0231 77.5608 -27.0305L88.9684 -1.28908L71.3124 -14.7624C71.3603 -14.8893 71.3898 -15.0254 71.3898 -15.1691C71.3898 -15.4807 71.2644 -15.7642 71.0617 -15.9676L75.0965 -23.3124L75.0946 -23.3105ZM67.766 13.604V35.103C67.7292 35.1086 67.6923 35.1142 67.6554 35.1217L58.0265 19.5832C58.2053 19.3836 58.3159 19.1205 58.3159 18.8313C58.3159 18.7381 58.3012 18.6467 58.2791 18.5608L67.2905 13.3316C67.4214 13.4603 67.5836 13.5536 67.7642 13.6058L67.766 13.604ZM57.2764 20.3966L57.3446 19.9432C57.4017 19.9358 57.457 19.9246 57.5123 19.9078L67.1264 35.4221C66.9753 35.5769 66.8702 35.7747 66.826 35.9948L55.7797 35.4239C55.7023 35.0788 55.4682 34.7952 55.1548 34.6497L57.2764 20.3947V20.3966ZM58.0247 17.9974L67.766 0.830232V11.4417C67.4416 11.535 67.1762 11.7701 67.0453 12.0798L66.9937 12.2458C66.9716 12.3353 66.9569 12.4268 66.9569 12.5219C66.9569 12.6171 66.9716 12.7066 66.9937 12.7924L58.0265 17.9974H58.0247ZM62.4963 -13.0591L58.7675 -21.0924C58.7896 -21.111 58.8117 -21.1278 58.832 -21.1483L60.937 -19.9842L69.1872 -15.4191C69.1687 -15.3389 69.1577 -15.2549 69.1577 -15.1691C69.1577 -14.712 69.4268 -14.3203 69.812 -14.143L67.9264 -1.43646C67.9135 -1.43646 67.9006 -1.43646 67.8895 -1.43273L62.4945 -13.0572L62.4963 -13.0591ZM48.9193 -18.3275V-23.859C49.1792 -23.9337 49.4003 -24.0978 49.546 -24.3198L56.928 -21.9692C56.928 -21.958 56.9243 -21.9487 56.9243 -21.9375C56.9243 -21.8684 56.9335 -21.8013 56.9446 -21.736L49.4391 -17.9992C49.3008 -18.154 49.122 -18.2678 48.9193 -18.3257V-18.3275ZM67.7642 -24.7321L76.4733 -27.5231C76.5157 -27.4596 76.5618 -27.3999 76.6171 -27.3458L74.9638 -24.3348L70.5308 -16.2661C70.4497 -16.2847 70.365 -16.2978 70.2765 -16.2978C69.965 -16.2978 69.6848 -16.1672 69.4821 -15.9601L60.2458 -21.07L59.1251 -21.6893C59.1435 -21.7696 59.1546 -21.8535 59.1546 -21.9393C59.1546 -21.9505 59.1509 -21.9617 59.1509 -21.9729L67.7642 -24.7321ZM87.3372 0.738819L68.8406 11.7085C68.7116 11.5835 68.5512 11.4921 68.3743 11.4417V0.755609C68.7429 0.64927 69.0323 0.356372 69.1374 -0.0167465H88.609L87.3353 0.738819H87.3372ZM86.4506 15.4192L80.7809 18.7138C80.58 18.5161 80.3054 18.3929 80.0031 18.3929C79.7008 18.3929 79.4298 18.5142 79.2289 18.7119L69.5281 13.02L86.4008 15.2046C86.4101 15.2793 86.4266 15.3501 86.4488 15.4192H86.4506ZM53.2895 43.2818L49.4133 36.4593C49.5312 36.3362 49.6178 36.187 49.6713 36.0191L53.6987 36.1683C53.8812 36.5414 54.2572 36.8007 54.6959 36.8007C55.1051 36.8007 55.4608 36.575 55.6543 36.2411L66.2417 36.6328L54.3494 43.5486C54.1503 43.3564 53.8812 43.2352 53.5826 43.2352C53.4812 43.2352 53.3854 43.2538 53.2913 43.2781L53.2895 43.2818ZM48.9193 34.5937V28.2936C49.3856 28.1593 49.7303 27.7284 49.7303 27.2135C49.7303 27.0213 49.6787 26.8441 49.5957 26.6855L55.8552 20.5738L56.6478 19.7996C56.6792 19.8182 56.7105 19.8369 56.7455 19.8537L56.3584 22.4562L54.5558 34.5602C54.1097 34.618 53.7503 34.9389 53.6305 35.3661H49.686C49.581 34.993 49.2916 34.7001 48.923 34.5937H48.9193ZM48.9193 26.1314V9.90821C48.9764 9.89142 49.0335 9.87277 49.087 9.84665L54.7936 16.49L56.2718 18.2101C56.1575 18.3873 56.0893 18.5981 56.0893 18.8257C56.0893 19.0179 56.1409 19.1951 56.2257 19.3537L49.1736 26.2377C49.0944 26.1911 49.0096 26.1557 48.9193 26.1295V26.1314ZM48.9193 7.74786V-4.32254C49.1976 -4.40276 49.4298 -4.58745 49.5736 -4.83557L66.9587 -0.29845C66.9661 -0.00368634 67.0841 0.263092 67.2739 0.460845L57.4717 17.7362C57.3851 17.7139 57.2966 17.6989 57.2026 17.6989C57.0331 17.6989 56.8745 17.74 56.7308 17.809L49.546 9.44368C49.6602 9.26645 49.7284 9.05563 49.7284 8.82803C49.7284 8.31313 49.3838 7.88218 48.9174 7.74786H48.9193ZM48.9193 -6.48289V-16.1691C49.3856 -16.3034 49.7303 -16.7343 49.7303 -17.2492C49.7303 -17.3183 49.7211 -17.3854 49.71 -17.4507L57.2155 -21.1875C57.4201 -20.9599 57.7114 -20.8125 58.0394 -20.8125C58.1003 -20.8125 58.1593 -20.8218 58.2182 -20.8312L61.8825 -12.936L67.3421 -1.17341C67.2518 -1.09319 67.1744 -0.999914 67.1135 -0.893575L49.7284 -5.4307C49.7155 -5.93441 49.3782 -6.35044 48.9211 -6.48289H48.9193ZM51.2472 -40.0561C51.4518 -39.8005 51.7615 -39.6326 52.1117 -39.6326C52.1707 -39.6326 52.2278 -39.642 52.2831 -39.6494L53.7116 -34.9985L57.4312 -22.8833C57.3022 -22.7975 57.1934 -22.6874 57.1086 -22.5587L49.7266 -24.9094C49.7266 -24.9206 49.7303 -24.9299 49.7303 -24.9411C49.7303 -25.456 49.3856 -25.8869 48.9193 -26.0213V-37.9517L51.2472 -40.0524V-40.0561ZM53.6158 -42.6941L57.6192 -42.2836C57.6671 -41.7053 58.1408 -41.2482 58.7251 -41.2482C59.0071 -41.2482 59.2615 -41.3564 59.4569 -41.5318L67.1707 -35.6123L76.3683 -28.5547C76.3185 -28.4279 76.2909 -28.2898 76.2909 -28.1462C76.2909 -28.135 76.2945 -28.1238 76.2945 -28.1126L67.261 -25.2172L58.9721 -22.5606C58.773 -22.8665 58.432 -23.068 58.0431 -23.068C58.0339 -23.068 58.0247 -23.0662 58.0155 -23.0662L54.3383 -35.0433L52.8435 -39.9125C53.0775 -40.1195 53.2305 -40.4199 53.2305 -40.7594C53.2305 -41.1176 53.0628 -41.4329 52.8047 -41.64L53.6194 -42.6922L53.6158 -42.6941ZM77.5571 -34.5657L77.1774 -29.2506C77.0134 -29.217 76.8641 -29.1424 76.7351 -29.0435L67.9264 -35.8026L59.785 -42.0448C59.7923 -42.0672 59.7997 -42.0877 59.8052 -42.1101L63.1285 -41.9385L77.5571 -34.5601V-34.5657ZM91.8291 -4.31321L90.0375 -1.40475C89.9398 -1.43273 89.8384 -1.45325 89.7315 -1.45325C89.6762 -1.45325 89.6246 -1.44393 89.5712 -1.43646L78.1156 -27.2843C78.2244 -27.3775 78.3147 -27.4895 78.3811 -27.6182L84.5484 -26.2899L91.8272 -4.31321H91.8291ZM91.8235 3.70511L87.7796 13.9715C87.6892 13.9472 87.5971 13.9323 87.5012 13.9323C87.0496 13.9323 86.6626 14.2047 86.4875 14.5964L69.1687 12.354C69.1632 12.3148 69.1558 12.2775 69.1466 12.2402L88.2072 0.934704L88.9611 0.486963C89.162 0.680985 89.4311 0.802249 89.7315 0.802249C89.8366 0.802249 89.9361 0.783593 90.032 0.755609L91.8235 3.70325V3.70511ZM73.8062 33.3494L68.8793 35.6515C68.7632 35.4482 68.5881 35.284 68.3743 35.187V13.6021C68.5531 13.5498 68.7134 13.4584 68.8443 13.3316L78.9248 19.2455C78.9027 19.3351 78.8879 19.4265 78.8879 19.5216C78.8879 20.1447 79.3874 20.6503 80.0031 20.6503C80.0915 20.6503 80.1782 20.6372 80.2611 20.6167L81.767 23.3368L73.8081 33.3494H73.8062ZM63.2078 44.0598H54.694L67.0288 36.8866C67.1209 37.0116 67.237 37.1142 67.3716 37.1906L69.1853 40.9237L63.2078 44.0579V44.0598Z" fill="#CBD5E1"/>
<path d="M48.311 -16.1635V-6.4773C47.8447 -6.34297 47.5 -5.91202 47.5 -5.39712C47.5 -4.88221 47.8447 -4.45126 48.311 -4.31694V7.75345C47.8447 7.88777 47.5 8.31872 47.5 8.83363C47.5 9.34853 47.8447 9.77948 48.311 9.91381V26.137C47.8447 26.2713 47.5 26.7023 47.5 27.2172C47.5 27.7321 47.8447 28.163 48.311 28.2974V34.5975C47.8447 34.7318 47.5 35.1628 47.5 35.6777C47.5 36.3008 47.9995 36.8063 48.6151 36.8063C48.7091 36.8063 48.7976 36.7914 48.8842 36.769L52.7679 43.6027C52.5817 43.8042 52.4656 44.0728 52.4656 44.3713C52.4656 44.4609 52.4785 44.5467 52.4988 44.6306L52.5135 44.6791C52.6462 45.1511 53.072 45.5 53.5807 45.5C54.0895 45.5 54.5152 45.1511 54.648 44.6791H63.3571L69.9945 41.1979L68.1126 37.325C68.1679 37.3156 68.2213 37.2989 68.2748 37.2802L68.3743 37.2448C68.7485 37.0731 69.0102 36.7 69.0286 36.2616L74.1896 33.8512L82.4951 23.402L80.7901 20.322C80.991 20.1186 81.1164 19.8369 81.1164 19.5253C81.1164 19.4302 81.1016 19.3407 81.0795 19.253L86.7953 15.9303C86.987 16.0908 87.2303 16.1915 87.4994 16.1915C88.115 16.1915 88.6145 15.686 88.6145 15.0628C88.6145 15.0013 88.6053 14.9416 88.5961 14.8838L88.6127 14.8744H88.5961C88.5574 14.6487 88.456 14.4491 88.3086 14.2905L92.5 3.64914L90.548 0.438459C90.7305 0.236975 90.843 -0.027941 90.843 -0.320839C90.843 -0.41785 90.8264 -0.511129 90.8043 -0.602543L90.7969 -0.628661C90.749 -0.796564 90.666 -0.949545 90.5517 -1.07641L92.4945 -4.23112L85.0129 -26.816L78.5064 -28.2171C78.4769 -28.6704 78.1838 -29.0472 77.7802 -29.1965L78.1912 -34.9239L63.2225 -42.5504L59.7757 -42.7276C59.6283 -43.1754 59.2154 -43.5 58.7233 -43.5C58.292 -43.5 57.9215 -43.2481 57.7353 -42.8844L53.343 -43.3358L52.2131 -41.8732C52.1799 -41.8769 52.1467 -41.8844 52.1117 -41.8844C51.4961 -41.8844 50.9966 -41.3788 50.9966 -40.7557C50.9966 -40.7221 51.0039 -40.6904 51.0058 -40.6587L48.311 -38.2278V-26.0157C47.8447 -25.8813 47.5 -25.4504 47.5 -24.9355C47.5 -24.4206 47.8447 -23.9896 48.311 -23.8553V-18.3238C47.8447 -18.1895 47.5 -17.7585 47.5 -17.2436C47.5 -16.7287 47.8447 -16.2978 48.311 -16.1635ZM69.1374 -0.628661C69.0471 -0.949543 68.824 -1.21073 68.5291 -1.34692L70.4147 -14.0535C70.6119 -14.0796 70.7907 -14.1542 70.9419 -14.2699L80.6169 -6.88773L88.6901 -0.727537C88.6772 -0.695822 88.6698 -0.662242 88.6606 -0.628661H69.1355H69.1374ZM75.0946 -23.3105L77.1461 -27.0455C77.2272 -27.0268 77.312 -27.0137 77.4005 -27.0137C77.4558 -27.0137 77.5074 -27.0231 77.5608 -27.0305L88.9684 -1.28908L71.3124 -14.7624C71.3603 -14.8893 71.3898 -15.0254 71.3898 -15.1691C71.3898 -15.4807 71.2644 -15.7642 71.0617 -15.9676L75.0965 -23.3124L75.0946 -23.3105ZM67.766 13.604V35.103C67.7292 35.1086 67.6923 35.1142 67.6554 35.1217L58.0265 19.5832C58.2053 19.3836 58.3159 19.1205 58.3159 18.8313C58.3159 18.7381 58.3012 18.6467 58.2791 18.5608L67.2905 13.3316C67.4214 13.4603 67.5836 13.5536 67.7642 13.6058L67.766 13.604ZM57.2764 20.3966L57.3446 19.9432C57.4017 19.9358 57.457 19.9246 57.5123 19.9078L67.1264 35.4221C66.9753 35.5769 66.8702 35.7747 66.826 35.9948L55.7797 35.4239C55.7023 35.0788 55.4682 34.7952 55.1548 34.6497L57.2764 20.3947V20.3966ZM58.0247 17.9974L67.766 0.830232V11.4417C67.4416 11.535 67.1762 11.7701 67.0453 12.0798L66.9937 12.2458C66.9716 12.3353 66.9569 12.4268 66.9569 12.5219C66.9569 12.6171 66.9716 12.7066 66.9937 12.7924L58.0265 17.9974H58.0247ZM62.4963 -13.0591L58.7675 -21.0924C58.7896 -21.111 58.8117 -21.1278 58.832 -21.1483L60.937 -19.9842L69.1872 -15.4191C69.1687 -15.3389 69.1577 -15.2549 69.1577 -15.1691C69.1577 -14.712 69.4268 -14.3203 69.812 -14.143L67.9264 -1.43646C67.9135 -1.43646 67.9006 -1.43646 67.8895 -1.43273L62.4945 -13.0572L62.4963 -13.0591ZM48.9193 -18.3275V-23.859C49.1792 -23.9337 49.4003 -24.0978 49.546 -24.3198L56.928 -21.9692C56.928 -21.958 56.9243 -21.9487 56.9243 -21.9375C56.9243 -21.8684 56.9335 -21.8013 56.9446 -21.736L49.4391 -17.9992C49.3008 -18.154 49.122 -18.2678 48.9193 -18.3257V-18.3275ZM67.7642 -24.7321L76.4733 -27.5231C76.5157 -27.4596 76.5618 -27.3999 76.6171 -27.3458L74.9638 -24.3348L70.5308 -16.2661C70.4497 -16.2847 70.365 -16.2978 70.2765 -16.2978C69.965 -16.2978 69.6848 -16.1672 69.4821 -15.9601L60.2458 -21.07L59.1251 -21.6893C59.1435 -21.7696 59.1546 -21.8535 59.1546 -21.9393C59.1546 -21.9505 59.1509 -21.9617 59.1509 -21.9729L67.7642 -24.7321ZM87.3372 0.738819L68.8406 11.7085C68.7116 11.5835 68.5512 11.4921 68.3743 11.4417V0.755609C68.7429 0.64927 69.0323 0.356372 69.1374 -0.0167465H88.609L87.3353 0.738819H87.3372ZM86.4506 15.4192L80.7809 18.7138C80.58 18.5161 80.3054 18.3929 80.0031 18.3929C79.7008 18.3929 79.4298 18.5142 79.2289 18.7119L69.5281 13.02L86.4008 15.2046C86.4101 15.2793 86.4266 15.3501 86.4488 15.4192H86.4506ZM53.2895 43.2818L49.4133 36.4593C49.5312 36.3362 49.6178 36.187 49.6713 36.0191L53.6987 36.1683C53.8812 36.5414 54.2572 36.8007 54.6959 36.8007C55.1051 36.8007 55.4608 36.575 55.6543 36.2411L66.2417 36.6328L54.3494 43.5486C54.1503 43.3564 53.8812 43.2352 53.5826 43.2352C53.4812 43.2352 53.3854 43.2538 53.2913 43.2781L53.2895 43.2818ZM48.9193 34.5937V28.2936C49.3856 28.1593 49.7303 27.7284 49.7303 27.2135C49.7303 27.0213 49.6787 26.8441 49.5957 26.6855L55.8552 20.5738L56.6478 19.7996C56.6792 19.8182 56.7105 19.8369 56.7455 19.8537L56.3584 22.4562L54.5558 34.5602C54.1097 34.618 53.7503 34.9389 53.6305 35.3661H49.686C49.581 34.993 49.2916 34.7001 48.923 34.5937H48.9193ZM48.9193 26.1314V9.90821C48.9764 9.89142 49.0335 9.87277 49.087 9.84665L54.7936 16.49L56.2718 18.2101C56.1575 18.3873 56.0893 18.5981 56.0893 18.8257C56.0893 19.0179 56.1409 19.1951 56.2257 19.3537L49.1736 26.2377C49.0944 26.1911 49.0096 26.1557 48.9193 26.1295V26.1314ZM48.9193 7.74786V-4.32254C49.1976 -4.40276 49.4298 -4.58745 49.5736 -4.83557L66.9587 -0.29845C66.9661 -0.00368634 67.0841 0.263092 67.2739 0.460845L57.4717 17.7362C57.3851 17.7139 57.2966 17.6989 57.2026 17.6989C57.0331 17.6989 56.8745 17.74 56.7308 17.809L49.546 9.44368C49.6602 9.26645 49.7284 9.05563 49.7284 8.82803C49.7284 8.31313 49.3838 7.88218 48.9174 7.74786H48.9193ZM48.9193 -6.48289V-16.1691C49.3856 -16.3034 49.7303 -16.7343 49.7303 -17.2492C49.7303 -17.3183 49.7211 -17.3854 49.71 -17.4507L57.2155 -21.1875C57.4201 -20.9599 57.7114 -20.8125 58.0394 -20.8125C58.1003 -20.8125 58.1593 -20.8218 58.2182 -20.8312L61.8825 -12.936L67.3421 -1.17341C67.2518 -1.09319 67.1744 -0.999914 67.1135 -0.893575L49.7284 -5.4307C49.7155 -5.93441 49.3782 -6.35044 48.9211 -6.48289H48.9193ZM51.2472 -40.0561C51.4518 -39.8005 51.7615 -39.6326 52.1117 -39.6326C52.1707 -39.6326 52.2278 -39.642 52.2831 -39.6494L53.7116 -34.9985L57.4312 -22.8833C57.3022 -22.7975 57.1934 -22.6874 57.1086 -22.5587L49.7266 -24.9094C49.7266 -24.9206 49.7303 -24.9299 49.7303 -24.9411C49.7303 -25.456 49.3856 -25.8869 48.9193 -26.0213V-37.9517L51.2472 -40.0524V-40.0561ZM53.6158 -42.6941L57.6192 -42.2836C57.6671 -41.7053 58.1408 -41.2482 58.7251 -41.2482C59.0071 -41.2482 59.2615 -41.3564 59.4569 -41.5318L67.1707 -35.6123L76.3683 -28.5547C76.3185 -28.4279 76.2909 -28.2898 76.2909 -28.1462C76.2909 -28.135 76.2945 -28.1238 76.2945 -28.1126L67.261 -25.2172L58.9721 -22.5606C58.773 -22.8665 58.432 -23.068 58.0431 -23.068C58.0339 -23.068 58.0247 -23.0662 58.0155 -23.0662L54.3383 -35.0433L52.8435 -39.9125C53.0775 -40.1195 53.2305 -40.4199 53.2305 -40.7594C53.2305 -41.1176 53.0628 -41.4329 52.8047 -41.64L53.6194 -42.6922L53.6158 -42.6941ZM77.5571 -34.5657L77.1774 -29.2506C77.0134 -29.217 76.8641 -29.1424 76.7351 -29.0435L67.9264 -35.8026L59.785 -42.0448C59.7923 -42.0672 59.7997 -42.0877 59.8052 -42.1101L63.1285 -41.9385L77.5571 -34.5601V-34.5657ZM91.8291 -4.31321L90.0375 -1.40475C89.9398 -1.43273 89.8384 -1.45325 89.7315 -1.45325C89.6762 -1.45325 89.6246 -1.44393 89.5712 -1.43646L78.1156 -27.2843C78.2244 -27.3775 78.3147 -27.4895 78.3811 -27.6182L84.5484 -26.2899L91.8272 -4.31321H91.8291ZM91.8235 3.70511L87.7796 13.9715C87.6892 13.9472 87.5971 13.9323 87.5012 13.9323C87.0496 13.9323 86.6626 14.2047 86.4875 14.5964L69.1687 12.354C69.1632 12.3148 69.1558 12.2775 69.1466 12.2402L88.2072 0.934704L88.9611 0.486963C89.162 0.680985 89.4311 0.802249 89.7315 0.802249C89.8366 0.802249 89.9361 0.783593 90.032 0.755609L91.8235 3.70325V3.70511ZM73.8062 33.3494L68.8793 35.6515C68.7632 35.4482 68.5881 35.284 68.3743 35.187V13.6021C68.5531 13.5498 68.7134 13.4584 68.8443 13.3316L78.9248 19.2455C78.9027 19.3351 78.8879 19.4265 78.8879 19.5216C78.8879 20.1447 79.3874 20.6503 80.0031 20.6503C80.0915 20.6503 80.1782 20.6372 80.2611 20.6167L81.767 23.3368L73.8081 33.3494H73.8062ZM63.2078 44.0598H54.694L67.0288 36.8866C67.1209 37.0116 67.237 37.1142 67.3716 37.1906L69.1853 40.9237L63.2078 44.0579V44.0598Z" stroke="#CBD5E1" stroke-width="0.2" mask="url(#path-2-outside-2_988_59095)"/>
<circle cx="24.9561" cy="12.4717" r="1.95605" fill="#77FF85"/>
<circle cx="57.3125" cy="18.9609" r="1.5" fill="#77FF85"/>
<circle cx="38.2705" cy="35.6709" r="1.20996" fill="#77FF85"/>
<circle cx="44.5654" cy="8.74707" r="1.48535" fill="#93C5FD"/>
<circle cx="3.73926" cy="-0.209961" r="1.65332" fill="#77FF85"/>
<circle cx="48.5674" cy="27.2021" r="1.20996" fill="#5093F9"/>
<circle cx="24.9248" cy="-0.428711" r="1.43066" fill="#5093F9"/>
<circle cx="54.709" cy="35.666" r="1.10352" fill="#77FF85"/>
<circle cx="25.4727" cy="35.8184" r="1.53711" fill="#5093F9"/>
<circle cx="5.39258" cy="15.0293" r="1.86523" fill="#93C5FD"/>
</g>
<defs>
<clipPath id="clip0_988_59095">
<rect width="61" height="47" fill="white" transform="translate(0.5)"/>
</clipPath>
</defs>
</svg>
