<svg width="82" height="69" viewBox="0 0 82 69" fill="none" xmlns="http://www.w3.org/2000/svg">
<path opacity="0.0526316" d="M113.166 -5.04772C113.628 -1.79207 112.273 5.78316 103.161 10.0389C91.7703 15.3585 80.4931 10.5439 68.8643 13.829C60.2814 16.2536 40.8705 26.4205 37.4741 40.0316" stroke="#94A3B8" stroke-width="0.490122"/>
<path opacity="0.105263" d="M110.649 -10.3195C111.448 -7.12992 110.893 0.545424 102.275 5.7303C91.5036 12.2114 79.7849 8.60202 68.5632 13.0846C60.2807 16.3931 42.0389 28.5332 40.0838 42.4249" stroke="#94A3B8" stroke-width="0.490122"/>
<path opacity="0.157895" d="M107.738 -15.3101C108.866 -12.2216 109.116 -4.53022 101.088 1.52702C91.0525 9.09857 79.0207 6.73391 68.329 12.3649C60.4377 16.521 43.5649 30.5015 43.0726 44.5214" stroke="#94A3B8" stroke-width="0.490122"/>
<path opacity="0.210526" d="M104.472 -19.9749C105.917 -17.0212 106.97 -9.39808 99.6186 -2.53483C90.4296 6.04423 78.2166 4.95018 68.1721 11.6679C60.7585 16.6262 45.4394 32.2937 46.4153 46.2883" stroke="#94A3B8" stroke-width="0.490122"/>
<path opacity="0.263158" d="M100.885 -24.2893C102.631 -21.5029 104.474 -14.0315 97.881 -6.43745C89.6391 3.05512 77.3786 3.24369 68.0913 10.9746C61.2366 16.6806 47.6391 33.8636 50.0725 47.6795" stroke="#94A3B8" stroke-width="0.490122"/>
<path opacity="0.315789" d="M97.0145 -28.1946C99.0421 -25.606 101.656 -18.3682 95.8928 -10.1265C88.6883 0.175534 76.5147 1.64463 68.0864 10.304C61.8656 16.6952 50.1388 35.2054 54.0029 48.6912" stroke="#94A3B8" stroke-width="0.490122"/>
<path opacity="0.368421" d="M92.9074 -31.6952C95.1944 -29.3327 98.5509 -22.4078 93.6804 -13.6088C87.5923 -2.61013 75.6389 0.123403 68.1619 9.6163C62.6433 16.6228 52.9155 36.2573 58.1682 49.2654" stroke="#94A3B8" stroke-width="0.490122"/>
<path opacity="0.421053" d="M88.5982 -34.7647C91.1197 -32.6542 95.1816 -26.1181 91.2575 -16.8582C86.3524 -5.2834 74.7503 -1.31537 68.3065 8.90708C63.5505 16.452 55.9284 36.9959 62.512 49.3836" stroke="#94A3B8" stroke-width="0.490122"/>
<path opacity="0.473684" d="M84.1477 -37.3539C86.876 -35.5185 91.5989 -29.4428 88.6643 -19.8235C84.9959 -7.79936 73.8721 -2.64031 68.5322 8.19969C64.5909 16.2004 59.1579 37.4285 67.0004 49.0602" stroke="#94A3B8" stroke-width="0.490122"/>
<path opacity="0.526316" d="M79.5944 -39.4921C82.4996 -37.9519 87.8317 -32.4032 85.9186 -22.5298C83.5272 -10.1881 73.0036 -3.89453 68.826 7.44428C65.7426 15.8132 62.5584 37.4928 71.5737 48.241" stroke="#156FF7" stroke-width="0.6"/>
<path opacity="0.578947" d="M74.989 -41.1267C78.0393 -39.8986 83.9222 -34.9376 83.0516 -24.9184C81.9634 -12.3943 72.1553 -5.03519 69.1858 6.67817C66.9941 15.3235 66.0935 37.2172 76.1829 46.9642" stroke="#77FF85" stroke-width="0.6"/>
<path opacity="0.631579" d="M70.3894 -42.2874C73.5514 -41.3849 79.9206 -37.066 80.1021 -27.0107C80.329 -14.4414 71.3438 -6.09743 69.615 5.86217C68.339 14.6892 69.7318 36.5572 80.7847 45.1962" stroke="#156FF7" stroke-width="0.6"/>
<path opacity="0.684211" d="M65.8424 -42.9728C69.0814 -42.4057 75.8672 -38.7763 77.0987 -28.795C78.6382 -16.3183 70.5745 -7.08081 70.1052 4.99398C69.7589 13.9061 73.4299 35.5086 85.3253 42.9449" stroke="#77FF85" stroke-width="0.490122"/>
<path opacity="0.736842" d="M61.3958 -43.1851C64.6763 -42.9598 71.8043 -40.0595 74.0724 -30.2616C76.9076 -18.0142 69.8536 -7.98443 70.6491 4.07326C71.2363 12.9727 77.1452 34.0732 89.7528 40.2254" stroke="#156FF7" stroke-width="0.6"/>
<path opacity="0.789474" d="M57.0962 -42.9384C60.3823 -43.0572 67.7744 -40.9179 71.0543 -31.4107C75.1542 -19.5268 69.1872 -8.81462 71.2387 3.09387C72.7529 11.8832 80.8351 32.2505 94.0167 37.0511" stroke="#156FF7" stroke-width="0.6"/>
<path opacity="0.842105" d="M52.9972 -42.254C56.2529 -42.7156 63.8281 -41.3607 68.0838 -32.2485C73.4034 -20.8582 68.5889 -9.58102 71.8739 2.04779C74.2985 10.6307 84.4654 30.0416 98.0766 33.438" stroke="#30C593" stroke-width="0.6"/>
<path opacity="0.894737" d="M49.1336 -41.1569C52.3232 -41.9563 59.9985 -41.4007 65.1834 -32.7832C71.6645 -22.0114 68.0551 -10.2927 72.5377 0.929039C75.8462 9.21151 87.9864 27.4533 101.878 29.4084" stroke="#156FF7" stroke-width="0.6"/>
<path opacity="0.947368" d="M45.561 -39.6599C48.6495 -40.7883 56.3409 -41.038 62.3981 -33.0097C69.9697 -22.9743 67.605 -10.9426 73.236 -0.250884C77.3921 7.64039 91.3726 24.5133 105.392 25.0056" stroke="#30C593" stroke-width="0.6"/>
<path d="M42.3122 -37.8103C45.2659 -39.2553 52.889 -40.3077 59.7523 -32.9565C68.3313 -23.7675 67.2373 -11.5545 73.9551 -1.50998C78.9133 5.90363 94.5808 21.2227 108.575 20.2468" stroke="#30C593" stroke-width="0.6"/>
</svg>
