<svg width="11" height="11" viewBox="0 0 11 11" fill="none" xmlns="http://www.w3.org/2000/svg">
<path d="M2.52083 3.20829C2.52083 3.02772 2.5564 2.84893 2.6255 2.6821C2.6946 2.51528 2.79588 2.3637 2.92356 2.23602C3.05124 2.10834 3.20282 2.00706 3.36964 1.93796C3.53647 1.86886 3.71527 1.83329 3.89583 1.83329C4.0764 1.83329 4.2552 1.86886 4.42202 1.93796C4.58885 2.00706 4.74043 2.10834 4.86811 2.23602C4.99579 2.3637 5.09707 2.51528 5.16617 2.6821C5.23527 2.84893 5.27083 3.02772 5.27083 3.20829C5.27083 3.57297 5.12597 3.9227 4.86811 4.18056C4.61024 4.43843 4.26051 4.58329 3.89583 4.58329C3.53116 4.58329 3.18142 4.43843 2.92356 4.18056C2.6657 3.9227 2.52083 3.57297 2.52083 3.20829ZM3.89583 0.916626C3.28805 0.916626 2.70515 1.15807 2.27538 1.58784C1.84561 2.01761 1.60417 2.6005 1.60417 3.20829C1.60417 3.81608 1.84561 4.39897 2.27538 4.82875C2.70515 5.25852 3.28805 5.49996 3.89583 5.49996C4.50362 5.49996 5.08652 5.25852 5.51629 4.82875C5.94606 4.39897 6.1875 3.81608 6.1875 3.20829C6.1875 2.6005 5.94606 2.01761 5.51629 1.58784C5.08652 1.15807 4.50362 0.916626 3.89583 0.916626ZM7.10417 0.916626H6.64583V1.83329H7.10417C7.28473 1.83329 7.46353 1.86886 7.63036 1.93796C7.79718 2.00706 7.94876 2.10834 8.07644 2.23602C8.20412 2.3637 8.3054 2.51528 8.3745 2.6821C8.4436 2.84893 8.47917 3.02772 8.47917 3.20829C8.47917 3.38886 8.4436 3.56766 8.3745 3.73448C8.3054 3.9013 8.20412 4.05288 8.07644 4.18056C7.94876 4.30824 7.79718 4.40953 7.63036 4.47863C7.46353 4.54773 7.28473 4.58329 7.10417 4.58329H6.64583V5.49996H7.10417C7.71195 5.49996 8.29485 5.25852 8.72462 4.82875C9.15439 4.39897 9.39583 3.81608 9.39583 3.20829C9.39583 2.6005 9.15439 2.01761 8.72462 1.58784C8.29485 1.15807 7.71195 0.916626 7.10417 0.916626ZM0 8.70829C0 8.1005 0.241443 7.51761 0.671214 7.08784C1.10098 6.65807 1.68388 6.41663 2.29167 6.41663H5.5C6.10779 6.41663 6.69068 6.65807 7.12045 7.08784C7.55022 7.51761 7.79167 8.1005 7.79167 8.70829V9.62496H6.875V8.70829C6.875 8.34362 6.73013 7.99388 6.47227 7.73602C6.21441 7.47816 5.86467 7.33329 5.5 7.33329H2.29167C1.92699 7.33329 1.57726 7.47816 1.31939 7.73602C1.06153 7.99388 0.916667 8.34362 0.916667 8.70829V9.62496H0V8.70829ZM11 8.70829C11 8.40735 10.9407 8.10935 10.8256 7.83131C10.7104 7.55327 10.5416 7.30064 10.3288 7.08784C10.116 6.87504 9.86335 6.70624 9.58532 6.59107C9.30728 6.4759 9.00928 6.41663 8.70833 6.41663H8.25V7.33329H8.70833C9.07301 7.33329 9.42274 7.47816 9.68061 7.73602C9.93847 7.99388 10.0833 8.34362 10.0833 8.70829V9.62496H11V8.70829Z" fill="#156FF7"/>
</svg>
