<svg width="16" height="16" viewBox="0 0 16 16" fill="none" xmlns="http://www.w3.org/2000/svg">
<path fill-rule="evenodd" clip-rule="evenodd" d="M7.9999 7.19844C8.63642 7.19844 9.24687 6.94558 9.69696 6.49549C10.147 6.04541 10.3999 5.43496 10.3999 4.79844C10.3999 4.16192 10.147 3.55147 9.69696 3.10138C9.24687 2.65129 8.63642 2.39844 7.9999 2.39844C7.36338 2.39844 6.75293 2.65129 6.30285 3.10138C5.85276 3.55147 5.5999 4.16192 5.5999 4.79844C5.5999 5.43496 5.85276 6.04541 6.30285 6.49549C6.75293 6.94558 7.36338 7.19844 7.9999 7.19844V7.19844ZM2.3999 14.3984C2.3999 13.663 2.54475 12.9348 2.82618 12.2554C3.1076 11.576 3.5201 10.9586 4.0401 10.4386C4.56011 9.91863 5.17745 9.50614 5.85688 9.22471C6.5363 8.94329 7.2645 8.79844 7.9999 8.79844C8.73531 8.79844 9.46351 8.94329 10.1429 9.22471C10.8224 9.50614 11.4397 9.91863 11.9597 10.4386C12.4797 10.9586 12.8922 11.576 13.1736 12.2554C13.4551 12.9348 13.5999 13.663 13.5999 14.3984H2.3999Z" fill="#0F172A"/>
</svg>
