<svg width="14" height="14" viewBox="0 0 14 14" fill="none" xmlns="http://www.w3.org/2000/svg">
<path d="M4.33333 5.00002H9.66667M4.33333 7.66669H8.33333M11 1.66669C11.5304 1.66669 12.0391 1.8774 12.4142 2.25247C12.7893 2.62755 13 3.13625 13 3.66669V9.00002C13 9.53045 12.7893 10.0392 12.4142 10.4142C12.0391 10.7893 11.5304 11 11 11H7.66667L4.33333 13V11H3C2.46957 11 1.96086 10.7893 1.58579 10.4142C1.21071 10.0392 1 9.53045 1 9.00002V3.66669C1 3.13625 1.21071 2.62755 1.58579 2.25247C1.96086 1.8774 2.46957 1.66669 3 1.66669H11Z" stroke="#64748B" stroke-width="1.4" stroke-linecap="round" stroke-linejoin="round"/>
</svg>
