<svg width="16" height="12" viewBox="0 0 16 12" fill="none" xmlns="http://www.w3.org/2000/svg">
<path d="M8.28441 7.74974L13.9 4.72562V9.47119C13.9 9.77619 13.7788 10.0687 13.5632 10.2844C13.3475 10.5 13.055 10.6212 12.75 10.6212H3.25C2.945 10.6212 2.65249 10.5 2.43683 10.2844C2.22116 10.0687 2.1 9.77619 2.1 9.47119V4.72562L7.71559 7.74974L7.7156 7.74974C7.80301 7.7968 7.90073 7.82143 8 7.82143C8.09927 7.82143 8.19699 7.7968 8.2844 7.74974L8.28441 7.74974ZM3.25 0.621191C2.62674 0.621191 2.02901 0.86878 1.5883 1.30949C1.14759 1.7502 0.9 2.34793 0.9 2.97119V9.47119C0.9 10.0944 1.14759 10.6922 1.5883 11.1329C2.02901 11.5736 2.62674 11.8212 3.25 11.8212H12.75C13.3733 11.8212 13.971 11.5736 14.4117 11.1329C14.8524 10.6922 15.1 10.0944 15.1 9.47119V2.97119C15.1 2.34793 14.8524 1.7502 14.4117 1.30949C13.971 0.86878 13.3733 0.621191 12.75 0.621191H3.25ZM13.9 2.97119V3.36296L8 6.53962L2.1 3.36296V2.97119C2.1 2.66619 2.22116 2.37369 2.43683 2.15802C2.65249 1.94235 2.945 1.82119 3.25 1.82119H12.75C13.055 1.82119 13.3475 1.94235 13.5632 2.15802C13.7788 2.37369 13.9 2.66619 13.9 2.97119Z" fill="#156FF7" stroke="#156FF7" stroke-width="0.2"/>
</svg>
