<svg width="24" height="24" viewBox="0 0 24 24" fill="none" xmlns="http://www.w3.org/2000/svg">
<path d="M15.031 10.4132C15.4024 10.2867 15.6716 9.93674 15.6716 9.52086C15.6716 9.04307 15.3122 8.64738 14.8506 8.58816L15.4213 7.12113C15.4993 6.9179 15.4495 6.69044 15.2934 6.53836C15.1373 6.38762 14.9071 6.34589 14.7066 6.43069L13.5787 6.91386L12.8223 6.15612C12.7201 6.05518 12.5855 6 12.4415 6C12.2974 6 12.1615 6.05653 12.0606 6.15747L11.3028 6.91521L10.175 6.43203C9.97577 6.34589 9.74563 6.38896 9.5895 6.5397C9.43338 6.69179 9.38223 6.91925 9.46164 7.12248L10.0323 8.5895C9.56931 8.64872 9.21131 9.04441 9.21131 9.52221C9.21131 9.93674 9.47914 10.288 9.85061 10.4145C8.78196 11.86 8 13.8116 8 14.9044C8 15.8412 8.5397 16.6729 9.52221 17.2476C10.3405 17.7254 11.4038 18 12.4415 18C13.4778 18 14.5424 17.7254 15.3594 17.2476C16.3419 16.6743 16.8829 15.8425 16.8829 14.9044C16.8829 13.8116 16.1009 11.86 15.031 10.4132ZM9.96366 6.92732L11.2584 7.48183C11.3594 7.52624 11.4764 7.50336 11.5545 7.4253L12.4415 6.53836L13.3271 7.4253C13.4051 7.50336 13.5222 7.5249 13.6245 7.48183L14.9192 6.92732L14.2759 8.58008H10.607L9.96366 6.92732ZM9.74966 9.52086C9.74966 9.29879 9.93001 9.11709 10.1534 9.11709H14.7295C14.9515 9.11709 15.1332 9.29879 15.1332 9.52086C15.1332 9.74428 14.9515 9.92463 14.7295 9.92463H10.1534C9.93001 9.92463 9.74966 9.74563 9.74966 9.52086ZM12.4415 17.4616C10.8668 17.4616 8.53836 16.6487 8.53836 14.9044C8.53836 13.7941 9.43203 11.7968 10.5034 10.463H14.3795C15.4495 11.7968 16.3445 13.7941 16.3445 14.9044C16.3445 16.6501 14.0148 17.4616 12.4415 17.4616Z" fill="white" stroke="white" stroke-width="0.6"/>
<circle cx="12" cy="12" r="12" fill="url(#paint0_linear_722_35808)"/>
<path d="M14.8367 10.4132C15.2082 10.2867 15.4774 9.93674 15.4774 9.52086C15.4774 9.04307 15.118 8.64738 14.6564 8.58816L15.2271 7.12113C15.3051 6.9179 15.2553 6.69044 15.0992 6.53836C14.9431 6.38762 14.7129 6.34589 14.5124 6.43069L13.3845 6.91386L12.6281 6.15612C12.5258 6.05518 12.3913 6 12.2472 6C12.1032 6 11.9673 6.05653 11.8664 6.15747L11.1086 6.91521L9.98075 6.43203C9.78156 6.34589 9.55141 6.38896 9.39529 6.5397C9.23916 6.69179 9.18802 6.91925 9.26743 7.12248L9.83809 8.5895C9.3751 8.64872 9.01709 9.04441 9.01709 9.52221C9.01709 9.93674 9.28492 10.288 9.65639 10.4145C8.58775 11.86 7.80579 13.8116 7.80579 14.9044C7.80579 15.8412 8.34549 16.6729 9.32799 17.2476C10.1463 17.7254 11.2096 18 12.2472 18C13.2836 18 14.3482 17.7254 15.1651 17.2476C16.1476 16.6743 16.6887 15.8425 16.6887 14.9044C16.6887 13.8116 15.9067 11.86 14.8367 10.4132ZM9.76945 6.92732L11.0642 7.48183C11.1651 7.52624 11.2822 7.50336 11.3603 7.4253L12.2472 6.53836L13.1328 7.4253C13.2109 7.50336 13.328 7.5249 13.4303 7.48183L14.725 6.92732L14.0817 8.58008H10.4128L9.76945 6.92732ZM9.55545 9.52086C9.55545 9.29879 9.7358 9.11709 9.95922 9.11709H14.5353C14.7573 9.11709 14.939 9.29879 14.939 9.52086C14.939 9.74428 14.7573 9.92463 14.5353 9.92463H9.95922C9.7358 9.92463 9.55545 9.74563 9.55545 9.52086ZM12.2472 17.4616C10.6725 17.4616 8.34414 16.6487 8.34414 14.9044C8.34414 13.7941 9.23782 11.7968 10.3092 10.463H14.1853C15.2553 11.7968 16.1503 13.7941 16.1503 14.9044C16.1503 16.6501 13.8206 17.4616 12.2472 17.4616Z" fill="white" stroke="white" stroke-width="0.6"/>
<defs>
<linearGradient id="paint0_linear_722_35808" x1="4.59652" y1="2.54353" x2="23.8672" y2="13.6059" gradientUnits="userSpaceOnUse">
<stop stop-color="#FFBF42"/>
<stop offset="1" stop-color="#FFA63D"/>
</linearGradient>
</defs>
</svg>
