<svg width="20" height="20" viewBox="0 0 20 20" fill="none" xmlns="http://www.w3.org/2000/svg">
<g clip-path="url(#clip0_532_1130)">
<path fill-rule="evenodd" clip-rule="evenodd" d="M2 5.75C2 5.55109 2.07902 5.36032 2.21967 5.21967C2.36032 5.07902 2.55109 5 2.75 5H17.25C17.4489 5 17.6397 5.07902 17.7803 5.21967C17.921 5.36032 18 5.55109 18 5.75C18 5.94891 17.921 6.13968 17.7803 6.28033C17.6397 6.42098 17.4489 6.5 17.25 6.5H2.75C2.55109 6.5 2.36032 6.42098 2.21967 6.28033C2.07902 6.13968 2 5.94891 2 5.75ZM2 10C2 9.80109 2.07902 9.61032 2.21967 9.46967C2.36032 9.32902 2.55109 9.25 2.75 9.25H17.25C17.4489 9.25 17.6397 9.32902 17.7803 9.46967C17.921 9.61032 18 9.80109 18 10C18 10.1989 17.921 10.3897 17.7803 10.5303C17.6397 10.671 17.4489 10.75 17.25 10.75H2.75C2.55109 10.75 2.36032 10.671 2.21967 10.5303C2.07902 10.3897 2 10.1989 2 10ZM2.75 13.5C2.55109 13.5 2.36032 13.579 2.21967 13.7197C2.07902 13.8603 2 14.0511 2 14.25C2 14.4489 2.07902 14.6397 2.21967 14.7803C2.36032 14.921 2.55109 15 2.75 15H17.25C17.4489 15 17.6397 14.921 17.7803 14.7803C17.921 14.6397 18 14.4489 18 14.25C18 14.0511 17.921 13.8603 17.7803 13.7197C17.6397 13.579 17.4489 13.5 17.25 13.5H2.75Z" fill="#0F172A"/>
</g>
<defs>
<clipPath id="clip0_532_1130">
<rect width="16" height="16" fill="white" transform="translate(2 2)"/>
</clipPath>
</defs>
</svg>
