<svg width="20" height="20" viewBox="0 0 20 20" fill="none" xmlns="http://www.w3.org/2000/svg">
<g clip-path="url(#clip0_4968_69169)">
<path d="M10 11.6667C9.76389 11.6667 9.56611 11.5867 9.40667 11.4267C9.24667 11.2673 9.16667 11.0695 9.16667 10.8334C9.16667 10.5973 9.24667 10.3992 9.40667 10.2392C9.56611 10.0798 9.76389 10.0001 10 10.0001C10.2361 10.0001 10.4342 10.0798 10.5942 10.2392C10.7536 10.3992 10.8333 10.5973 10.8333 10.8334C10.8333 11.0695 10.7536 11.2673 10.5942 11.4267C10.4342 11.5867 10.2361 11.6667 10 11.6667ZM6.66667 11.6667C6.43056 11.6667 6.2325 11.5867 6.0725 11.4267C5.91306 11.2673 5.83333 11.0695 5.83333 10.8334C5.83333 10.5973 5.91306 10.3992 6.0725 10.2392C6.2325 10.0798 6.43056 10.0001 6.66667 10.0001C6.90278 10.0001 7.10083 10.0798 7.26083 10.2392C7.42028 10.3992 7.5 10.5973 7.5 10.8334C7.5 11.0695 7.42028 11.2673 7.26083 11.4267C7.10083 11.5867 6.90278 11.6667 6.66667 11.6667ZM13.3333 11.6667C13.0972 11.6667 12.8994 11.5867 12.74 11.4267C12.58 11.2673 12.5 11.0695 12.5 10.8334C12.5 10.5973 12.58 10.3992 12.74 10.2392C12.8994 10.0798 13.0972 10.0001 13.3333 10.0001C13.5694 10.0001 13.7672 10.0798 13.9267 10.2392C14.0867 10.3992 14.1667 10.5973 14.1667 10.8334C14.1667 11.0695 14.0867 11.2673 13.9267 11.4267C13.7672 11.5867 13.5694 11.6667 13.3333 11.6667ZM10 15.0001C9.76389 15.0001 9.56611 14.9201 9.40667 14.7601C9.24667 14.6006 9.16667 14.4029 9.16667 14.1667C9.16667 13.9306 9.24667 13.7329 9.40667 13.5734C9.56611 13.4134 9.76389 13.3334 10 13.3334C10.2361 13.3334 10.4342 13.4134 10.5942 13.5734C10.7536 13.7329 10.8333 13.9306 10.8333 14.1667C10.8333 14.4029 10.7536 14.6006 10.5942 14.7601C10.4342 14.9201 10.2361 15.0001 10 15.0001ZM6.66667 15.0001C6.43056 15.0001 6.2325 14.9201 6.0725 14.7601C5.91306 14.6006 5.83333 14.4029 5.83333 14.1667C5.83333 13.9306 5.91306 13.7329 6.0725 13.5734C6.2325 13.4134 6.43056 13.3334 6.66667 13.3334C6.90278 13.3334 7.10083 13.4134 7.26083 13.5734C7.42028 13.7329 7.5 13.9306 7.5 14.1667C7.5 14.4029 7.42028 14.6006 7.26083 14.7601C7.10083 14.9201 6.90278 15.0001 6.66667 15.0001ZM13.3333 15.0001C13.0972 15.0001 12.8994 14.9201 12.74 14.7601C12.58 14.6006 12.5 14.4029 12.5 14.1667C12.5 13.9306 12.58 13.7329 12.74 13.5734C12.8994 13.4134 13.0972 13.3334 13.3333 13.3334C13.5694 13.3334 13.7672 13.4134 13.9267 13.5734C14.0867 13.7329 14.1667 13.9306 14.1667 14.1667C14.1667 14.4029 14.0867 14.6006 13.9267 14.7601C13.7672 14.9201 13.5694 15.0001 13.3333 15.0001ZM4.16667 18.3334C3.70833 18.3334 3.31583 18.1704 2.98917 17.8442C2.66306 17.5176 2.5 17.1251 2.5 16.6667V5.00008C2.5 4.54175 2.66306 4.14953 2.98917 3.82341C3.31583 3.49675 3.70833 3.33341 4.16667 3.33341H5V2.50008C5 2.26397 5.07972 2.06591 5.23917 1.90591C5.39917 1.74647 5.59722 1.66675 5.83333 1.66675C6.06944 1.66675 6.2675 1.74647 6.4275 1.90591C6.58694 2.06591 6.66667 2.26397 6.66667 2.50008V3.33341H13.3333V2.50008C13.3333 2.26397 13.4133 2.06591 13.5733 1.90591C13.7328 1.74647 13.9306 1.66675 14.1667 1.66675C14.4028 1.66675 14.6006 1.74647 14.76 1.90591C14.92 2.06591 15 2.26397 15 2.50008V3.33341H15.8333C16.2917 3.33341 16.6842 3.49675 17.0108 3.82341C17.3369 4.14953 17.5 4.54175 17.5 5.00008V16.6667C17.5 17.1251 17.3369 17.5176 17.0108 17.8442C16.6842 18.1704 16.2917 18.3334 15.8333 18.3334H4.16667ZM4.16667 16.6667H15.8333V8.33341H4.16667V16.6667Z" fill="#64748B"/>
</g>
<defs>
<clipPath id="clip0_4968_69169">
<rect width="20" height="20" fill="white"/>
</clipPath>
</defs>
</svg>