<svg width="14" height="14" viewBox="0 0 14 14" fill="none" xmlns="http://www.w3.org/2000/svg">
<g clip-path="url(#clip0_9976_93651)">
<path d="M1.17114 10.5C1.44614 10.5 1.67114 10.275 1.67114 10V5.485H6.18614C6.46114 5.485 6.68614 5.26 6.68614 4.985C6.68614 4.71 6.46114 4.485 6.18614 4.485H1.67114V3.845C1.67114 3.02 2.34614 2.345 3.17114 2.345H9.58614C9.65614 2.345 9.72114 2.33 9.78114 2.305C9.96114 2.23 10.0861 2.05 10.0861 1.845V0.5C10.0861 0.225 9.86114 0 9.58614 0C9.31114 0 9.08614 0.225 9.08614 0.5V1.345H4.91614V0.5C4.91614 0.225 4.69114 0 4.41614 0C4.14114 0 3.91614 0.225 3.91614 0.5V1.345H3.17114C1.79114 1.345 0.671143 2.465 0.671143 3.845V10C0.671143 10.275 0.896143 10.5 1.17114 10.5Z" fill="#156FF7"/>
<path d="M13.1463 0.14125L0.14625 13.1412C-0.04875 13.3362 -0.04875 13.6512 0.14625 13.8462C0.24625 13.9462 0.37125 13.9912 0.50125 13.9912C0.63125 13.9912 0.75625 13.9412 0.85625 13.8462L1.42625 13.2762C1.88625 13.7262 2.51125 13.9912 3.17125 13.9912H10.8313C12.2113 13.9912 13.3313 12.8712 13.3313 11.4912V3.84125C13.3313 3.17125 13.0713 2.55125 12.6163 2.09125L13.8563 0.85125C14.0513 0.65625 14.0513 0.34125 13.8563 0.14625C13.6613 -0.04875 13.3463 -0.04875 13.1513 0.14625L13.1463 0.14125ZM12.3313 11.4962C12.3313 12.3212 11.6563 12.9962 10.8313 12.9962H3.17125C2.77625 12.9962 2.40625 12.8412 2.13125 12.5712L9.22125 5.48125H12.3313V11.4962ZM12.3313 4.48125H10.2213L11.9063 2.79625C12.1763 3.07125 12.3313 3.44125 12.3313 3.84125V4.48125Z" fill="#156FF7"/>
</g>
<defs>
<clipPath id="clip0_9976_93651">
<rect width="14" height="14" fill="white"/>
</clipPath>
</defs>
</svg>
