<svg width="17" height="16" viewBox="0 0 17 16" fill="none" xmlns="http://www.w3.org/2000/svg">
<g clip-path="url(#clip0_1292_11145)">
<g clip-path="url(#clip1_1292_11145)">
<path d="M8.50004 11.3333C8.68893 11.3333 8.84737 11.2693 8.97537 11.1413C9.10337 11.0133 9.16715 10.8551 9.16671 10.6666V7.98331C9.16671 7.79442 9.10271 7.63887 8.97471 7.51665C8.84671 7.39442 8.68849 7.33331 8.50004 7.33331C8.31115 7.33331 8.15271 7.39731 8.02471 7.52531C7.89671 7.65331 7.83293 7.81154 7.83337 7.99998V10.6833C7.83337 10.8722 7.89737 11.0278 8.02537 11.15C8.15337 11.2722 8.3116 11.3333 8.50004 11.3333ZM8.50004 5.99998C8.68893 5.99998 8.84737 5.93598 8.97537 5.80798C9.10337 5.67998 9.16715 5.52176 9.16671 5.33331C9.16671 5.14442 9.10271 4.98598 8.97471 4.85798C8.84671 4.72998 8.68849 4.6662 8.50004 4.66665C8.31115 4.66665 8.15271 4.73065 8.02471 4.85865C7.89671 4.98665 7.83293 5.14487 7.83337 5.33331C7.83337 5.5222 7.89737 5.68065 8.02537 5.80865C8.15337 5.93665 8.3116 6.00042 8.50004 5.99998ZM8.50004 14.6666C7.57782 14.6666 6.71115 14.4915 5.90004 14.1413C5.08893 13.7911 4.38337 13.3162 3.78337 12.7166C3.18337 12.1166 2.70849 11.4111 2.35871 10.6C2.00893 9.78887 1.83382 8.9222 1.83337 7.99998C1.83337 7.07776 2.00849 6.21109 2.35871 5.39998C2.70893 4.58887 3.18382 3.88331 3.78337 3.28331C4.38337 2.68331 5.08893 2.20842 5.90004 1.85865C6.71115 1.50887 7.57782 1.33376 8.50004 1.33331C9.42226 1.33331 10.2889 1.50842 11.1 1.85865C11.9112 2.20887 12.6167 2.68376 13.2167 3.28331C13.8167 3.88331 14.2918 4.58887 14.642 5.39998C14.9923 6.21109 15.1672 7.07776 15.1667 7.99998C15.1667 8.9222 14.9916 9.78887 14.6414 10.6C14.2912 11.4111 13.8163 12.1166 13.2167 12.7166C12.6167 13.3166 11.9112 13.7918 11.1 14.142C10.2889 14.4922 9.42226 14.6671 8.50004 14.6666Z" fill="#64748B"/>
</g>
</g>
<defs>
<clipPath id="clip0_1292_11145">
<rect width="16" height="16" fill="white" transform="translate(0.5)"/>
</clipPath>
<clipPath id="clip1_1292_11145">
<rect width="16" height="16" fill="white" transform="translate(0.5)"/>
</clipPath>
</defs>
</svg>
