<svg width="320" height="114" viewBox="0 0 320 114" fill="none" xmlns="http://www.w3.org/2000/svg">
<mask id="mask0_787_58178" style="mask-type:alpha" maskUnits="userSpaceOnUse" x="0" y="0" width="320" height="114">
<rect y="0.67041" width="320" height="112.659" fill="#D9D9D9"/>
</mask>
<g mask="url(#mask0_787_58178)">
<path d="M164.835 36.33L165.657 26.9532" stroke="#C3C7CA" stroke-width="1.5" stroke-linecap="round"/>
<path d="M189.435 59.3784L180.245 57.3437" stroke="#C3C7CA" stroke-width="1.5" stroke-linecap="round"/>
<path d="M176.4 43.9568L183.611 37.9076" stroke="#C3C7CA" stroke-width="1.5" stroke-linecap="round"/>
<path d="M171.324 38.6287L173.684 34.0621" stroke="#C3C7CA" stroke-width="1.5" stroke-linecap="round"/>
<path d="M184.843 49.2783L179.778 50.1563" stroke="#C3C7CA" stroke-width="1.5" stroke-linecap="round"/>
<path d="M137.767 56.1801L128.576 54.1455" stroke="#C3C7CA" stroke-width="1.5" stroke-linecap="round"/>
<path d="M152.355 86.5706L153.177 77.1939" stroke="#C3C7CA" stroke-width="1.5" stroke-linecap="round"/>
<path d="M141.565 69.5024L133.627 74.5621" stroke="#C3C7CA" stroke-width="1.5" stroke-linecap="round"/>
<path d="M138.008 63.0604L132.944 63.9385" stroke="#C3C7CA" stroke-width="1.5" stroke-linecap="round"/>
<path d="M144.102 79.1546L146.462 74.588" stroke="#C3C7CA" stroke-width="1.5" stroke-linecap="round"/>
<path d="M136.258 25.7117C132.154 19.6706 120.094 9.38746 104.683 16.5838C85.4198 25.5793 121.936 56.0626 106.409 68.4748C90.8829 80.8869 29.5964 28.7602 1.96901 64.87" stroke="#C3C7CA" stroke-width="1.6"/>
<path d="M181.671 87.3052C185.514 92.4498 195.819 102.237 206.286 100.227C219.37 97.716 221.668 88.9476 217.675 80.744C213.683 72.5404 201.641 52.1521 210.936 45.3359C220.231 38.5197 231.908 43.8223 239.355 47.5506C246.801 51.279 286.383 74.0883 318.865 50.2679" stroke="#C3C7CA" stroke-width="1.6"/>
<rect x="154.218" y="71.7367" width="25.7914" height="5.95187" rx="2.97594" transform="rotate(-36.2537 154.218 71.7367)" fill="#C3C7CA"/>
<rect x="159.55" y="73.9765" width="19.8396" height="9.91978" rx="2" transform="rotate(-36.2537 159.55 73.9765)" fill="#C3C7CA"/>
<rect x="164.67" y="77.6029" width="15.8717" height="9.91978" rx="4" transform="rotate(-36.2537 164.67 77.6029)" fill="#C3C7CA"/>
<rect x="169.043" y="76.8563" width="7.93583" height="9.91978" rx="2" transform="rotate(-36.2537 169.043 76.8563)" fill="#C3C7CA"/>
<rect x="176.296" y="85.069" width="5.95187" height="1.98396" rx="0.991978" transform="rotate(-36.2537 176.296 85.069)" fill="#C3C7CA"/>
<rect x="178.322" y="81.1226" width="6.91582" height="1.98396" rx="0.991978" transform="rotate(53.7463 178.322 81.1226)" fill="#C3C7CA"/>
<rect x="178.056" y="87.4688" width="5.95187" height="1.98396" rx="0.991978" transform="rotate(-36.2537 178.056 87.4688)" fill="#C3C7CA"/>
<rect x="163.733" y="41.0986" width="25.7914" height="5.95187" rx="2.97594" transform="rotate(143.746 163.733 41.0986)" fill="#C3C7CA"/>
<rect x="158.4" y="38.8588" width="19.8396" height="9.91978" rx="2" transform="rotate(143.746 158.4 38.8588)" fill="#C3C7CA"/>
<rect x="153.28" y="35.2324" width="15.8717" height="9.91978" rx="4" transform="rotate(143.746 153.28 35.2324)" fill="#C3C7CA"/>
<rect x="148.907" y="35.979" width="7.93583" height="9.91978" rx="2" transform="rotate(143.746 148.907 35.979)" fill="#C3C7CA"/>
<rect x="141.655" y="27.7663" width="5.95187" height="1.98396" rx="0.991978" transform="rotate(143.746 141.655 27.7663)" fill="#C3C7CA"/>
<rect x="139.628" y="31.7126" width="6.91582" height="1.98396" rx="0.991978" transform="rotate(-126.254 139.628 31.7126)" fill="#C3C7CA"/>
<rect x="139.895" y="25.3665" width="5.95187" height="1.98396" rx="0.991978" transform="rotate(143.746 139.895 25.3665)" fill="#C3C7CA"/>
<path d="M148.322 53.6743L150.898 51.7855L155.897 58.6024C156.419 59.3137 156.265 60.3131 155.554 60.8347V60.8347C154.842 61.3562 153.843 61.2025 153.321 60.4912L148.322 53.6743Z" fill="#C3C7CA"/>
<path d="M157.183 47.1767L159.758 45.2879L164.757 52.1049C165.279 52.8161 165.125 53.8155 164.414 54.3371V54.3371C163.703 54.8587 162.703 54.7049 162.182 53.9937L157.183 47.1767Z" fill="#C3C7CA"/>
<path d="M256.146 70.8138C255.577 70.2365 254.448 70.5749 254.291 71.3699L250.196 92.0359C250.159 92.2212 250.171 92.413 250.23 92.5925C250.289 92.772 250.393 92.9332 250.533 93.0603C250.673 93.1874 250.844 93.2761 251.028 93.3177C251.212 93.3594 251.404 93.3526 251.585 93.2979L270.469 87.6363C270.651 87.5824 270.815 87.4826 270.945 87.3464C271.076 87.2103 271.17 87.0426 271.217 86.8596C271.264 86.6766 271.262 86.4846 271.213 86.3023C271.163 86.1201 271.067 85.9537 270.934 85.8195L256.146 70.8138ZM261.133 87.0052L259.035 87.6343L258.406 85.536L260.504 84.9069L261.133 87.0052ZM257.776 83.4378L256.204 78.1921L258.302 77.563L259.876 82.8084L257.776 83.4378Z" fill="#80B2FF"/>
<path d="M64.0059 35.1195L58.2167 32.1484L74.6408 20.0984L69.8869 29.361L75.6761 32.3322L59.252 44.3821L64.0059 35.1195Z" fill="#80B2FF"/>
</g>
</svg>
