<svg width="186" height="162" viewBox="0 0 186 162" fill="none" xmlns="http://www.w3.org/2000/svg">
<path d="M83.0166 25.5124V7.74859C83.0166 3.47582 86.4924 0 90.7652 0H92.8897C97.1625 0 100.638 3.47582 100.638 7.74859V25.4335L99.9538 25.3269C94.602 24.4866 89.0174 24.5122 83.7051 25.3979L83.0166 25.5124ZM90.7652 1.18359C87.1454 1.18359 84.2002 4.12877 84.2002 7.74859V24.1197C89.2029 23.3562 94.4166 23.3326 99.4548 24.0546V7.74859C99.4548 4.12877 96.5096 1.18359 92.8897 1.18359H90.7652Z" fill="#CCD2D6"/>
<path d="M20.5118 148.636C20.494 148.324 20.1449 140.921 26.3213 133.472C27.0906 132.545 27.8797 131.626 28.6451 130.736C34.0876 124.406 39.2303 118.427 39.9563 106.273L39.9602 106.202C39.9642 106.147 39.9661 106.092 39.972 106.034L40.0233 105.5H90.4523C90.4701 105.5 90.478 105.498 90.478 105.498C90.478 105.494 90.4819 105.468 90.478 105.454C90.476 105.454 90.4701 105.452 90.4582 105.448L68.2422 99.779C67.6464 99.6291 67.2578 99.055 67.3426 98.4416C67.607 96.5439 68.2244 90.1308 65.0997 87.229C62.4623 84.7809 59.2173 85.6785 57.5168 86.434C57.1499 86.5958 56.7278 86.5681 56.3865 86.3571C56.0452 86.148 55.8322 85.783 55.8125 85.3845C55.6645 82.0902 54.2186 71.3846 41.8283 71.8403C41.5955 71.8462 41.3647 71.86 41.1182 71.8797L40.4277 71.935L40.481 71.2445C41.3608 59.7578 46.1524 48.7464 53.974 40.2442C61.7521 31.7894 72.2427 26.1003 83.5145 24.2302C88.9511 23.3228 94.6639 23.2972 100.142 24.1572C110.98 25.8577 120.831 30.88 128.627 38.6819C133.742 43.799 137.658 49.7958 140.266 56.5029C142.601 62.4938 143.783 68.828 143.773 75.3299V76.2196C143.755 91.7996 143.882 101.911 144.146 106.275C144.15 106.387 144.158 106.488 144.166 106.591L144.249 107.545L143.357 107.19C142.41 106.814 141.292 106.648 140.027 106.693C133.752 106.924 133.216 111.836 133.275 113.939C133.285 114.252 133.135 114.548 132.876 114.728C132.618 114.907 132.29 114.943 132 114.824C130.902 114.381 128.799 113.917 127.1 115.819C125.382 117.738 126.118 119.561 126.71 120.476C126.86 120.703 126.899 120.987 126.816 121.251C126.733 121.518 126.538 121.731 126.28 121.835L126.226 121.857L112.907 124.459H150.393L150.571 124.705C152.088 126.816 153.79 128.797 155.436 130.712C156.205 131.608 157.002 132.535 157.777 133.47C163.948 140.913 163.602 148.32 163.585 148.632L162.401 148.598C162.401 145.777 154.818 142.803 142.114 140.639C128.746 138.362 110.966 137.108 92.0482 137.108C73.1304 137.108 55.3509 138.362 41.9822 140.639C29.2802 142.803 21.6954 145.777 21.6954 148.598L20.5118 148.632V148.636ZM41.1142 106.683C40.2877 119.01 34.8254 125.362 29.5406 131.507C28.7792 132.393 27.9941 133.306 27.2307 134.228C23.5023 138.723 22.2734 143.252 21.8749 145.985C25.2146 142.897 34.0837 140.787 41.781 139.475C55.2128 137.186 73.0634 135.928 92.0462 135.928C111.029 135.928 128.88 137.188 142.311 139.475C150.009 140.787 158.876 142.897 162.216 145.985C161.815 143.252 160.586 138.723 156.862 134.229C156.094 133.302 155.301 132.379 154.534 131.487C152.934 129.627 151.283 127.704 149.784 125.646H110.234C109.784 125.646 109.41 125.339 109.323 124.897C109.236 124.453 109.471 124.025 109.891 123.857L109.942 123.836L125.516 120.792C124.952 119.756 124.096 117.397 126.213 115.03C128.264 112.733 130.795 113.16 132.083 113.595C132.103 111.347 132.876 105.77 139.978 105.51C141.047 105.47 142.035 105.571 142.927 105.807C142.682 101.172 142.566 91.2236 142.582 76.2176V75.3279C142.592 68.976 141.438 62.7858 139.155 56.9329C136.607 50.3797 132.782 44.521 127.783 39.5203C120.164 31.896 110.54 26.99 99.9507 25.329C94.5988 24.4886 89.0143 24.5143 83.7019 25.4C60.9453 29.1796 43.7694 47.7403 41.71 70.6626C41.7336 70.6626 41.7593 70.6626 41.7829 70.6606C47.5352 70.4496 51.7804 72.4242 54.3961 76.5313C56.4536 79.7625 56.9034 83.4336 56.9902 85.3332C56.9902 85.3372 56.9902 85.3451 57.004 85.353C57.0178 85.3609 57.0276 85.3569 57.0336 85.353C58.6156 84.6507 62.6497 83.3448 65.9006 86.363C69.4455 89.6553 68.7945 96.5656 68.5105 98.6053C68.5105 98.6151 68.5105 98.629 68.5282 98.6329L90.7482 104.302C91.3479 104.454 91.7267 105.01 91.6497 105.626C91.5728 106.239 91.0678 106.685 90.4484 106.685H41.1142V106.683ZM125.712 121.117C125.712 121.117 125.712 121.119 125.714 121.121C125.714 121.121 125.714 121.119 125.712 121.117Z" fill="#CCD2D6"/>
<path d="M92.0466 161.277C73.0658 161.277 55.2172 160.018 41.7873 157.73C32.0838 156.077 20.5162 153.153 20.5122 148.604C20.5122 144.051 32.0799 141.128 41.7834 139.475C55.2152 137.187 73.0657 135.928 92.0486 135.928C111.031 135.928 128.882 137.189 142.314 139.475C152.017 141.128 163.585 144.053 163.585 148.602C163.581 153.153 152.013 156.079 142.31 157.73C128.88 160.016 111.03 161.277 92.0506 161.277H92.0466ZM92.0466 137.112C73.1289 137.112 55.3493 138.366 41.9806 140.643C29.2787 142.807 21.6938 145.781 21.6938 148.602C21.6978 151.425 29.2826 154.4 41.9846 156.564C55.3513 158.84 73.1308 160.093 92.0466 160.093C110.962 160.093 128.742 158.84 142.109 156.564C154.811 154.402 162.396 151.425 162.399 148.604C162.399 145.783 154.817 142.809 142.113 140.645C128.744 138.368 110.964 137.114 92.0466 137.114V137.112Z" fill="#CCD2D6"/>
<path d="M92.0461 158.821C73.8937 158.821 56.8243 157.816 43.9823 155.996C30.4578 154.076 23.5989 151.589 23.5989 148.602C23.5989 147.206 25.0074 145.967 27.9072 144.815C30.4677 143.799 34.1723 142.856 38.9185 142.014C48.3616 140.339 61.61 139.143 76.2215 138.646L76.8231 138.626L76.833 139.228C76.9691 147.478 83.7925 154.191 92.0461 154.191C100.3 154.191 107.125 147.478 107.259 139.228L107.269 138.626L107.871 138.646C122.482 139.141 135.729 140.339 145.172 142.014C149.918 142.856 153.621 143.797 156.181 144.815C159.079 145.967 160.489 147.206 160.489 148.602C160.489 151.589 153.632 154.076 140.108 155.996C127.266 157.818 110.197 158.821 92.0441 158.821H92.0461ZM75.6691 139.851C61.3457 140.356 48.3873 141.536 39.1237 143.179C25.8161 145.541 24.7825 147.926 24.7825 148.602C24.7825 150.281 29.87 152.798 44.148 154.824C56.9368 156.639 73.949 157.637 92.0461 157.637C110.143 157.637 127.153 156.637 139.942 154.824C154.22 152.798 159.306 150.283 159.306 148.602C159.306 147.928 158.272 145.541 144.965 143.179C135.703 141.536 122.743 140.356 108.421 139.851C108.206 143.947 106.49 147.766 103.551 150.66C100.463 153.7 96.3781 155.374 92.0441 155.374C87.7102 155.374 83.6248 153.7 80.5376 150.66C77.5984 147.764 75.8822 143.947 75.6671 139.851H75.6691Z" fill="#CCD2D6"/>
<path d="M92.0465 155.376C87.7145 155.376 83.6272 153.702 80.54 150.662C77.4567 147.626 75.7188 143.572 75.6478 139.25L75.6379 138.668L76.2199 138.648C86.5704 138.301 97.5206 138.301 107.871 138.648L108.453 138.668L108.443 139.25C108.372 143.572 106.634 147.624 103.551 150.662C100.464 153.702 96.3785 155.376 92.0445 155.376H92.0465ZM76.8531 139.812C77.291 147.793 83.9882 154.193 92.0465 154.193C100.105 154.193 106.802 147.793 107.24 139.812C97.2898 139.493 86.8051 139.493 76.8531 139.812Z" fill="#CCD2D6"/>
<g opacity="0.25">
<path d="M171.347 76.2176H143.177V75.326C143.185 68.761 141.958 62.484 139.711 56.716C140.646 56.3254 141.781 56.0749 143.156 56.0255C150.656 55.7513 151.526 62.2256 151.616 64.2002C151.628 64.4527 151.889 64.6125 152.123 64.5119C153.066 64.0917 155.177 63.4467 156.889 65.0366C158.824 66.8337 158.452 70.7041 158.296 71.8324C158.27 72.0139 158.387 72.1816 158.562 72.2289L171.436 75.5114C171.846 75.616 171.769 76.2176 171.347 76.2176Z" fill="#D1E7FF"/>
<path d="M90.4518 106.093H2.1103C1.42973 106.093 1.24825 105.153 1.8795 104.9L16.1576 99.1773C16.5186 99.0314 16.6586 98.5974 16.4495 98.2699C15.4672 96.751 13.4728 92.6321 17.2642 88.3928C20.9452 84.2798 25.5711 85.5029 27.5004 86.2821C27.9126 86.4478 28.3585 86.1361 28.3486 85.6903C28.2559 82.394 28.9424 72.1342 41.0722 71.2919C41.3109 71.2721 41.5555 71.2583 41.8061 71.2504C54.7546 70.775 56.2518 81.9482 56.4057 85.3569C56.4274 85.7948 56.8791 86.073 57.2815 85.8935C58.9129 85.1695 62.5525 84.055 65.5056 86.7989C68.8453 89.8999 68.2022 96.5813 67.9319 98.5264C67.8885 98.84 68.0858 99.132 68.3915 99.2089L90.6096 104.876C91.3138 105.058 91.1856 106.095 90.4557 106.095H90.4518V106.093Z" fill="#D1E7FF"/>
<path d="M184.174 125.055H110.236C109.866 125.055 109.769 124.544 110.112 124.406L126.055 121.291C126.25 121.212 126.327 120.975 126.213 120.798C125.678 119.973 124.595 117.73 126.659 115.424C128.659 113.187 131.174 113.854 132.226 114.276C132.449 114.367 132.691 114.197 132.685 113.954C132.632 112.124 133.025 106.358 140.008 106.101C141.438 106.05 142.614 106.257 143.576 106.64C147.348 108.137 147.879 112.297 147.946 113.775C147.958 114.012 148.204 114.164 148.421 114.063C149.307 113.67 151.287 113.065 152.895 114.556C154.712 116.243 154.361 119.878 154.213 120.938C154.191 121.105 154.298 121.265 154.463 121.307L184.258 124.392C184.641 124.488 184.572 125.055 184.176 125.055H184.174Z" fill="#D1E7FF"/>
</g>
<path d="M171.346 76.8094H142.585V75.326C142.592 68.976 141.44 62.7858 139.158 56.929L138.949 56.3905L139.482 56.1675C140.533 55.7276 141.762 55.4811 143.133 55.4317C146.514 55.3075 149.118 56.5246 150.663 58.949C151.775 60.6948 152.099 62.6536 152.186 63.8412C153.288 63.4151 155.476 62.916 157.289 64.6007C159.321 66.4885 159.08 70.2858 158.904 71.7042L171.579 74.9354C172.05 75.0557 172.348 75.4937 172.287 75.975C172.226 76.4583 171.829 76.8074 171.344 76.8074H171.346V76.8094ZM143.768 75.6278H169.492L158.415 72.803C157.946 72.6787 157.644 72.2269 157.709 71.7535C158.015 69.5481 157.855 66.743 156.486 65.4706C155.058 64.143 153.29 64.6381 152.365 65.0524C152.071 65.1806 151.738 65.1569 151.471 64.9893C151.207 64.8236 151.039 64.5375 151.028 64.2258C150.919 61.8567 149.939 56.3648 143.18 56.6173C142.182 56.6528 141.277 56.8027 140.48 57.0631C142.673 62.8904 143.78 69.0332 143.772 75.328V75.6278H143.768Z" fill="#CCD2D6"/>
<path d="M90.4514 106.685H2.10994C1.52209 106.685 1.03484 106.281 0.922404 105.705C0.809962 105.127 1.11375 104.571 1.65821 104.352L15.9363 98.6289C15.9363 98.6289 15.9481 98.623 15.9521 98.6112C15.956 98.5993 15.9521 98.5934 15.9481 98.5895C14.8651 96.9127 12.7761 92.5216 16.82 87.9983C20.7752 83.5795 25.7581 84.9426 27.719 85.7337C27.7229 85.7337 27.7308 85.7376 27.7407 85.7297C27.7525 85.7218 27.7525 85.712 27.7525 85.7041C27.6598 82.4097 28.3404 71.5818 41.0265 70.7C41.2672 70.6803 41.5236 70.6665 41.782 70.6567C47.5363 70.4456 51.7834 72.4202 54.3992 76.5273C56.4566 79.7585 56.9064 83.4276 56.9932 85.3293C56.9932 85.3352 56.9932 85.3431 57.007 85.351C57.0188 85.3589 57.0267 85.3549 57.0366 85.351C58.6206 84.6487 62.6527 83.3428 65.9037 86.3629C69.4446 89.6494 68.7976 96.5635 68.5135 98.6052C68.5115 98.625 68.5253 98.6309 68.5313 98.6329L90.7513 104.302C91.3509 104.458 91.7297 105.014 91.6528 105.628C91.5739 106.251 91.0787 106.685 90.4514 106.685ZM2.09219 105.502H90.4494C90.4672 105.502 90.4751 105.5 90.4751 105.5C90.4751 105.494 90.481 105.468 90.4751 105.454C90.4751 105.454 90.4672 105.45 90.4554 105.448L68.2393 99.781C67.6416 99.631 67.255 99.055 67.3398 98.4435C67.6021 96.5478 68.2176 90.1307 65.0969 87.2329C62.4594 84.7828 59.2144 85.6804 57.5159 86.434C57.149 86.5977 56.7269 86.5701 56.3856 86.361C56.0443 86.1519 55.8293 85.7869 55.8096 85.3865C55.6597 82.0921 54.2117 71.3846 41.8235 71.8422C41.5808 71.8501 41.3441 71.8639 41.1153 71.8817C29.7922 72.6668 28.8256 81.7884 28.9361 85.6745C28.946 86.0868 28.7526 86.4695 28.4173 86.7022C28.0819 86.935 27.6578 86.9824 27.2791 86.8324C25.549 86.1341 21.1579 84.9288 17.7038 88.7873C14.2023 92.7011 16.0073 96.4984 16.9443 97.9484C17.1396 98.2561 17.1889 98.6269 17.0785 98.9702C16.968 99.3154 16.7135 99.5896 16.3762 99.7257L2.09614 105.448C2.0843 105.454 2.07838 105.458 2.07838 105.458C2.07838 105.466 2.08233 105.492 2.09022 105.502H2.09219Z" fill="#CCD2D6"/>
<path d="M184.172 125.646H110.235C109.783 125.646 109.408 125.337 109.323 124.895C109.238 124.451 109.471 124.025 109.891 123.857L109.943 123.836L109.998 123.826L125.519 120.794C124.955 119.76 124.096 117.399 126.215 115.032C128.265 112.739 130.798 113.163 132.086 113.597C132.105 111.355 132.877 105.772 139.98 105.512C141.407 105.46 142.689 105.656 143.789 106.092C147.636 107.618 148.372 111.696 148.508 113.388C149.573 112.988 151.605 112.558 153.292 114.124C155.18 115.878 154.992 119.36 154.828 120.75L184.357 123.808L184.399 123.818C184.858 123.934 185.15 124.36 185.093 124.832C185.034 125.303 184.647 125.646 184.172 125.646ZM112.902 124.463H179.195L154.355 121.891L154.314 121.881C153.856 121.766 153.558 121.328 153.619 120.861C153.72 120.145 154.134 116.521 152.485 114.99C151.161 113.761 149.516 114.221 148.654 114.605C148.378 114.732 148.052 114.712 147.79 114.55C147.528 114.39 147.362 114.11 147.348 113.803C147.279 112.264 146.752 108.54 143.352 107.19C142.403 106.814 141.284 106.646 140.022 106.693C133.747 106.924 133.21 111.836 133.269 113.937C133.277 114.256 133.125 114.55 132.867 114.728C132.61 114.905 132.283 114.941 131.995 114.822C130.894 114.379 128.791 113.917 127.093 115.817C125.375 117.736 126.111 119.559 126.702 120.474C126.852 120.703 126.892 120.987 126.809 121.251C126.726 121.518 126.531 121.731 126.27 121.837L126.217 121.859L126.16 121.871L112.898 124.463H112.902ZM148.175 113.524C148.175 113.524 148.171 113.524 148.171 113.526C148.171 113.526 148.175 113.526 148.175 113.524Z" fill="#CCD2D6"/>
</svg>
