<svg width="12" height="12" viewBox="0 0 12 12" fill="none" xmlns="http://www.w3.org/2000/svg">
<path d="M8.07526 0.140046L8.13792 0.19538L11.8046 3.86205C11.917 3.97503 11.9852 4.12453 11.9968 4.28347C12.0085 4.4424 11.9628 4.60025 11.8681 4.72841C11.7734 4.85657 11.6359 4.94657 11.4805 4.98209C11.3252 5.01761 11.1623 4.99631 11.0213 4.92205L8.90659 7.03605L7.95726 9.56738C7.93225 9.63417 7.89669 9.69652 7.85192 9.75205L7.80526 9.80538L6.80526 10.8054C6.69038 10.9201 6.5376 10.9889 6.37558 10.999C6.21357 11.009 6.05345 10.9596 5.92526 10.86L5.86192 10.8047L3.99992 8.94338L1.47126 11.4714C1.35128 11.5909 1.1903 11.6604 1.021 11.6655C0.851701 11.6707 0.686781 11.6112 0.559737 11.4992C0.432694 11.3872 0.353053 11.231 0.33699 11.0624C0.320928 10.8938 0.369648 10.7254 0.473256 10.5914L0.52859 10.5287L3.05659 8.00005L1.19526 6.13805C1.08047 6.02325 1.01152 5.87052 1.00133 5.7085C0.991143 5.54648 1.04042 5.38632 1.13992 5.25805L1.19526 5.19538L2.19526 4.19538C2.24556 4.1449 2.30363 4.10281 2.36726 4.07071L2.43259 4.04271L4.96326 3.09271L7.07726 0.97938C7.00517 0.844601 6.98158 0.689144 7.01045 0.539049C7.03932 0.388954 7.11888 0.253336 7.23582 0.154911C7.35276 0.0564862 7.49997 0.00123267 7.65279 -0.00159482C7.80561 -0.00442232 7.95476 0.0460147 8.07526 0.140046Z" fill="#64748B"/>
</svg>
