<svg width="17" height="16" viewBox="0 0 17 16" fill="none" xmlns="http://www.w3.org/2000/svg">
<g clip-path="url(#clip0_571_4077)">
<path d="M10.5753 2.14005L10.6379 2.19538L14.3046 5.86205C14.417 5.97503 14.4852 6.12453 14.4968 6.28347C14.5085 6.4424 14.4628 6.60025 14.3681 6.72841C14.2734 6.85657 14.1359 6.94657 13.9805 6.98209C13.8252 7.01761 13.6623 6.99631 13.5213 6.92205L11.4066 9.03605L10.4573 11.5674C10.4322 11.6342 10.3967 11.6965 10.3519 11.752L10.3053 11.8054L9.30526 12.8054C9.19038 12.9201 9.0376 12.9889 8.87558 12.999C8.71357 13.009 8.55345 12.9596 8.42526 12.86L8.36192 12.8047L6.49992 10.9434L3.97126 13.4714C3.85128 13.5909 3.6903 13.6604 3.521 13.6655C3.3517 13.6707 3.18678 13.6112 3.05974 13.4992C2.93269 13.3872 2.85305 13.231 2.83699 13.0624C2.82093 12.8938 2.86965 12.7254 2.97326 12.5914L3.02859 12.5287L5.55659 10L3.69526 8.13805C3.58047 8.02325 3.51152 7.87052 3.50133 7.7085C3.49114 7.54648 3.54042 7.38632 3.63992 7.25805L3.69526 7.19538L4.69526 6.19538C4.74556 6.1449 4.80363 6.10281 4.86726 6.07071L4.93259 6.04271L7.46326 5.09271L9.57726 2.97938C9.50517 2.8446 9.48158 2.68914 9.51045 2.53905C9.53932 2.38895 9.61888 2.25334 9.73582 2.15491C9.85276 2.05649 9.99997 2.00123 10.1528 1.99841C10.3056 1.99558 10.4548 2.04601 10.5753 2.14005Z" fill="#6EAC51"/>
</g>
<defs>
<clipPath id="clip0_571_4077">
<rect width="16" height="16" fill="white" transform="translate(0.5)"/>
</clipPath>
</defs>
</svg>
