<svg width="16" height="16" viewBox="0 0 16 16" fill="none" xmlns="http://www.w3.org/2000/svg">
<g clip-path="url(#clip0_92_12121)">
<path fill-rule="evenodd" clip-rule="evenodd" d="M8.00002 7.1999C8.63654 7.1999 9.24699 6.94705 9.69708 6.49696C10.1472 6.04687 10.4 5.43642 10.4 4.7999C10.4 4.16338 10.1472 3.55293 9.69708 3.10285C9.24699 2.65276 8.63654 2.3999 8.00002 2.3999C7.36351 2.3999 6.75306 2.65276 6.30297 3.10285C5.85288 3.55293 5.60002 4.16338 5.60002 4.7999C5.60002 5.43642 5.85288 6.04687 6.30297 6.49696C6.75306 6.94705 7.36351 7.1999 8.00002 7.1999ZM2.40002 14.3999C2.40002 13.6645 2.54487 12.9363 2.8263 12.2569C3.10773 11.5775 3.52022 10.9601 4.04023 10.4401C4.56023 9.9201 5.17757 9.5076 5.857 9.22618C6.53642 8.94475 7.26462 8.7999 8.00002 8.7999C8.73543 8.7999 9.46363 8.94475 10.1431 9.22618C10.8225 9.5076 11.4398 9.9201 11.9598 10.4401C12.4798 10.9601 12.8923 11.5775 13.1738 12.2569C13.4552 12.9363 13.6 13.6645 13.6 14.3999H2.40002Z" fill="#64748B"/>
</g>
<defs>
<clipPath id="clip0_92_12121">
<rect width="16" height="16" fill="white"/>
</clipPath>
</defs>
</svg>
