<svg width="16" height="18" viewBox="0 0 16 18" fill="none" xmlns="http://www.w3.org/2000/svg">
<path d="M7.78925 0.950763C7.90848 0.883104 8.05466 0.883079 8.17391 0.950687L7.78925 0.950763ZM7.78925 0.950763C7.78924 0.950766 7.78924 0.950769 7.78923 0.950773L1.09857 4.7325C1.09856 4.73251 1.09854 4.73252 1.09852 4.73253C0.975758 4.80185 0.9 4.93194 0.9 5.07283V12.9273C0.9 13.0682 0.97575 13.1983 1.09852 13.2676C1.09854 13.2676 1.09856 13.2676 1.09858 13.2677L7.78938 17.0495C7.90859 17.1168 8.0547 17.1168 8.17391 17.0495L14.8647 13.2677C14.8647 13.2676 14.8648 13.2676 14.8648 13.2676C14.9875 13.1983 15.0633 13.0682 15.0633 12.9273V5.07283C15.0633 4.93195 14.9875 4.80185 14.8648 4.73253C14.8648 4.73252 14.8647 4.73251 14.8647 4.7325L8.17406 0.950773L7.83859 1.03774L7.78938 0.950687L7.78925 0.950763ZM1.68174 12.2436V5.75522L6.06052 8.32549L5.11381 10.2248L1.68174 12.2436ZM7.59055 12.8626L7.59063 16.0392L2.07317 12.9206L4.72477 11.3607C4.74298 11.3961 4.7668 11.4291 4.79601 11.4583C5.62376 12.2861 6.59144 12.7636 7.59055 12.8626ZM11.1671 11.4583C11.1946 11.4309 11.2172 11.4001 11.235 11.3671L13.8886 12.9214L8.3726 16.0392V12.8626C9.37176 12.7636 10.3394 12.286 11.1671 11.4583ZM9.89818 8.32849L14.2816 5.75548V12.2454L10.8563 10.2392L9.89818 8.32849ZM8.36061 5.26286L8.37058 1.95995L13.8895 5.0792L9.54696 7.62819L8.36061 5.26286ZM7.58886 1.96215L7.57889 5.28036L6.41025 7.62442L2.07401 5.07925L7.58886 1.96215Z" fill="#0F172A" stroke="#0F172A" stroke-width="0.2"/>
</svg>
