<svg width="20" height="22" viewBox="0 0 20 22" fill="none" xmlns="http://www.w3.org/2000/svg">
<path d="M10.2282 0.960209C10.0867 0.87993 9.91328 0.87993 9.77183 0.960209L1.40845 5.6874C1.26283 5.7696 1.17295 5.9239 1.17295 6.09104V15.9092C1.17295 16.0763 1.2628 16.2306 1.4084 16.3128C1.40842 16.3128 1.40844 16.3128 1.40846 16.3128L9.77198 21.0401C9.91336 21.12 10.0867 21.12 10.228 21.0401L18.5916 16.3128C18.5916 16.3128 18.5916 16.3128 18.5916 16.3128C18.7372 16.2306 18.8271 16.0763 18.8271 15.9092V6.09104C18.8271 5.92393 18.7372 5.76963 18.5916 5.68743C18.5916 5.68742 18.5916 5.68741 18.5916 5.6874L10.2282 0.960209ZM2.10013 15.0982V6.90036L7.63139 10.1471L6.43428 12.5487L2.10013 15.0982ZM9.53613 15.8055L9.53624 19.8419L2.56438 15.9011L5.9397 13.9155C5.96237 13.9666 5.99451 14.0141 6.03564 14.0552C7.07302 15.0926 8.28575 15.6874 9.53613 15.8055ZM13.9642 14.0552C14.0031 14.0163 14.0339 13.9717 14.0563 13.9238L17.4339 15.9021L10.4637 19.8419V15.8055C11.7141 15.6874 12.9269 15.0926 13.9642 14.0552ZM12.3628 10.1509L17.9 6.90069V15.1003L13.5743 12.5668L12.3628 10.1509ZM10.4487 6.33445L10.4613 2.15716L17.4349 6.09859L11.9463 9.32031L10.4487 6.33445ZM9.52155 6.35638L8.0462 9.31564L2.56537 6.09865L9.53415 2.15976L9.52155 6.35638Z" fill="#475569" stroke="#475569" stroke-width="0.2"/>
</svg>
