<svg width="24" height="24" viewBox="0 0 24 24" fill="none" xmlns="http://www.w3.org/2000/svg">
<g clip-path="url(#clip0_9578_110372)">
<g clip-path="url(#clip1_9578_110372)">
<rect width="24" height="24" rx="12" fill="#DBEAFE"/>
<rect width="24" height="24" fill="#DBEAFE"/>
<path d="M12.671 4.47016C12.5649 4.40995 12.4348 4.40995 12.3287 4.47016M12.671 4.47016L12.634 4.53538L12.6709 4.47009L12.671 4.47016ZM12.671 4.47016L18.9436 8.01555C19.0528 8.0772 19.1202 8.19293 19.1202 8.31828V15.6819C19.1202 15.8072 19.0528 15.9229 18.9436 15.9846L12.6709 19.5301C12.5649 19.59 12.4349 19.59 12.3289 19.5301L6.05622 15.9846C5.947 15.9229 5.87959 15.8072 5.87959 15.6819V8.31828C5.87959 8.19293 5.947 8.0772 6.05622 8.01555M12.3287 4.47016L6.05622 8.01555M12.3287 4.47016L12.3289 4.47009L12.3658 4.53538L12.3287 4.47016ZM6.05622 8.01555L6.09309 8.08086L6.05618 8.01557L6.05622 8.01555ZM6.57497 15.0737V8.92527L10.7234 11.3603L9.82559 13.1615L6.57497 15.0737ZM12.152 15.6041L12.1521 18.6314L6.92316 15.6758L9.45466 14.1866C9.47165 14.2249 9.49576 14.2606 9.52661 14.2914C10.3046 15.0694 11.2142 15.5156 12.152 15.6041ZM15.473 14.2914C15.5022 14.2622 15.5253 14.2288 15.5421 14.1929L18.0753 15.6766L12.8477 18.6314V15.6041C13.7855 15.5156 14.695 15.0694 15.473 14.2914ZM14.272 11.3632L18.4249 8.92552V15.0753L15.1806 13.1751L14.272 11.3632ZM12.8364 8.50084L12.8459 5.36787L18.0761 8.32394L13.9596 10.7402L12.8364 8.50084ZM12.141 8.51728L11.0345 10.7367L6.92391 8.32399L12.1505 5.36982L12.141 8.51728Z" fill="white" stroke="white" stroke-width="0.15"/>
</g>
</g>
<defs>
<clipPath id="clip0_9578_110372">
<rect width="24" height="24" rx="3" fill="white"/>
</clipPath>
<clipPath id="clip1_9578_110372">
<rect width="24" height="24" rx="12" fill="white"/>
</clipPath>
</defs>
</svg>
