<svg width="130" height="94" viewBox="0 0 130 94" fill="none" xmlns="http://www.w3.org/2000/svg">
<path opacity="0.0526316" d="M147.331 -2.65964C147.934 1.58982 146.165 11.4774 134.271 17.0322C119.404 23.9757 104.685 17.6915 89.506 21.9793C78.3031 25.144 52.967 38.4144 48.5337 56.1805" stroke="#94A3B8" stroke-width="0.490122"/>
<path opacity="0.105263" d="M144.046 -9.5429C145.089 -5.37971 144.364 4.63858 133.116 11.4062C119.056 19.8657 103.76 15.1545 89.1131 21.0054C78.3024 25.3239 54.4922 41.1698 51.9403 59.302" stroke="#94A3B8" stroke-width="0.490122"/>
<path opacity="0.157895" d="M140.248 -16.0575C141.721 -12.0262 142.047 -1.98701 131.568 5.91924C118.469 15.8021 102.765 12.7156 88.8095 20.0655C78.5093 25.4903 56.4859 43.7383 55.8433 62.0379" stroke="#94A3B8" stroke-width="0.490122"/>
<path opacity="0.210526" d="M135.984 -22.1489C137.87 -18.2936 139.244 -8.34347 129.648 0.614818C117.655 11.8127 101.713 10.3847 88.6027 19.1531C78.9261 25.6248 58.9307 46.0749 60.2045 64.3414" stroke="#94A3B8" stroke-width="0.490122"/>
<path opacity="0.263158" d="M131.302 -27.7673C133.581 -24.1303 135.987 -14.3782 127.381 -4.46606C116.623 7.92418 100.62 8.1703 88.4974 18.2611C79.5503 25.7089 61.8021 48.1371 64.9783 66.1704" stroke="#94A3B8" stroke-width="0.490122"/>
<path opacity="0.315789" d="M126.25 -32.8797C128.897 -29.5008 132.309 -20.0537 124.786 -9.29623C115.382 4.15062 99.4926 6.06816 88.4914 17.3708C80.3718 25.713 65.0652 49.8735 70.109 67.476" stroke="#94A3B8" stroke-width="0.490122"/>
<path opacity="0.368421" d="M120.887 -37.45C123.872 -34.3663 128.254 -25.3276 121.896 -13.8427C113.95 0.513429 98.3475 4.08139 88.5881 16.472C81.3849 25.6173 68.6876 51.2454 75.5437 68.2243" stroke="#94A3B8" stroke-width="0.490122"/>
<path opacity="0.421053" d="M115.267 -41.4391C118.558 -38.6843 123.86 -30.153 118.738 -18.0665C112.336 -2.95838 97.1918 2.22091 88.7811 15.5638C82.5733 25.4119 72.6245 52.2269 81.2178 68.396" stroke="#94A3B8" stroke-width="0.490122"/>
<path opacity="0.473684" d="M109.453 -44.8316C113.014 -42.4359 119.179 -34.5056 115.348 -21.9499C110.56 -6.25533 96.0407 0.47854 89.0707 14.6275C83.9264 25.0705 76.835 52.7785 87.0713 67.9609" stroke="#94A3B8" stroke-width="0.490122"/>
<path opacity="0.526316" d="M103.512 -47.6091C107.304 -45.5988 114.264 -38.3563 111.767 -25.469C108.646 -9.3599 94.9097 -1.14523 89.4569 13.6548C85.4323 24.5783 81.276 52.8758 93.0433 66.905" stroke="#156FF7" stroke-width="0.6"/>
<path opacity="0.578947" d="M97.5023 -49.7574C101.484 -48.1544 109.162 -41.6791 108.026 -28.6014C106.606 -12.2542 93.8035 -2.64874 89.9276 12.6402C87.0669 23.9246 85.8913 52.5015 99.0605 65.2238" stroke="#77FF85" stroke-width="0.6"/>
<path opacity="0.631579" d="M91.4984 -51.2739C95.6255 -50.0959 103.939 -44.4587 104.176 -31.3338C104.472 -14.9278 92.7441 -4.03673 90.4875 11.5736C88.822 23.0952 90.6399 51.6384 105.067 62.9145" stroke="#156FF7" stroke-width="0.6"/>
<path opacity="0.684211" d="M85.5632 -52.1643C89.7908 -51.4242 98.648 -46.6868 100.256 -33.6586C102.265 -17.3734 91.7397 -5.31612 91.1272 10.4446C90.6751 22.0771 95.4667 50.274 110.993 59.9803" stroke="#77FF85" stroke-width="0.490122"/>
<path opacity="0.736842" d="M79.7578 -52.4457C84.0396 -52.1516 93.3435 -48.366 96.304 -35.5772C100.005 -19.5912 90.7974 -6.49981 91.8357 9.23857C92.6021 20.8547 100.315 48.3962 116.771 56.4263" stroke="#156FF7" stroke-width="0.6"/>
<path opacity="0.789474" d="M74.1497 -52.1234C78.4389 -52.2785 88.0875 -49.4862 92.3686 -37.0769C97.7199 -21.5653 89.9316 -7.58317 92.6093 7.96045C94.5857 19.4328 105.135 46.0173 122.34 52.2833" stroke="#156FF7" stroke-width="0.6"/>
<path opacity="0.842105" d="M68.7974 -51.2296C73.0469 -51.8321 82.9345 -50.0637 88.4892 -38.1699C95.4327 -23.3027 89.1485 -8.58303 93.4363 6.59555C96.6011 17.7985 109.871 43.1346 127.637 47.5678" stroke="#30C593" stroke-width="0.6"/>
<path opacity="0.894737" d="M63.754 -49.7922C67.9172 -50.8355 77.9355 -50.1103 84.703 -38.8623C93.1625 -24.8023 88.4514 -9.50643 94.3023 5.1408C98.6207 15.9515 114.467 39.7617 132.599 42.3136" stroke="#156FF7" stroke-width="0.6"/>
<path opacity="0.947368" d="M59.0909 -47.846C63.1222 -49.3188 73.1614 -49.6448 81.0677 -39.1658C90.9505 -26.067 87.864 -10.3625 95.2139 3.59288C100.639 13.893 118.887 35.9164 137.186 36.559" stroke="#30C593" stroke-width="0.6"/>
<path d="M54.8511 -45.4292C58.7064 -47.3154 68.6565 -48.6889 77.6148 -39.0938C88.8127 -27.0998 87.3847 -11.1587 96.1531 1.95196C102.625 11.6286 123.075 31.6239 141.341 30.3502" stroke="#30C593" stroke-width="0.6"/>
</svg>
