<svg width="25" height="25" viewBox="0 0 25 25" fill="none" xmlns="http://www.w3.org/2000/svg">
<path d="M15.3576 10.495C15.7291 10.3685 15.9983 10.0185 15.9983 9.60265C15.9983 9.12486 15.6389 8.72916 15.1773 8.66994L15.7479 7.20292C15.826 6.99969 15.7762 6.77223 15.6201 6.62015C15.4639 6.4694 15.2338 6.42768 15.0333 6.51247L13.9054 6.99565L13.149 6.23791C13.0467 6.13697 12.9121 6.08179 12.7681 6.08179C12.6241 6.08179 12.4882 6.13831 12.3872 6.23926L11.6295 6.997L10.5016 6.51382C10.3024 6.42768 10.0723 6.47075 9.91616 6.62149C9.76004 6.77358 9.70889 7.00103 9.7883 7.20426L10.359 8.67129C9.89597 8.73051 9.53797 9.1262 9.53797 9.60399C9.53797 10.0185 9.8058 10.3698 10.1773 10.4963C9.10863 11.9418 8.32666 13.8934 8.32666 14.9862C8.32666 15.923 8.86636 16.7547 9.84887 17.3294C10.6672 17.8072 11.7304 18.0818 12.7681 18.0818C13.8045 18.0818 14.8691 17.8072 15.686 17.3294C16.6685 16.7561 17.2096 15.9243 17.2096 14.9862C17.2096 13.8934 16.4276 11.9418 15.3576 10.495ZM10.2903 7.00911L11.5851 7.56362C11.686 7.60803 11.8031 7.58515 11.8812 7.50709L12.7681 6.62015L13.6537 7.50709C13.7318 7.58515 13.8489 7.60669 13.9512 7.56362L15.2459 7.00911L14.6026 8.66187H10.9337L10.2903 7.00911ZM10.0763 9.60265C10.0763 9.38058 10.2567 9.19888 10.4801 9.19888H15.0561C15.2782 9.19888 15.4599 9.38058 15.4599 9.60265C15.4599 9.82607 15.2782 10.0064 15.0561 10.0064H10.4801C10.2567 10.0064 10.0763 9.82741 10.0763 9.60265ZM12.7681 17.5434C11.1934 17.5434 8.86502 16.7305 8.86502 14.9862C8.86502 13.8759 9.75869 11.8786 10.83 10.5448H14.7062C15.7762 11.8786 16.6712 13.8759 16.6712 14.9862C16.6712 16.7319 14.3415 17.5434 12.7681 17.5434Z" fill="white" stroke="white" stroke-width="0.6"/>
<circle cx="12.3267" cy="12.0818" r="11.5" fill="url(#paint0_linear_804_88205)" stroke="#E2E8F0"/>
<path d="M15.1633 10.495C15.5347 10.3685 15.8039 10.0185 15.8039 9.60265C15.8039 9.12486 15.4446 8.72916 14.9829 8.66994L15.5536 7.20292C15.6317 6.99969 15.5819 6.77223 15.4257 6.62015C15.2696 6.4694 15.0395 6.42768 14.8389 6.51247L13.7111 6.99565L12.9547 6.23791C12.8524 6.13697 12.7178 6.08179 12.5738 6.08179C12.4298 6.08179 12.2938 6.13831 12.1929 6.23926L11.4352 6.997L10.3073 6.51382C10.1081 6.42768 9.87795 6.47075 9.72183 6.62149C9.5657 6.77358 9.51456 7.00103 9.59397 7.20426L10.1646 8.67129C9.70164 8.73051 9.34363 9.1262 9.34363 9.60399C9.34363 10.0185 9.61146 10.3698 9.98293 10.4963C8.91429 11.9418 8.13232 13.8934 8.13232 14.9862C8.13232 15.923 8.67203 16.7547 9.65453 17.3294C10.4728 17.8072 11.5361 18.0818 12.5738 18.0818C13.6101 18.0818 14.6747 17.8072 15.4917 17.3294C16.4742 16.7561 17.0152 15.9243 17.0152 14.9862C17.0152 13.8934 16.2333 11.9418 15.1633 10.495ZM10.096 7.00911L11.3907 7.56362C11.4917 7.60803 11.6088 7.58515 11.6868 7.50709L12.5738 6.62015L13.4594 7.50709C13.5374 7.58515 13.6545 7.60669 13.7568 7.56362L15.0516 7.00911L14.4082 8.66187H10.7393L10.096 7.00911ZM9.88199 9.60265C9.88199 9.38058 10.0623 9.19888 10.2858 9.19888H14.8618C15.0839 9.19888 15.2656 9.38058 15.2656 9.60265C15.2656 9.82607 15.0839 10.0064 14.8618 10.0064H10.2858C10.0623 10.0064 9.88199 9.82741 9.88199 9.60265ZM12.5738 17.5434C10.9991 17.5434 8.67068 16.7305 8.67068 14.9862C8.67068 13.8759 9.56436 11.8786 10.6357 10.5448H14.5119C15.5819 11.8786 16.4769 13.8759 16.4769 14.9862C16.4769 16.7319 14.1471 17.5434 12.5738 17.5434Z" fill="white" stroke="white" stroke-width="0.6"/>
<defs>
<linearGradient id="paint0_linear_804_88205" x1="4.92318" y1="2.62532" x2="24.1938" y2="13.6877" gradientUnits="userSpaceOnUse">
<stop stop-color="#FFBF42"/>
<stop offset="1" stop-color="#FFA63D"/>
</linearGradient>
</defs>
</svg>
