<svg width="25" height="25" viewBox="0 0 25 25" fill="none" xmlns="http://www.w3.org/2000/svg">
<circle cx="12.3262" cy="12.5" r="12" fill="#156FF7"/>
<g clip-path="url(#clip0_943_6121)">
<g clip-path="url(#clip1_943_6121)">
<path d="M13.9439 15.6111H17.9881V19.5M10.7085 9.38889H6.66427V5.5M18.3262 10.169C17.8727 9.08959 17.1134 8.15417 16.1345 7.46907C15.1557 6.78397 13.9966 6.37667 12.789 6.29346C11.5815 6.21025 10.3738 6.45447 9.30343 6.99837C8.23301 7.54227 7.34275 8.36402 6.73383 9.37022M6.32617 14.831C6.77977 15.9102 7.53909 16.8454 8.51784 17.5304C9.49659 18.2153 10.6555 18.6225 11.8629 18.7058C13.0704 18.789 14.2778 18.5448 15.3481 18.0011C16.4185 17.4573 17.3087 16.6358 17.9177 15.6298" stroke="white" stroke-width="1.5" stroke-linecap="round" stroke-linejoin="round"/>
</g>
</g>
<defs>
<clipPath id="clip0_943_6121">
<rect width="14" height="16" fill="white" transform="translate(5.32617 4.5)"/>
</clipPath>
<clipPath id="clip1_943_6121">
<rect width="14" height="16" fill="white" transform="translate(5.32617 4.5)"/>
</clipPath>
</defs>
</svg>
