<svg width="24" height="24" viewBox="0 0 24 24" fill="none" xmlns="http://www.w3.org/2000/svg">
<rect width="24" height="24" rx="12" fill="#E2E8F0"/>
<g clip-path="url(#clip0_2157_54051)">
<g clip-path="url(#clip1_2157_54051)">
<path d="M13.3334 14.6667H16.6667V18M10.6667 9.33333H7.33335V6M16.9454 10.002C16.5716 9.07679 15.9457 8.27501 15.1389 7.68778C14.3322 7.10055 13.3768 6.75143 12.3815 6.68011C11.3862 6.60878 10.3909 6.81812 9.50861 7.28432C8.62635 7.75052 7.89257 8.45488 7.39069 9.31733M7.05469 13.998C7.42855 14.923 8.0544 15.7247 8.86111 16.3118C9.66781 16.8989 10.623 17.2479 11.6182 17.3192C12.6134 17.3905 13.6086 17.1813 14.4908 16.7152C15.373 16.2491 16.1067 15.5449 16.6087 14.6827" stroke="#94A3B8" stroke-width="1.3" stroke-linecap="round" stroke-linejoin="round"/>
</g>
</g>
<defs>
<clipPath id="clip0_2157_54051">
<rect width="16" height="16" fill="white" transform="translate(4 4)"/>
</clipPath>
<clipPath id="clip1_2157_54051">
<rect width="16" height="16" fill="white" transform="translate(4 4)"/>
</clipPath>
</defs>
</svg>
