<svg width="18" height="18" viewBox="0 0 18 18" fill="none" xmlns="http://www.w3.org/2000/svg">
<path fill-rule="evenodd" clip-rule="evenodd" d="M8.99922 2.17422C5.22988 2.17422 2.17422 5.22988 2.17422 8.99922C2.17422 12.7686 5.22988 15.8242 8.99922 15.8242C12.7686 15.8242 15.8242 12.7686 15.8242 8.99922C15.8242 5.22988 12.7686 2.17422 8.99922 2.17422ZM0.824219 8.99922C0.824219 4.48429 4.48429 0.824219 8.99922 0.824219C13.5141 0.824219 17.1742 4.48429 17.1742 8.99922C17.1742 13.5141 13.5141 17.1742 8.99922 17.1742C4.48429 17.1742 0.824219 13.5141 0.824219 8.99922ZM12.5906 8.83364C12.9596 8.88689 13.2155 9.22917 13.1623 9.59814C13.0384 10.4564 12.6563 11.3068 11.9815 11.9815L11.9802 11.9828C10.4952 13.4598 8.18499 13.6091 6.53909 12.4256V12.8842C6.53909 13.257 6.23688 13.5592 5.86409 13.5592C5.49129 13.5592 5.18909 13.257 5.18909 12.8842V10.8817C5.18909 10.5089 5.49129 10.2067 5.86409 10.2067H5.99602C6.00271 10.2066 6.0094 10.2066 6.01609 10.2067H7.86657C8.23937 10.2067 8.54157 10.5089 8.54157 10.8817C8.54157 11.2545 8.23937 11.5567 7.86657 11.5567H7.702C8.77582 12.0997 10.1243 11.9241 11.0275 11.0263C11.4774 10.5762 11.74 10.0018 11.8261 9.40529C11.8794 9.03632 12.2216 8.78039 12.5906 8.83364ZM11.9814 7.7917H10.1316C9.75882 7.7917 9.45662 7.48949 9.45662 7.1167C9.45662 6.74391 9.75882 6.4417 10.1316 6.4417H10.293C9.21446 5.89796 7.86722 6.07574 6.97148 6.97148C6.52033 7.42263 6.25841 7.99003 6.17239 8.59218C6.11967 8.96122 5.77776 9.21766 5.40872 9.16494C5.03967 9.11221 4.78324 8.7703 4.83596 8.40126C4.95994 7.53341 5.34303 6.69074 6.01688 6.01689C7.49751 4.53626 9.80887 4.39037 11.4591 5.57421V5.11422C11.4591 4.74142 11.7613 4.43922 12.1341 4.43922C12.5069 4.43922 12.8091 4.74142 12.8091 5.11422V7.1167C12.8091 7.48949 12.5069 7.7917 12.1341 7.7917H12.0032C11.996 7.79182 11.9887 7.79182 11.9814 7.7917Z" fill="#64748B"/>
</svg>
