<svg width="35" height="40" viewBox="0 0 35 40" fill="none" xmlns="http://www.w3.org/2000/svg">
<path fill-rule="evenodd" clip-rule="evenodd" d="M17.0965 0.0943581C17.3182 -0.0314527 17.5901 -0.0314527 17.8118 0.0943581L34.5389 9.54897C34.7672 9.67782 34.9082 9.91981 34.9082 10.1821V29.8183C34.9082 30.0806 34.7672 30.3226 34.5389 30.4514L17.8118 39.906C17.5901 40.0313 17.3182 40.0313 17.0965 39.906L0.369321 30.4514C0.141037 30.3226 0 30.0806 0 29.8183V10.1821C0 9.91981 0.141024 9.67782 0.369321 9.54897L17.0965 0.0943581ZM1.45373 11.4518L12.9786 18.2167L10.4746 23.24L1.45373 28.5464V11.4518ZM2.18222 29.8049L16.7263 38.0258V29.4265C14.2141 29.2368 11.7633 28.0649 9.66671 25.9682C9.54496 25.8464 9.47342 25.6892 9.45719 25.5253L2.18222 29.8049ZM18.1808 29.4265V38.0258L32.7223 29.8065L25.4475 25.5456C25.4277 25.7018 25.3572 25.8515 25.2405 25.9682C23.1438 28.0649 20.693 29.2367 18.181 29.4265L18.1808 29.4265ZM24.4496 23.2755L33.4532 28.5488V11.4515L21.9161 18.2236L24.4496 23.2755ZM21.2627 16.9205L32.7237 10.1931L18.177 1.97121L18.1507 10.715L21.2627 16.9205ZM16.696 10.7593L16.7224 1.97537L2.18353 10.1931L13.6293 16.9112L16.696 10.7593ZM14.2362 18.9543L11.0706 25.3007C12.8259 26.919 14.7775 27.7935 16.726 27.967V20.4158L14.2362 18.9543ZM18.1809 20.4159V27.9671C20.1295 27.7936 22.081 26.9191 23.8363 25.3008L20.6591 18.9616L18.1809 20.4159ZM17.4535 19.1563L14.8865 17.6495L17.4362 12.5349L20.0056 17.6581L17.4535 19.1563Z" fill="#93C5FD"/>
</svg>
