<svg width="41" height="40" viewBox="0 0 41 40" fill="none" xmlns="http://www.w3.org/2000/svg">
<path d="M28.825 14.8437V14.6888L28.675 14.65C27.8059 14.4256 27.017 13.962 26.3982 13.3118C25.7793 12.6615 25.3551 11.8508 25.1739 10.9716C24.9926 10.0925 25.0615 9.1801 25.3728 8.33813C25.684 7.49615 26.2251 6.75833 26.9347 6.20845C27.6442 5.65857 28.4937 5.31867 29.3867 5.22735C30.2797 5.13603 31.1804 5.29694 31.9865 5.69183C32.7927 6.08671 33.4719 6.69973 33.9472 7.46128C34.4224 8.22277 34.6745 9.10224 34.675 9.99984C34.674 11.064 34.32 12.0979 33.6685 12.9394C33.017 13.7809 32.1048 14.3825 31.0747 14.6501L30.925 14.689V14.8437V17.4999C30.925 18.4414 30.551 19.3444 29.8852 20.0102C29.2195 20.6759 28.3165 21.0499 27.375 21.0499H13.625C13.2404 21.0499 12.8716 21.2027 12.5997 21.4746C12.3278 21.7465 12.175 22.1154 12.175 22.4999V25.1562V25.3111L12.325 25.3498C13.4562 25.6419 14.442 26.3365 15.0977 27.3034C15.7534 28.2704 16.034 29.4432 15.8868 30.6022C15.7395 31.7612 15.1747 32.8267 14.2981 33.599C13.4215 34.3713 12.2933 34.7974 11.125 34.7974C9.95672 34.7974 8.82854 34.3713 7.95193 33.599C7.07533 32.8267 6.51048 31.7612 6.36327 30.6022C6.21606 29.4432 6.4966 28.2704 7.15229 27.3034C7.80798 26.3365 8.79382 25.6419 9.92501 25.3498L10.075 25.3111V25.1562V14.8437V14.6888L9.92501 14.65C8.79382 14.358 7.80798 13.6633 7.15229 12.6964C6.4966 11.7295 6.21606 10.5566 6.36327 9.39762C6.51048 8.23865 7.07533 7.17314 7.95193 6.40084C8.82854 5.62853 9.95672 5.20244 11.125 5.20244C12.2933 5.20244 13.4215 5.62853 14.2981 6.40084C15.1747 7.17314 15.7395 8.23865 15.8868 9.39762C16.034 10.5566 15.7534 11.7295 15.0977 12.6964C14.442 13.6633 13.4562 14.358 12.325 14.65L12.175 14.6888V14.8437V18.9655V19.2491L12.4421 19.154C12.8218 19.0187 13.2219 18.9497 13.6249 18.9499H13.625H27.375C27.7596 18.9499 28.1284 18.7972 28.4003 18.5252C28.6722 18.2533 28.825 17.8845 28.825 17.4999V14.8437ZM9.21582 31.9091L9.35725 31.7677L9.21582 31.9091C9.59343 32.2867 10.0745 32.5439 10.5983 32.648C11.122 32.7522 11.6649 32.6988 12.1583 32.4944C12.6516 32.29 13.0733 31.944 13.37 31.5C13.6667 31.056 13.825 30.5339 13.825 29.9999C13.825 29.2838 13.5405 28.5971 13.0342 28.0907C12.5279 27.5844 11.8411 27.2999 11.125 27.2999C10.591 27.2999 10.069 27.4583 9.62497 27.755C9.18096 28.0516 8.83489 28.4733 8.63054 28.9667C8.42618 29.46 8.37271 30.0029 8.47689 30.5267C8.58107 31.0504 8.83822 31.5315 9.21582 31.9091ZM8.88004 8.49988C8.58336 8.9439 8.42501 9.46591 8.42501 9.99992C8.42501 10.716 8.70948 11.4028 9.21582 11.9091C9.72217 12.4155 10.4089 12.6999 11.125 12.6999C11.659 12.6999 12.181 12.5416 12.6251 12.2449C13.0691 11.9482 13.4151 11.5265 13.6195 11.0332C13.8238 10.5398 13.8773 9.99693 13.7731 9.47318C13.669 8.94943 13.4118 8.46834 13.0342 8.09073C12.6566 7.71313 12.1755 7.45598 11.6518 7.3518C11.128 7.24762 10.5851 7.30109 10.0918 7.50545C9.59841 7.7098 9.17672 8.05587 8.88004 8.49988ZM28.375 12.2449C28.819 12.5416 29.341 12.6999 29.875 12.6999C30.5911 12.6999 31.2779 12.4155 31.7842 11.9091C32.2905 11.4028 32.575 10.716 32.575 9.99992C32.575 9.46591 32.4167 8.9439 32.12 8.49988C31.8233 8.05587 31.4016 7.70981 30.9083 7.50545C30.4149 7.30109 29.872 7.24762 29.3483 7.3518C28.8245 7.45598 28.3434 7.71313 27.9658 8.09073C27.5882 8.46834 27.3311 8.94943 27.2269 9.47318C27.1227 9.99693 27.1762 10.5398 27.3805 11.0332C27.5849 11.5265 27.931 11.9482 28.375 12.2449Z" fill="#93C5FD" stroke="white" stroke-width="0.4"/>
</svg>
