<svg width="16" height="16" viewBox="0 0 16 16" fill="none" xmlns="http://www.w3.org/2000/svg">
<path fill-rule="evenodd" clip-rule="evenodd" d="M5.98733 11.7656C5.84699 11.6156 5.76815 11.4122 5.76815 11.2C5.76815 10.9879 5.84699 10.7845 5.98733 10.6344L8.45249 8.00005L5.98733 5.36565C5.91583 5.29185 5.8588 5.20358 5.81957 5.10597C5.78033 5.00837 5.75968 4.90339 5.75882 4.79717C5.75795 4.69095 5.77689 4.5856 5.81453 4.48729C5.85218 4.38897 5.90776 4.29965 5.97805 4.22453C6.04834 4.14942 6.13192 4.09002 6.22392 4.04979C6.31592 4.00957 6.4145 3.98932 6.5139 3.99025C6.6133 3.99117 6.71153 4.01324 6.80286 4.05517C6.8942 4.09709 6.9768 4.15804 7.04586 4.23445L10.0403 7.43445C10.1806 7.58447 10.2595 7.78792 10.2595 8.00005C10.2595 8.21218 10.1806 8.41563 10.0403 8.56565L7.04586 11.7656C6.90547 11.9156 6.7151 11.9999 6.51659 11.9999C6.31809 11.9999 6.12771 11.9156 5.98733 11.7656Z" fill="#64748B"/>
</svg>
