<svg width="16" height="16" viewBox="0 0 16 16" fill="none" xmlns="http://www.w3.org/2000/svg">
<path fill-rule="evenodd" clip-rule="evenodd" d="M7.2001 2.80109C6.03315 2.80109 4.91399 3.26466 4.08883 4.08982C3.26367 4.91498 2.8001 6.03414 2.8001 7.20109C2.8001 8.36804 3.26367 9.4872 4.08883 10.3124C4.91399 11.1375 6.03315 11.6011 7.2001 11.6011C8.36705 11.6011 9.48621 11.1375 10.3114 10.3124C11.1365 9.4872 11.6001 8.36804 11.6001 7.20109C11.6001 6.03414 11.1365 4.91498 10.3114 4.08982C9.48621 3.26466 8.36705 2.80109 7.2001 2.80109ZM1.6001 7.20109C1.60017 6.30563 1.81499 5.42324 2.22652 4.62794C2.63805 3.83264 3.23431 3.14763 3.96526 2.63037C4.69621 2.1131 5.54056 1.77867 6.42746 1.65512C7.31436 1.53157 8.21795 1.62251 9.06245 1.92031C9.90694 2.21811 10.6677 2.71408 11.2809 3.36662C11.8942 4.01917 12.342 4.80925 12.5868 5.6706C12.8316 6.53195 12.8662 7.43945 12.6879 8.31698C12.5095 9.1945 12.1233 10.0165 11.5617 10.7139L14.2241 13.3771C14.283 13.432 14.3303 13.4983 14.3631 13.5719C14.3959 13.6455 14.4135 13.7249 14.415 13.8055C14.4164 13.886 14.4016 13.9661 14.3714 14.0408C14.3412 14.1155 14.2963 14.1833 14.2393 14.2403C14.1824 14.2973 14.1145 14.3422 14.0398 14.3724C13.9651 14.4026 13.885 14.4174 13.8045 14.416C13.7239 14.4145 13.6445 14.3969 13.5709 14.3641C13.4973 14.3313 13.431 14.284 13.3761 14.2251L10.7129 11.5627C9.89013 12.2254 8.89669 12.6418 7.8473 12.7639C6.79792 12.886 5.7354 12.7088 4.78246 12.2527C3.82952 11.7966 3.02503 11.0803 2.46192 10.1864C1.8988 9.29249 1.60003 8.25756 1.6001 7.20109Z" fill="#64748B"/>
</svg>
