<svg width="17" height="16" viewBox="0 0 17 16" fill="none" xmlns="http://www.w3.org/2000/svg">
<path d="M14.5 14L10.5 10L14.5 14ZM11.8333 6.66667C11.8333 7.2795 11.7126 7.88634 11.4781 8.45252C11.2436 9.01871 10.8998 9.53316 10.4665 9.9665C10.0332 10.3998 9.51871 10.7436 8.95252 10.9781C8.38634 11.2126 7.7795 11.3333 7.16667 11.3333C6.55383 11.3333 5.947 11.2126 5.38081 10.9781C4.81462 10.7436 4.30018 10.3998 3.86683 9.9665C3.43349 9.53316 3.08975 9.01871 2.85523 8.45252C2.62071 7.88634 2.5 7.2795 2.5 6.66667C2.5 5.42899 2.99167 4.242 3.86683 3.36683C4.742 2.49167 5.92899 2 7.16667 2C8.40434 2 9.59133 2.49167 10.4665 3.36683C11.3417 4.242 11.8333 5.42899 11.8333 6.66667Z" stroke="#156FF7" stroke-width="1.5" stroke-linecap="round" stroke-linejoin="round"/>
</svg>
