<svg width="16" height="16" viewBox="0 0 16 16" fill="none" xmlns="http://www.w3.org/2000/svg">
<path d="M2.26704 6.15301C2.52991 5.34764 2.96035 4.60706 3.53004 3.98001C3.57762 3.9288 3.63907 3.89255 3.70691 3.87568C3.77474 3.85881 3.84602 3.86205 3.91204 3.88501L5.27204 4.36901C5.36865 4.40326 5.47152 4.41618 5.5736 4.4069C5.67567 4.39761 5.77453 4.36633 5.86337 4.31522C5.95221 4.2641 6.02892 4.19435 6.08825 4.11077C6.14757 4.02718 6.1881 3.93175 6.20704 3.83101L6.46704 2.41501C6.47922 2.34597 6.51184 2.28218 6.5607 2.2319C6.60955 2.18162 6.67238 2.14717 6.74104 2.13301C7.57188 1.95761 8.4302 1.95761 9.26104 2.13301C9.40104 2.16301 9.50904 2.27401 9.53504 2.41501L9.79504 3.83101C9.81367 3.93191 9.854 4.02756 9.91325 4.11132C9.97249 4.19509 10.0492 4.26498 10.1382 4.31615C10.2271 4.36732 10.3261 4.39855 10.4283 4.40768C10.5305 4.41681 10.6334 4.40362 10.73 4.36901L12.09 3.88501C12.1561 3.86205 12.2273 3.85881 12.2952 3.87568C12.363 3.89255 12.4245 3.9288 12.472 3.98001C13.0414 4.60715 13.4715 5.34772 13.734 6.15301C13.756 6.21959 13.7574 6.29122 13.7381 6.35861C13.7189 6.426 13.6798 6.48607 13.626 6.53101L12.524 7.46201C12.4456 7.528 12.3825 7.61035 12.3392 7.70329C12.296 7.79622 12.2736 7.8975 12.2736 8.00001C12.2736 8.10253 12.296 8.20381 12.3392 8.29674C12.3825 8.38968 12.4456 8.47203 12.524 8.53801L13.626 9.46901C13.736 9.56201 13.778 9.71101 13.734 9.84701C13.4715 10.6523 13.0414 11.3929 12.472 12.02C12.4245 12.0712 12.363 12.1075 12.2952 12.1243C12.2273 12.1412 12.1561 12.138 12.09 12.115L10.73 11.631C10.6334 11.5968 10.5306 11.5838 10.4285 11.5931C10.3264 11.6024 10.2276 11.6337 10.1387 11.6848C10.0499 11.7359 9.97315 11.8057 9.91383 11.8893C9.8545 11.9728 9.81398 12.0683 9.79504 12.169L9.53504 13.585C9.5228 13.6542 9.49002 13.7181 9.44097 13.7684C9.39193 13.8187 9.32888 13.853 9.26004 13.867C8.42952 14.0423 7.57156 14.0423 6.74104 13.867C6.6722 13.853 6.60915 13.8187 6.5601 13.7684C6.51106 13.7181 6.47828 13.6542 6.46604 13.585L6.20704 12.169C6.18841 12.0681 6.14808 11.9725 6.08883 11.8887C6.02958 11.8049 5.95284 11.735 5.86391 11.6839C5.77497 11.6327 5.67598 11.6015 5.57379 11.5923C5.47159 11.5832 5.36863 11.5964 5.27204 11.631L3.91204 12.115C3.84602 12.138 3.77474 12.1412 3.70691 12.1243C3.63907 12.1075 3.57762 12.0712 3.53004 12.02C2.96071 11.3929 2.53061 10.6523 2.26804 9.84701C2.24612 9.78044 2.2447 9.70881 2.26395 9.64142C2.28321 9.57402 2.32226 9.51396 2.37604 9.46901L3.47804 8.53801C3.55634 8.47193 3.61927 8.38955 3.66244 8.29663C3.70561 8.2037 3.72798 8.10248 3.72798 8.00001C3.72798 7.89755 3.70561 7.79633 3.66244 7.7034C3.61927 7.61048 3.55634 7.5281 3.47804 7.46201L2.37604 6.53101C2.32226 6.48607 2.28321 6.426 2.26395 6.35861C2.2447 6.29122 2.24512 6.21959 2.26704 6.15301ZM6.25004 8.00001C6.25004 8.46414 6.43441 8.90926 6.7626 9.23745C7.09079 9.56564 7.53591 9.75001 8.00004 9.75001C8.46417 9.75001 8.90929 9.56564 9.23748 9.23745C9.56567 8.90926 9.75004 8.46414 9.75004 8.00001C9.75004 7.53589 9.56567 7.09077 9.23748 6.76258C8.90929 6.43439 8.46417 6.25001 8.00004 6.25001C7.53591 6.25001 7.09079 6.43439 6.7626 6.76258C6.43441 7.09077 6.25004 7.53589 6.25004 8.00001Z" fill="#64748B"/>
</svg>
