<svg width="14" height="14" viewBox="0 0 14 14" fill="none" xmlns="http://www.w3.org/2000/svg">
<path d="M10.5 1.75C10.0359 1.75 9.59075 1.93437 9.26256 2.26256C8.93437 2.59075 8.75 3.03587 8.75 3.5C8.75085 3.60368 8.76092 3.70708 8.78008 3.80898L4.77969 5.81055C4.61632 5.63424 4.41838 5.49348 4.19821 5.39703C3.97804 5.30059 3.74036 5.25054 3.5 5.25C3.03587 5.25 2.59075 5.43437 2.26256 5.76256C1.93437 6.09075 1.75 6.53587 1.75 7C1.75 7.46413 1.93437 7.90925 2.26256 8.23744C2.59075 8.56563 3.03587 8.75 3.5 8.75C3.74036 8.74946 3.97804 8.69941 4.19821 8.60297C4.41838 8.50652 4.61632 8.36576 4.77969 8.18945L8.77734 10.191C8.7591 10.293 8.74995 10.3964 8.75 10.5C8.75 10.9641 8.93437 11.4092 9.26256 11.7374C9.59075 12.0656 10.0359 12.25 10.5 12.25C10.9641 12.25 11.4092 12.0656 11.7374 11.7374C12.0656 11.4092 12.25 10.9641 12.25 10.5C12.25 10.0359 12.0656 9.59075 11.7374 9.26256C11.4092 8.93437 10.9641 8.75 10.5 8.75C10.2596 8.75054 10.022 8.80059 9.80179 8.89703C9.58162 8.99348 9.38368 9.13424 9.22031 9.31055L5.22266 7.31172C5.24106 7.20884 5.25021 7.10451 5.25 7C5.24931 6.8954 5.23924 6.79108 5.21992 6.68828L9.22031 4.68945C9.38368 4.86576 9.58162 5.00652 9.80179 5.10297C10.022 5.19941 10.2596 5.24946 10.5 5.25C10.9641 5.25 11.4092 5.06563 11.7374 4.73744C12.0656 4.40925 12.25 3.96413 12.25 3.5C12.25 3.03587 12.0656 2.59075 11.7374 2.26256C11.4092 1.93437 10.9641 1.75 10.5 1.75Z" fill="#64748B"/>
</svg>
