<svg width="12" height="12" viewBox="0 0 12 12" fill="none" xmlns="http://www.w3.org/2000/svg">
<path d="M9.5 0.550781C9.03587 0.550781 8.59075 0.735156 8.26256 1.06334C7.93437 1.39153 7.75 1.83665 7.75 2.30078C7.75085 2.40446 7.76092 2.50787 7.78008 2.60977L3.77969 4.61133C3.61632 4.43502 3.41838 4.29426 3.19821 4.19782C2.97804 4.10137 2.74036 4.05132 2.5 4.05078C2.03587 4.05078 1.59075 4.23516 1.26256 4.56334C0.934374 4.89153 0.75 5.33665 0.75 5.80078C0.75 6.26491 0.934374 6.71003 1.26256 7.03822C1.59075 7.36641 2.03587 7.55078 2.5 7.55078C2.74036 7.55024 2.97804 7.50019 3.19821 7.40375C3.41838 7.30731 3.61632 7.16654 3.77969 6.99023L7.77734 8.9918C7.7591 9.09378 7.74995 9.19718 7.75 9.30078C7.75 9.76491 7.93437 10.21 8.26256 10.5382C8.59075 10.8664 9.03587 11.0508 9.5 11.0508C9.96413 11.0508 10.4092 10.8664 10.7374 10.5382C11.0656 10.21 11.25 9.76491 11.25 9.30078C11.25 8.83665 11.0656 8.39153 10.7374 8.06334C10.4092 7.73516 9.96413 7.55078 9.5 7.55078C9.25964 7.55132 9.02196 7.60137 8.80179 7.69782C8.58162 7.79426 8.38368 7.93502 8.22031 8.11133L4.22266 6.1125C4.24106 6.00962 4.25021 5.9053 4.25 5.80078C4.24931 5.69619 4.23924 5.59186 4.21992 5.48906L8.22031 3.49023C8.38368 3.66654 8.58162 3.80731 8.80179 3.90375C9.02196 4.00019 9.25964 4.05024 9.5 4.05078C9.96413 4.05078 10.4092 3.86641 10.7374 3.53822C11.0656 3.21003 11.25 2.76491 11.25 2.30078C11.25 1.83665 11.0656 1.39153 10.7374 1.06334C10.4092 0.735156 9.96413 0.550781 9.5 0.550781Z" fill="#156FF7"/>
</svg>
