<svg width="16" height="16" viewBox="0 0 16 16" fill="none" xmlns="http://www.w3.org/2000/svg">
<g clip-path="url(#clip0_8743_120425)">
<path d="M14.5 0.375058H1.5C1.20504 0.372056 0.920934 0.486188 0.710024 0.692411C0.499114 0.898635 0.378626 1.1801 0.375 1.47506V14.5276C0.379282 14.8221 0.500058 15.1029 0.710896 15.3086C0.921735 15.5143 1.20547 15.6281 1.5 15.6251H14.5C14.795 15.6274 15.0789 15.5129 15.2897 15.3065C15.5005 15.1002 15.621 14.8188 15.625 14.5238V1.47131C15.6197 1.17722 15.4986 0.897091 15.288 0.691815C15.0773 0.486538 14.7941 0.372705 14.5 0.375058Z" fill="#0076B2"/>
<path d="M2.63264 6.08984H4.89639V13.3736H2.63264V6.08984ZM3.76514 2.46484C4.02478 2.46484 4.27859 2.54185 4.49445 2.68613C4.71032 2.8304 4.87855 3.03546 4.97785 3.27536C5.07715 3.51526 5.10307 3.77923 5.05233 4.03386C5.00158 4.28849 4.87645 4.52236 4.69277 4.70586C4.50909 4.88937 4.27511 5.01428 4.02043 5.06478C3.76574 5.11528 3.5018 5.08911 3.262 4.98958C3.02219 4.89004 2.81729 4.72162 2.67323 4.50562C2.52916 4.28962 2.45239 4.03573 2.45264 3.77609C2.45297 3.42821 2.5914 3.0947 2.8375 2.84882C3.08361 2.60295 3.41726 2.46484 3.76514 2.46484ZM6.31639 6.08984H8.48639V7.08984H8.51639C8.81889 6.51734 9.55639 5.91359 10.6576 5.91359C12.9501 5.90859 13.3751 7.41734 13.3751 9.37359V13.3736H11.1114V9.82984C11.1114 8.98609 11.0964 7.89984 9.93514 7.89984C8.77389 7.89984 8.57639 8.81984 8.57639 9.77484V13.3736H6.31639V6.08984Z" fill="white"/>
</g>
<defs>
<clipPath id="clip0_8743_120425">
<rect width="16" height="16" fill="white"/>
</clipPath>
</defs>
</svg>
