<svg width="16" height="16" viewBox="0 0 16 16" fill="none" xmlns="http://www.w3.org/2000/svg">
<g id="sparkles">
<path id="Vector" d="M8 2L6.72533 5.87533C6.6601 6.07367 6.5492 6.25392 6.40156 6.40156C6.25392 6.5492 6.07367 6.6601 5.87533 6.72533L2 8L5.87533 9.27467C6.07367 9.3399 6.25392 9.4508 6.40156 9.59844C6.5492 9.74608 6.6601 9.92633 6.72533 10.1247L8 14L9.27467 10.1247C9.3399 9.92633 9.4508 9.74608 9.59844 9.59844C9.74608 9.4508 9.92633 9.3399 10.1247 9.27467L14 8L10.1247 6.72533C9.92633 6.6601 9.74608 6.5492 9.59844 6.40156C9.4508 6.25392 9.3399 6.07367 9.27467 5.87533L8 2Z" stroke="#64748B" stroke-width="1.3" stroke-linecap="round" stroke-linejoin="round"/>
<path id="Vector_2" d="M3.33325 2V4.66667" stroke="#64748B" stroke-width="1.3" stroke-linecap="round" stroke-linejoin="round"/>
<path id="Vector_3" d="M12.6667 11.3333V14" stroke="#64748B" stroke-width="1.3" stroke-linecap="round" stroke-linejoin="round"/>
<path id="Vector_4" d="M2 3.33333H4.66667" stroke="#64748B" stroke-width="1.3" stroke-linecap="round" stroke-linejoin="round"/>
<path id="Vector_5" d="M11.3333 12.6667H13.9999" stroke="#64748B" stroke-width="1.3" stroke-linecap="round" stroke-linejoin="round"/>
</g>
</svg>
