<svg width="20" height="20" viewBox="0 0 20 20" fill="none" xmlns="http://www.w3.org/2000/svg">
<rect width="20" height="20" rx="4" fill="url(#paint0_linear_11268_134850)"/>
<rect x="0.5" y="0.5" width="19" height="19" rx="3.5" stroke="white" stroke-opacity="0.4"/>
<path d="M7.55556 4.4C7.55556 4.7713 7.42679 5.1274 7.19758 5.38995C6.96836 5.6525 6.65749 5.8 6.33333 5.8C6.00918 5.8 5.6983 5.6525 5.46909 5.38995C5.23988 5.1274 5.11111 4.7713 5.11111 4.4C5.11111 4.0287 5.23988 3.6726 5.46909 3.41005C5.6983 3.1475 6.00918 3 6.33333 3C6.65749 3 6.96836 3.1475 7.19758 3.41005C7.42679 3.6726 7.55556 4.0287 7.55556 4.4ZM5.72222 12.8V17H4.5V8.6C4.49994 8.18592 4.60676 7.78106 4.80702 7.43632C5.00729 7.09159 5.29205 6.82236 5.62552 6.66249C5.959 6.50262 6.32629 6.45925 6.68122 6.53783C7.03615 6.6164 7.36288 6.81341 7.62033 7.1041L9.07111 8.6742L10.4846 7.0551L11.3487 8.0449L9.09556 10.6258L8.16667 9.622V17H6.94444V12.8H5.72222ZM6.33333 7.9C6.17126 7.9 6.01582 7.97375 5.90121 8.10503C5.78661 8.2363 5.72222 8.41435 5.72222 8.6V11.4H6.94444V8.6C6.94444 8.41435 6.88006 8.2363 6.76545 8.10503C6.65085 7.97375 6.49541 7.9 6.33333 7.9ZM14.2778 5.1H8.77778V3.7H14.8889C15.051 3.7 15.2064 3.77375 15.321 3.90503C15.4356 4.0363 15.5 4.21435 15.5 4.4V12.1C15.5 12.2857 15.4356 12.4637 15.321 12.595C15.2064 12.7262 15.051 12.8 14.8889 12.8H12.7964L14.5216 17H13.1711L11.4453 12.8H8.77778V11.4H14.2778V5.1Z" fill="white"/>
<defs>
<linearGradient id="paint0_linear_11268_134850" x1="1.40351" y1="2.6991e-06" x2="22.0631" y2="2.59869" gradientUnits="userSpaceOnUse">
<stop stop-color="#4FB68B"/>
<stop offset="1" stop-color="#46B9CB"/>
</linearGradient>
</defs>
</svg>
