<svg width="17" height="17" viewBox="0 0 17 17" fill="none" xmlns="http://www.w3.org/2000/svg">
<path d="M9.48405 7.84555C10.1029 7.84555 10.6964 7.59971 11.134 7.16213C11.5715 6.72454 11.8174 6.13105 11.8174 5.51221C11.8174 4.89337 11.5715 4.29988 11.134 3.8623C10.6964 3.42471 10.1029 3.17888 9.48405 3.17888M9.24605 13.8455H3.05538C2.37138 13.8455 1.81738 13.3342 1.81738 12.7029C1.81738 11.1249 3.20338 9.84555 4.91272 9.84555H7.38872C8.05145 9.84317 8.69923 10.0424 9.24605 10.4169M13.1507 9.84555V13.8455M15.1507 11.8455H11.1507M8.48405 5.51221C8.48405 6.13105 8.23822 6.72454 7.80063 7.16213C7.36305 7.59971 6.76955 7.84555 6.15072 7.84555C5.53188 7.84555 4.93839 7.59971 4.5008 7.16213C4.06322 6.72454 3.81738 6.13105 3.81738 5.51221C3.81738 4.89337 4.06322 4.29988 4.5008 3.8623C4.93839 3.42471 5.53188 3.17888 6.15072 3.17888C6.76955 3.17888 7.36305 3.42471 7.80063 3.8623C8.23822 4.29988 8.48405 4.89337 8.48405 5.51221Z" stroke="#64748B" stroke-width="1.5" stroke-linecap="round" stroke-linejoin="round"/>
</svg>
