<svg width="16" height="17" viewBox="0 0 16 17" fill="none" xmlns="http://www.w3.org/2000/svg">
<g clip-path="url(#clip0_8743_120745)">
<path d="M2.85653 10.4946H0.775391M15.2234 10.4946H13.1422M2.85653 6.30492H0.775391M15.2234 6.30492H13.1422M5.90453 3.25692V1.17578M5.90453 15.6238V13.5426M10.0942 3.25692V1.17578M10.0942 15.6238V13.5426M11.9994 3.25692H3.99939C3.69629 3.25692 3.4056 3.37733 3.19127 3.59166C2.97694 3.80599 2.85653 4.09668 2.85653 4.39978V12.3998C2.85653 12.7029 2.97694 12.9936 3.19127 13.2079C3.4056 13.4222 3.69629 13.5426 3.99939 13.5426H11.9994C12.3025 13.5426 12.5932 13.4222 12.8075 13.2079C13.0218 12.9936 13.1422 12.7029 13.1422 12.3998V4.39978C13.1422 4.09668 13.0218 3.80599 12.8075 3.59166C12.5932 3.37733 12.3025 3.25692 11.9994 3.25692Z" stroke="#FF820E" stroke-linecap="round" stroke-linejoin="round"/>
<path d="M5.33314 8.68478C5.012 8.62992 5.012 8.16821 5.33314 8.11221C5.90239 8.01299 6.42922 7.74653 6.84646 7.34679C7.26371 6.94704 7.55249 6.43212 7.676 5.86764L7.69657 5.77849C7.76514 5.46078 8.21886 5.45849 8.29086 5.77621L8.31371 5.87907C8.44193 6.4414 8.73349 6.95329 9.15176 7.35041C9.57003 7.74754 10.0963 8.01217 10.6646 8.11107C10.988 8.16707 10.988 8.63107 10.6646 8.68707C10.0965 8.78588 9.57029 9.05035 9.15203 9.44725C8.73378 9.84416 8.44213 10.3558 8.31371 10.9179L8.29086 11.0208C8.21886 11.3385 7.76514 11.3362 7.69657 11.0185L7.67714 10.9305C7.55376 10.3656 7.2649 9.85036 6.84741 9.45039C6.42993 9.05041 5.90275 8.78387 5.33314 8.68478Z" stroke="#FF820E" stroke-linecap="round" stroke-linejoin="round"/>
</g>
<defs>
<clipPath id="clip0_8743_120745">
<rect width="16" height="16" fill="white" transform="translate(0 0.398438)"/>
</clipPath>
</defs>
</svg>
