<svg width="16" height="16" viewBox="0 0 16 16" fill="none" xmlns="http://www.w3.org/2000/svg">
<path d="M10.3998 4.7999C10.3998 5.43642 10.1469 6.04687 9.69686 6.49696C9.24677 6.94705 8.63632 7.1999 7.9998 7.1999C7.36328 7.1999 6.75284 6.94705 6.30275 6.49696C5.85266 6.04687 5.5998 5.43642 5.5998 4.7999C5.5998 4.16338 5.85266 3.55293 6.30275 3.10285C6.75284 2.65276 7.36328 2.3999 7.9998 2.3999C8.63632 2.3999 9.24677 2.65276 9.69686 3.10285C10.1469 3.55293 10.3998 4.16338 10.3998 4.7999ZM14.3998 6.3999C14.3998 6.82425 14.2312 7.23122 13.9312 7.53127C13.6311 7.83133 13.2242 7.9999 12.7998 7.9999C12.3755 7.9999 11.9685 7.83133 11.6684 7.53127C11.3684 7.23122 11.1998 6.82425 11.1998 6.3999C11.1998 5.97556 11.3684 5.56859 11.6684 5.26853C11.9685 4.96847 12.3755 4.7999 12.7998 4.7999C13.2242 4.7999 13.6311 4.96847 13.9312 5.26853C14.2312 5.56859 14.3998 5.97556 14.3998 6.3999ZM11.1998 11.9999C11.1998 11.1512 10.8627 10.3373 10.2625 9.73716C9.66243 9.13704 8.8485 8.7999 7.9998 8.7999C7.15111 8.7999 6.33718 9.13704 5.73706 9.73716C5.13695 10.3373 4.7998 11.1512 4.7998 11.9999V14.3999H11.1998V11.9999ZM4.7998 6.3999C4.7998 6.82425 4.63123 7.23122 4.33118 7.53127C4.03112 7.83133 3.62415 7.9999 3.1998 7.9999C2.77546 7.9999 2.36849 7.83133 2.06843 7.53127C1.76838 7.23122 1.5998 6.82425 1.5998 6.3999C1.5998 5.97556 1.76838 5.56859 2.06843 5.26853C2.36849 4.96847 2.77546 4.7999 3.1998 4.7999C3.62415 4.7999 4.03112 4.96847 4.33118 5.26853C4.63123 5.56859 4.7998 5.97556 4.7998 6.3999ZM12.7998 14.3999V11.9999C12.801 11.1865 12.5944 10.3863 12.1998 9.6751C12.5545 9.58434 12.9252 9.57578 13.2837 9.65008C13.6422 9.72438 13.979 9.87958 14.2684 10.1038C14.5577 10.3281 14.7921 10.6155 14.9535 10.9441C15.1149 11.2727 15.1992 11.6338 15.1998 11.9999V14.3999H12.7998ZM3.7998 9.6751C3.4052 10.3863 3.19868 11.1865 3.1998 11.9999V14.3999H0.799805V11.9999C0.799651 11.6335 0.883375 11.272 1.04456 10.943C1.20575 10.614 1.44012 10.3262 1.72971 10.1018C2.0193 9.87742 2.35643 9.72228 2.71525 9.64832C3.07408 9.57435 3.44507 9.58351 3.7998 9.6751Z" fill="#64748B"/>
</svg>
