<svg width="24" height="24" viewBox="0 0 24 24" fill="none" xmlns="http://www.w3.org/2000/svg">
<g clip-path="url(#clip0_9555_87014)">
<rect x="0.375" y="0.375" width="23.25" height="23.25" rx="2.625" fill="#DBEAFE"/>
<rect x="0.375" y="0.375" width="23.25" height="23.25" rx="2.625" stroke="#E2E8F0" stroke-width="0.75"/>
<g clip-path="url(#clip1_9555_87014)">
<g clip-path="url(#clip2_9555_87014)">
<path d="M14.25 9C14.25 9.59674 14.0129 10.169 13.591 10.591C13.169 11.0129 12.5967 11.25 12 11.25C11.4033 11.25 10.831 11.0129 10.409 10.591C9.98705 10.169 9.75 9.59674 9.75 9C9.75 8.40326 9.98705 7.83097 10.409 7.40901C10.831 6.98705 11.4033 6.75 12 6.75C12.5967 6.75 13.169 6.98705 13.591 7.40901C14.0129 7.83097 14.25 8.40326 14.25 9V9ZM18 10.5C18 10.8978 17.842 11.2794 17.5607 11.5607C17.2794 11.842 16.8978 12 16.5 12C16.1022 12 15.7206 11.842 15.4393 11.5607C15.158 11.2794 15 10.8978 15 10.5C15 10.1022 15.158 9.72064 15.4393 9.43934C15.7206 9.15804 16.1022 9 16.5 9C16.8978 9 17.2794 9.15804 17.5607 9.43934C17.842 9.72064 18 10.1022 18 10.5V10.5ZM15 15.75C15 14.9544 14.6839 14.1913 14.1213 13.6287C13.5587 13.0661 12.7956 12.75 12 12.75C11.2044 12.75 10.4413 13.0661 9.87868 13.6287C9.31607 14.1913 9 14.9544 9 15.75V18H15V15.75ZM9 10.5C9 10.8978 8.84197 11.2794 8.56066 11.5607C8.27936 11.842 7.89782 12 7.5 12C7.10218 12 6.72064 11.842 6.43934 11.5607C6.15804 11.2794 6 10.8978 6 10.5C6 10.1022 6.15804 9.72064 6.43934 9.43934C6.72064 9.15804 7.10218 9 7.5 9C7.89782 9 8.27936 9.15804 8.56066 9.43934C8.84197 9.72064 9 10.1022 9 10.5V10.5ZM16.5 18V15.75C16.5011 14.9875 16.3075 14.2373 15.9375 13.5705C16.27 13.4854 16.6176 13.4774 16.9536 13.547C17.2897 13.6167 17.6055 13.7622 17.8768 13.9724C18.1481 14.1827 18.3678 14.4521 18.5191 14.7602C18.6704 15.0682 18.7494 15.4068 18.75 15.75V18H16.5ZM8.0625 13.5705C7.69256 14.2373 7.49895 14.9875 7.5 15.75V18H5.25V15.75C5.24986 15.4065 5.32835 15.0676 5.47946 14.7591C5.63057 14.4507 5.8503 14.181 6.12179 13.9706C6.39328 13.7602 6.70934 13.6147 7.04573 13.5454C7.38213 13.476 7.72994 13.4846 8.0625 13.5705V13.5705Z" fill="white"/>
</g>
</g>
</g>
<defs>
<clipPath id="clip0_9555_87014">
<rect width="24" height="24" fill="white"/>
</clipPath>
<clipPath id="clip1_9555_87014">
<rect width="15" height="15" fill="white" transform="translate(4.5 4.5)"/>
</clipPath>
<clipPath id="clip2_9555_87014">
<rect width="15" height="15" fill="white" transform="translate(4.5 4.5)"/>
</clipPath>
</defs>
</svg>
