<svg width="32" height="32" viewBox="0 0 32 32" fill="none" xmlns="http://www.w3.org/2000/svg">
<rect width="32" height="32" fill="#DBEAFE"/>
<g clip-path="url(#clip0_20_550)">
<g clip-path="url(#clip1_20_550)">
<path d="M19 12C19 12.7956 18.6839 13.5587 18.1213 14.1213C17.5587 14.6839 16.7956 15 16 15C15.2044 15 14.4413 14.6839 13.8787 14.1213C13.3161 13.5587 13 12.7956 13 12C13 11.2044 13.3161 10.4413 13.8787 9.87868C14.4413 9.31607 15.2044 9 16 9C16.7956 9 17.5587 9.31607 18.1213 9.87868C18.6839 10.4413 19 11.2044 19 12V12ZM24 14C24 14.5304 23.7893 15.0391 23.4142 15.4142C23.0391 15.7893 22.5304 16 22 16C21.4696 16 20.9609 15.7893 20.5858 15.4142C20.2107 15.0391 20 14.5304 20 14C20 13.4696 20.2107 12.9609 20.5858 12.5858C20.9609 12.2107 21.4696 12 22 12C22.5304 12 23.0391 12.2107 23.4142 12.5858C23.7893 12.9609 24 13.4696 24 14V14ZM20 21C20 19.9391 19.5786 18.9217 18.8284 18.1716C18.0783 17.4214 17.0609 17 16 17C14.9391 17 13.9217 17.4214 13.1716 18.1716C12.4214 18.9217 12 19.9391 12 21V24H20V21ZM12 14C12 14.5304 11.7893 15.0391 11.4142 15.4142C11.0391 15.7893 10.5304 16 10 16C9.46957 16 8.96086 15.7893 8.58579 15.4142C8.21071 15.0391 8 14.5304 8 14C8 13.4696 8.21071 12.9609 8.58579 12.5858C8.96086 12.2107 9.46957 12 10 12C10.5304 12 11.0391 12.2107 11.4142 12.5858C11.7893 12.9609 12 13.4696 12 14V14ZM22 24V21C22.0014 19.9833 21.7433 18.983 21.25 18.094C21.6933 17.9805 22.1568 17.9698 22.6049 18.0627C23.053 18.1556 23.474 18.3496 23.8357 18.6299C24.1974 18.9102 24.4903 19.2695 24.6921 19.6802C24.8939 20.091 24.9992 20.5424 25 21V24H22ZM10.75 18.094C10.2567 18.983 9.9986 19.9833 10 21V24H7V21C6.99981 20.542 7.10446 20.0901 7.30595 19.6789C7.50743 19.2676 7.80039 18.9079 8.16238 18.6274C8.52437 18.3469 8.94578 18.153 9.39431 18.0605C9.84284 17.9681 10.3066 17.9795 10.75 18.094V18.094Z" fill="white"/>
</g>
</g>
<defs>
<clipPath id="clip0_20_550">
<rect width="20" height="20" fill="white" transform="translate(6 6)"/>
</clipPath>
<clipPath id="clip1_20_550">
<rect width="20" height="20" fill="white" transform="translate(6 6)"/>
</clipPath>
</defs>
</svg>
