<svg width="16" height="16" viewBox="0 0 16 16" fill="none" xmlns="http://www.w3.org/2000/svg">
<g clip-path="url(#clip0_3096_83076)">
<g clip-path="url(#clip1_3096_83076)">
<path d="M10.4 4.7999C10.4 5.43642 10.1472 6.04687 9.6971 6.49696C9.24702 6.94705 8.63657 7.1999 8.00005 7.1999C7.36353 7.1999 6.75308 6.94705 6.30299 6.49696C5.85291 6.04687 5.60005 5.43642 5.60005 4.7999C5.60005 4.16338 5.85291 3.55293 6.30299 3.10285C6.75308 2.65276 7.36353 2.3999 8.00005 2.3999C8.63657 2.3999 9.24702 2.65276 9.6971 3.10285C10.1472 3.55293 10.4 4.16338 10.4 4.7999V4.7999ZM14.4 6.3999C14.4 6.82425 14.2315 7.23121 13.9314 7.53127C13.6314 7.83133 13.2244 7.9999 12.8 7.9999C12.3757 7.9999 11.9687 7.83133 11.6687 7.53127C11.3686 7.23121 11.2 6.82425 11.2 6.3999C11.2 5.97556 11.3686 5.56859 11.6687 5.26853C11.9687 4.96847 12.3757 4.7999 12.8 4.7999C13.2244 4.7999 13.6314 4.96847 13.9314 5.26853C14.2315 5.56859 14.4 5.97556 14.4 6.3999V6.3999ZM11.2 11.9999C11.2 11.1512 10.8629 10.3373 10.2628 9.73716C9.66267 9.13704 8.84874 8.7999 8.00005 8.7999C7.15136 8.7999 6.33742 9.13704 5.73731 9.73716C5.13719 10.3373 4.80005 11.1512 4.80005 11.9999V14.3999H11.2V11.9999ZM4.80005 6.3999C4.80005 6.82425 4.63148 7.23121 4.33142 7.53127C4.03136 7.83133 3.6244 7.9999 3.20005 7.9999C2.7757 7.9999 2.36874 7.83133 2.06868 7.53127C1.76862 7.23121 1.60005 6.82425 1.60005 6.3999C1.60005 5.97556 1.76862 5.56859 2.06868 5.26853C2.36874 4.96847 2.7757 4.7999 3.20005 4.7999C3.6244 4.7999 4.03136 4.96847 4.33142 5.26853C4.63148 5.56859 4.80005 5.97556 4.80005 6.3999V6.3999ZM12.8 14.3999V11.9999C12.8012 11.1865 12.5947 10.3863 12.2 9.6751C12.5547 9.58434 12.9254 9.57578 13.2839 9.65008C13.6424 9.72438 13.9792 9.87958 14.2686 10.1038C14.558 10.3281 14.7923 10.6155 14.9537 10.9441C15.1152 11.2727 15.1994 11.6338 15.2 11.9999V14.3999H12.8ZM3.80005 9.6751C3.40545 10.3863 3.19893 11.1865 3.20005 11.9999V14.3999H0.800049V11.9999C0.799895 11.6335 0.88362 11.272 1.04481 10.943C1.20599 10.614 1.44036 10.3262 1.72996 10.1018C2.01955 9.87742 2.35667 9.72228 2.7155 9.64832C3.07432 9.57435 3.44531 9.58351 3.80005 9.6751V9.6751Z" fill="#156FF7"/>
</g>
</g>
<defs>
<clipPath id="clip0_3096_83076">
<rect width="16" height="16" fill="white"/>
</clipPath>
<clipPath id="clip1_3096_83076">
<rect width="16" height="16" fill="white"/>
</clipPath>
</defs>
</svg>
