<svg width="19" height="20" viewBox="0 0 19 20" fill="none" xmlns="http://www.w3.org/2000/svg">
<rect x="0.5" y="1" width="18" height="18" rx="9" fill="white"/>
<rect x="0.5" y="1" width="18" height="18" rx="9" stroke="#CBD5E1"/>
<path d="M4.59317 9.98402C4.59317 9.98402 8.87229 8.22787 10.3564 7.60949C10.9253 7.36215 12.8546 6.57062 12.8546 6.57062C12.8546 6.57062 13.745 6.22435 13.6708 7.06532C13.6461 7.41162 13.4482 8.6236 13.2503 9.93455C12.9535 11.7897 12.632 13.8179 12.632 13.8179C12.632 13.8179 12.5825 14.3868 12.162 14.4858C11.7415 14.5847 11.0489 14.1395 10.9253 14.0405C10.8263 13.9663 9.07015 12.8533 8.42705 12.3091C8.2539 12.1607 8.05604 11.8639 8.45177 11.5176C9.34224 10.7013 10.4058 9.68722 11.0489 9.04412C11.3458 8.74729 11.6426 8.05472 10.4058 8.89569C8.64967 10.1077 6.91824 11.2455 6.91824 11.2455C6.91824 11.2455 6.52247 11.4928 5.78044 11.2702C5.03837 11.0476 4.17265 10.7508 4.17265 10.7508C4.17265 10.7508 3.57905 10.3798 4.59317 9.98402Z" fill="#0088CC"/>
</svg>
