<svg width="10" height="8" viewBox="0 0 10 8" fill="none" xmlns="http://www.w3.org/2000/svg">
<path d="M0.593171 3.48402C0.593171 3.48402 4.87229 1.72787 6.35635 1.10949C6.92527 0.862153 8.85457 0.0706192 8.85457 0.0706192C8.85457 0.0706192 9.74504 -0.275647 9.67082 0.565319C9.64607 0.91162 9.4482 2.1236 9.25034 3.43455C8.9535 5.28967 8.63195 7.3179 8.63195 7.3179C8.63195 7.3179 8.58249 7.88682 8.162 7.98575C7.74152 8.08469 7.04892 7.63949 6.92527 7.54052C6.8263 7.46634 5.07015 6.35325 4.42705 5.80909C4.2539 5.66069 4.05604 5.36389 4.45177 5.01759C5.34224 4.20134 6.40582 3.18722 7.04892 2.54412C7.34575 2.24729 7.64255 1.55472 6.40582 2.39569C4.64967 3.6077 2.91824 4.7455 2.91824 4.7455C2.91824 4.7455 2.52247 4.99284 1.78044 4.77022C1.03837 4.54764 0.172654 4.2508 0.172654 4.2508C0.172654 4.2508 -0.420946 3.87979 0.593171 3.48402Z" fill="#0088CC"/>
</svg>
