<svg width="21" height="21" viewBox="0 0 21 21" fill="none" xmlns="http://www.w3.org/2000/svg">
<rect x="0.5" y="3.5" width="17" height="17" rx="8.5" fill="white"/>
<rect x="0.5" y="3.5" width="17" height="17" rx="8.5" stroke="#CBD5E1"/>
<path d="M3.89249 11.8331C3.89249 11.8331 8.1716 10.077 9.65567 9.45858C10.2246 9.21125 12.1539 8.41972 12.1539 8.41972C12.1539 8.41972 13.0444 8.07345 12.9701 8.91442C12.9454 9.26072 12.7475 10.4727 12.5497 11.7837C12.2528 13.6388 11.9313 15.667 11.9313 15.667C11.9313 15.667 11.8818 16.2359 11.4613 16.3349C11.0408 16.4338 10.3482 15.9886 10.2246 15.8896C10.1256 15.8154 8.36947 14.7024 7.72637 14.1582C7.55322 14.0098 7.35535 13.713 7.75109 13.3667C8.64155 12.5504 9.70514 11.5363 10.3482 10.8932C10.6451 10.5964 10.9419 9.90382 9.70514 10.7448C7.94899 11.9568 6.21755 13.0946 6.21755 13.0946C6.21755 13.0946 5.82179 13.3419 5.07975 13.1193C4.33769 12.8967 3.47197 12.5999 3.47197 12.5999C3.47197 12.5999 2.87837 12.2289 3.89249 11.8331Z" fill="#0088CC"/>
<circle cx="15" cy="6" r="6" fill="#DD2C5A"/>
<path fill-rule="evenodd" clip-rule="evenodd" d="M12.05 2.3875C11.9612 2.3047 11.8436 2.25962 11.7222 2.26177C11.6008 2.26391 11.4849 2.3131 11.399 2.39899C11.3131 2.48487 11.2639 2.60073 11.2618 2.72217C11.2596 2.84361 11.3047 2.96114 11.3875 3.05L17.95 9.6125C17.9929 9.65855 18.0447 9.69549 18.1022 9.72111C18.1597 9.74673 18.2218 9.76051 18.2847 9.76162C18.3476 9.76273 18.4102 9.75115 18.4685 9.72758C18.5269 9.704 18.5799 9.66891 18.6244 9.6244C18.6689 9.57989 18.704 9.52687 18.7276 9.4685C18.7512 9.41013 18.7628 9.34761 18.7616 9.28467C18.7605 9.22173 18.7468 9.15966 18.7211 9.10216C18.6955 9.04466 18.6586 8.99291 18.6125 8.95L17.7863 8.12312C18.4063 7.61153 18.8734 6.93901 19.1363 6.17937C19.1758 6.06456 19.1758 5.93981 19.1363 5.825C18.9324 5.23309 18.6038 4.69181 18.1729 4.2377C17.7419 3.78359 17.2186 3.42721 16.6382 3.19262C16.0577 2.95803 15.4337 2.85069 14.8083 2.87784C14.1828 2.90499 13.5704 3.066 13.0125 3.35L12.05 2.3875ZM14.0475 4.38437L14.7569 5.09437C14.9159 5.05188 15.0834 5.05196 15.2424 5.09461C15.4014 5.13725 15.5464 5.22096 15.6628 5.33734C15.7793 5.45371 15.863 5.59866 15.9058 5.75765C15.9485 5.91663 15.9487 6.08405 15.9063 6.24312L16.6163 6.9525C16.8279 6.59435 16.9145 6.17599 16.8622 5.76327C16.81 5.35056 16.6221 4.96692 16.3279 4.67276C16.0337 4.3786 15.6501 4.19061 15.2374 4.13841C14.8247 4.0862 14.4063 4.17273 14.0482 4.38437" fill="white"/>
<path d="M14.8826 7.87125L16.0176 9.00625C14.9602 9.25883 13.8466 9.10884 12.8937 8.58549C11.9408 8.06213 11.2167 7.20286 10.8626 6.175C10.8232 6.06038 10.8232 5.93587 10.8626 5.82125C11.0219 5.36068 11.257 4.92996 11.5582 4.54688L13.1288 6.1175C13.1575 6.57324 13.3514 7.00287 13.6743 7.32576C13.9972 7.64866 14.4268 7.84262 14.8826 7.87125Z" fill="white"/>
</svg>
