<svg width="18" height="18" viewBox="0 0 18 18" fill="none" xmlns="http://www.w3.org/2000/svg">
<path fill-rule="evenodd" clip-rule="evenodd" d="M11.9989 3.84322C12.2157 2.80492 11.5451 1.73796 10.5688 1.40561C10.0886 1.2294 9.58516 1.27038 9.17028 1.41299C8.75703 1.55505 8.35563 1.82396 8.10374 2.20106L8.1029 2.20231L6.02193 5.29839C5.9343 5.11351 5.81462 4.9432 5.654 4.79494C5.2128 4.38768 4.6141 4.29055 4.03545 4.29055H3.28545C2.7068 4.29055 2.1081 4.38768 1.6669 4.79494C1.21195 5.21489 1.08545 5.81167 1.08545 6.41555V13.7655C1.08545 14.3694 1.21195 14.9662 1.6669 15.3862C2.1081 15.7934 2.7068 15.8905 3.28545 15.8905H4.03545C4.6141 15.8905 5.2128 15.7934 5.654 15.3862C5.79631 15.2548 5.90649 15.1061 5.99071 14.9453L7.47755 16.0964C7.74836 16.3486 8.10746 16.4928 8.39928 16.5762C8.72181 16.6683 9.06773 16.7156 9.36034 16.7156H12.2103C12.8281 16.7156 13.4389 16.4875 13.9268 16.1305C14.4084 15.7782 14.818 15.2644 14.9826 14.6372L16.7728 9.19203C17.0254 8.47645 16.9383 7.74406 16.5239 7.18161C16.111 6.62127 15.4372 6.3156 14.6853 6.3156H11.6853C11.6565 6.3156 11.643 6.30463 11.6384 6.29934C11.6359 6.29654 11.6325 6.29182 11.6298 6.28254C11.6273 6.27386 11.6232 6.25347 11.6279 6.2178L11.9989 3.84322ZM6.23545 13.3643L8.36386 15.0121L8.39894 15.0393L8.43031 15.0706C8.45585 15.0962 8.56428 15.1673 8.78389 15.23C8.98637 15.2879 9.20294 15.3156 9.36034 15.3156H12.2103C12.4926 15.3156 12.8192 15.2062 13.1001 15.0007C13.3805 14.7955 13.5661 14.5314 13.6312 14.2708L13.6374 14.2461L13.6454 14.222L15.4454 8.74697L15.4481 8.73853L15.4511 8.73016C15.5695 8.3986 15.5056 8.15978 15.3968 8.01209C15.2847 7.85992 15.0585 7.7156 14.6853 7.7156H11.6853C10.8215 7.7156 10.1054 6.97529 10.2424 6.0166L10.2437 6.00753L10.2437 6.00753L10.6187 3.60754L10.6222 3.58551L10.627 3.56375C10.6936 3.26393 10.4735 2.84953 10.114 2.72968L10.1017 2.72558L10.0896 2.72103C9.97344 2.67749 9.80698 2.67454 9.62539 2.73696C9.4391 2.80099 9.31593 2.90665 9.26777 2.97889L9.26631 2.98109L6.23545 7.49041V13.3643ZM2.48545 6.41555C2.48545 5.96943 2.58394 5.85371 2.6165 5.82366C2.6628 5.78092 2.8141 5.69055 3.28545 5.69055H4.03545C4.5068 5.69055 4.6581 5.78092 4.7044 5.82366C4.73695 5.85371 4.83545 5.96943 4.83545 6.41555V13.7655C4.83545 14.2117 4.73695 14.3274 4.7044 14.3574C4.6581 14.4002 4.5068 14.4906 4.03545 14.4906H3.28545C2.8141 14.4906 2.6628 14.4002 2.6165 14.3574C2.58394 14.3274 2.48545 14.2117 2.48545 13.7655V6.41555Z" fill="#156FF7"/>
</svg>
