<svg width="16" height="16" viewBox="0 0 16 16" fill="none" xmlns="http://www.w3.org/2000/svg">
<path d="M13.7537 10.8989C14.3362 10.7439 14.5312 9.8476 14.4974 9.4076C14.4487 8.76135 14.1562 8.1401 13.6987 8.0676C13.8649 7.91385 14.0112 7.4826 13.9474 6.78885C13.8887 6.1551 13.3762 5.6351 12.6887 5.59635C12.6887 5.59635 11.8824 5.60135 10.3774 5.9651C9.93491 6.0726 9.40116 6.22135 9.71366 5.3551C9.87741 4.90135 10.1187 4.2526 10.1474 3.55385C10.2012 2.21885 9.75491 0.673852 8.63991 0.531352C7.92991 0.440102 7.47241 0.762602 7.51491 1.3926C7.58741 2.4651 7.75991 4.4976 5.63491 5.90885C4.74116 6.5026 4.55741 7.3851 3.88616 7.6626C2.94991 8.0501 2.07741 7.9501 1.66866 7.86635C1.60038 7.85244 1.52936 7.86496 1.46996 7.90139C1.41056 7.93782 1.36721 7.99544 1.34866 8.0626C0.613657 10.5789 1.21366 12.6614 1.44491 13.3114C1.48866 13.4339 1.61241 13.5076 1.74116 13.4901C2.36491 13.4051 2.85491 13.4039 3.61491 13.4751C4.34491 13.5439 4.74991 14.0876 5.29741 14.4489C6.53366 15.3564 8.33616 15.2901 10.0274 15.2489C10.3912 15.2401 11.4462 15.4176 11.6449 15.4451C12.4124 15.5489 12.8949 15.3964 13.1037 14.7751C13.3274 14.1101 13.0837 13.6614 12.8349 13.5739C12.8349 13.5739 13.0574 13.5814 13.2599 13.5651C13.7362 13.5264 14.0862 12.9989 14.1899 12.3276C14.2774 11.7676 14.0999 11.1151 13.7537 10.8989Z" fill="#FFCA28"/>
<path d="M11.0164 10.6551C10.2189 10.4813 10.1401 9.0701 10.6826 8.73635C10.8876 8.6101 10.8414 8.22635 10.8414 8.22635C10.5801 8.1501 10.3389 7.89135 10.2989 7.2926C10.2576 6.6676 10.6876 6.26385 10.6876 6.26385C10.6876 6.26385 10.0589 6.21885 9.79136 6.6001C9.45511 7.07885 9.21886 8.4126 8.98261 9.02135C8.68386 9.7926 8.01261 10.4601 7.39136 10.8263C8.31761 11.2288 8.52386 13.1538 8.98261 14.0676C9.44011 14.9801 10.3676 15.0701 10.3301 15.0138C10.1476 14.7376 10.1376 14.1488 10.1839 13.9588C10.3601 13.2263 10.9251 13.2913 10.9251 13.2913L11.0039 13.0088C11.0039 13.0088 10.5939 12.6676 10.5939 12.0426C10.5939 11.3276 10.9876 11.0888 10.9876 11.0888L11.0164 10.6551Z" fill="#FFB300"/>
<path d="M3.96756 8.55123C3.96756 8.55123 4.12381 8.22873 4.63506 7.46623C4.85256 7.14123 5.20381 6.72248 5.74256 6.26248C6.29881 5.78873 6.72381 5.20123 6.76381 4.85623C6.52756 5.19748 5.98756 5.67373 5.63381 5.90873C4.76506 6.48623 3.88631 7.66248 3.96756 8.55123ZM10.4613 12.8325C10.2851 12.7975 9.84756 12.4962 9.85756 11.8512C9.86506 11.2987 10.2038 11.1725 10.3663 11.1087C10.3663 11.1087 11.9988 11.0837 13.0838 11.1012C13.4363 11.1012 13.7713 10.8975 13.7713 10.8975C13.7713 10.8975 13.4601 10.6962 13.0651 10.68C11.2826 10.6087 10.4926 10.6425 10.2138 10.5925C10.2138 10.5925 9.71756 10.575 9.66881 9.70748C9.61756 8.79623 10.3276 8.80498 10.5051 8.77123C10.6826 8.73748 12.4388 8.48123 12.8876 8.41123C13.4463 8.32373 13.6738 8.06998 13.6738 8.06998C13.6738 8.06998 13.5738 8.03623 13.0651 8.06248C12.6126 8.08498 11.4313 8.19498 10.5063 8.23748C10.3726 8.24373 9.80756 8.15123 9.74631 7.61123C9.71256 7.31623 9.70631 6.96373 9.82506 6.72498C9.98881 6.28623 11.3801 6.12498 12.0938 6.00498C13.3776 5.78998 13.7326 6.19123 13.7326 6.19123C13.4551 5.51498 12.6101 5.48123 11.7638 5.62123C11.6701 5.63623 10.2726 5.82123 9.97006 5.86998C9.74631 5.90623 9.66756 5.74623 9.84631 5.24248C10.3088 3.93998 10.1313 2.88623 10.1313 2.88623C10.1313 2.88623 10.0526 3.46498 9.89881 3.95373C9.74506 4.44248 9.51381 4.94498 9.22631 5.42998C8.95131 5.89123 9.06381 6.55873 9.02256 7.78998C8.98131 9.02123 8.37756 9.96498 7.43631 10.565C7.34131 10.6075 7.22631 10.7575 7.35131 10.8275C7.52381 10.8375 7.70256 10.7737 7.86131 10.7075C8.24381 10.55 8.76756 10.2962 9.13631 9.74623C9.12756 10.3762 9.35256 10.7437 9.63381 10.925C9.40756 11.1125 9.30381 11.36 9.30506 11.9475C9.30631 12.5012 9.51381 12.7675 9.72881 12.94C9.49506 13.0475 9.28256 13.245 9.20631 13.5912C9.11506 14.0012 9.10256 14.3462 9.23256 14.6212C9.23006 14.6225 9.22631 14.6237 9.22506 14.6262C8.59506 15.1275 6.79881 14.7962 6.13381 14.45C5.07256 13.8962 4.89631 13.5825 4.58131 13.3612C4.28657 13.0333 4.05516 12.6535 3.89881 12.2412C3.85881 12.585 3.88256 12.8462 3.97756 13.105C3.22756 12.9137 2.36631 13.2475 2.05506 13.3225C1.72506 13.4012 1.68506 13.5087 1.68506 13.5087C3.13756 13.4275 3.47256 13.4475 3.87756 13.5525C4.60631 13.7412 4.82381 14.57 6.50006 15.0412C7.30506 15.2675 8.66631 15.35 10.3576 15.39C11.0438 15.5325 11.8863 15.4775 11.8863 15.4775C11.8863 15.4775 10.1251 15.0462 9.81881 14.685C9.76006 14.6162 9.47381 14.1775 9.81381 13.505C9.94381 13.2487 10.2351 13.29 10.4963 13.3062C10.5888 13.3125 12.0438 13.4787 12.4288 13.5462C13.0451 13.655 13.4101 13.535 13.4101 13.535C13.4101 13.535 12.9576 13.3112 12.6088 13.2475C12.2338 13.1775 10.6376 12.8675 10.4613 12.8325Z" fill="#EDA600"/>
</svg>
