<svg width="18" height="18" viewBox="0 0 18 18" fill="none" xmlns="http://www.w3.org/2000/svg">
<path fill-rule="evenodd" clip-rule="evenodd" d="M5.7904 1.28906C5.17262 1.28906 4.56181 1.51715 4.07392 1.87414C3.59237 2.2265 3.18278 2.74023 3.01817 3.36749L1.22798 8.81264C0.975327 9.52822 1.06243 10.2606 1.47687 10.8231C1.88974 11.3834 2.56352 11.6891 3.3154 11.6891H6.3154C6.34426 11.6891 6.35773 11.7 6.36239 11.7053C6.36486 11.7081 6.3682 11.7128 6.3709 11.7221C6.37342 11.7308 6.37757 11.7512 6.37288 11.7869L6.00185 14.1614C5.78507 15.1997 6.45566 16.2667 7.43191 16.5991C7.91211 16.7753 8.41558 16.7343 8.83046 16.5917C9.24371 16.4496 9.64512 16.1807 9.89702 15.8036L9.89784 15.8024L11.9786 12.7065C12.0663 12.8918 12.1861 13.0624 12.347 13.2108C12.7882 13.6181 13.3869 13.7152 13.9655 13.7152H14.7155C15.2942 13.7152 15.8929 13.6181 16.3341 13.2108C16.789 12.7909 16.9155 12.1941 16.9155 11.5902V4.24023C16.9155 3.63636 16.789 3.03957 16.3341 2.61962C15.8929 2.21237 15.2942 2.11523 14.7155 2.11523H13.9655C13.3869 2.11523 12.7882 2.21237 12.347 2.61962C12.2048 2.75081 12.0948 2.89924 12.0106 3.05976L10.5232 1.90821C10.2524 1.65608 9.89328 1.51187 9.60146 1.4285C9.27893 1.33635 8.93301 1.28906 8.6404 1.28906H5.7904ZM11.7655 4.64054L9.63688 2.99257L9.6018 2.96541L9.57043 2.93404C9.54489 2.9085 9.43646 2.83738 9.21685 2.77463C9.01437 2.71678 8.7978 2.68906 8.6404 2.68906H5.7904C5.50818 2.68906 5.1815 2.79848 4.90064 3.00398C4.62028 3.20912 4.43465 3.47327 4.3695 3.73384L4.36333 3.75852L4.35539 3.78269L2.55539 9.25769L2.55261 9.26613L2.54962 9.2745C2.43121 9.60606 2.49512 9.84488 2.60394 9.99257C2.71606 10.1447 2.94229 10.2891 3.3154 10.2891H6.3154C7.17919 10.2891 7.89532 11.0294 7.75837 11.9881L7.75707 11.9971L7.75701 11.9971L7.38201 14.3971L7.37857 14.4192L7.37374 14.4409C7.30711 14.7407 7.5272 15.1551 7.88676 15.275L7.89906 15.2791L7.91119 15.2836C8.0273 15.3272 8.19377 15.3301 8.37535 15.2677C8.56164 15.2037 8.68481 15.098 8.73297 15.0258L8.73444 15.0236L11.7655 10.5139V4.64054ZM13.1655 4.24023C13.1655 3.79411 13.264 3.67839 13.2966 3.64835C13.3429 3.6056 13.4942 3.51523 13.9655 3.51523H14.7155C15.1869 3.51523 15.3382 3.6056 15.3845 3.64835C15.417 3.67839 15.5155 3.79411 15.5155 4.24023V11.5902C15.5155 12.0364 15.417 12.1521 15.3845 12.1821C15.3382 12.2249 15.1869 12.3152 14.7155 12.3152H13.9655C13.4942 12.3152 13.3429 12.2249 13.2966 12.1821C13.264 12.1521 13.1655 12.0364 13.1655 11.5902V4.24023Z" fill="#64748B"/>
</svg>
