<svg width="12" height="14" viewBox="0 0 12 14" fill="none" xmlns="http://www.w3.org/2000/svg">
<path d="M5.3 12.5C5.3 12.8866 5.6134 13.2 6 13.2C6.3866 13.2 6.7 12.8866 6.7 12.5L5.3 12.5ZM6.49498 1.00502C6.22161 0.731658 5.77839 0.731658 5.50503 1.00502L1.05025 5.4598C0.776886 5.73316 0.776886 6.17638 1.05025 6.44975C1.32362 6.72311 1.76684 6.72311 2.0402 6.44975L6 2.48995L9.9598 6.44975C10.2332 6.72311 10.6764 6.72311 10.9497 6.44975C11.2231 6.17638 11.2231 5.73317 10.9497 5.4598L6.49498 1.00502ZM6.7 12.5L6.7 1.5L5.3 1.5L5.3 12.5L6.7 12.5Z" fill="black"/>
</svg>
