<svg width="16" height="16" viewBox="0 0 16 16" fill="none" xmlns="http://www.w3.org/2000/svg">
<path d="M10.3998 4.79844C10.3998 5.43496 10.1469 6.04541 9.69686 6.49549C9.24677 6.94558 8.63632 7.19844 7.9998 7.19844C7.36328 7.19844 6.75284 6.94558 6.30275 6.49549C5.85266 6.04541 5.5998 5.43496 5.5998 4.79844C5.5998 4.16192 5.85266 3.55147 6.30275 3.10138C6.75284 2.65129 7.36328 2.39844 7.9998 2.39844C8.63632 2.39844 9.24677 2.65129 9.69686 3.10138C10.1469 3.55147 10.3998 4.16192 10.3998 4.79844V4.79844ZM14.3998 6.39844C14.3998 6.82278 14.2312 7.22975 13.9312 7.52981C13.6311 7.82987 13.2242 7.99844 12.7998 7.99844C12.3755 7.99844 11.9685 7.82987 11.6684 7.52981C11.3684 7.22975 11.1998 6.82278 11.1998 6.39844C11.1998 5.97409 11.3684 5.56712 11.6684 5.26707C11.9685 4.96701 12.3755 4.79844 12.7998 4.79844C13.2242 4.79844 13.6311 4.96701 13.9312 5.26707C14.2312 5.56712 14.3998 5.97409 14.3998 6.39844V6.39844ZM11.1998 11.9984C11.1998 11.1497 10.8627 10.3358 10.2625 9.7357C9.66243 9.13558 8.8485 8.79844 7.9998 8.79844C7.15111 8.79844 6.33718 9.13558 5.73706 9.7357C5.13695 10.3358 4.7998 11.1497 4.7998 11.9984V14.3984H11.1998V11.9984ZM4.7998 6.39844C4.7998 6.82278 4.63123 7.22975 4.33118 7.52981C4.03112 7.82987 3.62415 7.99844 3.1998 7.99844C2.77546 7.99844 2.36849 7.82987 2.06843 7.52981C1.76838 7.22975 1.5998 6.82278 1.5998 6.39844C1.5998 5.97409 1.76838 5.56712 2.06843 5.26707C2.36849 4.96701 2.77546 4.79844 3.1998 4.79844C3.62415 4.79844 4.03112 4.96701 4.33118 5.26707C4.63123 5.56712 4.7998 5.97409 4.7998 6.39844V6.39844ZM12.7998 14.3984V11.9984C12.801 11.1851 12.5944 10.3849 12.1998 9.67364C12.5545 9.58287 12.9252 9.57431 13.2837 9.64861C13.6422 9.72291 13.979 9.87811 14.2684 10.1024C14.5577 10.3266 14.7921 10.614 14.9535 10.9426C15.1149 11.2712 15.1992 11.6323 15.1998 11.9984V14.3984H12.7998ZM3.7998 9.67364C3.4052 10.3849 3.19868 11.1851 3.1998 11.9984V14.3984H0.799805V11.9984C0.799651 11.6321 0.883375 11.2705 1.04456 10.9415C1.20575 10.6125 1.44012 10.3248 1.72971 10.1004C2.0193 9.87596 2.35643 9.72082 2.71525 9.64685C3.07408 9.57288 3.44507 9.58205 3.7998 9.67364V9.67364Z" fill="#64748B"/>
</svg>
