<svg width="14" height="10" viewBox="0 0 14 10" fill="none" xmlns="http://www.w3.org/2000/svg">
<path d="M8.74866 4.80469C8.74866 5.26882 8.56428 5.71394 8.23609 6.04212C7.90791 6.37031 7.46279 6.55469 6.99866 6.55469C6.53453 6.55469 6.08941 6.37031 5.76122 6.04212C5.43303 5.71394 5.24866 5.26882 5.24866 4.80469C5.24866 4.34056 5.43303 3.89544 5.76122 3.56725C6.08941 3.23906 6.53453 3.05469 6.99866 3.05469C7.46279 3.05469 7.90791 3.23906 8.23609 3.56725C8.56428 3.89544 8.74866 4.34056 8.74866 4.80469Z" stroke="#64748B" stroke-width="1.3" stroke-linecap="round" stroke-linejoin="round"/>
<path d="M1.16663 4.80208C2.09996 2.41217 4.27929 0.71875 6.99996 0.71875C9.72063 0.71875 11.9 2.41217 12.8333 4.80208C11.9 7.192 9.72063 8.88542 6.99996 8.88542C4.27929 8.88542 2.09996 7.192 1.16663 4.80208Z" stroke="#64748B" stroke-width="1.3" stroke-linecap="round" stroke-linejoin="round"/>
</svg>
