<svg width="17" height="17" viewBox="0 0 17 17" fill="none" xmlns="http://www.w3.org/2000/svg">
<path d="M8.80461 11.375C8.99349 11.375 9.15194 11.311 9.27994 11.183C9.40794 11.055 9.47172 10.8968 9.47127 10.7083V8.025C9.47127 7.83611 9.40727 7.68056 9.27927 7.55833C9.15127 7.43611 8.99305 7.375 8.80461 7.375C8.61572 7.375 8.45727 7.439 8.32927 7.567C8.20127 7.695 8.1375 7.85322 8.13794 8.04167V10.725C8.13794 10.9139 8.20194 11.0694 8.32994 11.1917C8.45794 11.3139 8.61616 11.375 8.80461 11.375ZM8.80461 6.04167C8.99349 6.04167 9.15194 5.97767 9.27994 5.84967C9.40794 5.72167 9.47172 5.56344 9.47127 5.375C9.47127 5.18611 9.40727 5.02767 9.27927 4.89967C9.15127 4.77167 8.99305 4.70789 8.80461 4.70833C8.61572 4.70833 8.45727 4.77233 8.32927 4.90033C8.20127 5.02833 8.1375 5.18656 8.13794 5.375C8.13794 5.56389 8.20194 5.72233 8.32994 5.85033C8.45794 5.97833 8.61616 6.04211 8.80461 6.04167ZM8.80461 14.7083C7.88238 14.7083 7.01572 14.5332 6.20461 14.183C5.3935 13.8328 4.68794 13.3579 4.08794 12.7583C3.48794 12.1583 3.01305 11.4528 2.66327 10.6417C2.3135 9.83056 2.13838 8.96389 2.13794 8.04167C2.13794 7.11944 2.31305 6.25278 2.66327 5.44167C3.0135 4.63056 3.48838 3.925 4.08794 3.325C4.68794 2.725 5.3935 2.25011 6.20461 1.90033C7.01572 1.55056 7.88238 1.37544 8.80461 1.375C9.72683 1.375 10.5935 1.55011 11.4046 1.90033C12.2157 2.25056 12.9213 2.72544 13.5213 3.325C14.1213 3.925 14.5964 4.63056 14.9466 5.44167C15.2968 6.25278 15.4717 7.11944 15.4713 8.04167C15.4713 8.96389 15.2962 9.83056 14.9459 10.6417C14.5957 11.4528 14.1208 12.1583 13.5213 12.7583C12.9213 13.3583 12.2157 13.8334 11.4046 14.1837C10.5935 14.5339 9.72683 14.7088 8.80461 14.7083Z" fill="#DD2C5A"/>
</svg>
