<svg width="104" height="24" viewBox="0 0 104 24" fill="none" xmlns="http://www.w3.org/2000/svg">
<path d="M0 0H80C93.2548 0 104 10.7452 104 24H24C10.7452 24 0 13.2548 0 0Z" fill="url(#paint0_linear_2368_28520)"/>
<path d="M21.0806 15.7656L18.8618 7.76562H20.1313L21.6899 13.9609H21.7642L23.3853 7.76562H24.6431L26.2642 13.9648H26.3384L27.8931 7.76562H29.1665L26.9438 15.7656H25.729L24.0454 9.77344H23.9829L22.2993 15.7656H21.0806ZM31.3413 12.2031V15.7656H30.1733V7.76562H31.3257V10.7422H31.3999C31.5405 10.4193 31.7554 10.1628 32.0444 9.97266C32.3335 9.78255 32.7111 9.6875 33.1772 9.6875C33.5887 9.6875 33.9481 9.77214 34.2554 9.94141C34.5653 10.1107 34.8049 10.3633 34.9741 10.6992C35.146 11.0326 35.2319 11.4492 35.2319 11.9492V15.7656H34.064V12.0898C34.064 11.6497 33.9507 11.3086 33.7241 11.0664C33.4976 10.8216 33.1825 10.6992 32.7788 10.6992C32.5028 10.6992 32.2554 10.7578 32.0366 10.875C31.8205 10.9922 31.6499 11.1641 31.5249 11.3906C31.4025 11.6146 31.3413 11.8854 31.3413 12.2031ZM38.5366 15.8984C38.1564 15.8984 37.8127 15.8281 37.5054 15.6875C37.1981 15.5443 36.9546 15.3372 36.7749 15.0664C36.5978 14.7956 36.5093 14.4635 36.5093 14.0703C36.5093 13.7318 36.5744 13.4531 36.7046 13.2344C36.8348 13.0156 37.0106 12.8424 37.2319 12.7148C37.4533 12.5872 37.7007 12.4909 37.9741 12.4258C38.2476 12.3607 38.5262 12.3112 38.8101 12.2773C39.1694 12.2357 39.4611 12.2018 39.6851 12.1758C39.909 12.1471 40.0718 12.1016 40.1733 12.0391C40.2749 11.9766 40.3257 11.875 40.3257 11.7344V11.707C40.3257 11.3659 40.2293 11.1016 40.0366 10.9141C39.8465 10.7266 39.5627 10.6328 39.1851 10.6328C38.7918 10.6328 38.4819 10.7201 38.2554 10.8945C38.0314 11.0664 37.8765 11.2578 37.7905 11.4688L36.6929 11.2187C36.8231 10.8542 37.0132 10.5599 37.2632 10.3359C37.5158 10.1094 37.8062 9.94531 38.1343 9.84375C38.4624 9.73958 38.8075 9.6875 39.1694 9.6875C39.409 9.6875 39.6629 9.71615 39.9312 9.77344C40.202 9.82812 40.4546 9.92969 40.689 10.0781C40.9259 10.2266 41.12 10.4388 41.271 10.7148C41.422 10.9883 41.4976 11.3438 41.4976 11.7813V15.7656H40.3569V14.9453H40.3101C40.2345 15.0964 40.1213 15.2448 39.9702 15.3906C39.8192 15.5365 39.6252 15.6576 39.3882 15.7539C39.1512 15.8503 38.8674 15.8984 38.5366 15.8984ZM38.7905 14.9609C39.1134 14.9609 39.3895 14.8971 39.6187 14.7695C39.8504 14.6419 40.0262 14.4753 40.146 14.2695C40.2684 14.0612 40.3296 13.8385 40.3296 13.6016V12.8281C40.2879 12.8698 40.2072 12.9089 40.0874 12.9453C39.9702 12.9792 39.8361 13.0091 39.6851 13.0352C39.534 13.0586 39.3869 13.0807 39.2437 13.1016C39.1004 13.1198 38.9806 13.1354 38.8843 13.1484C38.6577 13.1771 38.4507 13.2253 38.2632 13.293C38.0783 13.3607 37.9299 13.4583 37.8179 13.5859C37.7085 13.7109 37.6538 13.8776 37.6538 14.0859C37.6538 14.375 37.7606 14.5937 37.9741 14.7422C38.1877 14.888 38.4598 14.9609 38.7905 14.9609ZM45.854 9.76562V10.7031H42.5767V9.76562H45.854ZM43.4556 8.32812H44.6235V14.0039C44.6235 14.2305 44.6574 14.401 44.7251 14.5156C44.7928 14.6276 44.88 14.7044 44.9868 14.7461C45.0962 14.7852 45.2147 14.8047 45.3423 14.8047C45.436 14.8047 45.5181 14.7982 45.5884 14.7852C45.6587 14.7721 45.7134 14.7617 45.7524 14.7539L45.9634 15.7187C45.8957 15.7448 45.7993 15.7708 45.6743 15.7969C45.5493 15.8255 45.3931 15.8411 45.2056 15.8438C44.8983 15.849 44.6118 15.7943 44.3462 15.6797C44.0806 15.5651 43.8657 15.388 43.7017 15.1484C43.5376 14.9089 43.4556 14.6081 43.4556 14.2461V8.32812ZM48.4507 7.76562V8.51562C48.4507 8.73698 48.409 8.97005 48.3257 9.21484C48.245 9.45703 48.1304 9.6901 47.9819 9.91406C47.8335 10.138 47.659 10.3307 47.4585 10.4922L46.8804 10.0781C47.034 9.85417 47.1668 9.61589 47.2788 9.36328C47.3934 9.11068 47.4507 8.83203 47.4507 8.52734V7.76562H48.4507ZM53.3179 11.2305L52.2593 11.418C52.215 11.2826 52.1447 11.1536 52.0483 11.0312C51.9546 10.9089 51.827 10.8086 51.6655 10.7305C51.5041 10.6523 51.3022 10.6133 51.0601 10.6133C50.7293 10.6133 50.4533 10.6875 50.2319 10.8359C50.0106 10.9818 49.8999 11.1706 49.8999 11.4023C49.8999 11.6029 49.9741 11.7643 50.1226 11.8867C50.271 12.0091 50.5106 12.1094 50.8413 12.1875L51.7944 12.4062C52.3465 12.5339 52.758 12.7305 53.0288 12.9961C53.2996 13.2617 53.4351 13.6068 53.4351 14.0313C53.4351 14.3906 53.3309 14.7109 53.1226 14.9922C52.9168 15.2708 52.6291 15.4896 52.2593 15.6484C51.8921 15.8073 51.4663 15.8867 50.9819 15.8867C50.3101 15.8867 49.7619 15.7435 49.3374 15.457C48.9129 15.168 48.6525 14.7578 48.5562 14.2266L49.6851 14.0547C49.7554 14.349 49.8999 14.5716 50.1187 14.7227C50.3374 14.8711 50.6226 14.9453 50.9741 14.9453C51.3569 14.9453 51.6629 14.8659 51.8921 14.707C52.1213 14.5456 52.2358 14.349 52.2358 14.1172C52.2358 13.9297 52.1655 13.7721 52.0249 13.6445C51.8869 13.5169 51.6746 13.4206 51.3882 13.3555L50.3726 13.1328C49.8127 13.0052 49.3986 12.8021 49.1304 12.5234C48.8647 12.2448 48.7319 11.8919 48.7319 11.4648C48.7319 11.1107 48.8309 10.8008 49.0288 10.5352C49.2267 10.2695 49.5002 10.0625 49.8491 9.91406C50.1981 9.76302 50.5978 9.6875 51.0483 9.6875C51.6968 9.6875 52.2072 9.82812 52.5796 10.1094C52.952 10.388 53.1981 10.7617 53.3179 11.2305ZM64.1812 7.76562V15.7656H63.0718L59.0054 9.89844H58.9312V15.7656H57.7241V7.76562H58.8413L62.9116 13.6406H62.9858V7.76562H64.1812ZM68.4341 15.8867C67.8429 15.8867 67.3338 15.7604 66.9067 15.5078C66.4823 15.2526 66.1541 14.8945 65.9224 14.4336C65.6932 13.9701 65.5786 13.4271 65.5786 12.8047C65.5786 12.1901 65.6932 11.6484 65.9224 11.1797C66.1541 10.7109 66.4771 10.3451 66.8911 10.082C67.3078 9.81901 67.7948 9.6875 68.3521 9.6875C68.6906 9.6875 69.0187 9.74349 69.3364 9.85547C69.6541 9.96745 69.9393 10.1432 70.1919 10.3828C70.4445 10.6224 70.6437 10.9336 70.7896 11.3164C70.9354 11.6966 71.0083 12.1589 71.0083 12.7031V13.1172H66.2388V12.2422H69.8638C69.8638 11.9349 69.8013 11.6628 69.6763 11.4258C69.5513 11.1862 69.3755 10.9974 69.1489 10.8594C68.925 10.7214 68.6619 10.6523 68.3599 10.6523C68.0317 10.6523 67.7453 10.7331 67.5005 10.8945C67.2583 11.0534 67.0708 11.2617 66.938 11.5195C66.8078 11.7747 66.7427 12.0521 66.7427 12.3516V13.0352C66.7427 13.4362 66.813 13.7773 66.9536 14.0586C67.0968 14.3398 67.2961 14.5547 67.5513 14.7031C67.8065 14.849 68.1047 14.9219 68.4458 14.9219C68.6672 14.9219 68.869 14.8906 69.0513 14.8281C69.2336 14.763 69.3911 14.6667 69.5239 14.5391C69.6567 14.4115 69.7583 14.2539 69.8286 14.0664L70.9341 14.2656C70.8455 14.5911 70.6867 14.8763 70.4575 15.1211C70.231 15.3633 69.9458 15.5521 69.6021 15.6875C69.2609 15.8203 68.8716 15.8867 68.4341 15.8867ZM73.5942 15.7656L71.8286 9.76562H73.0356L74.2114 14.1719H74.27L75.4497 9.76562H76.6567L77.8286 14.1523H77.8872L79.0552 9.76562H80.2622L78.5005 15.7656H77.3091L76.0903 11.4336H76.0005L74.7817 15.7656H73.5942ZM82.6479 13.4648V13.3906C82.6532 12.9062 82.7013 12.5208 82.7925 12.2344C82.8862 11.9479 83.019 11.7161 83.1909 11.5391C83.3628 11.362 83.5698 11.2005 83.812 11.0547C83.9683 10.9557 84.1089 10.8451 84.2339 10.7227C84.3589 10.6003 84.4578 10.4596 84.5308 10.3008C84.6037 10.1419 84.6401 9.96615 84.6401 9.77344C84.6401 9.54167 84.5854 9.34115 84.4761 9.17188C84.3667 9.0026 84.2209 8.8724 84.0386 8.78125C83.8589 8.6875 83.6584 8.64062 83.437 8.64062C83.2365 8.64062 83.0451 8.68229 82.8628 8.76563C82.6805 8.84896 82.5295 8.97917 82.4097 9.15625C82.2899 9.33073 82.2209 9.55599 82.2026 9.83203H81.0151C81.0334 9.36328 81.1519 8.96745 81.3706 8.64453C81.5894 8.31901 81.8784 8.07292 82.2378 7.90625C82.5998 7.73958 82.9995 7.65625 83.437 7.65625C83.9162 7.65625 84.3354 7.74609 84.6948 7.92578C85.0542 8.10286 85.3328 8.35156 85.5308 8.67187C85.7313 8.98958 85.8315 9.36068 85.8315 9.78516C85.8315 10.0768 85.786 10.3398 85.6948 10.5742C85.6037 10.806 85.4735 11.013 85.3042 11.1953C85.1375 11.3776 84.937 11.5391 84.7026 11.6797C84.4813 11.8177 84.3016 11.9609 84.1636 12.1094C84.0282 12.2578 83.9292 12.4336 83.8667 12.6367C83.8042 12.8398 83.7703 13.0911 83.7651 13.3906V13.4648H82.6479ZM83.2378 15.8398C83.0243 15.8398 82.8407 15.7643 82.687 15.6133C82.5334 15.4596 82.4565 15.2747 82.4565 15.0586C82.4565 14.8451 82.5334 14.6628 82.687 14.5117C82.8407 14.3581 83.0243 14.2812 83.2378 14.2812C83.4487 14.2812 83.631 14.3581 83.7847 14.5117C83.9409 14.6628 84.019 14.8451 84.019 15.0586C84.019 15.2018 83.9826 15.3333 83.9097 15.4531C83.8394 15.5703 83.7456 15.6641 83.6284 15.7344C83.5112 15.8047 83.381 15.8398 83.2378 15.8398Z" fill="white"/>
<defs>
<linearGradient id="paint0_linear_2368_28520" x1="-5.73067" y1="11.9999" x2="29.5532" y2="-39.2521" gradientUnits="userSpaceOnUse">
<stop stop-color="#1A61FF"/>
<stop offset="1" stop-color="#2CC3A8"/>
</linearGradient>
</defs>
</svg>
