<svg width="223" height="95" viewBox="0 0 223 95" fill="none" xmlns="http://www.w3.org/2000/svg">
<g clip-path="url(#clip0_8985_81267)">
<rect width="223" height="95" fill="white"/>
<g opacity="0.5" filter="url(#filter0_f_8985_81267)">
<ellipse cx="117" cy="19.1889" rx="86" ry="34.8529" fill="#93C5FD"/>
</g>
<g opacity="0.5" filter="url(#filter1_f_8985_81267)">
<ellipse cx="72.1907" cy="34.7666" rx="72.1907" ry="34.7666" transform="matrix(0.547533 0.836784 -0.891042 0.453921 176.957 -87)" fill="#99F6E4"/>
</g>
<path opacity="0.0526316" d="M-69.6326 67.2631C-59.7565 80.4024 -28.1914 102.39 19.0602 85.2231C78.1247 63.7651 100.968 6.88579 153.684 -22.6069C192.592 -44.3747 297.141 -77.0494 357.257 -40.9434" stroke="white" stroke-width="3"/>
<path opacity="0.105263" d="M-79.3736 39.72C-70.925 53.8197 -41.8311 78.9858 6.95602 66.8526C67.9399 51.6861 96.6038 -2.49389 152.114 -26.3147C193.084 -43.8962 300.475 -65.4637 356.489 -23.2716" stroke="white" stroke-width="3"/>
<path opacity="0.157895" d="M-86.7357 11.8029C-79.8073 26.7085 -53.5033 54.7778 -3.71519 47.8107C58.5199 39.1018 92.6902 -11.7851 150.386 -29.673C192.97 -42.8757 302.027 -53.0996 353.323 -5.28362" stroke="white" stroke-width="3"/>
<path opacity="0.210526" d="M-91.6875 -16.2342C-86.355 -0.686029 -63.1292 29.9791 -12.8856 28.2544C49.9189 26.0986 89.2212 -20.9378 148.471 -32.6969C192.201 -41.376 301.73 -40.1444 347.747 12.7716" stroke="white" stroke-width="3"/>
<path opacity="0.263158" d="M-94.2291 -44.1424C-90.5511 -28.1221 -70.6579 4.80283 -20.5092 8.3395C42.1766 12.7603 86.1802 -29.9102 146.334 -35.4116C190.733 -39.4721 299.532 -26.7983 339.766 30.6378" stroke="white" stroke-width="3"/>
<path opacity="0.315789" d="M-94.392 -71.6628C-92.4087 -55.3457 -76.0661 -20.5218 -26.5618 -11.7626C35.3185 -0.813489 83.5413 -38.6507 143.941 -37.8341C188.52 -37.2314 295.399 -13.2545 329.409 48.0726" stroke="white" stroke-width="3"/>
<path opacity="0.368421" d="M-92.2307 -98.5572C-91.9639 -82.1223 -79.3508 -45.7808 -31.0334 -31.8949C29.3635 -14.5376 81.2772 -47.1268 141.261 -40.0013C185.533 -34.7421 289.32 0.275394 316.733 64.8215" stroke="white" stroke-width="3"/>
<path opacity="0.421053" d="M-87.8179 -124.581C-89.2704 -108.208 -80.5252 -70.7475 -33.9239 -51.8871C24.3278 -28.3117 79.3635 -55.2959 138.274 -41.9394C181.754 -32.0813 281.312 13.593 301.828 80.651" stroke="white" stroke-width="3"/>
<path opacity="0.473684" d="M-81.2599 -149.507C-84.4159 -133.375 -79.6343 -95.2057 -35.2597 -71.5775C20.2085 -42.0422 77.7634 -63.1258 134.955 -43.6847C177.166 -29.3357 271.404 26.495 284.798 95.3302" stroke="white" stroke-width="3"/>
<path opacity="0.526316" d="M-72.6842 -173.115C-77.5092 -157.402 -76.7436 -118.941 -35.0819 -90.8043C16.9952 -55.6328 76.4387 -70.5848 131.284 -45.2721C171.765 -26.5894 259.651 38.7861 265.776 108.644" stroke="white" stroke-width="3"/>
<path opacity="0.578947" d="M-62.2393 -195.199C-68.6803 -180.077 -71.9391 -141.747 -33.4467 -109.409C14.6686 -68.9867 75.3494 -77.6432 127.249 -46.7363C165.554 -23.9246 246.126 50.2794 244.915 120.395" stroke="white" stroke-width="3"/>
<path opacity="0.631579" d="M-50.0895 -215.577C-58.076 -201.211 -65.3235 -163.431 -30.4222 -127.247C13.2043 -82.0169 74.4575 -84.2831 122.842 -48.1205C158.553 -21.4298 230.927 60.7897 222.394 130.395" stroke="white" stroke-width="3"/>
<path opacity="0.684211" d="M-36.432 -234.077C-45.8763 -220.624 -57.0331 -183.81 -26.1054 -144.176C12.5543 -94.6329 73.7088 -90.484 118.048 -49.462C150.774 -19.1846 214.157 70.1496 198.395 138.481" stroke="white" stroke-width="3"/>
<path opacity="0.736842" d="M-21.4621 -250.553C-32.2609 -238.161 -47.2048 -202.714 -20.5894 -160.064C12.6799 -106.751 73.0657 -96.233 112.874 -50.8009C142.256 -17.2686 195.953 78.2014 173.135 144.511" stroke="white" stroke-width="3"/>
<path opacity="0.789474" d="M-5.40326 -264.874C-17.4383 -253.678 -36.0055 -219.988 -13.994 -174.789C13.5204 -118.291 72.4759 -101.518 107.317 -52.1741C133.033 -15.7543 176.457 84.8057 146.833 148.367" stroke="white" stroke-width="3"/>
<path opacity="0.842105" d="M11.5143 -276.949C-1.62507 -267.073 -23.6122 -235.508 -6.44577 -188.256C15.0122 -129.192 71.8916 -106.348 101.384 -53.6322C123.152 -14.7239 155.827 89.8242 119.721 149.941" stroke="white" stroke-width="3"/>
<path opacity="0.894737" d="M29.0495 -286.69C14.9498 -278.241 -10.2163 -249.147 1.91696 -200.36C17.0835 -139.377 71.2634 -110.713 95.0842 -55.2026C112.666 -14.2321 134.233 93.1588 92.0411 149.172" stroke="white" stroke-width="3"/>
<path opacity="0.947368" d="M46.9549 -294.048C32.0493 -287.12 3.97998 -260.816 10.9471 -211.028C19.656 -148.793 70.5429 -114.622 88.4309 -56.9265C101.633 -14.3426 111.857 94.7144 64.0414 146.011" stroke="white" stroke-width="3"/>
<path d="M64.9844 -299C49.4363 -293.668 18.7712 -270.442 20.4958 -220.198C22.6517 -157.394 69.6881 -118.091 81.4472 -58.8418C90.1263 -15.1112 88.8946 94.4171 35.9786 140.434" stroke="white" stroke-width="3"/>
</g>
<defs>
<filter id="filter0_f_8985_81267" x="-29" y="-75.6641" width="292" height="189.707" filterUnits="userSpaceOnUse" color-interpolation-filters="sRGB">
<feFlood flood-opacity="0" result="BackgroundImageFix"/>
<feBlend mode="normal" in="SourceGraphic" in2="BackgroundImageFix" result="shape"/>
<feGaussianBlur stdDeviation="30" result="effect1_foregroundBlur_8985_81267"/>
</filter>
<filter id="filter1_f_8985_81267" x="75.2832" y="-133.262" width="220.444" height="244.902" filterUnits="userSpaceOnUse" color-interpolation-filters="sRGB">
<feFlood flood-opacity="0" result="BackgroundImageFix"/>
<feBlend mode="normal" in="SourceGraphic" in2="BackgroundImageFix" result="shape"/>
<feGaussianBlur stdDeviation="30" result="effect1_foregroundBlur_8985_81267"/>
</filter>
<clipPath id="clip0_8985_81267">
<rect width="223" height="95" fill="white"/>
</clipPath>
</defs>
</svg>
