<svg width="117" height="92" viewBox="0 0 117 92" fill="none" xmlns="http://www.w3.org/2000/svg">
<path d="M64.2168 1.01036C64.6809 0.742414 65.2527 0.742414 65.7168 1.01036L91.3874 15.8313C91.8515 16.0992 92.1374 16.5944 92.1374 17.1303V46.7721C92.1374 47.308 91.8515 47.8032 91.3874 48.0712L65.7168 62.8921C65.2527 63.16 64.6809 63.16 64.2168 62.8921L38.5463 48.0712C38.0822 47.8032 37.7963 47.308 37.7963 46.7721V17.1303C37.7963 16.5944 38.0822 16.0992 38.5463 15.8313L64.2168 1.01036Z" fill="url(#paint0_linear_512_49981)" fill-opacity="0.2" stroke="#94E6CF"/>
<path d="M98.2989 57.4557C98.763 57.1877 99.3348 57.1877 99.7989 57.4557L125.469 72.2766C125.934 72.5445 126.219 73.0397 126.219 73.5756V103.217C126.219 103.753 125.934 104.249 125.469 104.516L99.7989 119.337C99.3348 119.605 98.763 119.605 98.2989 119.337L72.6283 104.516C72.1642 104.249 71.8783 103.753 71.8783 103.217V73.5756C71.8783 73.0397 72.1642 72.5445 72.6283 72.2766L98.2989 57.4557Z" stroke="#94E6CF"/>
<path d="M31.2012 57.4557C31.6653 57.1877 32.2371 57.1877 32.7012 57.4557L58.3718 72.2766C58.8359 72.5445 59.1218 73.0397 59.1218 73.5756V103.217C59.1218 103.753 58.8359 104.249 58.3718 104.516L32.7012 119.337C32.2371 119.605 31.6653 119.605 31.2012 119.337L5.53065 104.516C5.06655 104.249 4.78065 103.753 4.78065 103.217V73.5756C4.78065 73.0397 5.06655 72.5445 5.53065 72.2766L31.2012 57.4557Z" stroke="#81B8FF"/>
<defs>
<linearGradient id="paint0_linear_512_49981" x1="37.2758" y1="12.7805" x2="89.9953" y2="51.122" gradientUnits="userSpaceOnUse">
<stop stop-color="#9DDBFF"/>
<stop offset="1" stop-color="#5BFB7E"/>
</linearGradient>
</defs>
</svg>
