<svg width="126" height="137" viewBox="0 0 126 137" fill="none" xmlns="http://www.w3.org/2000/svg">
<g clip-path="url(#clip0_9082_118386)">
<rect width="126" height="137" fill="white"/>
<g opacity="0.5" filter="url(#filter0_f_9082_118386)">
<ellipse cx="85.5935" cy="39.706" rx="51.5935" ry="20.9091" fill="#93C5FD"/>
</g>
<g opacity="0.5" filter="url(#filter1_f_9082_118386)">
<ellipse cx="43.309" cy="20.8573" rx="43.309" ry="20.8573" transform="matrix(0.547533 0.836784 -0.891042 0.453921 121.562 -24)" fill="#99F6E4"/>
</g>
<path opacity="0.0526316" d="M72.9718 61.5555C76.2225 65.8803 86.612 73.1172 102.165 67.467C121.605 60.4042 129.124 41.6826 146.476 31.9752C159.282 24.8104 193.694 14.0556 213.481 25.9398" stroke="white"/>
<path opacity="0.105263" d="M69.7671 52.4863C72.5479 57.1272 82.1241 65.4105 98.1822 61.4169C118.255 56.4249 127.689 38.5918 145.96 30.7513C159.446 24.9644 194.793 17.8655 213.229 31.7529" stroke="white"/>
<path opacity="0.157895" d="M67.342 43.2969C69.6224 48.2031 78.2803 57.442 94.6678 55.1488C115.152 52.2823 126.399 35.5331 145.39 29.6453C159.406 25.2997 195.302 21.9346 212.186 37.673" stroke="white"/>
<path opacity="0.210526" d="M65.7109 34.0682C67.4661 39.1858 75.1108 49.2791 91.6483 48.7114C112.32 48.0018 125.256 32.52 144.758 28.6495C159.152 25.7928 195.203 26.1982 210.349 43.6153" stroke="white"/>
<path opacity="0.263158" d="M64.8729 24.8868C66.0835 30.1598 72.6313 40.9969 89.1375 42.161C109.77 43.6161 124.254 29.5713 144.053 27.7605C158.667 26.424 194.478 30.5955 207.721 49.5004" stroke="white"/>
<path opacity="0.315789" d="M64.8188 15.8262C65.4716 21.1968 70.8507 32.659 87.1448 35.5421C107.512 39.1459 123.385 26.692 143.265 26.9607C157.938 27.1591 193.117 35.051 204.311 55.2366" stroke="white"/>
<path opacity="0.368421" d="M65.5321 6.97348C65.6199 12.383 69.7715 24.3446 85.675 28.9151C105.554 34.6282 122.642 23.9016 142.385 26.2469C156.957 27.978 191.118 39.5038 200.141 60.7489" stroke="white"/>
<path opacity="0.421053" d="M66.9848 -1.59356C66.5067 3.79549 69.3852 16.1255 84.7238 22.3334C103.897 30.0931 122.012 21.2114 141.402 25.6076C155.713 28.8524 188.482 43.8859 195.235 65.9577" stroke="white"/>
<path opacity="0.473684" d="M69.1417 -9.79506C68.1029 -4.4855 69.6767 8.07789 84.2825 15.855C102.54 25.5764 121.484 18.6368 140.308 25.0358C154.201 29.7587 185.22 48.1352 189.628 70.792" stroke="white"/>
<path opacity="0.526316" d="M71.9643 -17.5644C70.3762 -12.3925 70.6282 0.266536 84.341 9.52777C101.482 21.1043 121.048 16.1829 139.1 24.5145C152.424 30.6638 181.351 52.1819 183.367 75.1754" stroke="white"/>
<path opacity="0.578947" d="M75.4035 -24.8366C73.2834 -19.8591 72.2108 -7.24299 84.8804 3.40088C100.717 16.7057 120.69 13.8565 137.773 24.0294C150.381 31.5377 176.9 55.9617 176.502 79.04" stroke="white"/>
<path opacity="0.631579" d="M79.403 -31.5402C76.7743 -26.8115 74.3888 -14.3766 85.8764 -2.46675C100.236 12.4206 120.397 11.6747 136.323 23.5775C148.077 32.3626 171.898 59.4248 169.09 82.3351" stroke="white"/>
<path opacity="0.684211" d="M83.8965 -37.6284C80.7879 -33.2004 77.1157 -21.083 87.2954 -8.03758C100.02 8.26922 120.149 9.63479 134.743 23.137C145.514 33.1027 166.377 62.5067 161.189 84.9978" stroke="white"/>
<path opacity="0.736842" d="M88.8224 -43.0519C85.268 -38.973 80.3493 -27.3059 89.1097 -13.2679C100.06 4.2797 119.936 7.74182 133.039 22.6956C142.709 33.7326 160.384 65.1562 152.873 86.9819" stroke="white"/>
<path opacity="0.789474" d="M94.1131 -47.77C90.1518 -44.085 84.0405 -32.996 91.2855 -18.1191C100.342 0.476954 119.747 5.99769 131.215 22.2392C139.679 34.2266 153.972 67.3255 144.221 88.2465" stroke="white"/>
<path opacity="0.842105" d="M99.6828 -51.743C95.358 -48.4924 88.1211 -38.1028 93.7713 -22.5502C100.834 -3.10935 119.556 4.40952 129.263 21.7607C136.428 34.5672 147.183 68.9788 135.298 88.7661" stroke="white"/>
<path opacity="0.894737" d="M105.451 -54.9477C100.81 -52.1669 92.527 -42.5908 96.5206 -26.5327C101.513 -6.46009 119.346 2.97453 127.186 21.2454C132.973 34.7307 140.072 70.0779 126.185 88.5145" stroke="white"/>
<path opacity="0.947368" d="M111.344 -57.369C106.438 -55.0885 97.1987 -46.4307 99.4918 -30.0431C102.358 -9.55866 119.108 1.68834 124.995 20.6787C129.341 34.695 132.706 70.5906 116.968 87.4746" stroke="white"/>
<path d="M117.279 -59C112.162 -57.2448 102.069 -49.6002 102.636 -33.0627C103.346 -12.3908 118.828 0.545335 122.698 20.0471C125.555 34.4408 125.149 70.4916 107.732 85.638" stroke="white"/>
</g>
<defs>
<filter id="filter0_f_9082_118386" x="-26" y="-41.2031" width="223.187" height="161.816" filterUnits="userSpaceOnUse" color-interpolation-filters="sRGB">
<feFlood flood-opacity="0" result="BackgroundImageFix"/>
<feBlend mode="normal" in="SourceGraphic" in2="BackgroundImageFix" result="shape"/>
<feGaussianBlur stdDeviation="30" result="effect1_foregroundBlur_9082_118386"/>
</filter>
<filter id="filter1_f_9082_118386" x="36.5615" y="-75.7578" width="180.259" height="194.93" filterUnits="userSpaceOnUse" color-interpolation-filters="sRGB">
<feFlood flood-opacity="0" result="BackgroundImageFix"/>
<feBlend mode="normal" in="SourceGraphic" in2="BackgroundImageFix" result="shape"/>
<feGaussianBlur stdDeviation="30" result="effect1_foregroundBlur_9082_118386"/>
</filter>
<clipPath id="clip0_9082_118386">
<rect width="126" height="137" fill="white"/>
</clipPath>
</defs>
</svg>
