<svg width="22" height="24" viewBox="0 0 22 24" fill="none" xmlns="http://www.w3.org/2000/svg">
<path d="M21.3745 17.3958V6.60441C21.3745 6.23688 21.1784 5.89727 20.86 5.71351L11.5143 0.317802C11.3579 0.227561 11.1806 0.180054 11 0.180054C10.8195 0.180054 10.6421 0.227561 10.4858 0.317802L1.1401 5.71321C0.983662 5.80346 0.853749 5.93331 0.763423 6.0897C0.673098 6.2461 0.625546 6.42352 0.625549 6.60412V17.3958C0.625549 17.7634 0.821666 18.103 1.1401 18.2867L10.4858 23.6821C10.6421 23.7724 10.8195 23.8199 11 23.8199C11.1806 23.8199 11.3579 23.7724 11.5143 23.6821L20.86 18.2867C21.0164 18.1965 21.1463 18.0666 21.2366 17.9102C21.327 17.7538 21.3745 17.5764 21.3745 17.3958Z" fill="#1D74F2"/>
<path d="M11.0002 22.1695L2.07056 16.9402V7.11354L11.0002 1.83044L11.0128 1.8375L19.9298 6.90272V16.9405L19.9172 16.9479L11.0002 22.1695ZM2.12113 16.9111L11.0002 22.1104L19.8792 16.9114V6.93212L11.0002 1.88925L2.12113 7.14235V16.9111Z" fill="white"/>
<path d="M10.7969 4.73804H11.2033V22.1404H10.7969V4.73804Z" fill="white"/>
<path d="M11.0002 5.41171C11.3534 5.41171 11.6397 5.12539 11.6397 4.7722C11.6397 4.41901 11.3534 4.13269 11.0002 4.13269C10.647 4.13269 10.3607 4.41901 10.3607 4.7722C10.3607 5.12539 10.647 5.41171 11.0002 5.41171Z" fill="white"/>
<path d="M10.8057 9.49302L8.85278 8.25928V5.89294H9.25913V8.03553L11.0227 9.1496L10.8057 9.49302Z" fill="white"/>
<path d="M11.1559 17.6073L10.9389 17.2639L17.6222 13.0417V12.1184H18.0288V13.266L11.1559 17.6073Z" fill="white"/>
<path d="M17.8256 12.3281C18.1788 12.3281 18.4651 12.0418 18.4651 11.6886C18.4651 11.3354 18.1788 11.0491 17.8256 11.0491C17.4724 11.0491 17.1861 11.3354 17.1861 11.6886C17.1861 12.0418 17.4724 12.3281 17.8256 12.3281Z" fill="white"/>
<path d="M14.163 10.6621H14.5694V15.4021H14.163V10.6621ZM10.849 14.3459L5.90173 11.6265V9.45862H6.30808V11.3933L11.0534 13.9949L10.849 14.3459Z" fill="white"/>
<path d="M6.10484 9.91855C6.45803 9.91855 6.74435 9.63223 6.74435 9.27904C6.74435 8.92584 6.45803 8.63953 6.10484 8.63953C5.75165 8.63953 5.46533 8.92584 5.46533 9.27904C5.46533 9.63223 5.75165 9.91855 6.10484 9.91855Z" fill="white"/>
<path d="M9.05598 7.01437C9.40918 7.01437 9.69549 6.72805 9.69549 6.37486C9.69549 6.02167 9.40918 5.73535 9.05598 5.73535C8.70279 5.73535 8.41647 6.02167 8.41647 6.37486C8.41647 6.72805 8.70279 7.01437 9.05598 7.01437Z" fill="white"/>
<path d="M15.0771 9.14221V10.0663L10.9066 12.7008C10.9099 12.8575 10.9154 13.0149 10.921 13.1722L15.4835 10.2901V9.14251H15.0771V9.14221Z" fill="white"/>
<path d="M15.2803 9.35214C15.6334 9.35214 15.9198 9.06582 15.9198 8.71263C15.9198 8.35944 15.6334 8.07312 15.2803 8.07312C14.9271 8.07312 14.6407 8.35944 14.6407 8.71263C14.6407 9.06582 14.9271 9.35214 15.2803 9.35214Z" fill="white"/>
<path d="M11.1412 10.6627L13.0939 9.42925V7.06262H12.6878V9.2052L10.9243 10.3193L11.1412 10.6627Z" fill="white"/>
<path d="M12.8907 7.70175C13.2439 7.70175 13.5302 7.41543 13.5302 7.06224C13.5302 6.70905 13.2439 6.42273 12.8907 6.42273C12.5375 6.42273 12.2512 6.70905 12.2512 7.06224C12.2512 7.41543 12.5375 7.70175 12.8907 7.70175Z" fill="white"/>
<path d="M8.95854 11.0941C9.31173 11.0941 9.59805 10.8078 9.59805 10.4546C9.59805 10.1014 9.31173 9.81506 8.95854 9.81506C8.60535 9.81506 8.31903 10.1014 8.31903 10.4546C8.31903 10.8078 8.60535 11.0941 8.95854 11.0941Z" fill="white"/>
<path d="M8.75543 10.6085H9.16178V13.1627H8.75543V10.6085Z" fill="white"/>
<path d="M10.8899 17.6609L11.1072 17.3175L4.42331 13.673V12.7491H4.01697V13.897L10.8899 17.6609Z" fill="white"/>
<path d="M4.22011 12.9591C4.5733 12.9591 4.85962 12.6728 4.85962 12.3196C4.85962 11.9664 4.5733 11.6801 4.22011 11.6801C3.86692 11.6801 3.5806 11.9664 3.5806 12.3196C3.5806 12.6728 3.86692 12.9591 4.22011 12.9591Z" fill="white"/>
<path d="M6.64261 12.0002H7.00661V15.2848H6.64261V12.0002Z" fill="white"/>
<path d="M11.0001 22.4302C11.1971 22.4302 11.3567 22.2706 11.3567 22.0736C11.3567 21.8766 11.1971 21.7169 11.0001 21.7169C10.8031 21.7169 10.6434 21.8766 10.6434 22.0736C10.6434 22.2706 10.8031 22.4302 11.0001 22.4302Z" fill="white"/>
<path d="M2.07046 17.2972C2.26744 17.2972 2.42712 17.1375 2.42712 16.9405C2.42712 16.7435 2.26744 16.5839 2.07046 16.5839C1.87349 16.5839 1.71381 16.7435 1.71381 16.9405C1.71381 17.1375 1.87349 17.2972 2.07046 17.2972Z" fill="white"/>
<path d="M2.07046 7.56939C2.26744 7.56939 2.42712 7.40971 2.42712 7.21273C2.42712 7.01576 2.26744 6.85608 2.07046 6.85608C1.87349 6.85608 1.71381 7.01576 1.71381 7.21273C1.71381 7.40971 1.87349 7.56939 2.07046 7.56939Z" fill="white"/>
<path d="M19.9297 17.2752C20.1266 17.2752 20.2863 17.1155 20.2863 16.9185C20.2863 16.7216 20.1266 16.5619 19.9297 16.5619C19.7327 16.5619 19.573 16.7216 19.573 16.9185C19.573 17.1155 19.7327 17.2752 19.9297 17.2752Z" fill="white"/>
<path d="M19.9297 7.54742C20.1266 7.54742 20.2863 7.38774 20.2863 7.19076C20.2863 6.99379 20.1266 6.83411 19.9297 6.83411C19.7327 6.83411 19.573 6.99379 19.573 7.19076C19.573 7.38774 19.7327 7.54742 19.9297 7.54742Z" fill="white"/>
<path d="M10.9998 2.28375C11.1968 2.28375 11.3565 2.12407 11.3565 1.92709C11.3565 1.73011 11.1968 1.57043 10.9998 1.57043C10.8028 1.57043 10.6432 1.73011 10.6432 1.92709C10.6432 2.12407 10.8028 2.28375 10.9998 2.28375Z" fill="white"/>
</svg>
